<svg width="340" height="93" viewBox="0 0 340 93" fill="none" xmlns="http://www.w3.org/2000/svg">
<mask id="mask0_500_702" style="mask-type:luminance" maskUnits="userSpaceOnUse" x="0" y="41" width="37" height="33">
<path d="M0 41.958H36.7187V73.9871H0V41.958Z" fill="white"/>
</mask>
<g mask="url(#mask0_500_702)">
<path d="M36.6673 73.5897H12.3818C5.54075 73.5897 0 68.0489 0 61.2079V42.5078H36.6673V73.5897Z" fill="#FF9D32"/>
</g>
<mask id="mask1_500_702" style="mask-type:luminance" maskUnits="userSpaceOnUse" x="13" y="0" width="327" height="93">
<path d="M13.8418 0H340V92.6088H13.8418V0Z" fill="white"/>
</mask>
<g mask="url(#mask1_500_702)">
<path d="M321.518 92.5935H32.684C22.5118 92.5935 14.2432 84.3248 14.2432 74.1526V18.5239C14.2432 8.35169 22.5118 0.0830078 32.684 0.0830078H321.474C331.648 0.0830078 339.917 8.35169 339.917 18.5239V74.1102C339.959 84.3248 331.69 92.5935 321.518 92.5935Z" fill="#C07D14"/>
</g>
<path d="M32.7714 87.1398H32.6843C31.6454 87.1398 30.6065 87.0102 29.6547 86.7935L29.3956 87.962C30.4769 88.2212 31.5605 88.3507 32.6843 88.3507H32.7714V87.1398ZM39.179 87.1398H35.9752V88.3507H39.179V87.1398ZM45.5844 87.1398H42.3828V88.3507H45.5844V87.1398ZM51.992 87.1398H48.7882V88.3507H51.992V87.1398ZM58.3996 87.1398H55.1958V88.3507H58.3996V87.1398ZM64.8072 87.1398H61.6034V88.3507H64.8072V87.1398ZM71.1702 87.1398H67.9664V88.3507H71.1702V87.1398ZM77.5778 87.1398H74.374V88.3507H77.5778V87.1398ZM83.9832 87.1398H80.7793V88.3507H83.9832V87.1398ZM90.3908 87.1398H87.187V88.3507H90.3908V87.1398ZM96.7984 87.1398H93.5946V88.3507H96.7984V87.1398ZM103.204 87.1398H100.002V88.3507H103.204V87.1398ZM109.569 87.1398H106.365V88.3507H109.569V87.1398ZM115.974 87.1398H112.773V88.3507H115.974V87.1398ZM122.382 87.1398H119.178V88.3507H122.382V87.1398ZM128.79 87.1398H125.586V88.3507H128.79V87.1398ZM135.197 87.1398H131.993V88.3507H135.197V87.1398ZM141.603 87.1398H138.399V88.3507H141.603V87.1398ZM147.968 87.1398H144.764V88.3507H147.968V87.1398ZM154.373 87.1398H151.171V88.3507H154.373V87.1398ZM160.781 87.1398H157.577V88.3507H160.781V87.1398ZM167.188 87.1398H163.984V88.3507H167.188V87.1398ZM173.594 87.1398H170.392V88.3507H173.594V87.1398ZM180.001 87.1398H176.797V88.3507H180.001V87.1398ZM186.366 87.1398H183.163V88.3507H186.366V87.1398ZM192.772 87.1398H189.568V88.3507H192.772V87.1398ZM199.179 87.1398H195.976V88.3507H199.179V87.1398ZM205.587 87.1398H202.383V88.3507H205.587V87.1398ZM211.992 87.1398H208.789V88.3507H211.992V87.1398ZM218.4 87.1398H215.196V88.3507H218.4V87.1398ZM224.763 87.1398H221.561V88.3507H224.763V87.1398ZM231.171 87.1398H227.967V88.3507H231.171V87.1398ZM237.578 87.1398H234.374V88.3507H237.578V87.1398ZM243.984 87.1398H240.782V88.3507H243.984V87.1398ZM250.391 87.1398H247.187V88.3507H250.391V87.1398ZM256.799 87.1398H253.595V88.3507H256.799V87.1398ZM263.162 87.1398H259.958V88.3507H263.162V87.1398ZM269.569 87.1398H266.366V88.3507H269.569V87.1398ZM275.977 87.1398H272.773V88.3507H275.977V87.1398ZM282.382 87.1398H279.181V88.3507H282.382V87.1398ZM288.79 87.1398H285.586V88.3507H288.79V87.1398ZM295.198 87.1398H291.994V88.3507H295.198V87.1398ZM301.56 87.1398H298.357V88.3507H301.56V87.1398ZM307.968 87.1398H304.764V88.3507H307.968V87.1398ZM314.376 87.1398H311.172V88.3507H314.376V87.1398ZM320.781 87.1398H317.577V88.3507H320.781V87.1398ZM326.755 86.0585C325.846 86.4472 324.852 86.7511 323.855 86.9655L324.072 88.1363C325.198 87.9195 326.237 87.6157 327.276 87.1398L326.755 86.0585ZM331.603 82.3788C330.956 83.1563 330.218 83.8936 329.396 84.499L330.133 85.4508C330.998 84.7582 331.82 83.9785 332.513 83.1563L331.603 82.3788ZM334.244 76.9229C334.027 77.9194 333.681 78.9136 333.25 79.8229L334.331 80.3435C334.807 79.347 335.198 78.3081 335.413 77.1821L334.244 76.9229ZM334.548 70.6471V73.8487H335.759V70.6471H334.548ZM334.548 64.282V67.4858H335.759V64.282H334.548ZM334.548 57.8744V61.0782H335.759V57.8744H334.548ZM334.548 51.469V54.6728H335.759V51.469H334.548ZM334.548 45.0614V48.2652H335.759V45.0614H334.548ZM334.548 38.6537V41.8576H335.759V38.6537H334.548ZM334.548 32.2484V35.4522H335.759V32.2484H334.548ZM334.548 25.8832V29.087H335.759V25.8832H334.548ZM334.548 19.4778V22.6794H335.759V19.4778H334.548ZM333.509 13.459C333.898 14.3683 334.202 15.3647 334.374 16.4036L335.545 16.1869C335.37 15.0609 335.024 13.9795 334.591 12.9831L333.509 13.459ZM329.917 8.56835C330.694 9.21626 331.387 9.95354 331.994 10.7757L332.946 10.0407C332.296 9.13136 331.519 8.30919 330.652 7.61436L329.917 8.56835ZM324.505 5.84042C325.5 6.05714 326.454 6.44588 327.361 6.87931L327.924 5.79797C326.93 5.32209 325.891 4.93111 324.807 4.67195L324.505 5.84042ZM318.27 5.49413H321.474V4.2832H318.27V5.49413ZM311.865 5.49413H315.068V4.2832H311.865V5.49413ZM305.457 5.49413H308.661V4.2832H305.457V5.49413ZM299.049 5.49413H302.253V4.2832H299.049V5.49413ZM292.644 5.49413H295.845V4.2832H292.644V5.49413ZM286.279 5.49413H289.483V4.2832H286.279V5.49413ZM279.873 5.49413H283.075V4.2832H279.873V5.49413ZM273.466 5.49413H276.67V4.2832H273.466V5.49413ZM267.058 5.49413H270.262V4.2832H267.058V5.49413ZM260.651 5.49413H263.854V4.2832H260.651V5.49413ZM254.245 5.49413H257.449V4.2832H254.245V5.49413ZM247.88 5.49413H251.084V4.2832H247.88V5.49413ZM241.475 5.49413H244.678V4.2832H241.475V5.49413ZM235.067 5.49413H238.271V4.2832H235.067V5.49413ZM228.659 5.49413H231.863V4.2832H228.659V5.49413ZM222.254 5.49413H225.456V4.2832H222.254V5.49413ZM215.846 5.49413H219.05V4.2832H215.846V5.49413ZM209.483 5.49413H212.685V4.2832H209.483V5.49413ZM203.076 5.49413H206.28V4.2832H203.076V5.49413ZM196.668 5.49413H199.872V4.2832H196.668V5.49413ZM190.261 5.49413H193.464V4.2832H190.261V5.49413ZM183.855 5.49413H187.059V4.2832H183.855V5.49413ZM177.448 5.49413H180.651V4.2832H177.448V5.49413ZM171.085 5.49413H174.288V4.2832H171.085V5.49413ZM164.677 5.49413H167.881V4.2832H164.677V5.49413ZM158.269 5.49413H161.473V4.2832H158.269V5.49413ZM151.864 5.49413H155.066V4.2832H151.864V5.49413ZM145.456 5.49413H148.66V4.2832H145.456V5.49413ZM139.049 5.49413H142.253V4.2832H139.049V5.49413ZM132.641 5.49413H135.845V4.2832H132.641V5.49413ZM126.278 5.49413H129.482V4.2832H126.278V5.49413ZM119.871 5.49413H123.075V4.2832H119.871V5.49413ZM113.465 5.49413H116.669V4.2832H113.465V5.49413ZM107.058 5.49413H110.262V4.2832H107.058V5.49413ZM100.65 5.49413H103.854V4.2832H100.65V5.49413ZM94.2447 5.49413H97.4463V4.2832H94.2447V5.49413ZM87.8796 5.49413H91.0834V4.2832H87.8796V5.49413ZM81.4742 5.49413H84.6758V4.2832H81.4742V5.49413ZM75.0666 5.49413H78.2704V4.2832H75.0666V5.49413ZM68.659 5.49413H71.8628V4.2832H68.659V5.49413ZM62.2513 5.49413H65.4551V4.2832H62.2513V5.49413ZM55.846 5.49413H59.0498V4.2832H55.846V5.49413ZM49.4808 5.49413H52.6846V4.2832H49.4808V5.49413ZM43.0754 5.49413H46.277V4.2832H43.0754V5.49413ZM36.6678 5.49413H39.8716V4.2832H36.6678V5.49413ZM30.3898 5.71084C31.127 5.58126 31.9068 5.49413 32.729 5.49413H33.5064V4.2832H32.729C31.8621 4.2832 31.0399 4.3681 30.2177 4.49768L30.3898 5.71084ZM24.849 8.13492C25.6712 7.52946 26.5381 7.0089 27.4898 6.57547L27.0139 5.49413C25.975 5.92756 25.0233 6.53302 24.1564 7.18316L24.849 8.13492ZM20.9973 12.811C21.4285 11.9017 21.9915 11.0349 22.6417 10.2552L21.7323 9.47766C21.0398 10.3423 20.4343 11.2516 19.9137 12.2905L20.9973 12.811ZM19.6546 18.7405V18.5238C19.6546 17.5721 19.7417 16.6203 19.9584 15.711L18.7877 15.4518C18.5732 16.4461 18.4414 17.4849 18.4414 18.5238V18.7405H19.6546ZM19.6546 25.1482V21.9444H18.4414V25.1482H19.6546ZM19.6546 31.5558V28.352H18.4414V31.5558H19.6546ZM19.6546 37.9612V34.7573H18.4414V37.9612H19.6546ZM19.6546 44.3263V41.1225H18.4414V44.3263H19.6546ZM19.6546 50.7317V47.5301H18.4414V50.7317H19.6546ZM19.6546 57.1393V53.9355H18.4414V57.1393H19.6546ZM19.6546 63.5469V60.3431H18.4414V63.5469H19.6546ZM19.6546 69.9545V66.7507H18.4414V69.9545H19.6546ZM19.8288 76.2303C19.697 75.5377 19.6546 74.8451 19.6546 74.1101V73.1137H18.4414V74.1101C18.4414 74.8876 18.4861 75.6673 18.6157 76.4046L19.8288 76.2303ZM22.2082 81.8158C21.6028 80.9914 21.0822 80.1267 20.6935 79.175L19.5674 79.6509C20.0009 80.6898 20.5639 81.6415 21.214 82.5508L22.2082 81.8158ZM26.7972 85.7546C25.8879 85.2787 25.0233 84.7157 24.2436 84.0656L23.4638 84.9749C24.3307 85.7122 25.24 86.3176 26.2342 86.836L26.7972 85.7546Z" fill="white"/>
<mask id="mask2_500_702" style="mask-type:luminance" maskUnits="userSpaceOnUse" x="0" y="8" width="119" height="53">
<path d="M0 8.78516H118.507V60.2605H0V8.78516Z" fill="white"/>
</mask>
<g mask="url(#mask2_500_702)">
<path d="M110.65 9.17334H11.7763C5.28159 9.17334 0 14.4549 0 20.9474V59.6925C0 51.9019 6.32048 45.5815 14.1133 45.5815H110.65L118.009 27.3551L110.65 9.17334Z" fill="#FF6A00"/>
</g>
<mask id="mask3_500_702" style="mask-type:luminance" maskUnits="userSpaceOnUse" x="90" y="9" width="203" height="37">
<path d="M90.3765 9.21826H292.469V45.499H90.3765V9.21826Z" fill="white"/>
</mask>
<g mask="url(#mask3_500_702)">
<mask id="mask4_500_702" style="mask-type:luminance" maskUnits="userSpaceOnUse" x="90" y="9" width="203" height="37">
<path d="M273.89 9.21826H90.3774V45.499H273.89L292.45 27.3575L273.89 9.21826Z" fill="white"/>
</mask>
<g mask="url(#mask4_500_702)">
<mask id="mask5_500_702" style="mask-type:luminance" maskUnits="userSpaceOnUse" x="89" y="8" width="204" height="38">
<path d="M292.952 8.78564H89.9106V45.9623H292.952V8.78564Z" fill="white"/>
</mask>
<g mask="url(#mask5_500_702)">
<mask id="mask6_500_702" style="mask-type:luminance" maskUnits="userSpaceOnUse" x="90" y="9" width="203" height="37">
<path d="M90.3784 9.21875H292.471V45.4995H90.3784V9.21875Z" fill="white"/>
</mask>
<g mask="url(#mask6_500_702)">
<mask id="mask7_500_702" style="mask-type:luminance" maskUnits="userSpaceOnUse" x="90" y="9" width="203" height="37">
<path d="M273.892 9.21875H90.3794V45.4995H273.892L292.452 27.358L273.892 9.21875Z" fill="white"/>
</mask>
<g mask="url(#mask7_500_702)">
<path d="M90.3794 9.21875H292.472V45.4995H90.3794V9.21875Z" fill="#FF6A00"/>
</g>
</g>
</g>
</g>
</g>
<path d="M74.6089 32.9795C73.8223 33.3874 72.844 33.5913 71.6738 33.5913C70.1589 33.5913 68.9451 33.113 68.0322 32.1565C67.1194 31.2 66.663 29.9449 66.663 28.3912C66.663 26.7209 67.1753 25.3711 68.1998 24.3417C69.2291 23.3124 70.5279 22.7977 72.0962 22.7977C73.1061 22.7977 73.9437 22.941 74.6089 23.2274V24.9462C73.9049 24.5287 73.128 24.3199 72.2783 24.3199C71.147 24.3199 70.2293 24.6816 69.5253 25.4051C68.8261 26.1285 68.4765 27.0948 68.4765 28.3038C68.4765 29.4545 68.8043 30.3722 69.4597 31.0568C70.1152 31.7365 70.977 32.0764 72.0452 32.0764C73.0309 32.0764 73.8854 31.8434 74.6089 31.3772V32.9795ZM79.7071 33.5913C78.5563 33.5913 77.6362 33.2441 76.9468 32.5498C76.2622 31.8506 75.9199 30.9257 75.9199 29.7749C75.9199 28.5223 76.2767 27.5439 76.9905 26.8399C77.7091 26.1358 78.6753 25.7838 79.8892 25.7838C81.0544 25.7838 81.9624 26.1261 82.613 26.8107C83.2637 27.4953 83.589 28.4446 83.589 29.6584C83.589 30.848 83.237 31.8021 82.5329 32.5207C81.8337 33.2344 80.8918 33.5913 79.7071 33.5913ZM79.7872 27.1312C79.1269 27.1312 78.6049 27.3618 78.2213 27.8231C77.8377 28.2843 77.646 28.9204 77.646 29.7312C77.646 30.513 77.8402 31.1296 78.2286 31.5812C78.617 32.0279 79.1366 32.2512 79.7872 32.2512C80.4524 32.2512 80.9622 32.0303 81.3166 31.5884C81.6759 31.1466 81.8556 30.5178 81.8556 29.7021C81.8556 28.8816 81.6759 28.2479 81.3166 27.8012C80.9622 27.3545 80.4524 27.1312 79.7872 27.1312ZM96.4655 33.4165H94.7758V29.3525C94.7758 28.5708 94.6642 28.0051 94.4408 27.6556C94.2223 27.306 93.8509 27.1312 93.3265 27.1312C92.8847 27.1312 92.5084 27.3521 92.1976 27.7939C91.8917 28.2358 91.7388 28.765 91.7388 29.3817V33.4165H90.0418V29.2141C90.0418 27.8255 89.5514 27.1312 88.5706 27.1312C88.1142 27.1312 87.7379 27.34 87.4417 27.7575C87.1504 28.1751 87.0048 28.7165 87.0048 29.3817V33.4165H85.3151V25.9586H87.0048V27.1385H87.0339C87.5728 26.2354 88.357 25.7838 89.3863 25.7838C89.901 25.7838 90.3501 25.927 90.7337 26.2135C91.1221 26.4951 91.3868 26.8666 91.5276 27.3278C92.0811 26.2985 92.9065 25.7838 94.0038 25.7838C95.645 25.7838 96.4655 26.7962 96.4655 28.8209V33.4165ZM100.245 32.3168H100.216V36.8469H98.5266V25.9586H100.216V27.2696H100.245C100.823 26.2791 101.668 25.7838 102.78 25.7838C103.727 25.7838 104.465 26.1164 104.994 26.7816C105.523 27.4468 105.788 28.3402 105.788 29.4618C105.788 30.7048 105.489 31.7001 104.892 32.4478C104.295 33.1956 103.479 33.5694 102.445 33.5694C101.493 33.5694 100.76 33.1519 100.245 32.3168ZM100.202 29.3744V30.2993C100.202 30.8431 100.374 31.3044 100.719 31.6831C101.068 32.0618 101.51 32.2512 102.044 32.2512C102.671 32.2512 103.161 32.0084 103.516 31.5229C103.875 31.0325 104.055 30.3503 104.055 29.4763C104.055 28.7432 103.887 28.1702 103.552 27.7575C103.222 27.34 102.773 27.1312 102.205 27.1312C101.603 27.1312 101.117 27.3448 100.748 27.7721C100.384 28.1994 100.202 28.7335 100.202 29.3744ZM111.84 27.5682C111.636 27.4079 111.342 27.3278 110.959 27.3278C110.459 27.3278 110.041 27.5536 109.706 28.0051C109.371 28.4567 109.204 29.0709 109.204 29.8478V33.4165H107.514V25.9586H109.204V27.4953H109.233C109.398 26.9709 109.65 26.5631 109.99 26.2718C110.335 25.9756 110.719 25.8275 111.141 25.8275C111.447 25.8275 111.68 25.8736 111.84 25.9659V27.5682ZM119.218 30.1464H114.134C114.154 30.8359 114.365 31.3675 114.768 31.7414C115.176 32.1153 115.734 32.3022 116.443 32.3022C117.239 32.3022 117.97 32.0643 118.635 31.5884V32.9504C117.956 33.3777 117.057 33.5913 115.941 33.5913C114.843 33.5913 113.981 33.2538 113.355 32.5789C112.734 31.8992 112.423 30.9451 112.423 29.7167C112.423 28.5562 112.765 27.6119 113.45 26.8835C114.139 26.1504 114.994 25.7838 116.013 25.7838C117.033 25.7838 117.822 26.1115 118.38 26.767C118.939 27.4225 119.218 28.3329 119.218 29.4982V30.1464ZM117.587 28.952C117.582 28.345 117.438 27.8741 117.157 27.539C116.875 27.1992 116.487 27.0292 115.992 27.0292C115.506 27.0292 115.093 27.2064 114.753 27.5609C114.418 27.9153 114.212 28.379 114.134 28.952H117.587ZM127.455 33.4165H125.765V29.338C125.765 27.8619 125.273 27.1239 124.287 27.1239C123.792 27.1239 123.374 27.3375 123.034 27.7648C122.694 28.1921 122.525 28.7383 122.525 29.4035V33.4165H120.828V22.3753H122.525V27.1967H122.554C123.117 26.2548 123.923 25.7838 124.972 25.7838C126.627 25.7838 127.455 26.7962 127.455 28.8209V33.4165ZM135.823 30.1464H130.74C130.759 30.8359 130.97 31.3675 131.373 31.7414C131.781 32.1153 132.34 32.3022 133.049 32.3022C133.845 32.3022 134.576 32.0643 135.241 31.5884V32.9504C134.561 33.3777 133.663 33.5913 132.546 33.5913C131.449 33.5913 130.587 33.2538 129.961 32.5789C129.339 31.8992 129.028 30.9451 129.028 29.7167C129.028 28.5562 129.371 27.6119 130.055 26.8835C130.745 26.1504 131.599 25.7838 132.619 25.7838C133.639 25.7838 134.428 26.1115 134.986 26.767C135.544 27.4225 135.823 28.3329 135.823 29.4982V30.1464ZM134.192 28.952C134.187 28.345 134.044 27.8741 133.762 27.539C133.481 27.1992 133.092 27.0292 132.597 27.0292C132.112 27.0292 131.699 27.2064 131.359 27.5609C131.024 27.9153 130.818 28.379 130.74 28.952H134.192ZM144.075 33.4165H142.386V29.2141C142.386 27.8206 141.893 27.1239 140.907 27.1239C140.392 27.1239 139.968 27.3181 139.633 27.7065C139.298 28.0901 139.13 28.5757 139.13 29.1632V33.4165H137.433V25.9586H139.13V27.1967H139.159C139.718 26.2548 140.524 25.7838 141.577 25.7838C142.388 25.7838 143.007 26.0484 143.434 26.5777C143.862 27.102 144.075 27.8619 144.075 28.8573V33.4165ZM145.678 33.1834V31.6176C146.309 32.0983 147.005 32.3386 147.768 32.3386C148.787 32.3386 149.297 32.0376 149.297 31.4355C149.297 31.2656 149.254 31.1223 149.166 31.0058C149.079 30.8844 148.96 30.7776 148.809 30.6853C148.664 30.5931 148.489 30.5105 148.285 30.4377C148.086 30.3649 147.862 30.2823 147.615 30.1901C147.309 30.0687 147.032 29.94 146.785 29.8041C146.542 29.6681 146.338 29.5152 146.173 29.3452C146.013 29.1704 145.891 28.9738 145.809 28.7553C145.726 28.5368 145.685 28.2819 145.685 27.9906C145.685 27.6313 145.77 27.3157 145.94 27.0438C146.11 26.767 146.338 26.5364 146.624 26.3519C146.911 26.1625 147.236 26.0217 147.6 25.9295C147.964 25.8324 148.341 25.7838 148.729 25.7838C149.419 25.7838 150.035 25.8882 150.579 26.097V27.5754C150.055 27.2161 149.453 27.0365 148.773 27.0365C148.559 27.0365 148.365 27.0583 148.19 27.102C148.02 27.1457 147.875 27.2064 147.753 27.2841C147.632 27.3618 147.537 27.4565 147.469 27.5682C147.401 27.675 147.367 27.7939 147.367 27.925C147.367 28.0853 147.401 28.2212 147.469 28.3329C147.537 28.4446 147.637 28.5441 147.768 28.6315C147.904 28.714 148.064 28.7917 148.248 28.8646C148.438 28.9325 148.654 29.0078 148.897 29.0903C149.217 29.2214 149.504 29.355 149.756 29.4909C150.013 29.6269 150.232 29.7822 150.412 29.957C150.591 30.127 150.73 30.326 150.827 30.5542C150.924 30.7776 150.972 31.0446 150.972 31.3554C150.972 31.7341 150.885 32.0643 150.71 32.3459C150.535 32.6275 150.302 32.8606 150.011 33.0451C149.72 33.2296 149.382 33.3655 148.999 33.4529C148.62 33.5452 148.219 33.5913 147.797 33.5913C146.981 33.5913 146.275 33.4553 145.678 33.1834ZM153.434 24.3927C153.157 24.3927 152.919 24.3029 152.72 24.1232C152.526 23.9436 152.429 23.7154 152.429 23.4386C152.429 23.1619 152.526 22.9312 152.72 22.7467C152.919 22.5622 153.157 22.47 153.434 22.47C153.721 22.47 153.963 22.5622 154.162 22.7467C154.361 22.9312 154.461 23.1619 154.461 23.4386C154.461 23.7008 154.361 23.9266 154.162 24.116C153.963 24.3005 153.721 24.3927 153.434 24.3927ZM154.272 33.4165H152.582V25.9586H154.272V33.4165ZM162.909 25.9586L160.025 33.4165H158.197L155.451 25.9586H157.287L158.94 31.1733C159.066 31.5569 159.144 31.8919 159.173 32.1784H159.195C159.239 31.8191 159.307 31.4938 159.399 31.2024L161.132 25.9586H162.909ZM170.258 30.1464H165.174C165.194 30.8359 165.405 31.3675 165.808 31.7414C166.216 32.1153 166.774 32.3022 167.483 32.3022C168.279 32.3022 169.01 32.0643 169.675 31.5884V32.9504C168.996 33.3777 168.097 33.5913 166.981 33.5913C165.883 33.5913 165.021 33.2538 164.395 32.5789C163.774 31.8992 163.463 30.9451 163.463 29.7167C163.463 28.5562 163.805 27.6119 164.49 26.8835C165.179 26.1504 166.034 25.7838 167.053 25.7838C168.073 25.7838 168.862 26.1115 169.42 26.767C169.979 27.4225 170.258 28.3329 170.258 29.4982V30.1464ZM168.627 28.952C168.622 28.345 168.479 27.8741 168.197 27.539C167.915 27.1992 167.527 27.0292 167.032 27.0292C166.546 27.0292 166.133 27.2064 165.793 27.5609C165.458 27.9153 165.252 28.379 165.174 28.952H168.627ZM181.947 33.4165H176.165V22.9725H177.898V31.9526H181.947V33.4165ZM189.587 30.1464H184.504C184.523 30.8359 184.734 31.3675 185.137 31.7414C185.545 32.1153 186.104 32.3022 186.813 32.3022C187.609 32.3022 188.34 32.0643 189.005 31.5884V32.9504C188.325 33.3777 187.427 33.5913 186.31 33.5913C185.213 33.5913 184.351 33.2538 183.725 32.5789C183.103 31.8992 182.792 30.9451 182.792 29.7167C182.792 28.5562 183.135 27.6119 183.819 26.8835C184.509 26.1504 185.363 25.7838 186.383 25.7838C187.402 25.7838 188.191 26.1115 188.75 26.767C189.308 27.4225 189.587 28.3329 189.587 29.4982V30.1464ZM187.956 28.952C187.951 28.345 187.808 27.8741 187.526 27.539C187.245 27.1992 186.856 27.0292 186.361 27.0292C185.875 27.0292 185.463 27.2064 185.123 27.5609C184.788 27.9153 184.582 28.379 184.504 28.952H187.956ZM196.922 33.4165H195.283V32.2512H195.254C194.739 33.1446 193.984 33.5913 192.989 33.5913C192.255 33.5913 191.68 33.3922 191.263 32.9941C190.85 32.5959 190.643 32.0691 190.643 31.4136C190.643 30.0056 191.454 29.185 193.076 28.952L195.29 28.6388C195.29 27.5754 194.785 27.0438 193.775 27.0438C192.887 27.0438 192.086 27.3497 191.372 27.9615V26.483C192.158 26.0169 193.066 25.7838 194.096 25.7838C195.98 25.7838 196.922 26.7112 196.922 28.5659V33.4165ZM195.29 29.7531L193.724 29.9716C193.239 30.0347 192.872 30.1537 192.624 30.3285C192.382 30.4984 192.26 30.7994 192.26 31.2316C192.26 31.5472 192.372 31.8069 192.595 32.0109C192.824 32.2099 193.127 32.3095 193.506 32.3095C194.02 32.3095 194.445 32.1298 194.78 31.7705C195.12 31.4064 195.29 30.95 195.29 30.4013V29.7531ZM203.316 27.5682C203.112 27.4079 202.818 27.3278 202.435 27.3278C201.935 27.3278 201.517 27.5536 201.182 28.0051C200.847 28.4567 200.68 29.0709 200.68 29.8478V33.4165H198.99V25.9586H200.68V27.4953H200.709C200.874 26.9709 201.126 26.5631 201.466 26.2718C201.811 25.9756 202.195 25.8275 202.617 25.8275C202.923 25.8275 203.156 25.8736 203.316 25.9659V27.5682ZM211.153 33.4165H209.463V29.2141C209.463 27.8206 208.97 27.1239 207.985 27.1239C207.47 27.1239 207.045 27.3181 206.71 27.7065C206.375 28.0901 206.207 28.5757 206.207 29.1632V33.4165H204.511V25.9586H206.207V27.1967H206.237C206.795 26.2548 207.601 25.7838 208.655 25.7838C209.465 25.7838 210.085 26.0484 210.512 26.5777C210.939 27.102 211.153 27.8619 211.153 28.8573V33.4165ZM214.073 24.3927C213.797 24.3927 213.559 24.3029 213.36 24.1232C213.165 23.9436 213.068 23.7154 213.068 23.4386C213.068 23.1619 213.165 22.9312 213.36 22.7467C213.559 22.5622 213.797 22.47 214.073 22.47C214.36 22.47 214.602 22.5622 214.802 22.7467C215.001 22.9312 215.1 23.1619 215.1 23.4386C215.1 23.7008 215.001 23.9266 214.802 24.116C214.602 24.3005 214.36 24.3927 214.073 24.3927ZM214.911 33.4165H213.221V25.9586H214.911V33.4165ZM223.767 33.4165H222.077V29.2141C222.077 27.8206 221.585 27.1239 220.599 27.1239C220.084 27.1239 219.659 27.3181 219.324 27.7065C218.989 28.0901 218.822 28.5757 218.822 29.1632V33.4165H217.125V25.9586H218.822V27.1967H218.851C219.409 26.2548 220.215 25.7838 221.269 25.7838C222.08 25.7838 222.699 26.0484 223.126 26.5777C223.553 27.102 223.767 27.8619 223.767 28.8573V33.4165ZM232.623 32.8193C232.623 35.5577 231.247 36.927 228.494 36.927C227.523 36.927 226.675 36.7643 225.952 36.439V34.895C226.768 35.3611 227.542 35.5942 228.275 35.5942C230.048 35.5942 230.934 34.7226 230.934 32.9795V32.1638H230.905C230.346 33.1155 229.506 33.5913 228.385 33.5913C227.477 33.5913 226.743 33.2611 226.185 32.6008C225.632 31.9356 225.355 31.0446 225.355 29.9279C225.355 28.6606 225.653 27.6531 226.251 26.9054C226.848 26.1577 227.668 25.7838 228.712 25.7838C229.698 25.7838 230.429 26.1868 230.905 26.9928H230.934V25.9586H232.623V32.8193ZM230.948 30.0007V29.0321C230.948 28.5077 230.773 28.061 230.424 27.692C230.079 27.3181 229.647 27.1312 229.127 27.1312C228.487 27.1312 227.984 27.3691 227.62 27.8449C227.261 28.3159 227.081 28.9762 227.081 29.8259C227.081 30.5591 227.253 31.1466 227.598 31.5884C227.948 32.0254 228.409 32.2439 228.982 32.2439C229.564 32.2439 230.038 32.0351 230.402 31.6176C230.766 31.1952 230.948 30.6562 230.948 30.0007Z" fill="white"/>
<path d="M45.7955 60.9899H42.6246V63.5397H45.547V64.7288H42.6246V68.2783H41.2166V59.7949H45.7955V60.9899ZM50.6702 63.5278C50.5046 63.3977 50.266 63.3326 49.9544 63.3326C49.5482 63.3326 49.209 63.516 48.9369 63.8828C48.6647 64.2496 48.5287 64.7485 48.5287 65.3795V68.2783H47.1562V62.2204H48.5287V63.4687H48.5523C48.6864 63.0427 48.8915 62.7114 49.1676 62.4748C49.4476 62.2342 49.7592 62.1139 50.1023 62.1139C50.3508 62.1139 50.5401 62.1514 50.6702 62.2263V63.5278ZM54.2198 68.4203C53.2851 68.4203 52.5377 68.1383 51.9776 67.5743C51.4215 67.0064 51.1435 66.2551 51.1435 65.3204C51.1435 64.3028 51.4334 63.5081 52.0131 62.9362C52.5968 62.3644 53.3817 62.0784 54.3677 62.0784C55.3142 62.0784 56.0517 62.3565 56.5802 62.9126C57.1087 63.4687 57.373 64.2397 57.373 65.2257C57.373 66.192 57.087 66.967 56.5151 67.5507C55.9472 68.1304 55.1821 68.4203 54.2198 68.4203ZM54.2848 63.1729C53.7485 63.1729 53.3245 63.3602 53.0129 63.7349C52.7014 64.1096 52.5456 64.6262 52.5456 65.2849C52.5456 65.9198 52.7033 66.4207 53.0188 66.7875C53.3344 67.1504 53.7564 67.3318 54.2848 67.3318C54.8252 67.3318 55.2393 67.1523 55.5272 66.7934C55.819 66.4345 55.965 65.9238 55.965 65.2612C55.965 64.5947 55.819 64.08 55.5272 63.7171C55.2393 63.3543 54.8252 63.1729 54.2848 63.1729ZM67.8323 68.2783H66.4598V64.9772C66.4598 64.3423 66.3691 63.8828 66.1877 63.5988C66.0102 63.3149 65.7085 63.1729 65.2825 63.1729C64.9236 63.1729 64.618 63.3523 64.3656 63.7112C64.1171 64.0701 63.9929 64.5 63.9929 65.0009V68.2783H62.6145V64.8648C62.6145 63.7369 62.2161 63.1729 61.4194 63.1729C61.0487 63.1729 60.7431 63.3425 60.5025 63.6817C60.2658 64.0208 60.1475 64.4606 60.1475 65.0009V68.2783H58.775V62.2204H60.1475V63.1788H60.1712C60.609 62.4452 61.2459 62.0784 62.082 62.0784C62.5001 62.0784 62.8649 62.1948 63.1765 62.4275C63.492 62.6562 63.7069 62.9579 63.8213 63.3326C64.2709 62.4965 64.9414 62.0784 65.8327 62.0784C67.1658 62.0784 67.8323 62.9008 67.8323 64.5454V68.2783ZM74.2392 67.4028H74.2156V68.2783H72.8431V59.3098H74.2156V63.2853H74.2392C74.7086 62.4807 75.3948 62.0784 76.298 62.0784C77.0631 62.0784 77.6606 62.3506 78.0905 62.8948C78.5243 63.4352 78.7413 64.1608 78.7413 65.0719C78.7413 66.0855 78.4987 66.8979 78.0136 67.5093C77.5285 68.1166 76.8659 68.4203 76.0258 68.4203C75.2371 68.4203 74.6415 68.0811 74.2392 67.4028ZM74.2037 64.995V65.7463C74.2037 66.188 74.3438 66.5627 74.6238 66.8703C74.9077 67.178 75.2666 67.3318 75.7005 67.3318C76.2092 67.3318 76.6076 67.1346 76.8955 66.7402C77.1873 66.3418 77.3333 65.7877 77.3333 65.0778C77.3333 64.4823 77.1972 64.0169 76.9251 63.6817C76.6569 63.3425 76.2921 63.1729 75.8306 63.1729C75.3416 63.1729 74.9472 63.3464 74.6474 63.6935C74.3516 64.0406 74.2037 64.4744 74.2037 64.995ZM84.6513 68.2783H83.3202V67.3318H83.2965C82.8785 68.0575 82.2652 68.4203 81.4567 68.4203C80.8611 68.4203 80.3938 68.2586 80.0546 67.9352C79.7194 67.6118 79.5517 67.1839 79.5517 66.6514C79.5517 65.5077 80.2104 64.8412 81.5277 64.6519L83.3261 64.3975C83.3261 63.5338 82.9159 63.1019 82.0956 63.1019C81.3738 63.1019 80.7231 63.3504 80.1433 63.8473V62.6464C80.7822 62.2677 81.5198 62.0784 82.3559 62.0784C83.8861 62.0784 84.6513 62.8317 84.6513 64.3383V68.2783ZM83.3261 65.3026L82.0542 65.4801C81.6598 65.5314 81.362 65.628 81.1609 65.77C80.9637 65.908 80.8651 66.1525 80.8651 66.5035C80.8651 66.7599 80.9558 66.9709 81.1372 67.1365C81.3226 67.2982 81.5691 67.3791 81.8767 67.3791C82.2947 67.3791 82.6398 67.2332 82.912 66.9413C83.1881 66.6455 83.3261 66.2748 83.3261 65.8291V65.3026ZM85.9528 68.089V66.8171C86.4655 67.2075 87.0314 67.4028 87.6506 67.4028C88.4789 67.4028 88.893 67.1582 88.893 66.6692C88.893 66.5312 88.8575 66.4148 88.7865 66.3202C88.7155 66.2216 88.6189 66.1348 88.4966 66.0599C88.3783 65.9849 88.2363 65.9179 88.0707 65.8587C87.909 65.7996 87.7275 65.7325 87.5264 65.6576C87.2779 65.559 87.0531 65.4545 86.852 65.344C86.6548 65.2336 86.4891 65.1094 86.355 64.9713C86.2249 64.8293 86.1263 64.6696 86.0592 64.4921C85.9922 64.3147 85.9587 64.1076 85.9587 63.871C85.9587 63.5791 86.0277 63.3228 86.1657 63.1019C86.3038 62.8771 86.4891 62.6897 86.7218 62.5399C86.9545 62.3861 87.2188 62.2717 87.5146 62.1968C87.8104 62.1179 88.116 62.0784 88.4315 62.0784C88.9916 62.0784 89.4925 62.1632 89.9342 62.3328V63.5338C89.5082 63.2419 89.0192 63.096 88.467 63.096C88.2935 63.096 88.1357 63.1137 87.9938 63.1492C87.8557 63.1847 87.7374 63.234 87.6388 63.2971C87.5402 63.3602 87.4633 63.4371 87.4081 63.5278C87.3529 63.6146 87.3253 63.7112 87.3253 63.8177C87.3253 63.9479 87.3529 64.0583 87.4081 64.149C87.4633 64.2397 87.5441 64.3206 87.6506 64.3916C87.7611 64.4586 87.8912 64.5217 88.0411 64.5809C88.1949 64.6361 88.3704 64.6972 88.5676 64.7643C88.8279 64.8708 89.0606 64.9792 89.2657 65.0896C89.4747 65.2001 89.6522 65.3263 89.7981 65.4683C89.944 65.6063 90.0564 65.768 90.1353 65.9534C90.2142 66.1348 90.2536 66.3517 90.2536 66.6041C90.2536 66.9117 90.1826 67.1799 90.0407 67.4087C89.8987 67.6374 89.7094 67.8267 89.4727 67.9766C89.2361 68.1265 88.962 68.2369 88.6504 68.3079C88.3428 68.3828 88.0174 68.4203 87.6743 68.4203C87.0117 68.4203 86.4379 68.3099 85.9528 68.089ZM92.2532 60.9485C92.0284 60.9485 91.8352 60.8755 91.6735 60.7296C91.5157 60.5837 91.4368 60.3983 91.4368 60.1735C91.4368 59.9487 91.5157 59.7614 91.6735 59.6115C91.8352 59.4616 92.0284 59.3867 92.2532 59.3867C92.4859 59.3867 92.6831 59.4616 92.8448 59.6115C93.0065 59.7614 93.0874 59.9487 93.0874 60.1735C93.0874 60.3865 93.0065 60.5699 92.8448 60.7237C92.6831 60.8736 92.4859 60.9485 92.2532 60.9485ZM92.9335 68.2783H91.5611V62.2204H92.9335V68.2783ZM99.0684 68.0003C98.5832 68.2803 98.0094 68.4203 97.3468 68.4203C96.4476 68.4203 95.7219 68.1403 95.1698 67.5802C94.6176 67.0163 94.3415 66.2866 94.3415 65.3914C94.3415 64.3935 94.6373 63.5929 95.2289 62.9895C95.8245 62.3821 96.6192 62.0784 97.613 62.0784C98.1652 62.0784 98.6523 62.1751 99.0743 62.3683V63.6462C98.6523 63.3306 98.2027 63.1729 97.7254 63.1729C97.1457 63.1729 96.6704 63.3701 96.2997 63.7645C95.929 64.1549 95.7436 64.6676 95.7436 65.3026C95.7436 65.9297 95.9171 66.4247 96.2642 66.7875C96.6152 67.1504 97.0845 67.3318 97.6722 67.3318C98.1652 67.3318 98.6306 67.1563 99.0684 66.8053V68.0003ZM100.056 68.089V66.8171C100.569 67.2075 101.135 67.4028 101.754 67.4028C102.582 67.4028 102.997 67.1582 102.997 66.6692C102.997 66.5312 102.961 66.4148 102.89 66.3202C102.819 66.2216 102.722 66.1348 102.6 66.0599C102.482 65.9849 102.34 65.9179 102.174 65.8587C102.013 65.7996 101.831 65.7325 101.63 65.6576C101.381 65.559 101.157 65.4545 100.956 65.344C100.758 65.2336 100.593 65.1094 100.459 64.9713C100.328 64.8293 100.23 64.6696 100.163 64.4921C100.096 64.3147 100.062 64.1076 100.062 63.871C100.062 63.5791 100.131 63.3228 100.269 63.1019C100.407 62.8771 100.593 62.6897 100.825 62.5399C101.058 62.3861 101.322 62.2717 101.618 62.1968C101.914 62.1179 102.22 62.0784 102.535 62.0784C103.095 62.0784 103.596 62.1632 104.038 62.3328V63.5338C103.612 63.2419 103.123 63.096 102.571 63.096C102.397 63.096 102.239 63.1137 102.097 63.1492C101.959 63.1847 101.841 63.234 101.742 63.2971C101.644 63.3602 101.567 63.4371 101.512 63.5278C101.456 63.6146 101.429 63.7112 101.429 63.8177C101.429 63.9479 101.456 64.0583 101.512 64.149C101.567 64.2397 101.648 64.3206 101.754 64.3916C101.865 64.4586 101.995 64.5217 102.145 64.5809C102.298 64.6361 102.474 64.6972 102.671 64.7643C102.931 64.8708 103.164 64.9792 103.369 65.0896C103.578 65.2001 103.756 65.3263 103.902 65.4683C104.048 65.6063 104.16 65.768 104.239 65.9534C104.318 66.1348 104.357 66.3517 104.357 66.6041C104.357 66.9117 104.286 67.1799 104.144 67.4087C104.002 67.6374 103.813 67.8267 103.576 67.9766C103.34 68.1265 103.066 68.2369 102.754 68.3079C102.446 68.3828 102.121 68.4203 101.778 68.4203C101.115 68.4203 100.541 68.3099 100.056 68.089ZM112.196 68.2132C111.928 68.3473 111.575 68.4144 111.137 68.4144C109.962 68.4144 109.374 67.8504 109.374 66.7224V63.2971H108.362V62.2204H109.374V60.8183L110.746 60.4279V62.2204H112.196V63.2971H110.746V66.3261C110.746 66.685 110.811 66.9413 110.942 67.0951C111.072 67.249 111.289 67.3259 111.592 67.3259C111.825 67.3259 112.026 67.2588 112.196 67.1247V68.2132ZM115.994 68.4203C115.059 68.4203 114.312 68.1383 113.752 67.5743C113.196 67.0064 112.918 66.2551 112.918 65.3204C112.918 64.3028 113.207 63.5081 113.787 62.9362C114.371 62.3644 115.156 62.0784 116.142 62.0784C117.088 62.0784 117.826 62.3565 118.354 62.9126C118.883 63.4687 119.147 64.2397 119.147 65.2257C119.147 66.192 118.861 66.967 118.289 67.5507C117.721 68.1304 116.956 68.4203 115.994 68.4203ZM116.059 63.1729C115.522 63.1729 115.099 63.3602 114.787 63.7349C114.475 64.1096 114.32 64.6262 114.32 65.2849C114.32 65.9198 114.477 66.4207 114.793 66.7875C115.108 67.1504 115.53 67.3318 116.059 67.3318C116.599 67.3318 117.013 67.1523 117.301 66.7934C117.593 66.4345 117.739 65.9238 117.739 65.2612C117.739 64.5947 117.593 64.08 117.301 63.7171C117.013 63.3543 116.599 63.1729 116.059 63.1729ZM128.536 68.2783H127.204V67.3318H127.181C126.763 68.0575 126.149 68.4203 125.341 68.4203C124.745 68.4203 124.278 68.2586 123.939 67.9352C123.604 67.6118 123.436 67.1839 123.436 66.6514C123.436 65.5077 124.095 64.8412 125.412 64.6519L127.21 64.3975C127.21 63.5338 126.8 63.1019 125.98 63.1019C125.258 63.1019 124.607 63.3504 124.028 63.8473V62.6464C124.667 62.2677 125.404 62.0784 126.24 62.0784C127.77 62.0784 128.536 62.8317 128.536 64.3383V68.2783ZM127.21 65.3026L125.938 65.4801C125.544 65.5314 125.246 65.628 125.045 65.77C124.848 65.908 124.749 66.1525 124.749 66.5035C124.749 66.7599 124.84 66.9709 125.021 67.1365C125.207 67.2982 125.453 67.3791 125.761 67.3791C126.179 67.3791 126.524 67.2332 126.796 66.9413C127.072 66.6455 127.21 66.2748 127.21 65.8291V65.3026ZM135.723 68.2783H134.351V67.249H134.327C133.886 68.0299 133.205 68.4203 132.286 68.4203C131.541 68.4203 130.943 68.1501 130.494 67.6098C130.048 67.0656 129.825 66.3261 129.825 65.3914C129.825 64.3896 130.072 63.587 130.565 62.9836C131.062 62.3801 131.722 62.0784 132.547 62.0784C133.363 62.0784 133.956 62.4058 134.327 63.0605H134.351V59.3098H135.723V68.2783ZM134.369 65.5097V64.7169C134.369 64.287 134.229 63.9222 133.949 63.6225C133.669 63.3228 133.312 63.1729 132.878 63.1729C132.365 63.1729 131.961 63.3642 131.665 63.7467C131.373 64.1293 131.227 64.6597 131.227 65.3381C131.227 65.9534 131.367 66.4404 131.647 66.7993C131.931 67.1543 132.312 67.3318 132.789 67.3318C133.258 67.3318 133.639 67.1602 133.931 66.8171C134.223 66.47 134.369 66.0342 134.369 65.5097ZM142.734 62.2204L140.391 68.2783H138.906L136.676 62.2204H138.167L139.51 66.4562C139.612 66.7678 139.675 67.0399 139.699 67.2726H139.717C139.752 66.9808 139.807 66.7165 139.882 66.4799L141.29 62.2204H142.734ZM148.117 68.2783H146.786V67.3318H146.762C146.344 68.0575 145.731 68.4203 144.923 68.4203C144.327 68.4203 143.86 68.2586 143.521 67.9352C143.185 67.6118 143.018 67.1839 143.018 66.6514C143.018 65.5077 143.676 64.8412 144.994 64.6519L146.792 64.3975C146.792 63.5338 146.382 63.1019 145.562 63.1019C144.84 63.1019 144.189 63.3504 143.609 63.8473V62.6464C144.248 62.2677 144.986 62.0784 145.822 62.0784C147.352 62.0784 148.117 62.8317 148.117 64.3383V68.2783ZM146.792 65.3026L145.52 65.4801C145.126 65.5314 144.828 65.628 144.627 65.77C144.43 65.908 144.331 66.1525 144.331 66.5035C144.331 66.7599 144.422 66.9709 144.603 67.1365C144.789 67.2982 145.035 67.3791 145.343 67.3791C145.761 67.3791 146.106 67.2332 146.378 66.9413C146.654 66.6455 146.792 66.2748 146.792 65.8291V65.3026ZM155.193 68.2783H153.82V64.8648C153.82 63.7329 153.42 63.167 152.619 63.167C152.201 63.167 151.856 63.3247 151.584 63.6402C151.312 63.9518 151.176 64.3462 151.176 64.8234V68.2783H149.797V62.2204H151.176V63.2261H151.199C151.653 62.461 152.308 62.0784 153.164 62.0784C153.822 62.0784 154.325 62.2934 154.672 62.7233C155.019 63.1492 155.193 63.7664 155.193 64.575V68.2783ZM161.209 68.0003C160.724 68.2803 160.15 68.4203 159.488 68.4203C158.588 68.4203 157.863 68.1403 157.311 67.5802C156.758 67.0163 156.482 66.2866 156.482 65.3914C156.482 64.3935 156.778 63.5929 157.37 62.9895C157.965 62.3821 158.76 62.0784 159.754 62.0784C160.306 62.0784 160.793 62.1751 161.215 62.3683V63.6462C160.793 63.3306 160.343 63.1729 159.866 63.1729C159.286 63.1729 158.811 63.3701 158.441 63.7645C158.07 64.1549 157.884 64.6676 157.884 65.3026C157.884 65.9297 158.058 66.4247 158.405 66.7875C158.756 67.1504 159.225 67.3318 159.813 67.3318C160.306 67.3318 160.771 67.1563 161.209 66.8053V68.0003ZM167.705 65.6221H163.576C163.591 66.1821 163.763 66.614 164.09 66.9177C164.422 67.2213 164.875 67.3732 165.451 67.3732C166.098 67.3732 166.691 67.1799 167.232 66.7934V67.8997C166.679 68.2468 165.95 68.4203 165.043 68.4203C164.151 68.4203 163.451 68.1462 162.943 67.598C162.438 67.0458 162.185 66.2709 162.185 65.273C162.185 64.3304 162.463 63.5633 163.019 62.9717C163.579 62.3762 164.274 62.0784 165.102 62.0784C165.93 62.0784 166.571 62.3447 167.025 62.8771C167.478 63.4095 167.705 64.149 167.705 65.0956V65.6221ZM166.38 64.6519C166.376 64.1589 166.259 63.7763 166.031 63.5042C165.802 63.2281 165.486 63.0901 165.084 63.0901C164.69 63.0901 164.354 63.234 164.078 63.5219C163.806 63.8098 163.639 64.1865 163.576 64.6519H166.38ZM174.52 68.2783H173.147V67.249H173.124C172.682 68.0299 172.002 68.4203 171.083 68.4203C170.337 68.4203 169.74 68.1501 169.29 67.6098C168.845 67.0656 168.622 66.3261 168.622 65.3914C168.622 64.3896 168.868 63.587 169.361 62.9836C169.858 62.3801 170.519 62.0784 171.343 62.0784C172.16 62.0784 172.753 62.4058 173.124 63.0605H173.147V59.3098H174.52V68.2783ZM173.165 65.5097V64.7169C173.165 64.287 173.025 63.9222 172.745 63.6225C172.465 63.3228 172.108 63.1729 171.674 63.1729C171.162 63.1729 170.757 63.3642 170.462 63.7467C170.17 64.1293 170.024 64.6597 170.024 65.3381C170.024 65.9534 170.164 66.4404 170.444 66.7993C170.728 67.1543 171.108 67.3318 171.586 67.3318C172.055 67.3318 172.436 67.1602 172.727 66.8171C173.019 66.47 173.165 66.0342 173.165 65.5097ZM179.27 68.089V66.8171C179.783 67.2075 180.349 67.4028 180.968 67.4028C181.797 67.4028 182.211 67.1582 182.211 66.6692C182.211 66.5312 182.175 66.4148 182.104 66.3202C182.033 66.2216 181.937 66.1348 181.814 66.0599C181.696 65.9849 181.554 65.9179 181.388 65.8587C181.227 65.7996 181.045 65.7325 180.844 65.6576C180.596 65.559 180.371 65.4545 180.17 65.344C179.972 65.2336 179.807 65.1094 179.673 64.9713C179.543 64.8293 179.444 64.6696 179.377 64.4921C179.31 64.3147 179.276 64.1076 179.276 63.871C179.276 63.5791 179.345 63.3228 179.483 63.1019C179.621 62.8771 179.807 62.6897 180.04 62.5399C180.272 62.3861 180.536 62.2717 180.832 62.1968C181.128 62.1179 181.434 62.0784 181.749 62.0784C182.309 62.0784 182.81 62.1632 183.252 62.3328V63.5338C182.826 63.2419 182.337 63.096 181.785 63.096C181.611 63.096 181.453 63.1137 181.311 63.1492C181.173 63.1847 181.055 63.234 180.957 63.2971C180.858 63.3602 180.781 63.4371 180.726 63.5278C180.671 63.6146 180.643 63.7112 180.643 63.8177C180.643 63.9479 180.671 64.0583 180.726 64.149C180.781 64.2397 180.862 64.3206 180.968 64.3916C181.079 64.4586 181.209 64.5217 181.359 64.5809C181.513 64.6361 181.688 64.6972 181.885 64.7643C182.146 64.8708 182.378 64.9792 182.583 65.0896C182.792 65.2001 182.97 65.3263 183.116 65.4683C183.262 65.6063 183.374 65.768 183.453 65.9534C183.532 66.1348 183.571 66.3517 183.571 66.6041C183.571 66.9117 183.5 67.1799 183.358 67.4087C183.216 67.6374 183.027 67.8267 182.79 67.9766C182.554 68.1265 182.28 68.2369 181.968 68.3079C181.66 68.3828 181.335 68.4203 180.992 68.4203C180.329 68.4203 179.756 68.3099 179.27 68.089ZM188.073 68.2132C187.805 68.3473 187.452 68.4144 187.014 68.4144C185.839 68.4144 185.251 67.8504 185.251 66.7224V63.2971H184.24V62.2204H185.251V60.8183L186.624 60.4279V62.2204H188.073V63.2971H186.624V66.3261C186.624 66.685 186.689 66.9413 186.819 67.0951C186.949 67.249 187.166 67.3259 187.47 67.3259C187.703 67.3259 187.904 67.2588 188.073 67.1247V68.2132ZM192.771 63.5278C192.605 63.3977 192.366 63.3326 192.055 63.3326C191.649 63.3326 191.309 63.516 191.037 63.8828C190.765 64.2496 190.629 64.7485 190.629 65.3795V68.2783H189.257V62.2204H190.629V63.4687H190.653C190.787 63.0427 190.992 62.7114 191.268 62.4748C191.548 62.2342 191.86 62.1139 192.203 62.1139C192.451 62.1139 192.64 62.1514 192.771 62.2263V63.5278ZM198.391 68.2783H197.06V67.3318H197.036C196.618 68.0575 196.005 68.4203 195.196 68.4203C194.601 68.4203 194.133 68.2586 193.794 67.9352C193.459 67.6118 193.291 67.1839 193.291 66.6514C193.291 65.5077 193.95 64.8412 195.267 64.6519L197.066 64.3975C197.066 63.5338 196.655 63.1019 195.835 63.1019C195.113 63.1019 194.463 63.3504 193.883 63.8473V62.6464C194.522 62.2677 195.259 62.0784 196.095 62.0784C197.626 62.0784 198.391 62.8317 198.391 64.3383V68.2783ZM197.066 65.3026L195.794 65.4801C195.399 65.5314 195.101 65.628 194.9 65.77C194.703 65.908 194.605 66.1525 194.605 66.5035C194.605 66.7599 194.695 66.9709 194.877 67.1365C195.062 67.2982 195.309 67.3791 195.616 67.3791C196.034 67.3791 196.379 67.2332 196.651 66.9413C196.928 66.6455 197.066 66.2748 197.066 65.8291V65.3026ZM203.265 68.2132C202.997 68.3473 202.644 68.4144 202.206 68.4144C201.031 68.4144 200.444 67.8504 200.444 66.7224V63.2971H199.432V62.2204H200.444V60.8183L201.816 60.4279V62.2204H203.265V63.2971H201.816V66.3261C201.816 66.685 201.881 66.9413 202.011 67.0951C202.141 67.249 202.358 67.3259 202.662 67.3259C202.895 67.3259 203.096 67.2588 203.265 67.1247V68.2132ZM209.507 65.6221H205.377C205.393 66.1821 205.565 66.614 205.892 66.9177C206.223 67.2213 206.677 67.3732 207.253 67.3732C207.9 67.3732 208.493 67.1799 209.033 66.7934V67.8997C208.481 68.2468 207.752 68.4203 206.845 68.4203C205.953 68.4203 205.253 68.1462 204.744 67.598C204.24 67.0458 203.987 66.2709 203.987 65.273C203.987 64.3304 204.265 63.5633 204.821 62.9717C205.381 62.3762 206.075 62.0784 206.904 62.0784C207.732 62.0784 208.373 62.3447 208.826 62.8771C209.28 63.4095 209.507 64.149 209.507 65.0956V65.6221ZM208.182 64.6519C208.178 64.1589 208.061 63.7763 207.833 63.5042C207.604 63.2281 207.288 63.0901 206.886 63.0901C206.492 63.0901 206.156 63.234 205.88 63.5219C205.608 63.8098 205.441 64.1865 205.377 64.6519H208.182ZM216.328 67.7932C216.328 70.0176 215.21 71.1298 212.973 71.1298C212.185 71.1298 211.496 70.9977 210.909 70.7334V69.4793C211.571 69.8579 212.2 70.0472 212.796 70.0472C214.236 70.0472 214.955 69.3392 214.955 67.9234V67.2608H214.932C214.478 68.0338 213.796 68.4203 212.885 68.4203C212.147 68.4203 211.552 68.1521 211.098 67.6157C210.648 67.0754 210.424 66.3517 210.424 65.4446C210.424 64.4152 210.666 63.5969 211.151 62.9895C211.636 62.3821 212.303 62.0784 213.151 62.0784C213.952 62.0784 214.545 62.4058 214.932 63.0605H214.955V62.2204H216.328V67.7932ZM214.967 65.5038V64.7169C214.967 64.291 214.825 63.9281 214.541 63.6284C214.261 63.3247 213.91 63.1729 213.488 63.1729C212.968 63.1729 212.559 63.3661 212.264 63.7526C211.972 64.1352 211.826 64.6716 211.826 65.3618C211.826 65.9573 211.966 66.4345 212.246 66.7934C212.53 67.1484 212.904 67.3259 213.37 67.3259C213.843 67.3259 214.228 67.1563 214.523 66.8171C214.819 66.474 214.967 66.0362 214.967 65.5038ZM218.807 60.9485C218.582 60.9485 218.388 60.8755 218.227 60.7296C218.069 60.5837 217.99 60.3983 217.99 60.1735C217.99 59.9487 218.069 59.7614 218.227 59.6115C218.388 59.4616 218.582 59.3867 218.807 59.3867C219.039 59.3867 219.236 59.4616 219.398 59.6115C219.56 59.7614 219.641 59.9487 219.641 60.1735C219.641 60.3865 219.56 60.5699 219.398 60.7237C219.236 60.8736 219.039 60.9485 218.807 60.9485ZM219.487 68.2783H218.114V62.2204H219.487V68.2783ZM226.414 65.6221H222.285C222.301 66.1821 222.472 66.614 222.8 66.9177C223.131 67.2213 223.585 67.3732 224.16 67.3732C224.807 67.3732 225.401 67.1799 225.941 66.7934V67.8997C225.389 68.2468 224.659 68.4203 223.752 68.4203C222.861 68.4203 222.161 68.1462 221.652 67.598C221.147 67.0458 220.895 66.2709 220.895 65.273C220.895 64.3304 221.173 63.5633 221.729 62.9717C222.289 62.3762 222.983 62.0784 223.811 62.0784C224.64 62.0784 225.281 62.3447 225.734 62.8771C226.188 63.4095 226.414 64.149 226.414 65.0956V65.6221ZM225.089 64.6519C225.085 64.1589 224.969 63.7763 224.74 63.5042C224.511 63.2281 224.196 63.0901 223.794 63.0901C223.399 63.0901 223.064 63.234 222.788 63.5219C222.516 63.8098 222.348 64.1865 222.285 64.6519H225.089ZM227.343 68.089V66.8171C227.856 67.2075 228.422 67.4028 229.041 67.4028C229.869 67.4028 230.283 67.1582 230.283 66.6692C230.283 66.5312 230.248 66.4148 230.177 66.3202C230.106 66.2216 230.009 66.1348 229.887 66.0599C229.769 65.9849 229.627 65.9179 229.461 65.8587C229.299 65.7996 229.118 65.7325 228.917 65.6576C228.668 65.559 228.444 65.4545 228.242 65.344C228.045 65.2336 227.88 65.1094 227.746 64.9713C227.615 64.8293 227.517 64.6696 227.45 64.4921C227.383 64.3147 227.349 64.1076 227.349 63.871C227.349 63.5791 227.418 63.3228 227.556 63.1019C227.694 62.8771 227.88 62.6897 228.112 62.5399C228.345 62.3861 228.609 62.2717 228.905 62.1968C229.201 62.1179 229.506 62.0784 229.822 62.0784C230.382 62.0784 230.883 62.1632 231.325 62.3328V63.5338C230.899 63.2419 230.41 63.096 229.857 63.096C229.684 63.096 229.526 63.1137 229.384 63.1492C229.246 63.1847 229.128 63.234 229.029 63.2971C228.931 63.3602 228.854 63.4371 228.799 63.5278C228.743 63.6146 228.716 63.7112 228.716 63.8177C228.716 63.9479 228.743 64.0583 228.799 64.149C228.854 64.2397 228.935 64.3206 229.041 64.3916C229.152 64.4586 229.282 64.5217 229.432 64.5809C229.585 64.6361 229.761 64.6972 229.958 64.7643C230.218 64.8708 230.451 64.9792 230.656 65.0896C230.865 65.2001 231.043 65.3263 231.189 65.4683C231.334 65.6063 231.447 65.768 231.526 65.9534C231.605 66.1348 231.644 66.3517 231.644 66.6041C231.644 66.9117 231.573 67.1799 231.431 67.4087C231.289 67.6374 231.1 67.8267 230.863 67.9766C230.627 68.1265 230.352 68.2369 230.041 68.3079C229.733 68.3828 229.408 68.4203 229.065 68.4203C228.402 68.4203 227.828 68.3099 227.343 68.089ZM234.235 66.8644L233.318 69.8165H232.289L232.94 66.8644H234.235ZM243.86 68.2783H242.529V67.3318H242.506C242.088 68.0575 241.474 68.4203 240.666 68.4203C240.07 68.4203 239.603 68.2586 239.264 67.9352C238.929 67.6118 238.761 67.1839 238.761 66.6514C238.761 65.5077 239.42 64.8412 240.737 64.6519L242.535 64.3975C242.535 63.5338 242.125 63.1019 241.305 63.1019C240.583 63.1019 239.932 63.3504 239.353 63.8473V62.6464C239.991 62.2677 240.729 62.0784 241.565 62.0784C243.095 62.0784 243.86 62.8317 243.86 64.3383V68.2783ZM242.535 65.3026L241.263 65.4801C240.869 65.5314 240.571 65.628 240.37 65.77C240.173 65.908 240.074 66.1525 240.074 66.5035C240.074 66.7599 240.165 66.9709 240.346 67.1365C240.532 67.2982 240.778 67.3791 241.086 67.3791C241.504 67.3791 241.849 67.2332 242.121 66.9413C242.397 66.6455 242.535 66.2748 242.535 65.8291V65.3026ZM246.919 68.2783H245.541V59.3098H246.919V68.2783ZM250.09 68.2783H248.712V59.3098H250.09V68.2783ZM255.911 60.9485C255.686 60.9485 255.493 60.8755 255.331 60.7296C255.174 60.5837 255.095 60.3983 255.095 60.1735C255.095 59.9487 255.174 59.7614 255.331 59.6115C255.493 59.4616 255.686 59.3867 255.911 59.3867C256.144 59.3867 256.341 59.4616 256.503 59.6115C256.664 59.7614 256.745 59.9487 256.745 60.1735C256.745 60.3865 256.664 60.5699 256.503 60.7237C256.341 60.8736 256.144 60.9485 255.911 60.9485ZM256.592 68.2783H255.219V62.2204H256.592V68.2783ZM263.785 68.2783H262.413V64.8648C262.413 63.7329 262.012 63.167 261.212 63.167C260.794 63.167 260.449 63.3247 260.177 63.6402C259.904 63.9518 259.768 64.3462 259.768 64.8234V68.2783H258.39V62.2204H259.768V63.2261H259.792C260.246 62.461 260.9 62.0784 261.756 62.0784C262.415 62.0784 262.918 62.2934 263.265 62.7233C263.612 63.1492 263.785 63.7664 263.785 64.575V68.2783ZM271.488 68.4203C270.553 68.4203 269.806 68.1383 269.246 67.5743C268.69 67.0064 268.412 66.2551 268.412 65.3204C268.412 64.3028 268.701 63.5081 269.281 62.9362C269.865 62.3644 270.65 62.0784 271.636 62.0784C272.582 62.0784 273.32 62.3565 273.848 62.9126C274.377 63.4687 274.641 64.2397 274.641 65.2257C274.641 66.192 274.355 66.967 273.783 67.5507C273.215 68.1304 272.45 68.4203 271.488 68.4203ZM271.553 63.1729C271.017 63.1729 270.593 63.3602 270.281 63.7349C269.969 64.1096 269.814 64.6262 269.814 65.2849C269.814 65.9198 269.971 66.4207 270.287 66.7875C270.602 67.1504 271.024 67.3318 271.553 67.3318C272.093 67.3318 272.507 67.1523 272.795 66.7934C273.087 66.4345 273.233 65.9238 273.233 65.2612C273.233 64.5947 273.087 64.08 272.795 63.7171C272.507 63.3543 272.093 63.1729 271.553 63.1729ZM281.438 68.2783H280.066V64.8648C280.066 63.7329 279.666 63.167 278.865 63.167C278.447 63.167 278.102 63.3247 277.83 63.6402C277.558 63.9518 277.421 64.3462 277.421 64.8234V68.2783H276.043V62.2204H277.421V63.2261H277.445C277.899 62.461 278.553 62.0784 279.409 62.0784C280.068 62.0784 280.571 62.2934 280.918 62.7233C281.265 63.1492 281.438 63.7664 281.438 64.575V68.2783ZM288.248 65.6221H284.118C284.134 66.1821 284.306 66.614 284.633 66.9177C284.964 67.2213 285.418 67.3732 285.994 67.3732C286.64 67.3732 287.234 67.1799 287.774 66.7934V67.8997C287.222 68.2468 286.493 68.4203 285.585 68.4203C284.694 68.4203 283.994 68.1462 283.485 67.598C282.98 67.0458 282.728 66.2709 282.728 65.273C282.728 64.3304 283.006 63.5633 283.562 62.9717C284.122 62.3762 284.816 62.0784 285.645 62.0784C286.473 62.0784 287.114 62.3447 287.567 62.8771C288.021 63.4095 288.248 64.149 288.248 65.0956V65.6221ZM286.922 64.6519C286.919 64.1589 286.802 63.7763 286.573 63.5042C286.345 63.2281 286.029 63.0901 285.627 63.0901C285.232 63.0901 284.897 63.234 284.621 63.5219C284.349 63.8098 284.181 64.1865 284.118 64.6519H286.922ZM294.288 67.385H294.264V71.0647H292.892V62.2204H294.264V63.2853H294.288C294.757 62.4807 295.443 62.0784 296.346 62.0784C297.116 62.0784 297.715 62.3486 298.145 62.8889C298.575 63.4292 298.79 64.1549 298.79 65.066C298.79 66.0756 298.547 66.8841 298.062 67.4915C297.577 68.0989 296.914 68.4026 296.074 68.4026C295.301 68.4026 294.706 68.0634 294.288 67.385ZM294.252 64.995V65.7463C294.252 66.188 294.392 66.5627 294.672 66.8703C294.956 67.178 295.315 67.3318 295.749 67.3318C296.258 67.3318 296.656 67.1346 296.944 66.7402C297.236 66.3418 297.382 65.7877 297.382 65.0778C297.382 64.4823 297.246 64.0169 296.974 63.6817C296.705 63.3425 296.341 63.1729 295.879 63.1729C295.39 63.1729 294.996 63.3464 294.696 63.6935C294.4 64.0406 294.252 64.4744 294.252 64.995ZM301.57 68.2783H300.192V59.3098H301.57V68.2783ZM308.013 68.2783H306.682V67.3318H306.658C306.24 68.0575 305.627 68.4203 304.818 68.4203C304.223 68.4203 303.755 68.2586 303.416 67.9352C303.081 67.6118 302.913 67.1839 302.913 66.6514C302.913 65.5077 303.572 64.8412 304.889 64.6519L306.688 64.3975C306.688 63.5338 306.277 63.1019 305.457 63.1019C304.735 63.1019 304.085 63.3504 303.505 63.8473V62.6464C304.144 62.2677 304.881 62.0784 305.717 62.0784C307.248 62.0784 308.013 62.8317 308.013 64.3383V68.2783ZM306.688 65.3026L305.416 65.4801C305.021 65.5314 304.723 65.628 304.522 65.77C304.325 65.908 304.227 66.1525 304.227 66.5035C304.227 66.7599 304.317 66.9709 304.499 67.1365C304.684 67.2982 304.931 67.3791 305.238 67.3791C305.656 67.3791 306.001 67.2332 306.273 66.9413C306.549 66.6455 306.688 66.2748 306.688 65.8291V65.3026ZM314.029 68.0003C313.544 68.2803 312.97 68.4203 312.308 68.4203C311.408 68.4203 310.683 68.1403 310.131 67.5802C309.578 67.0163 309.302 66.2866 309.302 65.3914C309.302 64.3935 309.598 63.5929 310.19 62.9895C310.785 62.3821 311.58 62.0784 312.574 62.0784C313.126 62.0784 313.613 62.1751 314.035 62.3683V63.6462C313.613 63.3306 313.163 63.1729 312.686 63.1729C312.106 63.1729 311.631 63.3701 311.261 63.7645C310.89 64.1549 310.704 64.6676 310.704 65.3026C310.704 65.9297 310.878 66.4247 311.225 66.7875C311.576 67.1504 312.045 67.3318 312.633 67.3318C313.126 67.3318 313.591 67.1563 314.029 66.8053V68.0003ZM320.525 65.6221H316.396C316.411 66.1821 316.583 66.614 316.91 66.9177C317.242 67.2213 317.695 67.3732 318.271 67.3732C318.918 67.3732 319.511 67.1799 320.052 66.7934V67.8997C319.499 68.2468 318.77 68.4203 317.863 68.4203C316.971 68.4203 316.271 68.1462 315.763 67.598C315.258 67.0458 315.005 66.2709 315.005 65.273C315.005 64.3304 315.283 63.5633 315.839 62.9717C316.399 62.3762 317.094 62.0784 317.922 62.0784C318.75 62.0784 319.391 62.3447 319.845 62.8771C320.298 63.4095 320.525 64.149 320.525 65.0956V65.6221ZM319.2 64.6519C319.196 64.1589 319.079 63.7763 318.851 63.5042C318.622 63.2281 318.306 63.0901 317.904 63.0901C317.51 63.0901 317.174 63.234 316.898 63.5219C316.626 63.8098 316.459 64.1865 316.396 64.6519H319.2ZM322.4 68.4085C322.164 68.4085 321.962 68.3316 321.797 68.1777C321.631 68.02 321.548 67.8327 321.548 67.6157C321.548 67.3949 321.631 67.2056 321.797 67.0478C321.962 66.8901 322.164 66.8112 322.4 66.8112C322.641 66.8112 322.844 66.8901 323.01 67.0478C323.179 67.2056 323.264 67.3949 323.264 67.6157C323.264 67.8327 323.179 68.02 323.01 68.1777C322.844 68.3316 322.641 68.4085 322.4 68.4085Z" fill="white"/>
<path d="M37.9958 23.9473C39.2449 19.9791 42.9616 17.1006 47.3523 17.1006C52.4365 17.1006 56.6169 20.9611 57.1088 25.9035L55.1527 25.5054M56.6599 29.8159C56.0301 31.8032 54.7837 33.5382 53.1013 34.7693C51.4189 36.0004 49.3881 36.6635 47.3034 36.6626C42.2193 36.6626 38.0389 32.802 37.5469 27.8597L39.5031 28.2578" stroke="white" stroke-width="1.46715" stroke-linecap="round" stroke-linejoin="round"/>
<path d="M44.3957 28.3763V30.3246C44.3934 30.4816 44.431 30.6366 44.5049 30.7752C44.5788 30.9137 44.6866 31.0313 44.8182 31.1169C45.6437 31.6333 46.2707 31.7849 47.3329 31.8172C48.312 31.8436 48.9262 31.6901 49.8398 31.1188C49.9736 31.0326 50.0834 30.9138 50.1586 30.7735C50.2339 30.6332 50.2723 30.476 50.2701 30.3168V28.3763M52.2293 25.9183V28.8673M42.4864 25.751C42.8405 25.0038 45.0344 23.7029 47.0366 23.0603C47.2295 22.999 47.4374 23.0038 47.6273 23.074C49.3977 23.7215 51.3676 24.7025 52.0826 25.4977C52.4552 25.9134 52.0904 26.4435 51.6395 26.7712C50.723 27.4373 49.7126 27.9547 47.6704 28.7401C47.454 28.823 47.215 28.8247 46.9974 28.745C44.9043 27.9674 42.9461 26.9649 42.5031 26.0816C42.4756 26.0313 42.4599 25.9755 42.457 25.9182C42.4541 25.861 42.4642 25.8038 42.4864 25.751Z" stroke="white" stroke-width="1.46715" stroke-linecap="round" stroke-linejoin="round"/>
</svg>
