<svg width="327" height="99" viewBox="0 0 327 99" fill="none" xmlns="http://www.w3.org/2000/svg">
<mask id="mask0_500_605" style="mask-type:luminance" maskUnits="userSpaceOnUse" x="0" y="44" width="36" height="35">
<path d="M0 44.5093H35.3147V78.4861H0V44.5093Z" fill="white"/>
</mask>
<g mask="url(#mask0_500_605)">
<path d="M35.2653 78.0647H11.9084C5.3289 78.0647 0 72.187 0 64.93V45.0928H35.2653V78.0647Z" fill="#FF9D32"/>
</g>
<mask id="mask1_500_605" style="mask-type:luminance" maskUnits="userSpaceOnUse" x="13" y="0" width="314" height="99">
<path d="M13.3125 0H327V98.2403H13.3125V0Z" fill="white"/>
</mask>
<g mask="url(#mask1_500_605)">
<path d="M309.224 98.2239H31.4335C21.6503 98.2239 13.6978 89.4524 13.6978 78.6616V19.6501C13.6978 8.85939 21.6503 0.0878906 31.4335 0.0878906H309.181C318.966 0.0878906 326.919 8.85939 326.919 19.6501V78.6166C326.96 89.4524 319.007 98.2239 309.224 98.2239Z" fill="#C07D14"/>
</g>
<path d="M31.5184 92.4385H31.4346C30.4354 92.4385 29.4363 92.3011 28.5209 92.0712L28.2716 93.3107C29.3116 93.5856 30.3538 93.7231 31.4346 93.7231H31.5184V92.4385ZM37.681 92.4385H34.5997V93.7231H37.681V92.4385ZM43.8415 92.4385H40.7623V93.7231H43.8415V92.4385ZM50.0041 92.4385H46.9228V93.7231H50.0041V92.4385ZM56.1667 92.4385H53.0854V93.7231H56.1667V92.4385ZM62.3293 92.4385H59.248V93.7231H62.3293V92.4385ZM68.4489 92.4385H65.3676V93.7231H68.4489V92.4385ZM74.6116 92.4385H71.5303V93.7231H74.6116V92.4385ZM80.772 92.4385H77.6907V93.7231H80.772V92.4385ZM86.9346 92.4385H83.8533V93.7231H86.9346V92.4385ZM93.0972 92.4385H90.0159V93.7231H93.0972V92.4385ZM99.2577 92.4385H96.1786V93.7231H99.2577V92.4385ZM105.379 92.4385H102.298V93.7231H105.379V92.4385ZM111.54 92.4385H108.461V93.7231H111.54V92.4385ZM117.703 92.4385H114.621V93.7231H117.703V92.4385ZM123.865 92.4385H120.784V93.7231H123.865V92.4385ZM130.028 92.4385H126.946V93.7231H130.028V92.4385ZM136.188 92.4385H133.107V93.7231H136.188V92.4385ZM142.31 92.4385H139.229V93.7231H142.31V92.4385ZM148.471 92.4385H145.391V93.7231H148.471V92.4385ZM154.633 92.4385H151.552V93.7231H154.633V92.4385ZM160.796 92.4385H157.714V93.7231H160.796V92.4385ZM166.956 92.4385H163.877V93.7231H166.956V92.4385ZM173.119 92.4385H170.037V93.7231H173.119V92.4385ZM179.241 92.4385H176.159V93.7231H179.241V92.4385ZM185.401 92.4385H182.32V93.7231H185.401V92.4385ZM191.564 92.4385H188.482V93.7231H191.564V92.4385ZM197.726 92.4385H194.645V93.7231H197.726V92.4385ZM203.887 92.4385H200.805V93.7231H203.887V92.4385ZM210.049 92.4385H206.968V93.7231H210.049V92.4385ZM216.169 92.4385H213.09V93.7231H216.169V92.4385ZM222.332 92.4385H219.25V93.7231H222.332V92.4385ZM228.494 92.4385H225.413V93.7231H228.494V92.4385ZM234.655 92.4385H231.576V93.7231H234.655V92.4385ZM240.817 92.4385H237.736V93.7231H240.817V92.4385ZM246.98 92.4385H243.899V93.7231H246.98V92.4385ZM253.1 92.4385H250.018V93.7231H253.1V92.4385ZM259.262 92.4385H256.181V93.7231H259.262V92.4385ZM265.425 92.4385H262.343V93.7231H265.425V92.4385ZM271.585 92.4385H268.506V93.7231H271.585V92.4385ZM277.748 92.4385H274.667V93.7231H277.748V92.4385ZM283.91 92.4385H280.829V93.7231H283.91V92.4385ZM290.03 92.4385H286.949V93.7231H290.03V92.4385ZM296.193 92.4385H293.111V93.7231H296.193V92.4385ZM302.355 92.4385H299.274V93.7231H302.355V92.4385ZM308.516 92.4385H305.434V93.7231H308.516V92.4385ZM314.262 91.2914C313.387 91.7038 312.431 92.0261 311.472 92.2537L311.681 93.4956C312.764 93.2657 313.763 92.9434 314.762 92.4385L314.262 91.2914ZM318.924 87.388C318.301 88.2128 317.592 88.9949 316.801 89.6372L317.51 90.6468C318.342 89.9121 319.133 89.0849 319.799 88.2128L318.924 87.388ZM321.464 81.6004C321.256 82.6574 320.923 83.7121 320.508 84.6767L321.548 85.2289C322.006 84.1719 322.382 83.0698 322.588 81.8753L321.464 81.6004ZM321.756 74.9429V78.3392H322.921V74.9429H321.756ZM321.756 68.1907V71.5893H322.921V68.1907H321.756ZM321.756 61.3935V64.7921H322.921V61.3935H321.756ZM321.756 54.5986V57.9972H322.921V54.5986H321.756ZM321.756 47.8013V51.1999H322.921V47.8013H321.756ZM321.756 41.0041V44.4027H322.921V41.0041H321.756ZM321.756 34.2092V37.6078H322.921V34.2092H321.756ZM321.756 27.4569V30.8556H322.921V27.4569H321.756ZM321.756 20.6621V24.0583H322.921V20.6621H321.756ZM320.757 14.2772C321.131 15.2418 321.423 16.2988 321.589 17.4009L322.715 17.171C322.547 15.9765 322.214 14.8294 321.797 13.7724L320.757 14.2772ZM317.302 9.08918C318.05 9.77649 318.716 10.5586 319.3 11.4308L320.216 10.651C319.59 9.68643 318.843 8.81426 318.009 8.07718L317.302 9.08918ZM312.098 6.19537C313.054 6.42526 313.971 6.83765 314.844 7.29744L315.385 6.15034C314.429 5.64552 313.43 5.23077 312.388 4.95584L312.098 6.19537ZM306.101 5.82802H309.182V4.54346H306.101V5.82802ZM299.94 5.82802H303.021V4.54346H299.94V5.82802ZM293.777 5.82802H296.859V4.54346H293.777V5.82802ZM287.615 5.82802H290.696V4.54346H287.615V5.82802ZM281.454 5.82802H284.534V4.54346H281.454V5.82802ZM275.333 5.82802H278.414V4.54346H275.333V5.82802ZM269.172 5.82802H272.251V4.54346H269.172V5.82802ZM263.01 5.82802H266.091V4.54346H263.01V5.82802ZM256.847 5.82802H259.928V4.54346H256.847V5.82802ZM250.684 5.82802H253.766V4.54346H250.684V5.82802ZM244.524 5.82802H247.605V4.54346H244.524V5.82802ZM238.402 5.82802H241.483V4.54346H238.402V5.82802ZM232.242 5.82802H235.323V4.54346H232.242V5.82802ZM226.079 5.82802H229.16V4.54346H226.079V5.82802ZM219.916 5.82802H222.998V4.54346H219.916V5.82802ZM213.756 5.82802H216.835V4.54346H213.756V5.82802ZM207.593 5.82802H210.675V4.54346H207.593V5.82802ZM201.474 5.82802H204.553V4.54346H201.474V5.82802ZM195.311 5.82802H198.392V4.54346H195.311V5.82802ZM189.148 5.82802H192.23V4.54346H189.148V5.82802ZM182.986 5.82802H186.067V4.54346H182.986V5.82802ZM176.825 5.82802H179.907V4.54346H176.825V5.82802ZM170.663 5.82802H173.744V4.54346H170.663V5.82802ZM164.543 5.82802H167.624V4.54346H164.543V5.82802ZM158.381 5.82802H161.462V4.54346H158.381V5.82802ZM152.218 5.82802H155.299V4.54346H152.218V5.82802ZM146.057 5.82802H149.137V4.54346H146.057V5.82802ZM139.895 5.82802H142.976V4.54346H139.895V5.82802ZM133.732 5.82802H136.814V4.54346H133.732V5.82802ZM127.57 5.82802H130.651V4.54346H127.57V5.82802ZM121.45 5.82802H124.531V4.54346H121.45V5.82802ZM115.287 5.82802H118.369V4.54346H115.287V5.82802ZM109.127 5.82802H112.208V4.54346H109.127V5.82802ZM102.964 5.82802H106.046V4.54346H102.964V5.82802ZM96.8017 5.82802H99.883V4.54346H96.8017V5.82802ZM90.6412 5.82802H93.7204V4.54346H90.6412V5.82802ZM84.5194 5.82802H87.6007V4.54346H84.5194V5.82802ZM78.359 5.82802H81.4381V4.54346H78.359V5.82802ZM72.1964 5.82802H75.2777V4.54346H72.1964V5.82802ZM66.0338 5.82802H69.1151V4.54346H66.0338V5.82802ZM59.8711 5.82802H62.9524V4.54346H59.8711V5.82802ZM53.7107 5.82802H56.792V4.54346H53.7107V5.82802ZM47.5889 5.82802H50.6702V4.54346H47.5889V5.82802ZM41.4284 5.82802H44.5076V4.54346H41.4284V5.82802ZM35.2658 5.82802H38.3471V4.54346H35.2658V5.82802ZM29.2278 6.05791C29.9369 5.92045 30.6868 5.82802 31.4776 5.82802H32.2253V4.54346H31.4776C30.6439 4.54346 29.8531 4.63352 29.0624 4.77098L29.2278 6.05791ZM23.8989 8.6294C24.6897 7.98712 25.5234 7.4349 26.4388 6.97511L25.9811 5.82802C24.9819 6.2878 24.0665 6.93008 23.2328 7.61976L23.8989 8.6294ZM20.1945 13.5899C20.6092 12.6253 21.1507 11.7057 21.776 10.8786L20.9014 10.0538C20.2353 10.971 19.653 11.9356 19.1524 13.0377L20.1945 13.5899ZM18.9031 19.8799V19.6501C18.9031 18.6404 18.9869 17.6308 19.1953 16.6662L18.0694 16.3913C17.8631 17.4459 17.7363 18.548 17.7363 19.6501V19.8799H18.9031ZM18.9031 26.6772V23.2786H17.7363V26.6772H18.9031ZM18.9031 33.4745V30.0758H17.7363V33.4745H18.9031ZM18.9031 40.2693V36.8707H17.7363V40.2693H18.9031ZM18.9031 47.0216V43.6229H17.7363V47.0216H18.9031ZM18.9031 53.8165V50.4202H17.7363V53.8165H18.9031ZM18.9031 60.6137V57.2151H17.7363V60.6137H18.9031ZM18.9031 67.411V64.0123H17.7363V67.411H18.9031ZM18.9031 74.2082V70.8096H17.7363V74.2082H18.9031ZM19.0707 80.8657C18.9439 80.131 18.9031 79.3962 18.9031 78.6165V77.5595H17.7363V78.6165C17.7363 79.4413 17.7793 80.2684 17.9039 81.0505L19.0707 80.8657ZM21.3591 86.7907C20.7768 85.9162 20.2761 84.999 19.9023 83.9894L18.8193 84.4942C19.2362 85.5962 19.7776 86.6059 20.4029 87.5705L21.3591 86.7907ZM25.7726 90.9691C24.8981 90.4643 24.0665 89.867 23.3166 89.1774L22.5667 90.142C23.4004 90.9241 24.275 91.5664 25.2312 92.1162L25.7726 90.9691Z" fill="white"/>
<mask id="mask2_500_605" style="mask-type:luminance" maskUnits="userSpaceOnUse" x="0" y="9" width="114" height="55">
<path d="M0 9.31982H113.976V63.9254H0V9.31982Z" fill="white"/>
</mask>
<g mask="url(#mask2_500_605)">
<path d="M106.419 9.73193H11.3261C5.07964 9.73193 0 15.3347 0 22.222V63.3231C0 55.0588 6.07881 48.354 13.5736 48.354H106.419L113.497 29.0193L106.419 9.73193Z" fill="#FF6A00"/>
</g>
<mask id="mask3_500_605" style="mask-type:luminance" maskUnits="userSpaceOnUse" x="86" y="9" width="196" height="40">
<path d="M86.9185 9.77881H281.284V48.2658H86.9185V9.77881Z" fill="white"/>
</mask>
<g mask="url(#mask3_500_605)">
<mask id="mask4_500_605" style="mask-type:luminance" maskUnits="userSpaceOnUse" x="86" y="9" width="196" height="40">
<path d="M263.414 9.77881H86.9175V48.2658H263.414L281.263 29.0211L263.414 9.77881Z" fill="white"/>
</mask>
<g mask="url(#mask4_500_605)">
<mask id="mask5_500_605" style="mask-type:luminance" maskUnits="userSpaceOnUse" x="86" y="9" width="196" height="40">
<path d="M281.749 9.31982H86.4702V48.7572H281.749V9.31982Z" fill="white"/>
</mask>
<g mask="url(#mask5_500_605)">
<mask id="mask6_500_605" style="mask-type:luminance" maskUnits="userSpaceOnUse" x="86" y="9" width="196" height="40">
<path d="M86.9165 9.7793H281.282V48.2663H86.9165V9.7793Z" fill="white"/>
</mask>
<g mask="url(#mask6_500_605)">
<mask id="mask7_500_605" style="mask-type:luminance" maskUnits="userSpaceOnUse" x="86" y="9" width="196" height="40">
<path d="M263.412 9.7793H86.9155V48.2663H263.412L281.261 29.0216L263.412 9.7793Z" fill="white"/>
</mask>
<g mask="url(#mask7_500_605)">
<path d="M86.9155 9.7793H281.281V48.2663H86.9155V9.7793Z" fill="#FF6A00"/>
</g>
</g>
</g>
</g>
</g>
<path d="M95.195 33.9865C94.1871 34.5355 93.0645 34.8099 91.8272 34.8099C90.3964 34.8099 89.2378 34.3645 88.3514 33.4736C87.465 32.5827 87.0218 31.4039 87.0218 29.9371C87.0218 28.4388 87.5055 27.2104 88.4729 26.2521C89.4448 25.2892 90.6776 24.8077 92.1714 24.8077C93.2468 24.8077 94.1511 24.9652 94.8845 25.2802V26.9337C94.1421 26.4388 93.258 26.1913 92.2321 26.1913C91.2018 26.1913 90.3559 26.531 89.6945 27.2104C89.0376 27.8898 88.7091 28.7695 88.7091 29.8493C88.7091 30.9607 88.9926 31.8358 89.5595 32.4747C90.1264 33.1092 90.8958 33.4264 91.8677 33.4264C92.5336 33.4264 93.1095 33.2981 93.5955 33.0417V30.7402H91.5572V29.3904H95.195V33.9865ZM98.6775 34.6479H97.105V24.4163H98.6775V34.6479ZM103.787 34.8099C102.72 34.8099 101.868 34.4882 101.229 33.8448C100.594 33.1969 100.277 32.3398 100.277 31.2734C100.277 30.1125 100.608 29.2059 101.269 28.5535C101.935 27.9011 102.83 27.5749 103.955 27.5749C105.035 27.5749 105.877 27.8921 106.48 28.5265C107.082 29.1609 107.384 30.0406 107.384 31.1654C107.384 32.2678 107.058 33.1519 106.405 33.8178C105.757 34.4792 104.884 34.8099 103.787 34.8099ZM103.861 28.8235C103.249 28.8235 102.765 29.0372 102.41 29.4646C102.054 29.8921 101.877 30.4815 101.877 31.2329C101.877 31.9573 102.057 32.5287 102.417 32.9472C102.776 33.3611 103.258 33.5681 103.861 33.5681C104.477 33.5681 104.95 33.3634 105.278 32.9539C105.611 32.5445 105.778 31.9618 105.778 31.2059C105.778 30.4455 105.611 29.8583 105.278 29.4444C104.95 29.0304 104.477 28.8235 103.861 28.8235ZM110.576 33.6491H110.549V34.6479H108.983V24.4163H110.549V28.9517H110.576C111.112 28.0338 111.895 27.5749 112.925 27.5749C113.798 27.5749 114.479 27.8853 114.97 28.5063C115.465 29.1227 115.712 29.9506 115.712 30.9899C115.712 32.1463 115.436 33.0732 114.882 33.7706C114.329 34.4635 113.573 34.8099 112.614 34.8099C111.715 34.8099 111.035 34.423 110.576 33.6491ZM110.536 30.9022V31.7593C110.536 32.2633 110.695 32.6907 111.015 33.0417C111.339 33.3926 111.748 33.5681 112.243 33.5681C112.824 33.5681 113.278 33.3431 113.607 32.8932C113.94 32.4387 114.106 31.8066 114.106 30.9967C114.106 30.3173 113.951 29.7863 113.64 29.4039C113.334 29.0169 112.918 28.8235 112.392 28.8235C111.834 28.8235 111.384 29.0214 111.042 29.4174C110.704 29.8133 110.536 30.3083 110.536 30.9022ZM122.455 34.6479H120.936V33.5681H120.909C120.432 34.396 119.733 34.8099 118.81 34.8099C118.131 34.8099 117.598 34.6255 117.211 34.2565C116.828 33.8875 116.637 33.3994 116.637 32.7919C116.637 31.4871 117.388 30.7267 118.891 30.5107L120.943 30.2205C120.943 29.2352 120.475 28.7425 119.539 28.7425C118.716 28.7425 117.973 29.0259 117.312 29.5929V28.2228C118.041 27.7909 118.882 27.5749 119.836 27.5749C121.582 27.5749 122.455 28.4343 122.455 30.153V34.6479ZM120.943 31.2531L119.492 31.4556C119.042 31.5141 118.702 31.6243 118.473 31.7863C118.248 31.9438 118.135 32.2228 118.135 32.6232C118.135 32.9157 118.239 33.1564 118.446 33.3454C118.657 33.5298 118.938 33.6221 119.289 33.6221C119.766 33.6221 120.16 33.4556 120.47 33.1227C120.785 32.7852 120.943 32.3623 120.943 31.8538V31.2531ZM125.944 34.6479H124.371V24.4163H125.944V34.6479ZM133.57 31.1384V34.6479H131.971V24.9697H134.907C136.018 24.9697 136.88 25.2284 137.492 25.7459C138.104 26.2633 138.41 26.9922 138.41 27.9326C138.41 28.873 138.09 29.6424 137.451 30.2408C136.812 30.8392 135.948 31.1384 134.86 31.1384H133.57ZM133.57 26.2926V29.8291H134.61C135.298 29.8291 135.822 29.6694 136.182 29.3499C136.542 29.0304 136.722 28.5805 136.722 28.0001C136.722 26.8617 136.061 26.2926 134.738 26.2926H133.57ZM145.26 31.6176H140.549C140.567 32.2565 140.763 32.7492 141.136 33.0957C141.514 33.4421 142.032 33.6153 142.688 33.6153C143.426 33.6153 144.104 33.3949 144.72 32.9539V34.216C144.09 34.612 143.258 34.8099 142.223 34.8099C141.206 34.8099 140.407 34.4972 139.827 33.8718C139.251 33.2419 138.963 32.3578 138.963 31.2194C138.963 30.144 139.28 29.2689 139.915 28.594C140.554 27.9146 141.345 27.5749 142.29 27.5749C143.235 27.5749 143.966 27.8786 144.484 28.486C145.001 29.0934 145.26 29.9371 145.26 31.0169V31.6176ZM143.748 30.5107C143.744 29.9483 143.611 29.5119 143.35 29.2014C143.089 28.8865 142.729 28.729 142.27 28.729C141.82 28.729 141.438 28.8932 141.123 29.2217C140.812 29.5501 140.621 29.9798 140.549 30.5107H143.748ZM150.76 29.2284C150.571 29.0799 150.299 29.0057 149.944 29.0057C149.48 29.0057 149.093 29.2149 148.783 29.6334C148.472 30.0518 148.317 30.621 148.317 31.3409V34.6479H146.751V27.7369H148.317V29.1609H148.344C148.497 28.675 148.731 28.297 149.046 28.0271C149.366 27.7526 149.721 27.6154 150.113 27.6154C150.396 27.6154 150.612 27.6581 150.76 27.7436V29.2284ZM151.53 34.432V32.9809C152.115 33.4264 152.76 33.6491 153.467 33.6491C154.412 33.6491 154.884 33.3701 154.884 32.8122C154.884 32.6547 154.844 32.522 154.763 32.414C154.682 32.3015 154.571 32.2025 154.432 32.117C154.297 32.0315 154.135 31.9551 153.946 31.8876C153.762 31.8201 153.555 31.7436 153.325 31.6581C153.042 31.5456 152.785 31.4264 152.556 31.3004C152.331 31.1744 152.142 31.0327 151.989 30.8752C151.84 30.7132 151.728 30.531 151.651 30.3285C151.575 30.126 151.537 29.8898 151.537 29.6199C151.537 29.2869 151.615 28.9944 151.773 28.7425C151.93 28.486 152.142 28.2723 152.407 28.1013C152.673 27.9258 152.974 27.7954 153.312 27.7099C153.649 27.6199 153.998 27.5749 154.358 27.5749C154.997 27.5749 155.568 27.6716 156.072 27.8651V29.2352C155.586 28.9022 155.028 28.7357 154.398 28.7357C154.2 28.7357 154.02 28.756 153.858 28.7965C153.701 28.837 153.566 28.8932 153.453 28.9652C153.341 29.0372 153.253 29.1249 153.19 29.2284C153.127 29.3274 153.096 29.4376 153.096 29.5591C153.096 29.7076 153.127 29.8336 153.19 29.9371C153.253 30.0406 153.345 30.1328 153.467 30.2138C153.593 30.2903 153.741 30.3623 153.912 30.4298C154.088 30.4927 154.288 30.5625 154.513 30.639C154.81 30.7605 155.075 30.8842 155.309 31.0102C155.548 31.1362 155.75 31.2801 155.917 31.4421C156.083 31.5996 156.211 31.7841 156.301 31.9955C156.391 32.2025 156.436 32.45 156.436 32.738C156.436 33.0889 156.355 33.3949 156.193 33.6558C156.031 33.9168 155.816 34.1328 155.546 34.3037C155.276 34.4747 154.963 34.6007 154.607 34.6817C154.256 34.7672 153.885 34.8099 153.494 34.8099C152.738 34.8099 152.083 34.6839 151.53 34.432ZM159.521 33.6288H159.494V37.8268H157.928V27.7369H159.494V28.9517H159.521C160.056 28.0338 160.839 27.5749 161.869 27.5749C162.747 27.5749 163.431 27.8831 163.921 28.4995C164.412 29.1159 164.657 29.9438 164.657 30.9832C164.657 32.135 164.38 33.0574 163.827 33.7503C163.273 34.4432 162.517 34.7897 161.559 34.7897C160.677 34.7897 159.998 34.4027 159.521 33.6288ZM159.48 30.9022V31.7593C159.48 32.2633 159.64 32.6907 159.959 33.0417C160.283 33.3926 160.693 33.5681 161.188 33.5681C161.768 33.5681 162.223 33.3431 162.551 32.8932C162.884 32.4387 163.051 31.8066 163.051 30.9967C163.051 30.3173 162.895 29.7863 162.585 29.4039C162.279 29.0169 161.863 28.8235 161.336 28.8235C160.778 28.8235 160.328 29.0214 159.986 29.4174C159.649 29.8133 159.48 30.3083 159.48 30.9022ZM172.108 31.6176H167.397C167.415 32.2565 167.611 32.7492 167.984 33.0957C168.362 33.4421 168.88 33.6153 169.536 33.6153C170.274 33.6153 170.952 33.3949 171.568 32.9539V34.216C170.938 34.612 170.106 34.8099 169.071 34.8099C168.054 34.8099 167.255 34.4972 166.675 33.8718C166.099 33.2419 165.811 32.3578 165.811 31.2194C165.811 30.144 166.128 29.2689 166.763 28.594C167.401 27.9146 168.193 27.5749 169.138 27.5749C170.083 27.5749 170.814 27.8786 171.332 28.486C171.849 29.0934 172.108 29.9371 172.108 31.0169V31.6176ZM170.596 30.5107C170.592 29.9483 170.459 29.5119 170.198 29.2014C169.937 28.8865 169.577 28.729 169.118 28.729C168.668 28.729 168.286 28.8932 167.971 29.2217C167.66 29.5501 167.469 29.9798 167.397 30.5107H170.596ZM178.547 34.3307C177.993 34.6502 177.338 34.8099 176.583 34.8099C175.557 34.8099 174.729 34.4905 174.099 33.8516C173.469 33.2081 173.154 32.3757 173.154 31.3544C173.154 30.216 173.491 29.3027 174.166 28.6142C174.846 27.9213 175.752 27.5749 176.886 27.5749C177.516 27.5749 178.072 27.6851 178.553 27.9056V29.3634C178.072 29.0034 177.559 28.8235 177.014 28.8235C176.353 28.8235 175.811 29.0484 175.388 29.4984C174.965 29.9438 174.754 30.5287 174.754 31.2531C174.754 31.9686 174.951 32.5332 175.347 32.9472C175.748 33.3611 176.283 33.5681 176.954 33.5681C177.516 33.5681 178.047 33.3679 178.547 32.9674V34.3307ZM183.75 34.5737C183.444 34.7267 183.041 34.8032 182.542 34.8032C181.201 34.8032 180.531 34.1598 180.531 32.8729V28.9652H179.377V27.7369H180.531V26.1373L182.097 25.6919V27.7369H183.75V28.9652H182.097V32.4207C182.097 32.8302 182.171 33.1227 182.319 33.2981C182.468 33.4736 182.715 33.5613 183.062 33.5613C183.327 33.5613 183.557 33.4849 183.75 33.3319V34.5737ZM185.89 26.2858C185.633 26.2858 185.413 26.2026 185.228 26.0361C185.048 25.8696 184.958 25.6581 184.958 25.4017C184.958 25.1452 185.048 24.9315 185.228 24.7605C185.413 24.5895 185.633 24.504 185.89 24.504C186.155 24.504 186.38 24.5895 186.564 24.7605C186.749 24.9315 186.841 25.1452 186.841 25.4017C186.841 25.6446 186.749 25.8539 186.564 26.0293C186.38 26.2003 186.155 26.2858 185.89 26.2858ZM186.666 34.6479H185.1V27.7369H186.666V34.6479ZM194.67 27.7369L191.997 34.6479H190.303L187.759 27.7369H189.46L190.992 32.5692C191.109 32.9247 191.181 33.2351 191.208 33.5006H191.228C191.269 33.1676 191.332 32.8662 191.417 32.5962L193.023 27.7369H194.67ZM201.48 31.6176H196.769C196.787 32.2565 196.983 32.7492 197.356 33.0957C197.734 33.4421 198.252 33.6153 198.909 33.6153C199.646 33.6153 200.324 33.3949 200.94 32.9539V34.216C200.31 34.612 199.478 34.8099 198.443 34.8099C197.426 34.8099 196.627 34.4972 196.047 33.8718C195.471 33.2419 195.183 32.3578 195.183 31.2194C195.183 30.144 195.5 29.2689 196.135 28.594C196.774 27.9146 197.566 27.5749 198.51 27.5749C199.455 27.5749 200.186 27.8786 200.704 28.486C201.221 29.0934 201.48 29.9371 201.48 31.0169V31.6176ZM199.968 30.5107C199.964 29.9483 199.831 29.5119 199.57 29.2014C199.309 28.8865 198.949 28.729 198.49 28.729C198.04 28.729 197.658 28.8932 197.343 29.2217C197.032 29.5501 196.841 29.9798 196.769 30.5107H199.968Z" fill="white"/>
<path d="M44.6304 66.405C44.0383 66.712 43.3019 66.8655 42.4211 66.8655C41.2808 66.8655 40.3671 66.5055 39.68 65.7855C38.9929 65.0655 38.6493 64.1207 38.6493 62.9512C38.6493 61.694 39.0349 60.6779 39.8061 59.9031C40.5809 59.1283 41.5585 58.7409 42.739 58.7409C43.4992 58.7409 44.1297 58.8487 44.6304 59.0643V60.3581C44.1004 60.0438 43.5157 59.8867 42.8761 59.8867C42.0245 59.8867 41.3338 60.159 40.8038 60.7035C40.2775 61.2481 40.0144 61.9754 40.0144 62.8854C40.0144 63.7516 40.2611 64.4423 40.7545 64.9577C41.2479 65.4693 41.8966 65.7252 42.7007 65.7252C43.4426 65.7252 44.0858 65.5497 44.6304 65.1989V66.405ZM48.4679 66.8655C47.6017 66.8655 46.9091 66.6041 46.3901 66.0815C45.8748 65.5552 45.6172 64.859 45.6172 63.9928C45.6172 63.0499 45.8858 62.3134 46.423 61.7835C46.9639 61.2536 47.6912 60.9886 48.6049 60.9886C49.4821 60.9886 50.1655 61.2462 50.6553 61.7616C51.145 62.2769 51.3899 62.9914 51.3899 63.9051C51.3899 64.8005 51.1249 65.5187 50.595 66.0596C50.0687 66.5968 49.3597 66.8655 48.4679 66.8655ZM48.5282 62.0028C48.0311 62.0028 47.6383 62.1764 47.3495 62.5236C47.0608 62.8708 46.9164 63.3496 46.9164 63.9599C46.9164 64.5483 47.0626 65.0125 47.355 65.3524C47.6474 65.6886 48.0385 65.8567 48.5282 65.8567C49.0289 65.8567 49.4126 65.6904 49.6794 65.3579C49.9499 65.0253 50.0851 64.552 50.0851 63.938C50.0851 63.3203 49.9499 62.8434 49.6794 62.5071C49.4126 62.1709 49.0289 62.0028 48.5282 62.0028ZM57.5244 61.1202L55.3535 66.7339H53.9775L51.9107 61.1202H53.2922L54.5366 65.0454C54.6317 65.3341 54.6901 65.5863 54.7121 65.8019H54.7285C54.7614 65.5315 54.8126 65.2866 54.882 65.0673L56.1868 61.1202H57.5244ZM63.0559 64.2724H59.2294C59.244 64.7914 59.403 65.1916 59.7063 65.473C60.0133 65.7544 60.4336 65.8951 60.9672 65.8951C61.5666 65.8951 62.1166 65.716 62.6173 65.3579V66.383C62.1057 66.7046 61.4295 66.8655 60.5889 66.8655C59.763 66.8655 59.1142 66.6115 58.6428 66.1034C58.175 65.5918 57.9411 64.8736 57.9411 63.949C57.9411 63.0755 58.1987 62.3646 58.714 61.8164C59.233 61.2645 59.8763 60.9886 60.6438 60.9886C61.4113 60.9886 62.0052 61.2353 62.4255 61.7287C62.8458 62.2221 63.0559 62.9073 63.0559 63.7845V64.2724ZM61.8279 63.3733C61.8243 62.9165 61.7164 62.562 61.5045 62.3098C61.2925 62.054 61.0001 61.926 60.6273 61.926C60.2618 61.926 59.9512 62.0594 59.6953 62.3262C59.4432 62.593 59.2878 62.9421 59.2294 63.3733H61.8279ZM67.5239 62.3317C67.3704 62.2111 67.1493 62.1508 66.8605 62.1508C66.4841 62.1508 66.1698 62.3207 65.9176 62.6606C65.6654 63.0005 65.5393 63.4629 65.5393 64.0476V66.7339H64.2675V61.1202H65.5393V62.2769H65.5613C65.6855 61.8822 65.8756 61.5752 66.1314 61.3559C66.3909 61.1329 66.6796 61.0215 66.9976 61.0215C67.2278 61.0215 67.4033 61.0562 67.5239 61.1256V62.3317ZM69.0644 59.9415C68.856 59.9415 68.677 59.8739 68.5271 59.7387C68.3809 59.6034 68.3078 59.4317 68.3078 59.2233C68.3078 59.015 68.3809 58.8414 68.5271 58.7025C68.677 58.5636 68.856 58.4942 69.0644 58.4942C69.28 58.4942 69.4627 58.5636 69.6126 58.7025C69.7624 58.8414 69.8373 59.015 69.8373 59.2233C69.8373 59.4207 69.7624 59.5906 69.6126 59.7332C69.4627 59.8721 69.28 59.9415 69.0644 59.9415ZM69.6948 66.7339H68.4229V61.1202H69.6948V66.7339ZM76.3611 66.7339H75.0893V63.5707C75.0893 62.5218 74.7183 61.9973 73.9764 61.9973C73.589 61.9973 73.2692 62.1435 73.017 62.4359C72.7648 62.7246 72.6387 63.0901 72.6387 63.5323V66.7339H71.3614V61.1202H72.6387V62.0521H72.6607C73.081 61.3431 73.6876 60.9886 74.4807 60.9886C75.0911 60.9886 75.5571 61.1878 75.8787 61.5861C76.2003 61.9809 76.3611 62.5528 76.3611 63.3021V66.7339ZM83.0274 66.2843C83.0274 68.3456 81.9913 69.3763 79.919 69.3763C79.1881 69.3763 78.5503 69.2539 78.0058 69.009V67.8468C78.6198 68.1976 79.2027 68.3731 79.7546 68.3731C81.0886 68.3731 81.7556 67.717 81.7556 66.405V65.791H81.7336C81.3133 66.5073 80.6811 66.8655 79.8368 66.8655C79.1534 66.8655 78.6015 66.6169 78.1812 66.1199C77.7645 65.6192 77.5562 64.9485 77.5562 64.1079C77.5562 63.154 77.781 62.3957 78.2305 61.8328C78.6801 61.27 79.2977 60.9886 80.0835 60.9886C80.8254 60.9886 81.3755 61.2919 81.7336 61.8986H81.7556V61.1202H83.0274V66.2843ZM81.7665 64.1628V63.4336C81.7665 63.0389 81.6349 62.7027 81.3718 62.4249C81.1123 62.1435 80.787 62.0028 80.396 62.0028C79.9135 62.0028 79.5353 62.1819 79.2612 62.54C78.9907 62.8945 78.8555 63.3916 78.8555 64.0312C78.8555 64.5831 78.9852 65.0253 79.2447 65.3579C79.5079 65.6868 79.8551 65.8513 80.2863 65.8513C80.7249 65.8513 81.0812 65.6941 81.3554 65.3798C81.6295 65.0618 81.7665 64.6561 81.7665 64.1628ZM89.0688 65.9225H89.0468V66.7339H87.775V58.4229H89.0468V62.1069H89.0688C89.5037 61.3614 90.1396 60.9886 90.9765 60.9886C91.6856 60.9886 92.2393 61.2408 92.6376 61.7451C93.0397 62.2458 93.2407 62.9183 93.2407 63.7626C93.2407 64.7018 93.0159 65.4547 92.5664 66.0212C92.1168 66.584 91.5028 66.8655 90.7244 66.8655C89.9934 66.8655 89.4415 66.5511 89.0688 65.9225ZM89.0359 63.6913V64.3875C89.0359 64.7969 89.1656 65.1441 89.4251 65.4291C89.6882 65.7142 90.0208 65.8567 90.4228 65.8567C90.8943 65.8567 91.2634 65.674 91.5302 65.3085C91.8007 64.9394 91.9359 64.4259 91.9359 63.768C91.9359 63.2162 91.8098 62.7849 91.5577 62.4742C91.3091 62.1599 90.9711 62.0028 90.5435 62.0028C90.0903 62.0028 89.7248 62.1636 89.447 62.4852C89.1729 62.8068 89.0359 63.2089 89.0359 63.6913ZM97.0288 66.8655C96.1627 66.8655 95.4701 66.6041 94.9511 66.0815C94.4358 65.5552 94.1781 64.859 94.1781 63.9928C94.1781 63.0499 94.4468 62.3134 94.984 61.7835C95.5249 61.2536 96.2522 60.9886 97.1659 60.9886C98.043 60.9886 98.7265 61.2462 99.2162 61.7616C99.706 62.2769 99.9508 62.9914 99.9508 63.9051C99.9508 64.8005 99.6859 65.5187 99.1559 66.0596C98.6296 66.5968 97.9206 66.8655 97.0288 66.8655ZM97.0892 62.0028C96.5921 62.0028 96.1992 62.1764 95.9105 62.5236C95.6218 62.8708 95.4774 63.3496 95.4774 63.9599C95.4774 64.5483 95.6236 65.0125 95.916 65.3524C96.2084 65.6886 96.5994 65.8567 97.0892 65.8567C97.5899 65.8567 97.9736 65.6904 98.2404 65.3579C98.5109 65.0253 98.6461 64.552 98.6461 63.938C98.6461 63.3203 98.5109 62.8434 98.2404 62.5071C97.9736 62.1709 97.5899 62.0028 97.0892 62.0028ZM104.21 66.6736C103.962 66.7978 103.635 66.86 103.229 66.86C102.14 66.86 101.595 66.3373 101.595 65.2921V62.1179H100.658V61.1202H101.595V59.8209L102.867 59.4591V61.1202H104.21V62.1179H102.867V64.9248C102.867 65.2574 102.928 65.4949 103.048 65.6375C103.169 65.78 103.37 65.8513 103.651 65.8513C103.867 65.8513 104.053 65.7891 104.21 65.6649V66.6736ZM110.296 66.7339H109.024V63.6639C109.024 62.5528 108.653 61.9973 107.911 61.9973C107.538 61.9973 107.224 62.1581 106.968 62.4797C106.712 62.8014 106.584 63.2125 106.584 63.7132V66.7339H105.307V58.4229H106.584V62.0521H106.606C107.03 61.3431 107.637 60.9886 108.426 60.9886C109.673 60.9886 110.296 61.7506 110.296 63.2746V66.7339ZM117.894 66.6736C117.645 66.7978 117.318 66.86 116.913 66.86C115.824 66.86 115.279 66.3373 115.279 65.2921V62.1179H114.342V61.1202H115.279V59.8209L116.551 59.4591V61.1202H117.894V62.1179H116.551V64.9248C116.551 65.2574 116.611 65.4949 116.732 65.6375C116.852 65.78 117.053 65.8513 117.335 65.8513C117.55 65.8513 117.737 65.7891 117.894 65.6649V66.6736ZM123.979 66.7339H122.707V63.6639C122.707 62.5528 122.336 61.9973 121.594 61.9973C121.222 61.9973 120.907 62.1581 120.651 62.4797C120.396 62.8014 120.268 63.2125 120.268 63.7132V66.7339H118.99V58.4229H120.268V62.0521H120.29C120.714 61.3431 121.32 60.9886 122.11 60.9886C123.356 60.9886 123.979 61.7506 123.979 63.2746V66.7339ZM130.278 64.2724H126.452C126.466 64.7914 126.625 65.1916 126.929 65.473C127.236 65.7544 127.656 65.8951 128.189 65.8951C128.789 65.8951 129.339 65.716 129.84 65.3579V66.383C129.328 66.7046 128.652 66.8655 127.811 66.8655C126.985 66.8655 126.336 66.6115 125.865 66.1034C125.397 65.5918 125.163 64.8736 125.163 63.949C125.163 63.0755 125.421 62.3646 125.936 61.8164C126.455 61.2645 127.098 60.9886 127.866 60.9886C128.633 60.9886 129.227 61.2353 129.648 61.7287C130.068 62.2221 130.278 62.9073 130.278 63.7845V64.2724ZM129.05 63.3733C129.046 62.9165 128.939 62.562 128.727 62.3098C128.515 62.054 128.222 61.926 127.85 61.926C127.484 61.926 127.173 62.0594 126.918 62.3262C126.665 62.593 126.51 62.9421 126.452 63.3733H129.05ZM137.756 59.4591C137.584 59.3604 137.389 59.311 137.169 59.311C136.552 59.311 136.243 59.6601 136.243 60.3581V61.1202H137.547V62.1179H136.248V66.7339H134.976V62.1179H134.017V61.1202H134.976V60.2101C134.976 59.618 135.17 59.1521 135.557 58.8122C135.945 58.4686 136.429 58.2968 137.01 58.2968C137.325 58.2968 137.573 58.3316 137.756 58.401V59.4591ZM142.761 66.7339H141.528V65.8567H141.506C141.118 66.5292 140.55 66.8655 139.801 66.8655C139.249 66.8655 138.816 66.7156 138.501 66.4159C138.191 66.1162 138.035 65.7197 138.035 65.2263C138.035 64.1664 138.646 63.5488 139.866 63.3733L141.533 63.1376C141.533 62.3372 141.153 61.937 140.393 61.937C139.724 61.937 139.121 62.1672 138.584 62.6277V61.5149C139.176 61.164 139.859 60.9886 140.634 60.9886C142.052 60.9886 142.761 61.6866 142.761 63.0828V66.7339ZM141.533 63.9764L140.354 64.1408C139.989 64.1883 139.713 64.2779 139.527 64.4095C139.344 64.5374 139.252 64.764 139.252 65.0892C139.252 65.3268 139.336 65.5223 139.505 65.6758C139.676 65.8257 139.905 65.9006 140.19 65.9006C140.577 65.9006 140.897 65.7654 141.149 65.4949C141.405 65.2208 141.533 64.8773 141.533 64.4643V63.9764ZM143.967 66.5585V65.3798C144.442 65.7416 144.967 65.9225 145.54 65.9225C146.308 65.9225 146.692 65.6959 146.692 65.2427C146.692 65.1148 146.659 65.007 146.593 64.9193C146.527 64.8279 146.438 64.7475 146.324 64.6781C146.215 64.6086 146.083 64.5465 145.93 64.4917C145.78 64.4369 145.612 64.3747 145.425 64.3053C145.195 64.2139 144.987 64.1171 144.8 64.0147C144.618 63.9124 144.464 63.7973 144.34 63.6694C144.219 63.5378 144.128 63.3898 144.066 63.2253C144.004 63.0608 143.973 62.869 143.973 62.6497C143.973 62.3792 144.037 62.1417 144.164 61.937C144.292 61.7287 144.464 61.5551 144.68 61.4162C144.895 61.2737 145.14 61.1677 145.414 61.0982C145.688 61.0251 145.972 60.9886 146.264 60.9886C146.783 60.9886 147.247 61.0672 147.657 61.2243V62.3372C147.262 62.0667 146.809 61.9315 146.297 61.9315C146.136 61.9315 145.99 61.948 145.858 61.9809C145.731 62.0137 145.621 62.0594 145.53 62.1179C145.438 62.1764 145.367 62.2477 145.316 62.3317C145.265 62.4121 145.239 62.5017 145.239 62.6003C145.239 62.7209 145.265 62.8233 145.316 62.9073C145.367 62.9914 145.442 63.0663 145.54 63.1321C145.643 63.1942 145.763 63.2527 145.902 63.3075C146.045 63.3587 146.207 63.4154 146.39 63.4775C146.631 63.5762 146.847 63.6767 147.037 63.779C147.231 63.8813 147.395 63.9983 147.53 64.1299C147.666 64.2578 147.77 64.4076 147.843 64.5794C147.916 64.7475 147.953 64.9485 147.953 65.1824C147.953 65.4675 147.887 65.716 147.755 65.928C147.624 66.14 147.448 66.3154 147.229 66.4543C147.01 66.5932 146.756 66.6955 146.467 66.7613C146.182 66.8307 145.88 66.8655 145.562 66.8655C144.948 66.8655 144.417 66.7631 143.967 66.5585ZM152.125 66.6736C151.876 66.7978 151.549 66.86 151.143 66.86C150.054 66.86 149.51 66.3373 149.51 65.2921V62.1179H148.572V61.1202H149.51V59.8209L150.781 59.4591V61.1202H152.125V62.1179H150.781V64.9248C150.781 65.2574 150.842 65.4949 150.962 65.6375C151.083 65.78 151.284 65.8513 151.565 65.8513C151.781 65.8513 151.967 65.7891 152.125 65.6649V66.6736ZM155.606 64.1353H152.612V63.1979H155.606V64.1353ZM162.278 66.2843C162.278 68.3456 161.241 69.3763 159.169 69.3763C158.438 69.3763 157.8 69.2539 157.256 69.009V67.8468C157.87 68.1976 158.453 68.3731 159.005 68.3731C160.339 68.3731 161.006 67.717 161.006 66.405V65.791H160.984C160.563 66.5073 159.931 66.8655 159.087 66.8655C158.403 66.8655 157.852 66.6169 157.431 66.1199C157.015 65.6192 156.806 64.9485 156.806 64.1079C156.806 63.154 157.031 62.3957 157.481 61.8328C157.93 61.27 158.548 60.9886 159.334 60.9886C160.076 60.9886 160.626 61.2919 160.984 61.8986H161.006V61.1202H162.278V66.2843ZM161.017 64.1628V63.4336C161.017 63.0389 160.885 62.7027 160.622 62.4249C160.362 62.1435 160.037 62.0028 159.646 62.0028C159.164 62.0028 158.785 62.1819 158.511 62.54C158.241 62.8945 158.106 63.3916 158.106 64.0312C158.106 64.5831 158.235 65.0253 158.495 65.3579C158.758 65.6868 159.105 65.8513 159.536 65.8513C159.975 65.8513 160.331 65.6941 160.605 65.3798C160.88 65.0618 161.017 64.6561 161.017 64.1628ZM167.19 62.3317C167.036 62.2111 166.815 62.1508 166.526 62.1508C166.15 62.1508 165.835 62.3207 165.583 62.6606C165.331 63.0005 165.205 63.4629 165.205 64.0476V66.7339H163.933V61.1202H165.205V62.2769H165.227C165.351 61.8822 165.541 61.5752 165.797 61.3559C166.057 61.1329 166.345 61.0215 166.663 61.0215C166.893 61.0215 167.069 61.0562 167.19 61.1256V62.3317ZM170.479 66.8655C169.613 66.8655 168.92 66.6041 168.401 66.0815C167.886 65.5552 167.628 64.859 167.628 63.9928C167.628 63.0499 167.897 62.3134 168.434 61.7835C168.975 61.2536 169.702 60.9886 170.616 60.9886C171.493 60.9886 172.176 61.2462 172.666 61.7616C173.156 62.2769 173.401 62.9914 173.401 63.9051C173.401 64.8005 173.136 65.5187 172.606 66.0596C172.08 66.5968 171.371 66.8655 170.479 66.8655ZM170.539 62.0028C170.042 62.0028 169.649 62.1764 169.36 62.5236C169.072 62.8708 168.927 63.3496 168.927 63.9599C168.927 64.5483 169.074 65.0125 169.366 65.3524C169.658 65.6886 170.049 65.8567 170.539 65.8567C171.04 65.8567 171.424 65.6904 171.69 65.3579C171.961 65.0253 172.096 64.552 172.096 63.938C172.096 63.3203 171.961 62.8434 171.69 62.5071C171.424 62.1709 171.04 62.0028 170.539 62.0028ZM182.249 61.1202L180.593 66.7339H179.261L178.242 62.9293C178.201 62.7831 178.176 62.6186 178.165 62.4359H178.143C178.136 62.5601 178.103 62.7209 178.044 62.9183L176.937 66.7339H175.632L173.982 61.1202H175.298L176.317 65.166C176.35 65.2866 176.372 65.4474 176.383 65.6484H176.421C176.432 65.4949 176.462 65.3305 176.509 65.155L177.644 61.1202H178.839L179.848 65.1824C179.881 65.3104 179.904 65.4712 179.919 65.6649H179.957C179.965 65.5296 179.992 65.3688 180.04 65.1824L181.037 61.1202H182.249ZM183.839 59.9415C183.631 59.9415 183.451 59.8739 183.302 59.7387C183.155 59.6034 183.082 59.4317 183.082 59.2233C183.082 59.015 183.155 58.8414 183.302 58.7025C183.451 58.5636 183.631 58.4942 183.839 58.4942C184.054 58.4942 184.237 58.5636 184.387 58.7025C184.537 58.8414 184.612 59.015 184.612 59.2233C184.612 59.4207 184.537 59.5906 184.387 59.7332C184.237 59.8721 184.054 59.9415 183.839 59.9415ZM184.469 66.7339H183.197V61.1202H184.469V66.7339ZM191.136 66.7339H189.864V63.5707C189.864 62.5218 189.493 61.9973 188.751 61.9973C188.363 61.9973 188.044 62.1435 187.791 62.4359C187.539 62.7246 187.413 63.0901 187.413 63.5323V66.7339H186.136V61.1202H187.413V62.0521H187.435C187.855 61.3431 188.462 60.9886 189.255 60.9886C189.866 60.9886 190.332 61.1878 190.653 61.5861C190.975 61.9809 191.136 62.5528 191.136 63.3021V66.7339ZM197.802 66.2843C197.802 68.3456 196.766 69.3763 194.694 69.3763C193.963 69.3763 193.325 69.2539 192.78 69.009V67.8468C193.394 68.1976 193.977 68.3731 194.529 68.3731C195.863 68.3731 196.53 67.717 196.53 66.405V65.791H196.508C196.088 66.5073 195.456 66.8655 194.611 66.8655C193.928 66.8655 193.376 66.6169 192.956 66.1199C192.539 65.6192 192.331 64.9485 192.331 64.1079C192.331 63.154 192.555 62.3957 193.005 61.8328C193.455 61.27 194.072 60.9886 194.858 60.9886C195.6 60.9886 196.15 61.2919 196.508 61.8986H196.53V61.1202H197.802V66.2843ZM196.541 64.1628V63.4336C196.541 63.0389 196.409 62.7027 196.146 62.4249C195.887 62.1435 195.562 62.0028 195.17 62.0028C194.688 62.0028 194.31 62.1819 194.036 62.54C193.765 62.8945 193.63 63.3916 193.63 64.0312C193.63 64.5831 193.76 65.0253 194.019 65.3579C194.282 65.6868 194.63 65.8513 195.061 65.8513C195.499 65.8513 195.856 65.6941 196.13 65.3798C196.404 65.0618 196.541 64.6561 196.541 64.1628ZM206.568 66.4762C206.118 66.7357 205.587 66.8655 204.973 66.8655C204.139 66.8655 203.467 66.606 202.955 66.087C202.443 65.5644 202.188 64.8882 202.188 64.0586C202.188 63.1339 202.462 62.392 203.01 61.8328C203.562 61.27 204.298 60.9886 205.219 60.9886C205.731 60.9886 206.182 61.0781 206.573 61.2572V62.4414C206.182 62.149 205.766 62.0028 205.323 62.0028C204.786 62.0028 204.346 62.1855 204.002 62.551C203.659 62.9128 203.487 63.3879 203.487 63.9764C203.487 64.5575 203.648 65.0161 203.969 65.3524C204.295 65.6886 204.73 65.8567 205.274 65.8567C205.731 65.8567 206.162 65.6941 206.568 65.3688V66.4762ZM211.091 62.3317C210.937 62.2111 210.716 62.1508 210.427 62.1508C210.051 62.1508 209.737 62.3207 209.484 62.6606C209.232 63.0005 209.106 63.4629 209.106 64.0476V66.7339H207.834V61.1202H209.106V62.2769H209.128C209.252 61.8822 209.442 61.5752 209.698 61.3559C209.958 61.1329 210.246 61.0215 210.564 61.0215C210.795 61.0215 210.97 61.0562 211.091 61.1256V62.3317ZM217.302 61.1202L214.769 67.633C214.243 68.7952 213.505 69.3763 212.554 69.3763C212.288 69.3763 212.065 69.3525 211.886 69.305V68.247C212.087 68.3127 212.269 68.3456 212.434 68.3456C212.909 68.3456 213.263 68.1117 213.497 67.6439L213.876 66.7229L211.644 61.1202H213.053L214.391 65.1989C214.406 65.25 214.438 65.3853 214.49 65.6046H214.517C214.535 65.5205 214.568 65.3889 214.616 65.2098L216.019 61.1202H217.302ZM219.445 65.9061H219.424V69.316H218.152V61.1202H219.424V62.1069H219.445C219.88 61.3614 220.516 60.9886 221.353 60.9886C222.066 60.9886 222.621 61.2389 223.02 61.7396C223.418 62.2403 223.617 62.9128 223.617 63.7571C223.617 64.6927 223.393 65.4419 222.943 66.0048C222.494 66.5676 221.88 66.849 221.101 66.849C220.385 66.849 219.833 66.5347 219.445 65.9061ZM219.413 63.6913V64.3875C219.413 64.7969 219.542 65.1441 219.802 65.4291C220.065 65.7142 220.398 65.8567 220.8 65.8567C221.271 65.8567 221.64 65.674 221.907 65.3085C222.177 64.9394 222.313 64.4259 222.313 63.768C222.313 63.2162 222.187 62.7849 221.934 62.4742C221.686 62.1599 221.348 62.0028 220.92 62.0028C220.467 62.0028 220.101 62.1636 219.824 62.4852C219.55 62.8068 219.413 63.2089 219.413 63.6913ZM227.877 66.6736C227.628 66.7978 227.301 66.86 226.896 66.86C225.807 66.86 225.262 66.3373 225.262 65.2921V62.1179H224.325V61.1202H225.262V59.8209L226.534 59.4591V61.1202H227.877V62.1179H226.534V64.9248C226.534 65.2574 226.594 65.4949 226.715 65.6375C226.835 65.78 227.036 65.8513 227.318 65.8513C227.533 65.8513 227.72 65.7891 227.877 65.6649V66.6736ZM231.397 66.8655C230.53 66.8655 229.838 66.6041 229.319 66.0815C228.803 65.5552 228.546 64.859 228.546 63.9928C228.546 63.0499 228.814 62.3134 229.352 61.7835C229.893 61.2536 230.62 60.9886 231.534 60.9886C232.411 60.9886 233.094 61.2462 233.584 61.7616C234.074 62.2769 234.319 62.9914 234.319 63.9051C234.319 64.8005 234.054 65.5187 233.524 66.0596C232.997 66.5968 232.288 66.8655 231.397 66.8655ZM231.457 62.0028C230.96 62.0028 230.567 62.1764 230.278 62.5236C229.989 62.8708 229.845 63.3496 229.845 63.9599C229.845 64.5483 229.991 65.0125 230.284 65.3524C230.576 65.6886 230.967 65.8567 231.457 65.8567C231.958 65.8567 232.341 65.6904 232.608 65.3579C232.879 65.0253 233.014 64.552 233.014 63.938C233.014 63.3203 232.879 62.8434 232.608 62.5071C232.341 62.1709 231.958 62.0028 231.457 62.0028ZM247.103 66.7339H245.831V63.6748C245.831 63.0864 245.747 62.6606 245.579 62.3975C245.414 62.1344 245.135 62.0028 244.74 62.0028C244.408 62.0028 244.124 62.1691 243.89 62.5017C243.66 62.8342 243.545 63.2326 243.545 63.6968V66.7339H242.268V63.5707C242.268 62.5254 241.899 62.0028 241.16 62.0028C240.817 62.0028 240.533 62.1599 240.311 62.4742C240.091 62.7886 239.982 63.1961 239.982 63.6968V66.7339H238.71V61.1202H239.982V62.0083H240.004C240.409 61.3285 240.999 60.9886 241.774 60.9886C242.162 60.9886 242.5 61.0964 242.788 61.312C243.081 61.524 243.28 61.8036 243.386 62.1508C243.803 61.376 244.424 60.9886 245.25 60.9886C246.485 60.9886 247.103 61.7506 247.103 63.2746V66.7339ZM252.963 66.7339H251.73V65.8567H251.708C251.321 66.5292 250.752 66.8655 250.003 66.8655C249.451 66.8655 249.018 66.7156 248.704 66.4159C248.393 66.1162 248.238 65.7197 248.238 65.2263C248.238 64.1664 248.848 63.5488 250.069 63.3733L251.735 63.1376C251.735 62.3372 251.355 61.937 250.595 61.937C249.926 61.937 249.323 62.1672 248.786 62.6277V61.5149C249.378 61.164 250.061 60.9886 250.836 60.9886C252.254 60.9886 252.963 61.6866 252.963 63.0828V66.7339ZM251.735 63.9764L250.557 64.1408C250.191 64.1883 249.915 64.2779 249.729 64.4095C249.546 64.5374 249.455 64.764 249.455 65.0892C249.455 65.3268 249.539 65.5223 249.707 65.6758C249.879 65.8257 250.107 65.9006 250.392 65.9006C250.78 65.9006 251.099 65.7654 251.352 65.4949C251.607 65.2208 251.735 64.8773 251.735 64.4643V63.9764ZM257.777 62.3317C257.623 62.2111 257.402 62.1508 257.113 62.1508C256.737 62.1508 256.423 62.3207 256.17 62.6606C255.918 63.0005 255.792 63.4629 255.792 64.0476V66.7339H254.52V61.1202H255.792V62.2769H255.814C255.938 61.8822 256.128 61.5752 256.384 61.3559C256.644 61.1329 256.932 61.0215 257.25 61.0215C257.481 61.0215 257.656 61.0562 257.777 61.1256V62.3317ZM263.769 66.7339H262.157L259.975 64.0367H259.953V66.7339H258.676V58.4229H259.953V63.6913H259.975L262.036 61.1202H263.566L261.247 63.8283L263.769 66.7339ZM269.13 64.2724H265.304C265.318 64.7914 265.477 65.1916 265.781 65.473C266.088 65.7544 266.508 65.8951 267.042 65.8951C267.641 65.8951 268.191 65.716 268.692 65.3579V66.383C268.18 66.7046 267.504 66.8655 266.663 66.8655C265.837 66.8655 265.189 66.6115 264.717 66.1034C264.249 65.5918 264.015 64.8736 264.015 63.949C264.015 63.0755 264.273 62.3646 264.788 61.8164C265.307 61.2645 265.951 60.9886 266.718 60.9886C267.486 60.9886 268.08 61.2353 268.5 61.7287C268.92 62.2221 269.13 62.9073 269.13 63.7845V64.2724ZM267.902 63.3733C267.899 62.9165 267.791 62.562 267.579 62.3098C267.367 62.054 267.074 61.926 266.702 61.926C266.336 61.926 266.026 62.0594 265.77 62.3262C265.518 62.593 265.362 62.9421 265.304 63.3733H267.902ZM273.302 66.6736C273.054 66.7978 272.727 66.86 272.321 66.86C271.232 66.86 270.687 66.3373 270.687 65.2921V62.1179H269.75V61.1202H270.687V59.8209L271.959 59.4591V61.1202H273.302V62.1179H271.959V64.9248C271.959 65.2574 272.019 65.4949 272.14 65.6375C272.261 65.78 272.462 65.8513 272.743 65.8513C272.959 65.8513 273.145 65.7891 273.302 65.6649V66.6736ZM281.8 66.7339H280.566V65.8567H280.544C280.157 66.5292 279.588 66.8655 278.839 66.8655C278.287 66.8655 277.854 66.7156 277.54 66.4159C277.229 66.1162 277.074 65.7197 277.074 65.2263C277.074 64.1664 277.684 63.5488 278.905 63.3733L280.572 63.1376C280.572 62.3372 280.191 61.937 279.431 61.937C278.762 61.937 278.159 62.1672 277.622 62.6277V61.5149C278.214 61.164 278.898 60.9886 279.672 60.9886C281.09 60.9886 281.8 61.6866 281.8 63.0828V66.7339ZM280.572 63.9764L279.393 64.1408C279.027 64.1883 278.751 64.2779 278.565 64.4095C278.382 64.5374 278.291 64.764 278.291 65.0892C278.291 65.3268 278.375 65.5223 278.543 65.6758C278.715 65.8257 278.943 65.9006 279.228 65.9006C279.616 65.9006 279.936 65.7654 280.188 65.4949C280.444 65.2208 280.572 64.8773 280.572 64.4643V63.9764ZM288.356 66.7339H287.084V63.5707C287.084 62.5218 286.713 61.9973 285.971 61.9973C285.584 61.9973 285.264 62.1435 285.012 62.4359C284.76 62.7246 284.634 63.0901 284.634 63.5323V66.7339H283.356V61.1202H284.634V62.0521H284.656C285.076 61.3431 285.683 60.9886 286.476 60.9886C287.086 60.9886 287.552 61.1878 287.874 61.5861C288.195 61.9809 288.356 62.5528 288.356 63.3021V66.7339ZM295.017 66.7339H293.745V65.78H293.723C293.314 66.5036 292.683 66.8655 291.832 66.8655C291.141 66.8655 290.587 66.6151 290.171 66.1144C289.758 65.61 289.551 64.9248 289.551 64.0586C289.551 63.1303 289.78 62.3865 290.237 61.8274C290.697 61.2682 291.309 60.9886 292.073 60.9886C292.83 60.9886 293.38 61.2919 293.723 61.8986H293.745V58.4229H295.017V66.7339ZM293.762 64.1682V63.4336C293.762 63.0353 293.632 62.6972 293.372 62.4194C293.113 62.1417 292.782 62.0028 292.38 62.0028C291.905 62.0028 291.53 62.18 291.256 62.5346C290.986 62.8891 290.851 63.3806 290.851 64.0093C290.851 64.5794 290.98 65.0308 291.24 65.3633C291.503 65.6923 291.856 65.8567 292.298 65.8567C292.733 65.8567 293.085 65.6978 293.356 65.3798C293.626 65.0582 293.762 64.6543 293.762 64.1682ZM302.73 66.6736C302.482 66.7978 302.155 66.86 301.749 66.86C300.66 66.86 300.115 66.3373 300.115 65.2921V62.1179H299.178V61.1202H300.115V59.8209L301.387 59.4591V61.1202H302.73V62.1179H301.387V64.9248C301.387 65.2574 301.448 65.4949 301.568 65.6375C301.689 65.78 301.89 65.8513 302.171 65.8513C302.387 65.8513 302.573 65.7891 302.73 65.6649V66.6736ZM308.816 66.7339H307.544V63.6639C307.544 62.5528 307.173 61.9973 306.431 61.9973C306.058 61.9973 305.744 62.1581 305.488 62.4797C305.232 62.8014 305.104 63.2125 305.104 63.7132V66.7339H303.827V58.4229H305.104V62.0521H305.126C305.55 61.3431 306.157 60.9886 306.946 60.9886C308.192 60.9886 308.816 61.7506 308.816 63.2746V66.7339ZM315.115 64.2724H311.288C311.303 64.7914 311.462 65.1916 311.765 65.473C312.072 65.7544 312.492 65.8951 313.026 65.8951C313.625 65.8951 314.175 65.716 314.676 65.3579V66.383C314.164 66.7046 313.488 66.8655 312.648 66.8655C311.822 66.8655 311.173 66.6115 310.701 66.1034C310.234 65.5918 310 64.8736 310 63.949C310 63.0755 310.257 62.3646 310.773 61.8164C311.292 61.2645 311.935 60.9886 312.702 60.9886C313.47 60.9886 314.064 61.2353 314.484 61.7287C314.904 62.2221 315.115 62.9073 315.115 63.7845V64.2724ZM313.887 63.3733C313.883 62.9165 313.775 62.562 313.563 62.3098C313.351 62.054 313.059 61.926 312.686 61.926C312.321 61.926 312.01 62.0594 311.754 62.3262C311.502 62.593 311.347 62.9421 311.288 63.3733H313.887ZM38.8741 81.6736C38.6256 81.7978 38.2985 81.86 37.8928 81.86C36.8037 81.86 36.2591 81.3373 36.2591 80.2921V77.1179H35.3217V76.1202H36.2591V74.8209L37.531 74.4591V76.1202H38.8741V77.1179H37.531V79.9248C37.531 80.2574 37.5913 80.4949 37.7119 80.6375C37.8325 80.78 38.0335 80.8513 38.3149 80.8513C38.5306 80.8513 38.717 80.7891 38.8741 80.6649V81.6736ZM40.612 74.9415C40.4036 74.9415 40.2245 74.8739 40.0747 74.7387C39.9285 74.6034 39.8554 74.4317 39.8554 74.2233C39.8554 74.015 39.9285 73.8414 40.0747 73.7025C40.2245 73.5636 40.4036 73.4942 40.612 73.4942C40.8276 73.4942 41.0103 73.5636 41.1602 73.7025C41.31 73.8414 41.3849 74.015 41.3849 74.2233C41.3849 74.4207 41.31 74.5906 41.1602 74.7332C41.0103 74.8721 40.8276 74.9415 40.612 74.9415ZM41.2424 81.7339H39.9705V76.1202H41.2424V81.7339ZM51.3022 81.7339H50.0303V78.6748C50.0303 78.0864 49.9462 77.6606 49.7781 77.3975C49.6137 77.1344 49.3341 77.0028 48.9394 77.0028C48.6068 77.0028 48.3235 77.1691 48.0896 77.5017C47.8594 77.8342 47.7442 78.2326 47.7442 78.6968V81.7339H46.4669V78.5707C46.4669 77.5254 46.0978 77.0028 45.3595 77.0028C45.016 77.0028 44.7327 77.1599 44.5098 77.4742C44.2905 77.7886 44.1808 78.1961 44.1808 78.6968V81.7339H42.909V76.1202H44.1808V77.0083H44.2028C44.6084 76.3285 45.1987 75.9886 45.9735 75.9886C46.3609 75.9886 46.699 76.0964 46.9877 76.312C47.2801 76.524 47.4793 76.8036 47.5853 77.1508C48.0019 76.376 48.6232 75.9886 49.4492 75.9886C50.6845 75.9886 51.3022 76.7506 51.3022 78.2746V81.7339ZM57.6066 79.2724H53.7801C53.7947 79.7914 53.9537 80.1916 54.257 80.473C54.564 80.7544 54.9843 80.8951 55.5179 80.8951C56.1173 80.8951 56.6674 80.716 57.1681 80.3579V81.383C56.6564 81.7046 55.9803 81.8655 55.1397 81.8655C54.3137 81.8655 53.665 81.6115 53.1935 81.1034C52.7257 80.5918 52.4918 79.8736 52.4918 78.949C52.4918 78.0755 52.7495 77.3646 53.2648 76.8164C53.7838 76.2645 54.427 75.9886 55.1945 75.9886C55.962 75.9886 56.5559 76.2353 56.9762 76.7287C57.3965 77.2221 57.6066 77.9073 57.6066 78.7845V79.2724ZM56.3786 78.3733C56.375 77.9165 56.2672 77.562 56.0552 77.3098C55.8432 77.054 55.5508 76.926 55.178 76.926C54.8126 76.926 54.5019 77.0594 54.2461 77.3262C53.9939 77.593 53.8386 77.9421 53.7801 78.3733H56.3786ZM61.7731 79.1353H58.7798V78.1979H61.7731V79.1353ZM66.2959 81.6736C66.0473 81.7978 65.7202 81.86 65.3146 81.86C64.2254 81.86 63.6809 81.3373 63.6809 80.2921V77.1179H62.7434V76.1202H63.6809V74.8209L64.9527 74.4591V76.1202H66.2959V77.1179H64.9527V79.9248C64.9527 80.2574 65.013 80.4949 65.1336 80.6375C65.2543 80.78 65.4553 80.8513 65.7367 80.8513C65.9523 80.8513 66.1387 80.7891 66.2959 80.6649V81.6736ZM72.0795 79.2724H68.253C68.2676 79.7914 68.4266 80.1916 68.7299 80.473C69.0369 80.7544 69.4572 80.8951 69.9908 80.8951C70.5902 80.8951 71.1403 80.716 71.641 80.3579V81.383C71.1293 81.7046 70.4532 81.8655 69.6126 81.8655C68.7866 81.8655 68.1379 81.6115 67.6664 81.1034C67.1986 80.5918 66.9647 79.8736 66.9647 78.949C66.9647 78.0755 67.2224 77.3646 67.7377 76.8164C68.2567 76.2645 68.8999 75.9886 69.6674 75.9886C70.4349 75.9886 71.0288 76.2353 71.4491 76.7287C71.8694 77.2221 72.0795 77.9073 72.0795 78.7845V79.2724ZM70.8515 78.3733C70.8479 77.9165 70.7401 77.562 70.5281 77.3098C70.3161 77.054 70.0237 76.926 69.6509 76.926C69.2855 76.926 68.9748 77.0594 68.719 77.3262C68.4668 77.593 68.3115 77.9421 68.253 78.3733H70.8515ZM72.9402 81.5585V80.3798C73.4154 80.7416 73.9398 80.9225 74.5136 80.9225C75.2811 80.9225 75.6649 80.6959 75.6649 80.2427C75.6649 80.1148 75.632 80.007 75.5662 79.9193C75.5004 79.8279 75.4109 79.7475 75.2976 79.6781C75.1879 79.6086 75.0564 79.5465 74.9029 79.4917C74.753 79.4369 74.5849 79.3747 74.3985 79.3053C74.1682 79.2139 73.9599 79.1171 73.7735 79.0147C73.5908 78.9124 73.4373 78.7973 73.313 78.6694C73.1924 78.5378 73.1011 78.3898 73.0389 78.2253C72.9768 78.0608 72.9457 77.869 72.9457 77.6497C72.9457 77.3792 73.0097 77.1417 73.1376 76.937C73.2655 76.7287 73.4373 76.5551 73.6529 76.4162C73.8686 76.2737 74.1134 76.1677 74.3875 76.0982C74.6616 76.0251 74.9449 75.9886 75.2373 75.9886C75.7562 75.9886 76.2204 76.0672 76.6297 76.2243V77.3372C76.235 77.0667 75.7818 76.9315 75.2702 76.9315C75.1094 76.9315 74.9632 76.948 74.8316 76.9809C74.7037 77.0137 74.594 77.0594 74.5027 77.1179C74.4113 77.1764 74.34 77.2477 74.2889 77.3317C74.2377 77.4121 74.2121 77.5017 74.2121 77.6003C74.2121 77.7209 74.2377 77.8233 74.2889 77.9073C74.34 77.9914 74.4149 78.0663 74.5136 78.1321C74.616 78.1942 74.7366 78.2527 74.8754 78.3075C75.018 78.3587 75.1806 78.4154 75.3634 78.4775C75.6046 78.5762 75.8202 78.6767 76.0103 78.779C76.204 78.8813 76.3684 78.9983 76.5036 79.1299C76.6389 79.2578 76.743 79.4076 76.8161 79.5794C76.8892 79.7475 76.9258 79.9485 76.9258 80.1824C76.9258 80.4675 76.86 80.716 76.7284 80.928C76.5968 81.14 76.4214 81.3154 76.2021 81.4543C75.9828 81.5932 75.7288 81.6955 75.4401 81.7613C75.155 81.8307 74.8535 81.8655 74.5356 81.8655C73.9215 81.8655 73.3898 81.7631 72.9402 81.5585ZM81.0977 81.6736C80.8492 81.7978 80.5221 81.86 80.1164 81.86C79.0273 81.86 78.4827 81.3373 78.4827 80.2921V77.1179H77.5453V76.1202H78.4827V74.8209L79.7546 74.4591V76.1202H81.0977V77.1179H79.7546V79.9248C79.7546 80.2574 79.8149 80.4949 79.9355 80.6375C80.0561 80.78 80.2571 80.8513 80.5385 80.8513C80.7541 80.8513 80.9405 80.7891 81.0977 80.6649V81.6736ZM86.8814 79.2724H83.0548C83.0694 79.7914 83.2284 80.1916 83.5318 80.473C83.8388 80.7544 84.2591 80.8951 84.7927 80.8951C85.3921 80.8951 85.9421 80.716 86.4428 80.3579V81.383C85.9311 81.7046 85.255 81.8655 84.4144 81.8655C83.5884 81.8655 82.9397 81.6115 82.4682 81.1034C82.0004 80.5918 81.7665 79.8736 81.7665 78.949C81.7665 78.0755 82.0242 77.3646 82.5395 76.8164C83.0585 76.2645 83.7017 75.9886 84.4692 75.9886C85.2367 75.9886 85.8306 76.2353 86.2509 76.7287C86.6712 77.2221 86.8814 77.9073 86.8814 78.7845V79.2724ZM85.6534 78.3733C85.6497 77.9165 85.5419 77.562 85.3299 77.3098C85.1179 77.054 84.8256 76.926 84.4528 76.926C84.0873 76.926 83.7766 77.0594 83.5208 77.3262C83.2686 77.593 83.1133 77.9421 83.0548 78.3733H85.6534ZM93.1968 81.7339H91.925V80.78H91.903C91.4937 81.5036 90.8632 81.8655 90.0117 81.8655C89.3209 81.8655 88.7672 81.6151 88.3506 81.1144C87.9376 80.61 87.7311 79.9248 87.7311 79.0586C87.7311 78.1303 87.9595 77.3865 88.4164 76.8274C88.8769 76.2682 89.4891 75.9886 90.2529 75.9886C91.0094 75.9886 91.5595 76.2919 91.903 76.8986H91.925V73.4229H93.1968V81.7339ZM91.9414 79.1682V78.4336C91.9414 78.0353 91.8117 77.6972 91.5522 77.4194C91.2927 77.1417 90.9619 77.0028 90.5599 77.0028C90.0848 77.0028 89.7102 77.18 89.4361 77.5346C89.1656 77.8891 89.0304 78.3806 89.0304 79.0093C89.0304 79.5794 89.1601 80.0308 89.4196 80.3633C89.6828 80.6923 90.0354 80.8567 90.4777 80.8567C90.9126 80.8567 91.2653 80.6978 91.5357 80.3798C91.8062 80.0582 91.9414 79.6543 91.9414 79.1682ZM101.124 74.4591C100.952 74.3604 100.757 74.311 100.537 74.311C99.9198 74.311 99.6109 74.6601 99.6109 75.3581V76.1202H100.916V77.1179H99.6164V81.7339H98.3446V77.1179H97.3852V76.1202H98.3446V75.2101C98.3446 74.618 98.5383 74.1521 98.9257 73.8122C99.3131 73.4686 99.7973 73.2968 100.378 73.2968C100.693 73.2968 100.941 73.3316 101.124 73.401V74.4591ZM104.309 81.8655C103.443 81.8655 102.75 81.6041 102.231 81.0815C101.716 80.5552 101.458 79.859 101.458 78.9928C101.458 78.0499 101.727 77.3134 102.264 76.7835C102.805 76.2536 103.533 75.9886 104.446 75.9886C105.323 75.9886 106.007 76.2462 106.497 76.7616C106.986 77.2769 107.231 77.9914 107.231 78.9051C107.231 79.8005 106.966 80.5187 106.436 81.0596C105.91 81.5968 105.201 81.8655 104.309 81.8655ZM104.369 77.0028C103.872 77.0028 103.48 77.1764 103.191 77.5236C102.902 77.8708 102.758 78.3496 102.758 78.9599C102.758 79.5483 102.904 80.0125 103.196 80.3524C103.489 80.6886 103.88 80.8567 104.369 80.8567C104.87 80.8567 105.254 80.6904 105.521 80.3579C105.791 80.0253 105.926 79.552 105.926 78.938C105.926 78.3203 105.791 77.8434 105.521 77.5071C105.254 77.1709 104.87 77.0028 104.369 77.0028ZM111.787 77.3317C111.633 77.2111 111.412 77.1508 111.123 77.1508C110.747 77.1508 110.433 77.3207 110.181 77.6606C109.928 78.0005 109.802 78.4629 109.802 79.0476V81.7339H108.53V76.1202H109.802V77.2769H109.824C109.948 76.8822 110.139 76.5752 110.394 76.3559C110.654 76.1329 110.943 76.0215 111.261 76.0215C111.491 76.0215 111.666 76.0562 111.787 76.1256V77.3317ZM117.34 79.2724H113.514C113.528 79.7914 113.687 80.1916 113.991 80.473C114.298 80.7544 114.718 80.8951 115.252 80.8951C115.851 80.8951 116.401 80.716 116.902 80.3579V81.383C116.39 81.7046 115.714 81.8655 114.873 81.8655C114.047 81.8655 113.399 81.6115 112.927 81.1034C112.459 80.5918 112.225 79.8736 112.225 78.949C112.225 78.0755 112.483 77.3646 112.998 76.8164C113.517 76.2645 114.161 75.9886 114.928 75.9886C115.696 75.9886 116.289 76.2353 116.71 76.7287C117.13 77.2221 117.34 77.9073 117.34 78.7845V79.2724ZM116.112 78.3733C116.109 77.9165 116.001 77.562 115.789 77.3098C115.577 77.054 115.284 76.926 114.912 76.926C114.546 76.926 114.236 77.0594 113.98 77.3262C113.728 77.593 113.572 77.9421 113.514 78.3733H116.112ZM123.245 76.1202L121.375 78.9599L123.223 81.7339H121.748L120.761 79.996C120.699 79.8901 120.626 79.7548 120.542 79.5904H120.52C120.505 79.6233 120.429 79.7585 120.29 79.996L119.286 81.7339H117.817L119.725 78.9818L117.916 76.1202H119.396L120.366 77.9457C120.439 78.0809 120.511 78.2198 120.58 78.3624H120.597L121.852 76.1202H123.245ZM127.91 74.9415C127.702 74.9415 127.522 74.8739 127.373 74.7387C127.226 74.6034 127.153 74.4317 127.153 74.2233C127.153 74.015 127.226 73.8414 127.373 73.7025C127.522 73.5636 127.702 73.4942 127.91 73.4942C128.125 73.4942 128.308 73.5636 128.458 73.7025C128.608 73.8414 128.683 74.015 128.683 74.2233C128.683 74.4207 128.608 74.5906 128.458 74.7332C128.308 74.8721 128.125 74.9415 127.91 74.9415ZM128.54 81.7339H127.268V76.1202H128.54V81.7339ZM135.207 81.7339H133.935V78.5707C133.935 77.5218 133.564 76.9973 132.822 76.9973C132.434 76.9973 132.115 77.1435 131.862 77.4359C131.61 77.7246 131.484 78.0901 131.484 78.5323V81.7339H130.207V76.1202H131.484V77.0521H131.506C131.926 76.3431 132.533 75.9886 133.326 75.9886C133.937 75.9886 134.403 76.1878 134.724 76.5861C135.046 76.9809 135.207 77.5528 135.207 78.3021V81.7339ZM141.867 81.7339H140.596V80.78H140.574C140.164 81.5036 139.534 81.8655 138.682 81.8655C137.992 81.8655 137.438 81.6151 137.021 81.1144C136.608 80.61 136.402 79.9248 136.402 79.0586C136.402 78.1303 136.63 77.3865 137.087 76.8274C137.547 76.2682 138.16 75.9886 138.924 75.9886C139.68 75.9886 140.23 76.2919 140.574 76.8986H140.596V73.4229H141.867V81.7339ZM140.612 79.1682V78.4336C140.612 78.0353 140.482 77.6972 140.223 77.4194C139.963 77.1417 139.633 77.0028 139.231 77.0028C138.755 77.0028 138.381 77.18 138.107 77.5346C137.836 77.8891 137.701 78.3806 137.701 79.0093C137.701 79.5794 137.831 80.0308 138.09 80.3633C138.353 80.6923 138.706 80.8567 139.148 80.8567C139.583 80.8567 139.936 80.6978 140.206 80.3798C140.477 80.0582 140.612 79.6543 140.612 79.1682ZM148.424 81.7339H147.152V80.8458H147.13C146.761 81.5256 146.187 81.8655 145.409 81.8655C144.082 81.8655 143.419 81.0687 143.419 79.4752V76.1202H144.691V79.3437C144.691 80.3524 145.08 80.8567 145.858 80.8567C146.235 80.8567 146.544 80.7179 146.785 80.4401C147.03 80.1623 147.152 79.7987 147.152 79.3491V76.1202H148.424V81.7339ZM149.734 81.5585V80.3798C150.209 80.7416 150.734 80.9225 151.308 80.9225C152.075 80.9225 152.459 80.6959 152.459 80.2427C152.459 80.1148 152.426 80.007 152.36 79.9193C152.294 79.8279 152.205 79.7475 152.092 79.6781C151.982 79.6086 151.85 79.5465 151.697 79.4917C151.547 79.4369 151.379 79.3747 151.193 79.3053C150.962 79.2139 150.754 79.1171 150.568 79.0147C150.385 78.9124 150.231 78.7973 150.107 78.6694C149.986 78.5378 149.895 78.3898 149.833 78.2253C149.771 78.0608 149.74 77.869 149.74 77.6497C149.74 77.3792 149.804 77.1417 149.932 76.937C150.06 76.7287 150.231 76.5551 150.447 76.4162C150.663 76.2737 150.907 76.1677 151.182 76.0982C151.456 76.0251 151.739 75.9886 152.031 75.9886C152.55 75.9886 153.014 76.0672 153.424 76.2243V77.3372C153.029 77.0667 152.576 76.9315 152.064 76.9315C151.903 76.9315 151.757 76.948 151.626 76.9809C151.498 77.0137 151.388 77.0594 151.297 77.1179C151.205 77.1764 151.134 77.2477 151.083 77.3317C151.032 77.4121 151.006 77.5017 151.006 77.6003C151.006 77.7209 151.032 77.8233 151.083 77.9073C151.134 77.9914 151.209 78.0663 151.308 78.1321C151.41 78.1942 151.531 78.2527 151.67 78.3075C151.812 78.3587 151.975 78.4154 152.157 78.4775C152.399 78.5762 152.614 78.6767 152.804 78.779C152.998 78.8813 153.162 78.9983 153.298 79.1299C153.433 79.2578 153.537 79.4076 153.61 79.5794C153.683 79.7475 153.72 79.9485 153.72 80.1824C153.72 80.4675 153.654 80.716 153.522 80.928C153.391 81.14 153.215 81.3154 152.996 81.4543C152.777 81.5932 152.523 81.6955 152.234 81.7613C151.949 81.8307 151.648 81.8655 151.33 81.8655C150.716 81.8655 150.184 81.7631 149.734 81.5585ZM157.892 81.6736C157.643 81.7978 157.316 81.86 156.91 81.86C155.821 81.86 155.277 81.3373 155.277 80.2921V77.1179H154.339V76.1202H155.277V74.8209L156.549 74.4591V76.1202H157.892V77.1179H156.549V79.9248C156.549 80.2574 156.609 80.4949 156.73 80.6375C156.85 80.78 157.051 80.8513 157.333 80.8513C157.548 80.8513 157.735 80.7891 157.892 80.6649V81.6736ZM162.245 77.3317C162.091 77.2111 161.87 77.1508 161.581 77.1508C161.205 77.1508 160.891 77.3207 160.638 77.6606C160.386 78.0005 160.26 78.4629 160.26 79.0476V81.7339H158.988V76.1202H160.26V77.2769H160.282C160.406 76.8822 160.596 76.5752 160.852 76.3559C161.112 76.1329 161.4 76.0215 161.718 76.0215C161.949 76.0215 162.124 76.0562 162.245 76.1256V77.3317ZM168.456 76.1202L165.923 82.633C165.397 83.7952 164.659 84.3763 163.708 84.3763C163.442 84.3763 163.219 84.3525 163.04 84.305V83.247C163.241 83.3127 163.423 83.3456 163.588 83.3456C164.063 83.3456 164.417 83.1117 164.651 82.6439L165.03 81.7229L162.798 76.1202H164.207L165.545 80.1989C165.559 80.25 165.592 80.3853 165.644 80.6046H165.671C165.689 80.5205 165.722 80.3889 165.77 80.2098L167.173 76.1202H168.456ZM169.163 81.8545C168.944 81.8545 168.757 81.7832 168.604 81.6407C168.45 81.4945 168.374 81.3209 168.374 81.1199C168.374 80.9152 168.45 80.7398 168.604 80.5936C168.757 80.4474 168.944 80.3743 169.163 80.3743C169.386 80.3743 169.574 80.4474 169.728 80.5936C169.885 80.7398 169.963 80.9152 169.963 81.1199C169.963 81.3209 169.885 81.4945 169.728 81.6407C169.574 81.7832 169.386 81.8545 169.163 81.8545Z" fill="white"/>
<path d="M36.7085 25.6492C37.8877 21.9031 41.3965 19.1855 45.5416 19.1855C50.3413 19.1855 54.2879 22.8301 54.7523 27.496L52.9056 27.1202M54.3285 31.1895C53.7339 33.0656 52.5572 34.7036 50.9689 35.8658C49.3807 37.028 47.4635 37.6541 45.4954 37.6532C40.6957 37.6532 36.7491 34.0086 36.2847 29.3428L38.1314 29.7186" stroke="white" stroke-width="1.35958" stroke-linecap="round" stroke-linejoin="round"/>
<path d="M42.7506 29.8304V31.6698C42.7485 31.818 42.7839 31.9643 42.8537 32.0951C42.9235 32.2259 43.0252 32.3369 43.1495 32.4177C43.9288 32.9052 44.5207 33.0484 45.5235 33.0788C46.4478 33.1038 47.0277 32.9588 47.8901 32.4196C48.0165 32.3381 48.1201 32.2259 48.1912 32.0935C48.2622 31.961 48.2985 31.8127 48.2964 31.6624V29.8304M50.146 27.5099V30.2939M40.9481 27.352C41.2824 26.6466 43.3536 25.4185 45.2437 24.8118C45.4259 24.7539 45.6222 24.7585 45.8014 24.8247C47.4728 25.436 49.3325 26.3622 50.0074 27.1129C50.3593 27.5053 50.0148 28.0058 49.5892 28.3151C48.7239 28.9439 47.7701 29.4324 45.8421 30.1739C45.6378 30.2522 45.4121 30.2538 45.2068 30.1785C43.2307 29.4444 41.3821 28.4979 40.9638 27.6641C40.938 27.6166 40.9231 27.5639 40.9204 27.5099C40.9177 27.4558 40.9272 27.4019 40.9481 27.352Z" stroke="white" stroke-width="1.35958" stroke-linecap="round" stroke-linejoin="round"/>
</svg>
