<svg width="358" height="108" viewBox="0 0 358 108" fill="none" xmlns="http://www.w3.org/2000/svg">
<mask id="mask0_500_559" style="mask-type:luminance" maskUnits="userSpaceOnUse" x="0" y="48" width="39" height="38">
<path d="M0 48.729H38.6626V85.9268H0V48.729Z" fill="white"/>
</mask>
<g mask="url(#mask0_500_559)">
<path d="M38.6085 85.4654H13.0373C5.83408 85.4654 0 79.0305 0 71.0854V49.3677H38.6085V85.4654Z" fill="#FF9D32"/>
</g>
<mask id="mask1_500_559" style="mask-type:luminance" maskUnits="userSpaceOnUse" x="14" y="0" width="344" height="108">
<path d="M14.5737 0H357.999V107.554H14.5737V0Z" fill="white"/>
</mask>
<g mask="url(#mask1_500_559)">
<path d="M338.538 107.536H34.4132C23.7025 107.536 14.9961 97.933 14.9961 86.1193V21.5135C14.9961 9.69972 23.7025 0.0966797 34.4132 0.0966797H338.491C349.204 0.0966797 357.911 9.69972 357.911 21.5135V86.07C357.956 97.933 349.249 107.536 338.538 107.536Z" fill="#C07D14"/>
</g>
<path d="M34.5061 101.202H34.4144C33.3205 101.202 32.2266 101.052 31.2244 100.8L30.9516 102.157C32.0901 102.458 33.2311 102.609 34.4144 102.609H34.5061V101.202ZM41.253 101.202H37.8795V102.609H41.253V101.202ZM47.9974 101.202H44.6264V102.609H47.9974V101.202ZM54.7443 101.202H51.3708V102.609H54.7443V101.202ZM61.4911 101.202H58.1177V102.609H61.4911V101.202ZM68.2379 101.202H64.8645V102.609H68.2379V101.202ZM74.9377 101.202H71.5643V102.609H74.9377V101.202ZM81.6846 101.202H78.3111V102.609H81.6846V101.202ZM88.429 101.202H85.0556V102.609H88.429V101.202ZM95.1759 101.202H91.8025V102.609H95.1759V101.202ZM101.923 101.202H98.5493V102.609H101.923V101.202ZM108.667 101.202H105.296V102.609H108.667V101.202ZM115.369 101.202H111.996V102.609H115.369V101.202ZM122.114 101.202H118.743V102.609H122.114V101.202ZM128.861 101.202H125.487V102.609H128.861V101.202ZM135.607 101.202H132.234V102.609H135.607V101.202ZM142.354 101.202H138.981V102.609H142.354V101.202ZM149.099 101.202H145.725V102.609H149.099V101.202ZM155.801 101.202H152.428V102.609H155.801V101.202ZM162.545 101.202H159.174V102.609H162.545V101.202ZM169.292 101.202H165.919V102.609H169.292V101.202ZM176.039 101.202H172.666V102.609H176.039V101.202ZM182.784 101.202H179.413V102.609H182.784V101.202ZM189.53 101.202H186.157V102.609H189.53V101.202ZM196.233 101.202H192.859V102.609H196.233V101.202ZM202.977 101.202H199.604V102.609H202.977V101.202ZM209.724 101.202H206.35V102.609H209.724V101.202ZM216.471 101.202H213.097V102.609H216.471V101.202ZM223.215 101.202H219.842V102.609H223.215V101.202ZM229.962 101.202H226.589V102.609H229.962V101.202ZM236.662 101.202H233.291V102.609H236.662V101.202ZM243.409 101.202H240.035V102.609H243.409V101.202ZM250.155 101.202H246.782V102.609H250.155V101.202ZM256.9 101.202H253.529V102.609H256.9V101.202ZM263.647 101.202H260.273V102.609H263.647V101.202ZM270.394 101.202H267.02V102.609H270.394V101.202ZM277.093 101.202H273.72V102.609H277.093V101.202ZM283.84 101.202H280.467V102.609H283.84V101.202ZM290.587 101.202H287.214V102.609H290.587V101.202ZM297.332 101.202H293.961V102.609H297.332V101.202ZM304.078 101.202H300.705V102.609H304.078V101.202ZM310.825 101.202H307.452V102.609H310.825V101.202ZM317.525 101.202H314.152V102.609H317.525V101.202ZM324.272 101.202H320.898V102.609H324.272V101.202ZM331.019 101.202H327.645V102.609H331.019V101.202ZM337.763 101.202H334.39V102.609H337.763V101.202ZM344.054 99.9464C343.096 100.398 342.049 100.751 341 101L341.228 102.359C342.414 102.108 343.508 101.755 344.602 101.202L344.054 99.9464ZM349.158 95.6729C348.476 96.5759 347.7 97.4321 346.834 98.1353L347.611 99.2406C348.521 98.4363 349.387 97.5307 350.116 96.5759L349.158 95.6729ZM351.939 89.3366C351.711 90.4939 351.346 91.6485 350.892 92.7046L352.031 93.3091C352.532 92.1519 352.944 90.9453 353.169 89.6376L351.939 89.3366ZM352.259 82.048V85.7663H353.534V82.048H352.259ZM352.259 74.6557V78.3765H353.534V74.6557H352.259ZM352.259 67.2141V70.9349H353.534V67.2141H352.259ZM352.259 59.775V63.4958H353.534V59.775H352.259ZM352.259 52.3334V56.0542H353.534V52.3334H352.259ZM352.259 44.8917V48.6125H353.534V44.8917H352.259ZM352.259 37.4527V41.1735H353.534V37.4527H352.259ZM352.259 30.0603V33.7811H353.534V30.0603H352.259ZM352.259 22.6213V26.3395H353.534V22.6213H352.259ZM351.165 15.6311C351.574 16.6872 351.894 17.8444 352.076 19.0509L353.308 18.7993C353.125 17.4915 352.76 16.2357 352.304 15.0784L351.165 15.6311ZM347.382 9.95127C348.201 10.7037 348.93 11.56 349.57 12.5149L350.572 11.6612C349.888 10.6051 349.069 9.65029 348.156 8.84333L347.382 9.95127ZM341.685 6.78313C342.732 7.03481 343.736 7.48629 344.691 7.98967L345.284 6.73383C344.237 6.18115 343.143 5.72708 342.002 5.42609L341.685 6.78313ZM335.119 6.38095H338.492V4.97461H335.119V6.38095ZM328.375 6.38095H331.748V4.97461H328.375V6.38095ZM321.628 6.38095H325.001V4.97461H321.628V6.38095ZM314.881 6.38095H318.254V4.97461H314.881V6.38095ZM308.136 6.38095H311.507V4.97461H308.136V6.38095ZM301.434 6.38095H304.808V4.97461H301.434V6.38095ZM294.69 6.38095H298.061V4.97461H294.69V6.38095ZM287.943 6.38095H291.316V4.97461H287.943V6.38095ZM281.196 6.38095H284.57V4.97461H281.196V6.38095ZM274.449 6.38095H277.823V4.97461H274.449V6.38095ZM267.705 6.38095H271.078V4.97461H267.705V6.38095ZM261.003 6.38095H264.376V4.97461H261.003V6.38095ZM254.258 6.38095H257.632V4.97461H254.258V6.38095ZM247.511 6.38095H250.885V4.97461H247.511V6.38095ZM240.764 6.38095H244.138V4.97461H240.764V6.38095ZM234.02 6.38095H237.391V4.97461H234.02V6.38095ZM227.273 6.38095H230.647V4.97461H227.273V6.38095ZM220.573 6.38095H223.944V4.97461H220.573V6.38095ZM213.827 6.38095H217.2V4.97461H213.827V6.38095ZM207.08 6.38095H210.453V4.97461H207.08V6.38095ZM200.333 6.38095H203.706V4.97461H200.333V6.38095ZM193.588 6.38095H196.962V4.97461H193.588V6.38095ZM186.842 6.38095H190.215V4.97461H186.842V6.38095ZM180.142 6.38095H183.515V4.97461H180.142V6.38095ZM173.395 6.38095H176.768V4.97461H173.395V6.38095ZM166.648 6.38095H170.022V4.97461H166.648V6.38095ZM159.904 6.38095H163.275V4.97461H159.904V6.38095ZM153.157 6.38095H156.53V4.97461H153.157V6.38095ZM146.41 6.38095H149.783V4.97461H146.41V6.38095ZM139.663 6.38095H143.037V4.97461H139.663V6.38095ZM132.963 6.38095H136.337V4.97461H132.963V6.38095ZM126.216 6.38095H129.59V4.97461H126.216V6.38095ZM119.472 6.38095H122.845V4.97461H119.472V6.38095ZM112.725 6.38095H116.099V4.97461H112.725V6.38095ZM105.978 6.38095H109.352V4.97461H105.978V6.38095ZM99.2339 6.38095H102.605V4.97461H99.2339V6.38095ZM92.5317 6.38095H95.9051V4.97461H92.5317V6.38095ZM85.7872 6.38095H89.1583V4.97461H85.7872V6.38095ZM79.0404 6.38095H82.4138V4.97461H79.0404V6.38095ZM72.2936 6.38095H75.667V4.97461H72.2936V6.38095ZM65.5467 6.38095H68.9202V4.97461H65.5467V6.38095ZM58.8022 6.38095H62.1757V4.97461H58.8022V6.38095ZM52.1001 6.38095H55.4735V4.97461H52.1001V6.38095ZM45.3556 6.38095H48.7267V4.97461H45.3556V6.38095ZM38.6088 6.38095H41.9822V4.97461H38.6088V6.38095ZM31.9984 6.63263C32.7747 6.48214 33.5957 6.38095 34.4614 6.38095H35.2801V4.97461H34.4614C33.5487 4.97461 32.683 5.07321 31.8173 5.2237L31.9984 6.63263ZM26.1643 9.4479C27.03 8.74473 27.9428 8.14016 28.9449 7.63679L28.4438 6.38095C27.35 6.88432 26.3478 7.58749 25.4351 8.34255L26.1643 9.4479ZM22.1087 14.8786C22.5627 13.8226 23.1555 12.8158 23.8401 11.9103L22.8826 11.0073C22.1534 12.0115 21.5159 13.0675 20.9677 14.2741L22.1087 14.8786ZM20.6949 21.765V21.5133C20.6949 20.408 20.7866 19.3026 21.0148 18.2466L19.7821 17.9456C19.5563 19.1002 19.4175 20.3068 19.4175 21.5133V21.765H20.6949ZM20.6949 29.2067V25.4858H19.4175V29.2067H20.6949ZM20.6949 36.6483V32.9275H19.4175V36.6483H20.6949ZM20.6949 44.0874V40.3665H19.4175V44.0874H20.6949ZM20.6949 51.4797V47.7589H19.4175V51.4797H20.6949ZM20.6949 58.9188V55.2005H19.4175V58.9188H20.6949ZM20.6949 66.3604V62.6396H19.4175V66.3604H20.6949ZM20.6949 73.802V70.0812H19.4175V73.802H20.6949ZM20.6949 81.2437V77.5229H19.4175V81.2437H20.6949ZM20.8784 88.5322C20.7396 87.7279 20.6949 86.9235 20.6949 86.0699V84.9126H19.4175V86.0699C19.4175 86.9728 19.4645 87.8784 19.601 88.7346L20.8784 88.5322ZM23.3837 95.019C22.7462 94.0616 22.1981 93.0574 21.7888 91.9521L20.6031 92.5048C21.0595 93.7113 21.6523 94.8167 22.3369 95.8727L23.3837 95.019ZM28.2157 99.5935C27.2582 99.0408 26.3478 98.387 25.5268 97.6319L24.7058 98.688C25.6185 99.5442 26.576 100.247 27.6228 100.849L28.2157 99.5935Z" fill="white"/>
<mask id="mask2_500_559" style="mask-type:luminance" maskUnits="userSpaceOnUse" x="0" y="10" width="125" height="60">
<path d="M0 10.2031H124.781V69.9854H0V10.2031Z" fill="white"/>
</mask>
<g mask="url(#mask2_500_559)">
<path d="M116.508 10.6538H12.3998C5.5612 10.6538 0 16.7877 0 24.328V69.3255C0 60.2778 6.65509 52.9373 14.8604 52.9373H116.508L124.257 31.7696L116.508 10.6538Z" fill="#FF6A00"/>
</g>
<mask id="mask3_500_559" style="mask-type:luminance" maskUnits="userSpaceOnUse" x="95" y="10" width="213" height="43">
<path d="M95.1587 10.7061H307.95V52.8416H95.1587V10.7061Z" fill="white"/>
</mask>
<g mask="url(#mask3_500_559)">
<mask id="mask4_500_559" style="mask-type:luminance" maskUnits="userSpaceOnUse" x="95" y="10" width="213" height="43">
<path d="M288.386 10.7061H95.1577V52.8416H288.386L307.928 31.7725L288.386 10.7061Z" fill="white"/>
</mask>
<g mask="url(#mask4_500_559)">
<mask id="mask5_500_559" style="mask-type:luminance" maskUnits="userSpaceOnUse" x="94" y="10" width="215" height="44">
<path d="M308.458 10.2036H94.6675V53.3797H308.458V10.2036Z" fill="white"/>
</mask>
<g mask="url(#mask5_500_559)">
<mask id="mask6_500_559" style="mask-type:luminance" maskUnits="userSpaceOnUse" x="95" y="10" width="213" height="43">
<path d="M95.1567 10.7065H307.948V52.8421H95.1567V10.7065Z" fill="white"/>
</mask>
<g mask="url(#mask6_500_559)">
<mask id="mask7_500_559" style="mask-type:luminance" maskUnits="userSpaceOnUse" x="95" y="10" width="213" height="43">
<path d="M288.384 10.7065H95.1558V52.8421H288.384L307.926 31.773L288.384 10.7065Z" fill="white"/>
</mask>
<g mask="url(#mask7_500_559)">
<path d="M95.1558 10.7065H307.947V52.8421H95.1558V10.7065Z" fill="#FF6A00"/>
</g>
</g>
</g>
</g>
</g>
<path d="M102.975 37.5107H100.921L99.2285 34.6734C99.0758 34.4123 98.9255 34.1906 98.7777 34.0084C98.6349 33.8212 98.4871 33.6685 98.3344 33.5503C98.1866 33.4321 98.0241 33.3458 97.8467 33.2917C97.6694 33.2375 97.4699 33.2104 97.2482 33.2104H96.5389V37.5107H94.7877V26.915H98.2753C98.7728 26.915 99.2309 26.9741 99.6496 27.0923C100.068 27.2106 100.433 27.3904 100.743 27.6317C101.054 27.8682 101.295 28.1662 101.467 28.5258C101.645 28.8805 101.733 29.2967 101.733 29.7745C101.733 30.1489 101.677 30.4937 101.563 30.809C101.455 31.1193 101.297 31.3976 101.09 31.6439C100.889 31.8853 100.642 32.0922 100.352 32.2646C100.066 32.437 99.7432 32.57 99.3836 32.6636V32.6932C99.5758 32.8015 99.7432 32.9222 99.8861 33.0552C100.029 33.1833 100.164 33.3163 100.292 33.4542C100.421 33.5921 100.546 33.7498 100.669 33.9271C100.797 34.0995 100.938 34.3015 101.09 34.533L102.975 37.5107ZM96.5389 28.3411V31.7843H98.0019C98.2728 31.7843 98.5216 31.7424 98.7482 31.6587C98.9797 31.575 99.1792 31.4543 99.3467 31.2966C99.5142 31.139 99.6447 30.9469 99.7383 30.7203C99.8319 30.4937 99.8787 30.24 99.8787 29.9593C99.8787 29.4519 99.7186 29.0553 99.3984 28.7696C99.0782 28.4839 98.6177 28.3411 98.0167 28.3411H96.5389ZM110.031 34.1931H104.874C104.893 34.8926 105.108 35.432 105.516 35.8113C105.93 36.1906 106.497 36.3802 107.216 36.3802C108.024 36.3802 108.765 36.1389 109.44 35.6561V37.0379C108.75 37.4713 107.839 37.6881 106.706 37.6881C105.593 37.6881 104.718 37.3457 104.083 36.661C103.452 35.9714 103.137 35.0034 103.137 33.7572C103.137 32.5799 103.484 31.6218 104.179 30.8829C104.879 30.139 105.746 29.7671 106.78 29.7671C107.814 29.7671 108.615 30.0996 109.181 30.7646C109.748 31.4296 110.031 32.3533 110.031 33.5355V34.1931ZM108.376 32.9813C108.371 32.3656 108.226 31.8878 107.94 31.5479C107.654 31.2031 107.26 31.0306 106.758 31.0306C106.265 31.0306 105.846 31.2104 105.502 31.57C105.162 31.9296 104.952 32.4001 104.874 32.9813H108.376ZM117.472 37.5107H115.809V36.3285H115.78C115.258 37.2349 114.492 37.6881 113.482 37.6881C112.738 37.6881 112.154 37.4861 111.731 37.0822C111.312 36.6783 111.102 36.1438 111.102 35.4788C111.102 34.0503 111.925 33.2178 113.57 32.9813L115.817 32.6636C115.817 31.5848 115.304 31.0454 114.28 31.0454C113.378 31.0454 112.565 31.3558 111.841 31.9764V30.4765C112.639 30.0036 113.561 29.7671 114.605 29.7671C116.516 29.7671 117.472 30.708 117.472 32.5897V37.5107ZM115.817 33.7941L114.228 34.0158C113.735 34.0798 113.364 34.2005 113.112 34.3778C112.866 34.5502 112.743 34.8557 112.743 35.2941C112.743 35.6142 112.856 35.8778 113.083 36.0847C113.314 36.2866 113.622 36.3876 114.006 36.3876C114.528 36.3876 114.96 36.2054 115.299 35.8408C115.644 35.4714 115.817 35.0084 115.817 34.4517V33.7941ZM121.292 37.5107H119.57V26.3091H121.292V37.5107ZM127.521 37.4295C127.186 37.5969 126.745 37.6807 126.198 37.6807C124.73 37.6807 123.996 36.9763 123.996 35.5675V31.2893H122.733V29.9445H123.996V28.1933L125.71 27.7056V29.9445H127.521V31.2893H125.71V35.0724C125.71 35.5207 125.792 35.8408 125.954 36.033C126.117 36.2251 126.388 36.3211 126.767 36.3211C127.058 36.3211 127.309 36.2374 127.521 36.0699V37.4295ZM129.863 28.3559C129.582 28.3559 129.341 28.2647 129.139 28.0825C128.942 27.9002 128.843 27.6687 128.843 27.3879C128.843 27.1071 128.942 26.8731 129.139 26.686C129.341 26.4988 129.582 26.4052 129.863 26.4052C130.154 26.4052 130.4 26.4988 130.602 26.686C130.804 26.8731 130.905 27.1071 130.905 27.3879C130.905 27.6539 130.804 27.883 130.602 28.0751C130.4 28.2623 130.154 28.3559 129.863 28.3559ZM130.713 37.5107H128.998V29.9445H130.713V37.5107ZM144.271 37.5107H142.557V33.3877C142.557 32.5946 142.444 32.0208 142.217 31.6661C141.996 31.3114 141.619 31.1341 141.087 31.1341C140.639 31.1341 140.257 31.3582 139.941 31.8065C139.631 32.2547 139.476 32.7917 139.476 33.4173V37.5107H137.754V33.2473C137.754 31.8385 137.257 31.1341 136.262 31.1341C135.799 31.1341 135.417 31.3459 135.117 31.7695C134.821 32.1932 134.673 32.7424 134.673 33.4173V37.5107H132.959V29.9445H134.673V31.1415H134.703C135.25 30.2253 136.045 29.7671 137.089 29.7671C137.612 29.7671 138.067 29.9125 138.456 30.2031C138.85 30.4888 139.119 30.8656 139.262 31.3336C139.823 30.2893 140.661 29.7671 141.774 29.7671C143.439 29.7671 144.271 30.7942 144.271 32.8483V37.5107ZM152.769 34.1931H147.611C147.631 34.8926 147.845 35.432 148.254 35.8113C148.668 36.1906 149.234 36.3802 149.954 36.3802C150.761 36.3802 151.503 36.1389 152.178 35.6561V37.0379C151.488 37.4713 150.577 37.6881 149.444 37.6881C148.33 37.6881 147.456 37.3457 146.821 36.661C146.19 35.9714 145.875 35.0034 145.875 33.7572C145.875 32.5799 146.222 31.6218 146.917 30.8829C147.616 30.139 148.483 29.7671 149.518 29.7671C150.552 29.7671 151.352 30.0996 151.919 30.7646C152.485 31.4296 152.769 32.3533 152.769 33.5355V34.1931ZM151.114 32.9813C151.109 32.3656 150.963 31.8878 150.678 31.5479C150.392 31.2031 149.998 31.0306 149.495 31.0306C149.003 31.0306 148.584 31.2104 148.239 31.57C147.899 31.9296 147.69 32.4001 147.611 32.9813H151.114ZM167.465 37.5107H165.537L164.584 34.8138H160.416L159.5 37.5107H157.579L161.547 26.915H163.527L167.465 37.5107ZM164.118 33.3803L162.648 29.1539C162.603 29.0159 162.557 28.7943 162.507 28.4889H162.478C162.433 28.7696 162.384 28.9913 162.33 29.1539L160.874 33.3803H164.118ZM175.475 37.5107H173.761V33.2473C173.761 31.8336 173.261 31.1267 172.261 31.1267C171.739 31.1267 171.308 31.3237 170.968 31.7178C170.628 32.107 170.458 32.5996 170.458 33.1956V37.5107H168.736V29.9445H170.458V31.2006H170.487C171.054 30.245 171.872 29.7671 172.94 29.7671C173.763 29.7671 174.391 30.0356 174.825 30.5725C175.258 31.1045 175.475 31.8754 175.475 32.8853V37.5107ZM183.381 37.5107H181.719V36.3285H181.689C181.167 37.2349 180.401 37.6881 179.391 37.6881C178.647 37.6881 178.063 37.4861 177.64 37.0822C177.221 36.6783 177.012 36.1438 177.012 35.4788C177.012 34.0503 177.834 33.2178 179.48 32.9813L181.726 32.6636C181.726 31.5848 181.214 31.0454 180.189 31.0454C179.288 31.0454 178.475 31.3558 177.751 31.9764V30.4765C178.549 30.0036 179.47 29.7671 180.514 29.7671C182.425 29.7671 183.381 30.708 183.381 32.5897V37.5107ZM181.726 33.7941L180.137 34.0158C179.645 34.0798 179.273 34.2005 179.022 34.3778C178.775 34.5502 178.652 34.8557 178.652 35.2941C178.652 35.6142 178.765 35.8778 178.992 36.0847C179.224 36.2866 179.531 36.3876 179.916 36.3876C180.438 36.3876 180.869 36.2054 181.209 35.8408C181.554 35.4714 181.726 35.0084 181.726 34.4517V33.7941ZM187.201 37.5107H185.48V26.3091H187.201V37.5107ZM195.994 29.9445L192.58 38.7225C191.871 40.289 190.876 41.0722 189.595 41.0722C189.236 41.0722 188.935 41.0402 188.694 40.9762V39.5501C188.965 39.6388 189.211 39.6831 189.433 39.6831C190.073 39.6831 190.551 39.3678 190.866 38.7373L191.376 37.496L188.369 29.9445H190.268L192.07 35.4418C192.09 35.5108 192.134 35.6931 192.203 35.9886H192.24C192.265 35.8753 192.309 35.698 192.373 35.4566L194.265 29.9445H195.994ZM196.666 37.2743V35.6857C197.307 36.1733 198.014 36.4172 198.787 36.4172C199.821 36.4172 200.339 36.1118 200.339 35.501C200.339 35.3285 200.294 35.1832 200.206 35.065C200.117 34.9419 199.996 34.8335 199.844 34.7399C199.696 34.6463 199.518 34.5626 199.312 34.4887C199.11 34.4148 198.883 34.331 198.632 34.2374C198.321 34.1143 198.041 33.9838 197.789 33.8458C197.543 33.7079 197.336 33.5527 197.169 33.3803C197.006 33.203 196.883 33.0035 196.799 32.7818C196.716 32.5602 196.674 32.3015 196.674 32.006C196.674 31.6415 196.76 31.3213 196.932 31.0454C197.105 30.7646 197.336 30.5307 197.627 30.3435C197.918 30.1514 198.248 30.0085 198.617 29.9149C198.986 29.8164 199.368 29.7671 199.762 29.7671C200.462 29.7671 201.087 29.873 201.639 30.0849V31.5848C201.107 31.2203 200.496 31.038 199.807 31.038C199.59 31.038 199.393 31.0602 199.216 31.1045C199.043 31.1489 198.895 31.2104 198.772 31.2893C198.649 31.3681 198.553 31.4641 198.484 31.5774C198.415 31.6858 198.381 31.8065 198.381 31.9395C198.381 32.102 198.415 32.24 198.484 32.3533C198.553 32.4666 198.654 32.5675 198.787 32.6562C198.925 32.74 199.087 32.8188 199.275 32.8927C199.467 32.9616 199.686 33.038 199.932 33.1217C200.257 33.2547 200.548 33.3902 200.804 33.5281C201.065 33.666 201.287 33.8237 201.469 34.001C201.651 34.1734 201.792 34.3754 201.89 34.6069C201.989 34.8335 202.038 35.1044 202.038 35.4197C202.038 35.8039 201.949 36.1389 201.772 36.4246C201.595 36.7103 201.358 36.9467 201.063 37.1339C200.767 37.3211 200.425 37.459 200.036 37.5477C199.651 37.6413 199.245 37.6881 198.817 37.6881C197.989 37.6881 197.272 37.5501 196.666 37.2743ZM204.536 28.3559C204.255 28.3559 204.013 28.2647 203.811 28.0825C203.614 27.9002 203.516 27.6687 203.516 27.3879C203.516 27.1071 203.614 26.8731 203.811 26.686C204.013 26.4988 204.255 26.4052 204.536 26.4052C204.826 26.4052 205.072 26.4988 205.274 26.686C205.476 26.8731 205.577 27.1071 205.577 27.3879C205.577 27.6539 205.476 27.883 205.274 28.0751C205.072 28.2623 204.826 28.3559 204.536 28.3559ZM205.385 37.5107H203.671V29.9445H205.385V37.5107ZM207.159 37.2743V35.6857C207.799 36.1733 208.506 36.4172 209.279 36.4172C210.314 36.4172 210.831 36.1118 210.831 35.501C210.831 35.3285 210.787 35.1832 210.698 35.065C210.609 34.9419 210.489 34.8335 210.336 34.7399C210.188 34.6463 210.011 34.5626 209.804 34.4887C209.602 34.4148 209.375 34.331 209.124 34.2374C208.814 34.1143 208.533 33.9838 208.282 33.8458C208.035 33.7079 207.829 33.5527 207.661 33.3803C207.499 33.203 207.375 33.0035 207.292 32.7818C207.208 32.5602 207.166 32.3015 207.166 32.006C207.166 31.6415 207.252 31.3213 207.425 31.0454C207.597 30.7646 207.829 30.5307 208.119 30.3435C208.41 30.1514 208.74 30.0085 209.109 29.9149C209.479 29.8164 209.861 29.7671 210.255 29.7671C210.954 29.7671 211.58 29.873 212.131 30.0849V31.5848C211.599 31.2203 210.989 31.038 210.299 31.038C210.082 31.038 209.885 31.0602 209.708 31.1045C209.535 31.1489 209.388 31.2104 209.264 31.2893C209.141 31.3681 209.045 31.4641 208.976 31.5774C208.907 31.6858 208.873 31.8065 208.873 31.9395C208.873 32.102 208.907 32.24 208.976 32.3533C209.045 32.4666 209.146 32.5675 209.279 32.6562C209.417 32.74 209.58 32.8188 209.767 32.8927C209.959 32.9616 210.178 33.038 210.425 33.1217C210.75 33.2547 211.04 33.3902 211.296 33.5281C211.558 33.666 211.779 33.8237 211.961 34.001C212.144 34.1734 212.284 34.3754 212.383 34.6069C212.481 34.8335 212.53 35.1044 212.53 35.4197C212.53 35.8039 212.442 36.1389 212.264 36.4246C212.087 36.7103 211.851 36.9467 211.555 37.1339C211.259 37.3211 210.917 37.459 210.528 37.5477C210.144 37.6413 209.737 37.6881 209.309 37.6881C208.481 37.6881 207.765 37.5501 207.159 37.2743Z" fill="white"/>
<path d="M46.1905 72.3347C45.2943 72.8228 44.2959 73.0669 43.1956 73.0669C41.9232 73.0669 40.8929 72.6708 40.1046 71.8785C39.3164 71.0863 38.9223 70.038 38.9223 68.7335C38.9223 67.4011 39.3524 66.3088 40.2127 65.4565C41.0769 64.6003 42.1733 64.1721 43.5017 64.1721C44.458 64.1721 45.2622 64.3122 45.9145 64.5923V66.0627C45.2542 65.6226 44.468 65.4025 43.5557 65.4025C42.6394 65.4025 41.8872 65.7046 41.299 66.3088C40.7148 66.913 40.4227 67.6952 40.4227 68.6555C40.4227 69.6438 40.6748 70.4221 41.179 70.9902C41.6831 71.5544 42.3673 71.8365 43.2316 71.8365C43.8238 71.8365 44.336 71.7225 44.7681 71.4944V69.4478H42.9555V68.2474H46.1905V72.3347ZM53.0927 70.228H48.9034C48.9194 70.7962 49.0934 71.2343 49.4255 71.5424C49.7617 71.8505 50.2218 72.0046 50.806 72.0046C51.4622 72.0046 52.0644 71.8085 52.6125 71.4164V72.5387C52.0524 72.8908 51.3121 73.0669 50.3918 73.0669C49.4876 73.0669 48.7773 72.7888 48.2612 72.2326C47.749 71.6725 47.4929 70.8862 47.4929 69.8739C47.4929 68.9176 47.775 68.1394 48.3392 67.5392C48.9074 66.935 49.6116 66.6329 50.4519 66.6329C51.2921 66.6329 51.9423 66.903 52.4025 67.4431C52.8626 67.9833 53.0927 68.7335 53.0927 69.6938V70.228ZM51.7483 69.2437C51.7443 68.7435 51.6262 68.3554 51.3942 68.0793C51.1621 67.7993 50.842 67.6592 50.4339 67.6592C50.0337 67.6592 49.6936 67.8053 49.4135 68.0973C49.1375 68.3894 48.9674 68.7716 48.9034 69.2437H51.7483ZM57.6601 72.8568C57.388 72.9929 57.0299 73.0609 56.5858 73.0609C55.3934 73.0609 54.7972 72.4887 54.7972 71.3444V67.8693H53.7709V66.7769H54.7972V65.3545L56.1897 64.9584V66.7769H57.6601V67.8693H56.1897V70.9422C56.1897 71.3063 56.2557 71.5664 56.3877 71.7225C56.5198 71.8785 56.7398 71.9565 57.0479 71.9565C57.284 71.9565 57.4881 71.8885 57.6601 71.7525V72.8568ZM69.0517 72.9229H67.3832L66.0087 70.6181C65.8847 70.4061 65.7626 70.226 65.6426 70.078C65.5266 69.9259 65.4065 69.8019 65.2825 69.7058C65.1625 69.6098 65.0304 69.5398 64.8864 69.4958C64.7423 69.4518 64.5803 69.4298 64.4002 69.4298H63.824V72.9229H62.4016V64.3162H65.2345C65.6386 64.3162 66.0107 64.3642 66.3508 64.4602C66.6909 64.5562 66.987 64.7023 67.2391 64.8983C67.4912 65.0904 67.6872 65.3325 67.8273 65.6246C67.9713 65.9127 68.0434 66.2508 68.0434 66.6389C68.0434 66.943 67.9973 67.2231 67.9053 67.4792C67.8173 67.7312 67.6893 67.9573 67.5212 68.1574C67.3571 68.3534 67.1571 68.5215 66.921 68.6615C66.6889 68.8016 66.4269 68.9096 66.1348 68.9856V69.0096C66.2908 69.0977 66.4269 69.1957 66.5429 69.3037C66.6589 69.4078 66.769 69.5158 66.873 69.6278C66.977 69.7399 67.0791 69.8679 67.1791 70.0119C67.2831 70.152 67.3972 70.316 67.5212 70.5041L69.0517 72.9229ZM63.824 65.4745V68.2714H65.0124C65.2325 68.2714 65.4345 68.2374 65.6186 68.1694C65.8067 68.1013 65.9687 68.0033 66.1048 67.8753C66.2408 67.7472 66.3468 67.5912 66.4229 67.4071C66.4989 67.2231 66.5369 67.017 66.5369 66.7889C66.5369 66.3768 66.4068 66.0547 66.1468 65.8226C65.8867 65.5906 65.5126 65.4745 65.0244 65.4745H63.824ZM74.7835 70.228H70.5942C70.6102 70.7962 70.7842 71.2343 71.1163 71.5424C71.4524 71.8505 71.9126 72.0046 72.4968 72.0046C73.153 72.0046 73.7551 71.8085 74.3033 71.4164V72.5387C73.7431 72.8908 73.0029 73.0669 72.0826 73.0669C71.1783 73.0669 70.4681 72.7888 69.952 72.2326C69.4398 71.6725 69.1837 70.8862 69.1837 69.8739C69.1837 68.9176 69.4658 68.1394 70.03 67.5392C70.5982 66.935 71.3024 66.6329 72.1426 66.6329C72.9829 66.6329 73.6331 66.903 74.0932 67.4431C74.5534 67.9833 74.7835 68.7335 74.7835 69.6938V70.228ZM73.439 69.2437C73.435 68.7435 73.317 68.3554 73.0849 68.0793C72.8529 67.7993 72.5328 67.6592 72.1246 67.6592C71.7245 67.6592 71.3844 67.8053 71.1043 68.0973C70.8282 68.3894 70.6582 68.7716 70.5942 69.2437H73.439ZM80.8274 72.9229H79.4769V71.9626H79.4529C79.0288 72.6988 78.4066 73.0669 77.5863 73.0669C76.9822 73.0669 76.508 72.9028 76.1639 72.5747C75.8238 72.2466 75.6537 71.8125 75.6537 71.2723C75.6537 70.112 76.3219 69.4358 77.6584 69.2437L79.4829 68.9856C79.4829 68.1093 79.0668 67.6712 78.2345 67.6712C77.5023 67.6712 76.8421 67.9233 76.2539 68.4274V67.2091C76.9021 66.8249 77.6504 66.6329 78.4986 66.6329C80.0511 66.6329 80.8274 67.3971 80.8274 68.9256V72.9229ZM79.4829 69.9039L78.1925 70.084C77.7924 70.136 77.4903 70.234 77.2862 70.3781C77.0862 70.5181 76.9862 70.7662 76.9862 71.1223C76.9862 71.3824 77.0782 71.5964 77.2622 71.7645C77.4503 71.9285 77.7004 72.0106 78.0125 72.0106C78.4366 72.0106 78.7867 71.8625 79.0628 71.5664C79.3429 71.2663 79.4829 70.8902 79.4829 70.4381V69.9039ZM83.9303 72.9229H82.5319V63.824H83.9303V72.9229ZM88.9899 72.8568C88.7178 72.9929 88.3597 73.0609 87.9156 73.0609C86.7232 73.0609 86.127 72.4887 86.127 71.3444V67.8693H85.1007V66.7769H86.127V65.3545L87.5194 64.9584V66.7769H88.9899V67.8693H87.5194V70.9422C87.5194 71.3063 87.5855 71.5664 87.7175 71.7225C87.8495 71.8785 88.0696 71.9565 88.3777 71.9565C88.6138 71.9565 88.8178 71.8885 88.9899 71.7525V72.8568ZM90.8925 65.4865C90.6644 65.4865 90.4684 65.4125 90.3043 65.2645C90.1443 65.1164 90.0642 64.9284 90.0642 64.7003C90.0642 64.4722 90.1443 64.2822 90.3043 64.1301C90.4684 63.9781 90.6644 63.902 90.8925 63.902C91.1286 63.902 91.3286 63.9781 91.4927 64.1301C91.6567 64.2822 91.7388 64.4722 91.7388 64.7003C91.7388 64.9164 91.6567 65.1024 91.4927 65.2585C91.3286 65.4105 91.1286 65.4865 90.8925 65.4865ZM91.5827 72.9229H90.1903V66.7769H91.5827V72.9229ZM102.596 72.9229H101.204V69.5738C101.204 68.9296 101.112 68.4635 100.928 68.1754C100.748 67.8873 100.441 67.7432 100.009 67.7432C99.6452 67.7432 99.3351 67.9253 99.079 68.2894C98.827 68.6535 98.7009 69.0897 98.7009 69.5978V72.9229H97.3025V69.4598C97.3025 68.3154 96.8984 67.7432 96.0901 67.7432C95.714 67.7432 95.4039 67.9153 95.1598 68.2594C94.9198 68.6035 94.7997 69.0496 94.7997 69.5978V72.9229H93.4073V66.7769H94.7997V67.7492H94.8237C95.2679 67.005 95.9141 66.6329 96.7623 66.6329C97.1865 66.6329 97.5566 66.7509 97.8727 66.987C98.1928 67.2191 98.4108 67.5252 98.5269 67.9053C98.983 67.057 99.6632 66.6329 100.568 66.6329C101.92 66.6329 102.596 67.4671 102.596 69.1357V72.9229ZM109.498 70.228H105.309C105.325 70.7962 105.499 71.2343 105.831 71.5424C106.167 71.8505 106.627 72.0046 107.212 72.0046C107.868 72.0046 108.47 71.8085 109.018 71.4164V72.5387C108.458 72.8908 107.718 73.0669 106.797 73.0669C105.893 73.0669 105.183 72.7888 104.667 72.2326C104.155 71.6725 103.899 70.8862 103.899 69.8739C103.899 68.9176 104.181 68.1394 104.745 67.5392C105.313 66.935 106.017 66.6329 106.857 66.6329C107.698 66.6329 108.348 66.903 108.808 67.4431C109.268 67.9833 109.498 68.7335 109.498 69.6938V70.228ZM108.154 69.2437C108.15 68.7435 108.032 68.3554 107.8 68.0793C107.568 67.7993 107.248 67.6592 106.839 67.6592C106.439 67.6592 106.099 67.8053 105.819 68.0973C105.543 68.3894 105.373 68.7716 105.309 69.2437H108.154ZM121.436 72.9229H119.87L119.095 70.7322H115.71L114.966 72.9229H113.406L116.629 64.3162H118.237L121.436 72.9229ZM118.717 69.5678L117.523 66.1347C117.487 66.0227 117.449 65.8426 117.409 65.5946H117.385C117.349 65.8226 117.309 66.0027 117.265 66.1347L116.082 69.5678H118.717ZM127.942 72.9229H126.55V69.4598C126.55 68.3114 126.144 67.7372 125.331 67.7372C124.907 67.7372 124.557 67.8973 124.281 68.2174C124.005 68.5335 123.867 68.9336 123.867 69.4178V72.9229H122.468V66.7769H123.867V67.7973H123.891C124.351 67.021 125.015 66.6329 125.883 66.6329C126.552 66.6329 127.062 66.851 127.414 67.2871C127.766 67.7192 127.942 68.3454 127.942 69.1657V72.9229ZM134.364 72.9229H133.014V71.9626H132.99C132.566 72.6988 131.943 73.0669 131.123 73.0669C130.519 73.0669 130.045 72.9028 129.701 72.5747C129.361 72.2466 129.19 71.8125 129.19 71.2723C129.19 70.112 129.859 69.4358 131.195 69.2437L133.02 68.9856C133.02 68.1093 132.604 67.6712 131.771 67.6712C131.039 67.6712 130.379 67.9233 129.791 68.4274V67.2091C130.439 66.8249 131.187 66.6329 132.035 66.6329C133.588 66.6329 134.364 67.3971 134.364 68.9256V72.9229ZM133.02 69.9039L131.729 70.084C131.329 70.136 131.027 70.234 130.823 70.3781C130.623 70.5181 130.523 70.7662 130.523 71.1223C130.523 71.3824 130.615 71.5964 130.799 71.7645C130.987 71.9285 131.237 72.0106 131.549 72.0106C131.973 72.0106 132.323 71.8625 132.6 71.5664C132.88 71.2663 133.02 70.8902 133.02 70.4381V69.9039ZM137.467 72.9229H136.069V63.824H137.467V72.9229ZM144.609 66.7769L141.836 73.9072C141.26 75.1796 140.452 75.8158 139.412 75.8158C139.12 75.8158 138.875 75.7897 138.679 75.7377V74.5794C138.899 74.6514 139.1 74.6874 139.28 74.6874C139.8 74.6874 140.188 74.4313 140.444 73.9192L140.858 72.9108L138.415 66.7769H139.958L141.422 71.2423C141.438 71.2983 141.474 71.4464 141.53 71.6865H141.56C141.58 71.5944 141.616 71.4504 141.668 71.2543L143.205 66.7769H144.609ZM145.155 72.7308V71.4404C145.676 71.8365 146.25 72.0346 146.878 72.0346C147.718 72.0346 148.138 71.7865 148.138 71.2903C148.138 71.1503 148.102 71.0323 148.03 70.9362C147.958 70.8362 147.86 70.7482 147.736 70.6721C147.616 70.5961 147.472 70.5281 147.304 70.4681C147.14 70.4081 146.956 70.34 146.752 70.264C146.5 70.164 146.272 70.058 146.068 69.9459C145.868 69.8339 145.7 69.7078 145.564 69.5678C145.432 69.4238 145.331 69.2617 145.263 69.0817C145.195 68.9016 145.161 68.6915 145.161 68.4515C145.161 68.1554 145.231 67.8953 145.372 67.6712C145.512 67.4431 145.7 67.2531 145.936 67.101C146.172 66.945 146.44 66.8289 146.74 66.7529C147.04 66.6729 147.35 66.6329 147.67 66.6329C148.238 66.6329 148.747 66.7189 149.195 66.891V68.1093C148.763 67.8133 148.266 67.6652 147.706 67.6652C147.53 67.6652 147.37 67.6832 147.226 67.7192C147.086 67.7552 146.966 67.8053 146.866 67.8693C146.766 67.9333 146.688 68.0113 146.632 68.1033C146.576 68.1914 146.548 68.2894 146.548 68.3974C146.548 68.5295 146.576 68.6415 146.632 68.7335C146.688 68.8256 146.77 68.9076 146.878 68.9796C146.99 69.0476 147.122 69.1117 147.274 69.1717C147.43 69.2277 147.608 69.2897 147.808 69.3577C148.072 69.4658 148.308 69.5758 148.516 69.6878C148.729 69.7999 148.909 69.9279 149.057 70.072C149.205 70.212 149.319 70.3761 149.399 70.5641C149.479 70.7482 149.519 70.9682 149.519 71.2243C149.519 71.5364 149.447 71.8085 149.303 72.0406C149.159 72.2726 148.967 72.4647 148.727 72.6168C148.486 72.7688 148.208 72.8808 147.892 72.9529C147.58 73.0289 147.25 73.0669 146.902 73.0669C146.23 73.0669 145.648 72.9549 145.155 72.7308ZM151.547 65.4865C151.319 65.4865 151.123 65.4125 150.959 65.2645C150.799 65.1164 150.719 64.9284 150.719 64.7003C150.719 64.4722 150.799 64.2822 150.959 64.1301C151.123 63.9781 151.319 63.902 151.547 63.902C151.784 63.902 151.984 63.9781 152.148 64.1301C152.312 64.2822 152.394 64.4722 152.394 64.7003C152.394 64.9164 152.312 65.1024 152.148 65.2585C151.984 65.4105 151.784 65.4865 151.547 65.4865ZM152.238 72.9229H150.845V66.7769H152.238V72.9229ZM153.678 72.7308V71.4404C154.198 71.8365 154.772 72.0346 155.401 72.0346C156.241 72.0346 156.661 71.7865 156.661 71.2903C156.661 71.1503 156.625 71.0323 156.553 70.9362C156.481 70.8362 156.383 70.7482 156.259 70.6721C156.139 70.5961 155.995 70.5281 155.827 70.4681C155.663 70.4081 155.479 70.34 155.275 70.264C155.023 70.164 154.794 70.058 154.59 69.9459C154.39 69.8339 154.222 69.7078 154.086 69.5678C153.954 69.4238 153.854 69.2617 153.786 69.0817C153.718 68.9016 153.684 68.6915 153.684 68.4515C153.684 68.1554 153.754 67.8953 153.894 67.6712C154.034 67.4431 154.222 67.2531 154.458 67.101C154.694 66.945 154.963 66.8289 155.263 66.7529C155.563 66.6729 155.873 66.6329 156.193 66.6329C156.761 66.6329 157.269 66.7189 157.717 66.891V68.1093C157.285 67.8133 156.789 67.6652 156.229 67.6652C156.053 67.6652 155.893 67.6832 155.749 67.7192C155.609 67.7552 155.489 67.8053 155.389 67.8693C155.289 67.9333 155.211 68.0113 155.155 68.1033C155.099 68.1914 155.071 68.2894 155.071 68.3974C155.071 68.5295 155.099 68.6415 155.155 68.7335C155.211 68.8256 155.293 68.9076 155.401 68.9796C155.513 69.0476 155.645 69.1117 155.797 69.1717C155.953 69.2277 156.131 69.2897 156.331 69.3577C156.595 69.4658 156.831 69.5758 157.039 69.6878C157.251 69.7999 157.431 69.9279 157.579 70.072C157.727 70.212 157.841 70.3761 157.921 70.5641C158.001 70.7482 158.041 70.9682 158.041 71.2243C158.041 71.5364 157.969 71.8085 157.825 72.0406C157.681 72.2726 157.489 72.4647 157.249 72.6168C157.009 72.7688 156.731 72.8808 156.415 72.9529C156.103 73.0289 155.773 73.0669 155.425 73.0669C154.752 73.0669 154.17 72.9549 153.678 72.7308ZM165.478 73.0669C164.529 73.0669 163.771 72.7808 163.203 72.2086C162.639 71.6324 162.357 70.8702 162.357 69.9219C162.357 68.8896 162.651 68.0833 163.239 67.5032C163.831 66.923 164.628 66.6329 165.628 66.6329C166.588 66.6329 167.336 66.915 167.873 67.4792C168.409 68.0433 168.677 68.8256 168.677 69.8259C168.677 70.8062 168.387 71.5924 167.807 72.1846C167.23 72.7728 166.454 73.0669 165.478 73.0669ZM165.544 67.7432C165 67.7432 164.569 67.9333 164.253 68.3134C163.937 68.6935 163.779 69.2177 163.779 69.8859C163.779 70.5301 163.939 71.0383 164.259 71.4104C164.58 71.7785 165.008 71.9626 165.544 71.9626C166.092 71.9626 166.512 71.7805 166.804 71.4164C167.1 71.0523 167.248 70.5341 167.248 69.8619C167.248 69.1857 167.1 68.6635 166.804 68.2954C166.512 67.9273 166.092 67.7432 165.544 67.7432ZM173.37 64.9584C173.182 64.8503 172.968 64.7963 172.728 64.7963C172.052 64.7963 171.714 65.1784 171.714 65.9427V66.7769H173.142V67.8693H171.72V72.9229H170.327V67.8693H169.277V66.7769H170.327V65.7806C170.327 65.1324 170.539 64.6223 170.963 64.2501C171.388 63.874 171.918 63.686 172.554 63.686C172.898 63.686 173.17 63.724 173.37 63.8V64.9584ZM184.39 72.3347C183.493 72.8228 182.495 73.0669 181.395 73.0669C180.122 73.0669 179.092 72.6708 178.304 71.8785C177.516 71.0863 177.121 70.038 177.121 68.7335C177.121 67.4011 177.552 66.3088 178.412 65.4565C179.276 64.6003 180.372 64.1721 181.701 64.1721C182.657 64.1721 183.461 64.3122 184.114 64.5923V66.0627C183.453 65.6226 182.667 65.4025 181.755 65.4025C180.839 65.4025 180.086 65.7046 179.498 66.3088C178.914 66.913 178.622 67.6952 178.622 68.6555C178.622 69.6438 178.874 70.4221 179.378 70.9902C179.882 71.5544 180.566 71.8365 181.431 71.8365C182.023 71.8365 182.535 71.7225 182.967 71.4944V69.4478H181.155V68.2474H184.39V72.3347ZM188.813 73.0669C187.865 73.0669 187.107 72.7808 186.538 72.2086C185.974 71.6324 185.692 70.8702 185.692 69.9219C185.692 68.8896 185.986 68.0833 186.574 67.5032C187.167 66.923 187.963 66.6329 188.963 66.6329C189.923 66.6329 190.672 66.915 191.208 67.4792C191.744 68.0433 192.012 68.8256 192.012 69.8259C192.012 70.8062 191.722 71.5924 191.142 72.1846C190.566 72.7728 189.789 73.0669 188.813 73.0669ZM188.879 67.7432C188.335 67.7432 187.905 67.9333 187.589 68.3134C187.273 68.6935 187.115 69.2177 187.115 69.8859C187.115 70.5301 187.275 71.0383 187.595 71.4104C187.915 71.7785 188.343 71.9626 188.879 71.9626C189.427 71.9626 189.847 71.7805 190.139 71.4164C190.436 71.0523 190.584 70.5341 190.584 69.8619C190.584 69.1857 190.436 68.6635 190.139 68.2954C189.847 67.9273 189.427 67.7432 188.879 67.7432ZM194.833 72.9229H193.435V63.824H194.833V72.9229ZM202.239 72.9229H200.847V71.8785H200.823C200.375 72.6708 199.684 73.0669 198.752 73.0669C197.996 73.0669 197.39 72.7928 196.934 72.2446C196.481 71.6925 196.255 70.9422 196.255 69.9939C196.255 68.9776 196.505 68.1634 197.006 67.5512C197.51 66.939 198.18 66.6329 199.016 66.6329C199.845 66.6329 200.447 66.965 200.823 67.6292H200.847V63.824H202.239V72.9229ZM200.865 70.114V69.3097C200.865 68.8736 200.723 68.5035 200.439 68.1994C200.155 67.8953 199.793 67.7432 199.352 67.7432C198.832 67.7432 198.422 67.9373 198.122 68.3254C197.826 68.7135 197.678 69.2517 197.678 69.9399C197.678 70.5641 197.82 71.0583 198.104 71.4224C198.392 71.7825 198.778 71.9626 199.262 71.9626C199.738 71.9626 200.125 71.7885 200.421 71.4404C200.717 71.0883 200.865 70.6461 200.865 70.114ZM212.16 72.9229H210.81V71.9626H210.786C210.362 72.6988 209.74 73.0669 208.919 73.0669C208.315 73.0669 207.841 72.9028 207.497 72.5747C207.157 72.2466 206.987 71.8125 206.987 71.2723C206.987 70.112 207.655 69.4358 208.991 69.2437L210.816 68.9856C210.816 68.1093 210.4 67.6712 209.568 67.6712C208.835 67.6712 208.175 67.9233 207.587 68.4274V67.2091C208.235 66.8249 208.983 66.6329 209.832 66.6329C211.384 66.6329 212.16 67.3971 212.16 68.9256V72.9229ZM210.816 69.9039L209.526 70.084C209.125 70.136 208.823 70.234 208.619 70.3781C208.419 70.5181 208.319 70.7662 208.319 71.1223C208.319 71.3824 208.411 71.5964 208.595 71.7645C208.783 71.9285 209.033 72.0106 209.345 72.0106C209.77 72.0106 210.12 71.8625 210.396 71.5664C210.676 71.2663 210.816 70.8902 210.816 70.4381V69.9039ZM219.339 72.9229H217.946V69.4598C217.946 68.3114 217.54 67.7372 216.728 67.7372C216.304 67.7372 215.954 67.8973 215.677 68.2174C215.401 68.5335 215.263 68.9336 215.263 69.4178V72.9229H213.865V66.7769H215.263V67.7973H215.287C215.747 67.021 216.412 66.6329 217.28 66.6329C217.948 66.6329 218.458 66.851 218.81 67.2871C219.163 67.7192 219.339 68.3454 219.339 69.1657V72.9229ZM226.631 72.9229H225.238V71.8785H225.214C224.766 72.6708 224.076 73.0669 223.144 73.0669C222.388 73.0669 221.781 72.7928 221.325 72.2446C220.873 71.6925 220.647 70.9422 220.647 69.9939C220.647 68.9776 220.897 68.1634 221.397 67.5512C221.901 66.939 222.572 66.6329 223.408 66.6329C224.236 66.6329 224.838 66.965 225.214 67.6292H225.238V63.824H226.631V72.9229ZM225.256 70.114V69.3097C225.256 68.8736 225.114 68.5035 224.83 68.1994C224.546 67.8953 224.184 67.7432 223.744 67.7432C223.224 67.7432 222.814 67.9373 222.514 68.3254C222.217 68.7135 222.069 69.2517 222.069 69.9399C222.069 70.5641 222.211 71.0583 222.496 71.4224C222.784 71.7825 223.17 71.9626 223.654 71.9626C224.13 71.9626 224.516 71.7885 224.812 71.4404C225.108 71.0883 225.256 70.6461 225.256 70.114ZM235.538 73.0669C234.297 73.0669 233.303 72.6648 232.555 71.8605C231.81 71.0563 231.438 70.0099 231.438 68.7215C231.438 67.3371 231.819 66.2328 232.579 65.4085C233.339 64.5842 234.371 64.1721 235.676 64.1721C236.884 64.1721 237.856 64.5722 238.593 65.3725C239.333 66.1727 239.703 67.2191 239.703 68.5115C239.703 69.9159 239.325 71.0263 238.569 71.8425C237.812 72.6588 236.802 73.0669 235.538 73.0669ZM235.604 65.4265C234.815 65.4265 234.173 65.7206 233.677 66.3088C233.185 66.897 232.939 67.6712 232.939 68.6315C232.939 69.5878 233.179 70.3581 233.659 70.9422C234.139 71.5264 234.767 71.8185 235.544 71.8185C236.368 71.8185 237.018 71.5404 237.494 70.9842C237.97 70.4281 238.208 69.6498 238.208 68.6495C238.208 67.6212 237.976 66.8269 237.512 66.2668C237.052 65.7066 236.416 65.4265 235.604 65.4265ZM244.366 72.8568C244.094 72.9929 243.736 73.0609 243.292 73.0609C242.1 73.0609 241.504 72.4887 241.504 71.3444V67.8693H240.477V66.7769H241.504V65.3545L242.896 64.9584V66.7769H244.366V67.8693H242.896V70.9422C242.896 71.3063 242.962 71.5664 243.094 71.7225C243.226 71.8785 243.446 71.9565 243.754 71.9565C243.99 71.9565 244.194 71.8885 244.366 71.7525V72.8568ZM251.028 72.9229H249.636V69.5618C249.636 68.3454 249.23 67.7372 248.418 67.7372C248.01 67.7372 247.665 67.9133 247.385 68.2654C247.105 68.6175 246.965 69.0676 246.965 69.6158V72.9229H245.567V63.824H246.965V67.7973H246.989C247.453 67.021 248.118 66.6329 248.982 66.6329C250.346 66.6329 251.028 67.4671 251.028 69.1357V72.9229ZM257.925 70.228H253.735C253.751 70.7962 253.925 71.2343 254.258 71.5424C254.594 71.8505 255.054 72.0046 255.638 72.0046C256.294 72.0046 256.896 71.8085 257.445 71.4164V72.5387C256.884 72.8908 256.144 73.0669 255.224 73.0669C254.32 73.0669 253.609 72.7888 253.093 72.2326C252.581 71.6725 252.325 70.8862 252.325 69.8739C252.325 68.9176 252.607 68.1394 253.171 67.5392C253.739 66.935 254.444 66.6329 255.284 66.6329C256.124 66.6329 256.774 66.903 257.234 67.4431C257.695 67.9833 257.925 68.7335 257.925 69.6938V70.228ZM256.58 69.2437C256.576 68.7435 256.458 68.3554 256.226 68.0793C255.994 67.7993 255.674 67.6592 255.266 67.6592C254.866 67.6592 254.526 67.8053 254.246 68.0973C253.969 68.3894 253.799 68.7716 253.735 69.2437H256.58ZM262.816 68.1033C262.648 67.9713 262.406 67.9053 262.09 67.9053C261.678 67.9053 261.334 68.0913 261.058 68.4635C260.782 68.8356 260.643 69.3417 260.643 69.9819V72.9229H259.251V66.7769H260.643V68.0433H260.667C260.804 67.6112 261.012 67.2751 261.292 67.035C261.576 66.7909 261.892 66.6689 262.24 66.6689C262.492 66.6689 262.684 66.7069 262.816 66.7829V68.1033ZM270.427 72.8568C270.154 72.9929 269.796 73.0609 269.352 73.0609C268.16 73.0609 267.564 72.4887 267.564 71.3444V67.8693H266.537V66.7769H267.564V65.3545L268.956 64.9584V66.7769H270.427V67.8693H268.956V70.9422C268.956 71.3063 269.022 71.5664 269.154 71.7225C269.286 71.8785 269.506 71.9565 269.814 71.9565C270.05 71.9565 270.254 71.8885 270.427 71.7525V72.8568ZM275.192 68.1033C275.024 67.9713 274.782 67.9053 274.466 67.9053C274.054 67.9053 273.71 68.0913 273.433 68.4635C273.157 68.8356 273.019 69.3417 273.019 69.9819V72.9229H271.627V66.7769H273.019V68.0433H273.043C273.179 67.6112 273.387 67.2751 273.668 67.035C273.952 66.7909 274.268 66.6689 274.616 66.6689C274.868 66.6689 275.06 66.7069 275.192 66.7829V68.1033ZM280.894 72.9229H279.543V71.9626H279.519C279.095 72.6988 278.473 73.0669 277.653 73.0669C277.049 73.0669 276.574 72.9028 276.23 72.5747C275.89 72.2466 275.72 71.8125 275.72 71.2723C275.72 70.112 276.388 69.4358 277.725 69.2437L279.549 68.9856C279.549 68.1093 279.133 67.6712 278.301 67.6712C277.569 67.6712 276.909 67.9233 276.32 68.4274V67.2091C276.969 66.8249 277.717 66.6329 278.565 66.6329C280.118 66.6329 280.894 67.3971 280.894 68.9256V72.9229ZM279.549 69.9039L278.259 70.084C277.859 70.136 277.557 70.234 277.353 70.3781C277.153 70.5181 277.053 70.7662 277.053 71.1223C277.053 71.3824 277.145 71.5964 277.329 71.7645C277.517 71.9285 277.767 72.0106 278.079 72.0106C278.503 72.0106 278.853 71.8625 279.129 71.5664C279.409 71.2663 279.549 70.8902 279.549 70.4381V69.9039ZM288.186 72.9229H286.794V71.8785H286.77C286.322 72.6708 285.631 73.0669 284.699 73.0669C283.943 73.0669 283.337 72.7928 282.88 72.2446C282.428 71.6925 282.202 70.9422 282.202 69.9939C282.202 68.9776 282.452 68.1634 282.952 67.5512C283.457 66.939 284.127 66.6329 284.963 66.6329C285.791 66.6329 286.394 66.965 286.77 67.6292H286.794V63.824H288.186V72.9229ZM286.812 70.114V69.3097C286.812 68.8736 286.67 68.5035 286.386 68.1994C286.101 67.8953 285.739 67.7432 285.299 67.7432C284.779 67.7432 284.369 67.9373 284.069 68.3254C283.773 68.7135 283.625 69.2517 283.625 69.9399C283.625 70.5641 283.767 71.0583 284.051 71.4224C284.339 71.7825 284.725 71.9626 285.209 71.9626C285.685 71.9626 286.071 71.7885 286.368 71.4404C286.664 71.0883 286.812 70.6461 286.812 70.114ZM290.707 65.4865C290.479 65.4865 290.283 65.4125 290.119 65.2645C289.959 65.1164 289.879 64.9284 289.879 64.7003C289.879 64.4722 289.959 64.2822 290.119 64.1301C290.283 63.9781 290.479 63.902 290.707 63.902C290.943 63.902 291.143 63.9781 291.307 64.1301C291.471 64.2822 291.553 64.4722 291.553 64.7003C291.553 64.9164 291.471 65.1024 291.307 65.2585C291.143 65.4105 290.943 65.4865 290.707 65.4865ZM291.397 72.9229H290.005V66.7769H291.397V72.9229ZM298.695 72.9229H297.303V69.4598C297.303 68.3114 296.897 67.7372 296.085 67.7372C295.66 67.7372 295.31 67.8973 295.034 68.2174C294.758 68.5335 294.62 68.9336 294.62 69.4178V72.9229H293.222V66.7769H294.62V67.7973H294.644C295.104 67.021 295.768 66.6329 296.637 66.6329C297.305 66.6329 297.815 66.851 298.167 67.2871C298.519 67.7192 298.695 68.3454 298.695 69.1657V72.9229ZM305.994 72.4307C305.994 74.6874 304.859 75.8158 302.591 75.8158C301.79 75.8158 301.092 75.6817 300.496 75.4136V74.1412C301.168 74.5254 301.806 74.7174 302.411 74.7174C303.871 74.7174 304.601 73.9992 304.601 72.5627V71.8905H304.577C304.117 72.6748 303.425 73.0669 302.501 73.0669C301.752 73.0669 301.148 72.7948 300.688 72.2506C300.232 71.7025 300.004 70.9682 300.004 70.048C300.004 69.0036 300.25 68.1734 300.742 67.5572C301.234 66.941 301.91 66.6329 302.771 66.6329C303.583 66.6329 304.185 66.965 304.577 67.6292H304.601V66.7769H305.994V72.4307ZM304.613 70.108V69.3097C304.613 68.8776 304.469 68.5095 304.181 68.2054C303.897 67.8973 303.541 67.7432 303.113 67.7432C302.585 67.7432 302.17 67.9393 301.87 68.3314C301.574 68.7195 301.426 69.2637 301.426 69.9639C301.426 70.5681 301.568 71.0523 301.852 71.4164C302.14 71.7765 302.521 71.9565 302.993 71.9565C303.473 71.9565 303.863 71.7845 304.163 71.4404C304.463 71.0923 304.613 70.6481 304.613 70.108ZM40.0206 81.4865C39.7925 81.4865 39.5965 81.4125 39.4324 81.2645C39.2724 81.1164 39.1924 80.9284 39.1924 80.7003C39.1924 80.4722 39.2724 80.2822 39.4324 80.1301C39.5965 79.9781 39.7925 79.902 40.0206 79.902C40.2567 79.902 40.4567 79.9781 40.6208 80.1301C40.7849 80.2822 40.8669 80.4722 40.8669 80.7003C40.8669 80.9164 40.7849 81.1024 40.6208 81.2585C40.4567 81.4105 40.2567 81.4865 40.0206 81.4865ZM40.7108 88.9229H39.3184V82.7769H40.7108V88.9229ZM48.0091 88.9229H46.6167V85.4598C46.6167 84.3114 46.2105 83.7372 45.3983 83.7372C44.9742 83.7372 44.624 83.8973 44.348 84.2174C44.0719 84.5335 43.9338 84.9336 43.9338 85.4178V88.9229H42.5354V82.7769H43.9338V83.7973H43.9578C44.418 83.021 45.0822 82.6329 45.9505 82.6329C46.6187 82.6329 47.1288 82.851 47.4809 83.2871C47.8331 83.7192 48.0091 84.3454 48.0091 85.1657V88.9229ZM49.3295 88.7308V87.4404C49.8497 87.8365 50.4239 88.0346 51.0521 88.0346C51.8923 88.0346 52.3124 87.7865 52.3124 87.2903C52.3124 87.1503 52.2764 87.0323 52.2044 86.9362C52.1324 86.8362 52.0344 86.7482 51.9103 86.6721C51.7903 86.5961 51.6462 86.5281 51.4782 86.4681C51.3141 86.4081 51.1301 86.34 50.926 86.264C50.6739 86.164 50.4459 86.058 50.2418 85.9459C50.0417 85.8339 49.8737 85.7078 49.7376 85.5678C49.6056 85.4238 49.5056 85.2617 49.4376 85.0817C49.3695 84.9016 49.3355 84.6915 49.3355 84.4515C49.3355 84.1554 49.4055 83.8953 49.5456 83.6712C49.6856 83.4431 49.8737 83.2531 50.1098 83.101C50.3458 82.945 50.6139 82.8289 50.914 82.7529C51.2141 82.6729 51.5242 82.6329 51.8443 82.6329C52.4125 82.6329 52.9206 82.7189 53.3688 82.891V84.1093C52.9366 83.8133 52.4405 83.6652 51.8803 83.6652C51.7043 83.6652 51.5442 83.6832 51.4002 83.7192C51.2601 83.7552 51.1401 83.8053 51.0401 83.8693C50.94 83.9333 50.862 84.0113 50.806 84.1033C50.75 84.1914 50.722 84.2894 50.722 84.3974C50.722 84.5295 50.75 84.6415 50.806 84.7335C50.862 84.8256 50.944 84.9076 51.0521 84.9796C51.1641 85.0476 51.2961 85.1117 51.4482 85.1717C51.6042 85.2277 51.7823 85.2897 51.9823 85.3577C52.2464 85.4658 52.4825 85.5758 52.6906 85.6878C52.9026 85.7999 53.0827 85.9279 53.2307 86.072C53.3788 86.212 53.4928 86.3761 53.5728 86.5641C53.6529 86.7482 53.6929 86.9682 53.6929 87.2243C53.6929 87.5364 53.6209 87.8085 53.4768 88.0406C53.3328 88.2726 53.1407 88.4647 52.9006 88.6168C52.6606 88.7688 52.3825 88.8808 52.0664 88.9529C51.7543 89.0289 51.4242 89.0669 51.0761 89.0669C50.4039 89.0669 49.8217 88.9549 49.3295 88.7308ZM58.2603 88.8568C57.9882 88.9929 57.6301 89.0609 57.186 89.0609C55.9936 89.0609 55.3974 88.4887 55.3974 87.3444V83.8693H54.3711V82.7769H55.3974V81.3545L56.7898 80.9584V82.7769H58.2603V83.8693H56.7898V86.9422C56.7898 87.3063 56.8559 87.5664 56.9879 87.7225C57.12 87.8785 57.34 87.9565 57.6481 87.9565C57.8842 87.9565 58.0883 87.8885 58.2603 87.7525V88.8568ZM63.0258 84.1033C62.8577 83.9713 62.6157 83.9053 62.2996 83.9053C61.8874 83.9053 61.5433 84.0913 61.2672 84.4635C60.9912 84.8356 60.8531 85.3417 60.8531 85.9819V88.9229H59.4607V82.7769H60.8531V84.0433H60.8771C61.0132 83.6112 61.2212 83.2751 61.5013 83.035C61.7854 82.7909 62.1015 82.6689 62.4496 82.6689C62.7017 82.6689 62.8938 82.7069 63.0258 82.7829V84.1033ZM69.3698 88.9229H67.9773V87.9505H67.9533C67.5492 88.6948 66.921 89.0669 66.0687 89.0669C64.6163 89.0669 63.8901 88.1946 63.8901 86.4501V82.7769H65.2825V86.306C65.2825 87.4104 65.7086 87.9626 66.5609 87.9626C66.973 87.9626 67.3111 87.8105 67.5752 87.5064C67.8433 87.2023 67.9773 86.8042 67.9773 86.312V82.7769H69.3698V88.9229ZM80.3772 88.9229H78.9848V85.5738C78.9848 84.9296 78.8927 84.4635 78.7087 84.1754C78.5286 83.8873 78.2225 83.7432 77.7904 83.7432C77.4263 83.7432 77.1162 83.9253 76.8601 84.2894C76.608 84.6535 76.482 85.0897 76.482 85.5978V88.9229H75.0836V85.4598C75.0836 84.3154 74.6794 83.7432 73.8712 83.7432C73.4951 83.7432 73.185 83.9153 72.9409 84.2594C72.7008 84.6035 72.5808 85.0496 72.5808 85.5978V88.9229H71.1883V82.7769H72.5808V83.7492H72.6048C73.0489 83.005 73.6951 82.6329 74.5434 82.6329C74.9675 82.6329 75.3376 82.7509 75.6537 82.987C75.9738 83.2191 76.1919 83.5252 76.3079 83.9053C76.7641 83.057 77.4443 82.6329 78.3486 82.6329C79.701 82.6329 80.3772 83.4671 80.3772 85.1357V88.9229ZM87.2794 86.228H83.0901C83.1061 86.7962 83.2801 87.2343 83.6122 87.5424C83.9483 87.8505 84.4085 88.0046 84.9927 88.0046C85.6489 88.0046 86.251 87.8085 86.7992 87.4164V88.5387C86.239 88.8908 85.4988 89.0669 84.5785 89.0669C83.6742 89.0669 82.964 88.7888 82.4479 88.2326C81.9357 87.6725 81.6796 86.8862 81.6796 85.8739C81.6796 84.9176 81.9617 84.1394 82.5259 83.5392C83.0941 82.935 83.7983 82.6329 84.6385 82.6329C85.4788 82.6329 86.129 82.903 86.5892 83.4431C87.0493 83.9833 87.2794 84.7335 87.2794 85.6938V86.228ZM85.9349 85.2437C85.9309 84.7435 85.8129 84.3554 85.5808 84.0793C85.3488 83.7993 85.0287 83.6592 84.6205 83.6592C84.2204 83.6592 83.8803 83.8053 83.6002 84.0973C83.3241 84.3894 83.1541 84.7716 83.0901 85.2437H85.9349ZM94.0795 88.9229H92.6871V85.4598C92.6871 84.3114 92.2809 83.7372 91.4687 83.7372C91.0445 83.7372 90.6944 83.8973 90.4183 84.2174C90.1423 84.5335 90.0042 84.9336 90.0042 85.4178V88.9229H88.6058V82.7769H90.0042V83.7973H90.0282C90.4884 83.021 91.1526 82.6329 92.0208 82.6329C92.6891 82.6329 93.1992 82.851 93.5513 83.2871C93.9034 83.7192 94.0795 84.3454 94.0795 85.1657V88.9229ZM99.025 88.8568C98.7529 88.9929 98.3948 89.0609 97.9507 89.0609C96.7583 89.0609 96.1621 88.4887 96.1621 87.3444V83.8693H95.1358V82.7769H96.1621V81.3545L97.5546 80.9584V82.7769H99.025V83.8693H97.5546V86.9422C97.5546 87.3063 97.6206 87.5664 97.7526 87.7225C97.8847 87.8785 98.1047 87.9565 98.4128 87.9565C98.6489 87.9565 98.853 87.8885 99.025 87.7525V88.8568ZM99.8413 88.7308V87.4404C100.361 87.8365 100.936 88.0346 101.564 88.0346C102.404 88.0346 102.824 87.7865 102.824 87.2903C102.824 87.1503 102.788 87.0323 102.716 86.9362C102.644 86.8362 102.546 86.7482 102.422 86.6721C102.302 86.5961 102.158 86.5281 101.99 86.4681C101.826 86.4081 101.642 86.34 101.438 86.264C101.186 86.164 100.958 86.058 100.754 85.9459C100.554 85.8339 100.385 85.7078 100.249 85.5678C100.117 85.4238 100.017 85.2617 99.9493 85.0817C99.8813 84.9016 99.8473 84.6915 99.8473 84.4515C99.8473 84.1554 99.9173 83.8953 100.057 83.6712C100.197 83.4431 100.385 83.2531 100.622 83.101C100.858 82.945 101.126 82.8289 101.426 82.7529C101.726 82.6729 102.036 82.6329 102.356 82.6329C102.924 82.6329 103.432 82.7189 103.881 82.891V84.1093C103.448 83.8133 102.952 83.6652 102.392 83.6652C102.216 83.6652 102.056 83.6832 101.912 83.7192C101.772 83.7552 101.652 83.8053 101.552 83.8693C101.452 83.9333 101.374 84.0113 101.318 84.1033C101.262 84.1914 101.234 84.2894 101.234 84.3974C101.234 84.5295 101.262 84.6415 101.318 84.7335C101.374 84.8256 101.456 84.9076 101.564 84.9796C101.676 85.0476 101.808 85.1117 101.96 85.1717C102.116 85.2277 102.294 85.2897 102.494 85.3577C102.758 85.4658 102.994 85.5758 103.202 85.6878C103.414 85.7999 103.594 85.9279 103.743 86.072C103.891 86.212 104.005 86.3761 104.085 86.5641C104.165 86.7482 104.205 86.9682 104.205 87.2243C104.205 87.5364 104.133 87.8085 103.989 88.0406C103.845 88.2726 103.652 88.4647 103.412 88.6168C103.172 88.7688 102.894 88.8808 102.578 88.9529C102.266 89.0289 101.936 89.0669 101.588 89.0669C100.916 89.0669 100.333 88.9549 99.8413 88.7308Z" fill="white"/>
<path d="M40.1876 28.0813C41.4786 23.98 45.3201 21.0049 49.8581 21.0049C55.1129 21.0049 59.4335 24.995 59.942 30.1032L57.9202 29.6917M59.478 34.1468C58.8271 36.2008 57.5388 37.9941 55.8 39.2665C54.0612 40.5389 51.9622 41.2243 49.8076 41.2233C44.5528 41.2233 40.2321 37.2332 39.7236 32.125L41.7455 32.5365" stroke="white" stroke-width="1.48846" stroke-linecap="round" stroke-linejoin="round"/>
<path d="M46.8026 32.6586V34.6724C46.8002 34.8346 46.8391 34.9948 46.9154 35.138C46.9918 35.2812 47.1032 35.4027 47.2393 35.4912C48.0925 36.025 48.7405 36.1817 49.8383 36.215C50.8503 36.2423 51.4851 36.0836 52.4293 35.4932C52.5677 35.4041 52.6811 35.2813 52.7589 35.1363C52.8367 34.9912 52.8764 34.8288 52.8741 34.6643V32.6586M54.899 30.1182V33.1661M44.8292 29.9453C45.1952 29.173 47.4627 27.8284 49.532 27.1643C49.7315 27.1009 49.9464 27.1059 50.1426 27.1784C51.9724 27.8476 54.0084 28.8616 54.7474 29.6835C55.1325 30.1131 54.7555 30.661 54.2894 30.9997C53.3422 31.6881 52.2979 32.2229 50.1871 33.0347C49.9635 33.1204 49.7164 33.1222 49.4916 33.0397C47.3282 32.236 45.3044 31.1999 44.8464 30.287C44.8181 30.235 44.8018 30.1773 44.7988 30.1181C44.7959 30.059 44.8063 29.9999 44.8292 29.9453Z" stroke="white" stroke-width="1.48846" stroke-linecap="round" stroke-linejoin="round"/>
</svg>
