<svg width="357" height="94" viewBox="0 0 357 94" fill="none" xmlns="http://www.w3.org/2000/svg">
<mask id="mask0_500_748" style="mask-type:luminance" maskUnits="userSpaceOnUse" x="0" y="42" width="39" height="33">
<path d="M0 42.4487H38.5546V74.8525H0V42.4487Z" fill="white"/>
</mask>
<g mask="url(#mask0_500_748)">
<path d="M38.5006 74.4502H13.0009C5.81779 74.4502 0 68.8447 0 61.9236V43.0049H38.5006V74.4502Z" fill="#FF9D32"/>
</g>
<mask id="mask1_500_748" style="mask-type:luminance" maskUnits="userSpaceOnUse" x="14" y="0" width="343" height="94">
<path d="M14.5342 0H357V93.6919H14.5342V0Z" fill="white"/>
</mask>
<g mask="url(#mask1_500_748)">
<path d="M337.594 93.6764H34.318C23.6372 93.6764 14.9551 85.311 14.9551 75.0199V18.7405C14.9551 8.44937 23.6372 0.0839844 34.318 0.0839844H337.547C348.23 0.0839844 356.912 8.44937 356.912 18.7405V74.9769C356.957 85.311 348.274 93.6764 337.594 93.6764Z" fill="#C07D14"/>
</g>
<path d="M34.4098 88.1587H34.3183C33.2274 88.1587 32.1366 88.0276 31.1373 87.8083L30.8651 88.9905C32.0005 89.2527 33.1383 89.3838 34.3183 89.3838H34.4098V88.1587ZM41.1378 88.1587H37.7738V89.3838H41.1378V88.1587ZM47.8634 88.1587H44.5018V89.3838H47.8634V88.1587ZM54.5914 88.1587H51.2274V89.3838H54.5914V88.1587ZM61.3194 88.1587H57.9554V89.3838H61.3194V88.1587ZM68.0474 88.1587H64.6834V89.3838H68.0474V88.1587ZM74.7284 88.1587H71.3644V89.3838H74.7284V88.1587ZM81.4564 88.1587H78.0924V89.3838H81.4564V88.1587ZM88.1821 88.1587H84.8181V89.3838H88.1821V88.1587ZM94.9101 88.1587H91.5461V89.3838H94.9101V88.1587ZM101.638 88.1587H98.2741V89.3838H101.638V88.1587ZM108.364 88.1587H105.002V89.3838H108.364V88.1587ZM115.047 88.1587H111.683V89.3838H115.047V88.1587ZM121.773 88.1587H118.411V89.3838H121.773V88.1587ZM128.501 88.1587H125.137V89.3838H128.501V88.1587ZM135.229 88.1587H131.865V89.3838H135.229V88.1587ZM141.957 88.1587H138.593V89.3838H141.957V88.1587ZM148.682 88.1587H145.318V89.3838H148.682V88.1587ZM155.366 88.1587H152.002V89.3838H155.366V88.1587ZM162.091 88.1587H158.73V89.3838H162.091V88.1587ZM168.819 88.1587H165.455V89.3838H168.819V88.1587ZM175.547 88.1587H172.183V89.3838H175.547V88.1587ZM182.273 88.1587H178.911V89.3838H182.273V88.1587ZM189.001 88.1587H185.637V89.3838H189.001V88.1587ZM195.684 88.1587H192.32V89.3838H195.684V88.1587ZM202.41 88.1587H199.046V89.3838H202.41V88.1587ZM209.138 88.1587H205.774V89.3838H209.138V88.1587ZM215.866 88.1587H212.502V89.3838H215.866V88.1587ZM222.592 88.1587H219.228V89.3838H222.592V88.1587ZM229.32 88.1587H225.956V89.3838H229.32V88.1587ZM236.001 88.1587H232.639V89.3838H236.001V88.1587ZM242.729 88.1587H239.365V89.3838H242.729V88.1587ZM249.457 88.1587H246.093V89.3838H249.457V88.1587ZM256.182 88.1587H252.821V89.3838H256.182V88.1587ZM262.91 88.1587H259.546V89.3838H262.91V88.1587ZM269.638 88.1587H266.274V89.3838H269.638V88.1587ZM276.319 88.1587H272.955V89.3838H276.319V88.1587ZM283.047 88.1587H279.683V89.3838H283.047V88.1587ZM289.775 88.1587H286.411V89.3838H289.775V88.1587ZM296.501 88.1587H293.139V89.3838H296.501V88.1587ZM303.229 88.1587H299.865V89.3838H303.229V88.1587ZM309.957 88.1587H306.593V89.3838H309.957V88.1587ZM316.638 88.1587H313.274V89.3838H316.638V88.1587ZM323.366 88.1587H320.002V89.3838H323.366V88.1587ZM330.094 88.1587H326.73V89.3838H330.094V88.1587ZM336.82 88.1587H333.456V89.3838H336.82V88.1587ZM343.093 87.0647C342.138 87.458 341.094 87.7654 340.048 87.9824L340.275 89.1668C341.458 88.9475 342.548 88.6401 343.639 88.1587L343.093 87.0647ZM348.183 83.342C347.503 84.1285 346.729 84.8745 345.865 85.487L346.64 86.4499C347.547 85.7492 348.411 84.9603 349.138 84.1285L348.183 83.342ZM350.956 77.8223C350.728 78.8304 350.365 79.8362 349.912 80.7562L351.048 81.2828C351.547 80.2747 351.958 79.2237 352.183 78.0845L350.956 77.8223ZM351.275 71.4731V74.7121H352.547V71.4731H351.275ZM351.275 65.0335V68.2748H352.547V65.0335H351.275ZM351.275 58.5509V61.7922H352.547V58.5509H351.275ZM351.275 52.0706V55.3119H352.547V52.0706H351.275ZM351.275 45.5881V48.8294H352.547V45.5881H351.275ZM351.275 39.1055V42.3468H352.547V39.1055H351.275ZM351.275 32.6252V35.8665H352.547V32.6252H351.275ZM351.275 26.1856V29.4269H352.547V26.1856H351.275ZM351.275 19.7053V22.9444H352.547V19.7053H351.275ZM350.184 13.6161C350.592 14.536 350.911 15.5441 351.092 16.5952L352.321 16.3759C352.138 15.2367 351.775 14.1427 351.32 13.1346L350.184 13.6161ZM346.412 8.66827C347.228 9.32376 347.956 10.0697 348.594 10.9015L349.593 10.1578C348.91 9.23787 348.094 8.40608 347.184 7.70312L346.412 8.66827ZM340.73 5.90844C341.774 6.12769 342.776 6.52098 343.728 6.95948L344.32 5.86549C343.276 5.38405 342.185 4.9885 341.047 4.7263L340.73 5.90844ZM334.183 5.55809H337.547V4.33301H334.183V5.55809ZM327.457 5.55809H330.821V4.33301H327.457V5.55809ZM320.729 5.55809H324.093V4.33301H320.729V5.55809ZM314.001 5.55809H317.365V4.33301H314.001V5.55809ZM307.276 5.55809H310.637V4.33301H307.276V5.55809ZM300.592 5.55809H303.956V4.33301H300.592V5.55809ZM293.867 5.55809H297.228V4.33301H293.867V5.55809ZM287.139 5.55809H290.503V4.33301H287.139V5.55809ZM280.411 5.55809H283.775V4.33301H280.411V5.55809ZM273.683 5.55809H277.047V4.33301H273.683V5.55809ZM266.957 5.55809H270.321V4.33301H266.957V5.55809ZM260.274 5.55809H263.638V4.33301H260.274V5.55809ZM253.548 5.55809H256.912V4.33301H253.548V5.55809ZM246.82 5.55809H250.184V4.33301H246.82V5.55809ZM240.092 5.55809H243.456V4.33301H240.092V5.55809ZM233.366 5.55809H236.728V4.33301H233.366V5.55809ZM226.638 5.55809H230.002V4.33301H226.638V5.55809ZM219.957 5.55809H223.319V4.33301H219.957V5.55809ZM213.229 5.55809H216.593V4.33301H213.229V5.55809ZM206.501 5.55809H209.865V4.33301H206.501V5.55809ZM199.773 5.55809H203.137V4.33301H199.773V5.55809ZM193.048 5.55809H196.412V4.33301H193.048V5.55809ZM186.32 5.55809H189.684V4.33301H186.32V5.55809ZM179.639 5.55809H183.003V4.33301H179.639V5.55809ZM172.911 5.55809H176.275V4.33301H172.911V5.55809ZM166.183 5.55809H169.547V4.33301H166.183V5.55809ZM159.457 5.55809H162.819V4.33301H159.457V5.55809ZM152.729 5.55809H156.093V4.33301H152.729V5.55809ZM146.001 5.55809H149.365V4.33301H146.001V5.55809ZM139.273 5.55809H142.637V4.33301H139.273V5.55809ZM132.592 5.55809H135.956V4.33301H132.592V5.55809ZM125.864 5.55809H129.228V4.33301H125.864V5.55809ZM119.138 5.55809H122.502V4.33301H119.138V5.55809ZM112.41 5.55809H115.774V4.33301H112.41V5.55809ZM105.682 5.55809H109.046V4.33301H105.682V5.55809ZM98.9567 5.55809H102.318V4.33301H98.9567V5.55809ZM92.2733 5.55809H95.6373V4.33301H92.2733V5.55809ZM85.5476 5.55809H88.9093V4.33301H85.5476V5.55809ZM78.8197 5.55809H82.1837V4.33301H78.8197V5.55809ZM72.0917 5.55809H75.4557V4.33301H72.0917V5.55809ZM65.3637 5.55809H68.7277V4.33301H65.3637V5.55809ZM58.638 5.55809H62.002V4.33301H58.638V5.55809ZM51.9546 5.55809H55.3186V4.33301H51.9546V5.55809ZM45.229 5.55809H48.5906V4.33301H45.229V5.55809ZM38.501 5.55809H41.865V4.33301H38.501V5.55809ZM31.9091 5.77734C32.6832 5.64625 33.5019 5.55809 34.3652 5.55809H35.1816V4.33301H34.3652C33.455 4.33301 32.5917 4.4189 31.7284 4.55L31.9091 5.77734ZM26.0913 8.22977C26.9546 7.61723 27.8648 7.09058 28.8641 6.65208L28.3644 5.55809C27.2736 5.99659 26.2742 6.60913 25.364 7.26688L26.0913 8.22977ZM22.047 12.9606C22.4997 12.0406 23.0909 11.1636 23.7735 10.3748L22.8188 9.58822C22.0915 10.463 21.4558 11.3829 20.9092 12.4339L22.047 12.9606ZM20.6371 18.9594V18.7402C20.6371 17.7773 20.7286 16.8144 20.9561 15.8945L19.7269 15.6323C19.5017 16.6381 19.3633 17.6891 19.3633 18.7402V18.9594H20.6371ZM20.6371 25.442V22.2007H19.3633V25.442H20.6371ZM20.6371 31.9245V28.6833H19.3633V31.9245H20.6371ZM20.6371 38.4048V35.1636H19.3633V38.4048H20.6371ZM20.6371 44.8444V41.6032H19.3633V44.8444H20.6371ZM20.6371 51.3247V48.0857H19.3633V51.3247H20.6371ZM20.6371 57.8073V54.566H19.3633V57.8073H20.6371ZM20.6371 64.2899V61.0486H19.3633V64.2899H20.6371ZM20.6371 70.7724V67.5311H19.3633V70.7724H20.6371ZM20.8201 77.1216C20.6817 76.4209 20.6371 75.7202 20.6371 74.9766V73.9685H19.3633V74.9766C19.3633 75.7632 19.4102 76.552 19.5463 77.2979L20.8201 77.1216ZM23.3184 82.7724C22.6827 81.9383 22.1361 81.0636 21.7279 80.1007L20.5456 80.5821C21.0007 81.6332 21.5919 82.5961 22.2745 83.516L23.3184 82.7724ZM28.1369 86.7573C27.1821 86.2758 26.2742 85.7062 25.4555 85.0485L24.6368 85.9684C25.547 86.7143 26.5018 87.3269 27.5457 87.8513L28.1369 86.7573Z" fill="white"/>
<mask id="mask2_500_748" style="mask-type:luminance" maskUnits="userSpaceOnUse" x="0" y="8" width="125" height="53">
<path d="M0 8.88818H124.433V60.9656H0V8.88818Z" fill="white"/>
</mask>
<g mask="url(#mask2_500_748)">
<path d="M116.182 9.28125H12.3651C5.54566 9.28125 0 14.6246 0 21.1931V60.3913C0 52.5096 6.6365 46.1152 14.8189 46.1152H116.182L123.909 27.6756L116.182 9.28125Z" fill="#FF6A00"/>
</g>
<mask id="mask3_500_748" style="mask-type:luminance" maskUnits="userSpaceOnUse" x="94" y="9" width="214" height="38">
<path d="M94.894 9.32568H307.091V46.0308H94.894V9.32568Z" fill="white"/>
</mask>
<g mask="url(#mask3_500_748)">
<mask id="mask4_500_748" style="mask-type:luminance" maskUnits="userSpaceOnUse" x="94" y="9" width="214" height="38">
<path d="M287.582 9.32568H94.894V46.0308H287.582L307.07 27.6771L287.582 9.32568Z" fill="white"/>
</mask>
<g mask="url(#mask4_500_748)">
<mask id="mask5_500_748" style="mask-type:luminance" maskUnits="userSpaceOnUse" x="94" y="8" width="214" height="39">
<path d="M307.601 8.8877H94.4072V46.4992H307.601V8.8877Z" fill="white"/>
</mask>
<g mask="url(#mask5_500_748)">
<mask id="mask6_500_748" style="mask-type:luminance" maskUnits="userSpaceOnUse" x="94" y="9" width="214" height="38">
<path d="M94.896 9.32568H307.093V46.0308H94.896V9.32568Z" fill="white"/>
</mask>
<g mask="url(#mask6_500_748)">
<mask id="mask7_500_748" style="mask-type:luminance" maskUnits="userSpaceOnUse" x="94" y="9" width="214" height="38">
<path d="M287.584 9.32568H94.896V46.0308H287.584L307.072 27.6771L287.584 9.32568Z" fill="white"/>
</mask>
<g mask="url(#mask7_500_748)">
<path d="M94.896 9.32568H307.093V46.0308H94.896V9.32568Z" fill="#FF6A00"/>
</g>
</g>
</g>
</g>
</g>
<path d="M101.865 33.6201H99.9419L98.9913 30.9307H94.8356L93.922 33.6201H92.0062L95.963 23.054H97.9377L101.865 33.6201ZM98.5271 29.5012L97.0608 25.2866C97.0166 25.149 96.97 24.928 96.9208 24.6234H96.8914C96.8472 24.9034 96.798 25.1245 96.744 25.2866L95.2925 29.5012H98.5271ZM108.533 33.2738C107.929 33.6226 107.214 33.797 106.389 33.797C105.269 33.797 104.365 33.4482 103.678 32.7507C102.99 32.0482 102.646 31.1395 102.646 30.0244C102.646 28.7816 103.014 27.7844 103.751 27.0329C104.493 26.2764 105.483 25.8981 106.721 25.8981C107.408 25.8981 108.015 26.0185 108.541 26.2592V27.8507C108.015 27.4578 107.455 27.2613 106.861 27.2613C106.139 27.2613 105.547 27.5069 105.085 27.9981C104.623 28.4844 104.392 29.123 104.392 29.9139C104.392 30.6949 104.608 31.3114 105.041 31.7633C105.478 32.2152 106.062 32.4412 106.794 32.4412C107.408 32.4412 107.988 32.2226 108.533 31.7854V33.2738ZM114.214 33.5391C113.88 33.7061 113.441 33.7896 112.895 33.7896C111.431 33.7896 110.7 33.0871 110.7 31.6823V27.416H109.44V26.075H110.7V24.3287L112.409 23.8424V26.075H114.214V27.416H112.409V31.1886C112.409 31.6356 112.49 31.9549 112.652 32.1465C112.814 32.338 113.084 32.4338 113.463 32.4338C113.752 32.4338 114.003 32.3503 114.214 32.1833V33.5391ZM116.55 24.4908C116.27 24.4908 116.029 24.3999 115.828 24.2182C115.631 24.0364 115.533 23.8055 115.533 23.5256C115.533 23.2456 115.631 23.0122 115.828 22.8256C116.029 22.6389 116.27 22.5456 116.55 22.5456C116.84 22.5456 117.085 22.6389 117.287 22.8256C117.488 23.0122 117.589 23.2456 117.589 23.5256C117.589 23.7908 117.488 24.0192 117.287 24.2108C117.085 24.3975 116.84 24.4908 116.55 24.4908ZM117.397 33.6201H115.688V26.075H117.397V33.6201ZM122.983 33.797C121.818 33.797 120.887 33.4457 120.19 32.7433C119.497 32.0359 119.151 31.1002 119.151 29.936C119.151 28.6686 119.512 27.6788 120.234 26.9665C120.961 26.2543 121.939 25.8981 123.167 25.8981C124.346 25.8981 125.264 26.2445 125.922 26.9371C126.581 27.6297 126.91 28.59 126.91 29.8181C126.91 31.0216 126.554 31.9868 125.841 32.7138C125.134 33.4359 124.181 33.797 122.983 33.797ZM123.064 27.2613C122.396 27.2613 121.867 27.4946 121.479 27.9613C121.091 28.4279 120.897 29.0714 120.897 29.8918C120.897 30.6826 121.094 31.3065 121.487 31.7633C121.88 32.2152 122.405 32.4412 123.064 32.4412C123.737 32.4412 124.252 32.2177 124.611 31.7707C124.974 31.3237 125.156 30.6875 125.156 29.8623C125.156 29.0321 124.974 28.3911 124.611 27.9392C124.252 27.4872 123.737 27.2613 123.064 27.2613ZM135.376 33.6201H133.667V29.3686C133.667 27.9588 133.168 27.2539 132.171 27.2539C131.65 27.2539 131.22 27.4504 130.881 27.8434C130.542 28.2314 130.373 28.7227 130.373 29.317V33.6201H128.656V26.075H130.373V27.3276H130.402C130.967 26.3746 131.783 25.8981 132.849 25.8981C133.669 25.8981 134.295 26.1659 134.728 26.7013C135.16 27.2318 135.376 28.0006 135.376 29.0076V33.6201ZM143.26 33.6201H141.602V32.4412H141.573C141.052 33.345 140.288 33.797 139.281 33.797C138.539 33.797 137.957 33.5956 137.535 33.1928C137.117 32.79 136.909 32.257 136.909 31.5938C136.909 30.1693 137.729 29.3391 139.37 29.1034L141.61 28.7865C141.61 27.7107 141.099 27.1729 140.077 27.1729C139.178 27.1729 138.368 27.4823 137.645 28.1013V26.6055C138.441 26.1339 139.36 25.8981 140.401 25.8981C142.307 25.8981 143.26 26.8364 143.26 28.7128V33.6201ZM141.61 29.9139L140.025 30.1349C139.534 30.1988 139.163 30.3191 138.913 30.496C138.667 30.6679 138.544 30.9724 138.544 31.4096C138.544 31.7289 138.657 31.9917 138.883 32.198C139.114 32.3994 139.421 32.5001 139.804 32.5001C140.325 32.5001 140.755 32.3184 141.094 31.9549C141.438 31.5865 141.61 31.1247 141.61 30.5696V29.9139ZM147.092 32.5296H147.062V33.6201H145.353V22.4498H147.062V27.4013H147.092C147.676 26.3992 148.531 25.8981 149.656 25.8981C150.609 25.8981 151.353 26.2371 151.888 26.915C152.429 27.5879 152.699 28.4918 152.699 29.6265C152.699 30.8889 152.397 31.9008 151.793 32.6622C151.188 33.4187 150.363 33.797 149.317 33.797C148.334 33.797 147.593 33.3745 147.092 32.5296ZM147.047 29.5307V30.4665C147.047 31.0167 147.222 31.4833 147.571 31.8665C147.924 32.2496 148.371 32.4412 148.912 32.4412C149.545 32.4412 150.041 32.1956 150.4 31.7044C150.763 31.2082 150.945 30.5181 150.945 29.6339C150.945 28.8921 150.776 28.3125 150.437 27.895C150.103 27.4725 149.648 27.2613 149.074 27.2613C148.465 27.2613 147.973 27.4774 147.6 27.9097C147.232 28.342 147.047 28.8823 147.047 29.5307ZM156.162 33.6201H154.445V22.4498H156.162V33.6201ZM164.783 30.3118H159.64C159.659 31.0093 159.873 31.5472 160.281 31.9254C160.693 32.3036 161.258 32.4928 161.976 32.4928C162.781 32.4928 163.52 32.2521 164.193 31.7707V33.1485C163.506 33.5808 162.597 33.797 161.467 33.797C160.357 33.797 159.485 33.4556 158.851 32.7728C158.223 32.0851 157.908 31.1198 157.908 29.877C157.908 28.703 158.255 27.7476 158.947 27.0108C159.645 26.269 160.509 25.8981 161.541 25.8981C162.572 25.8981 163.371 26.2297 163.935 26.8929C164.5 27.556 164.783 28.477 164.783 29.656V30.3118ZM163.132 29.1034C163.127 28.4893 162.983 28.0128 162.698 27.6739C162.413 27.33 162.02 27.1581 161.519 27.1581C161.027 27.1581 160.61 27.3374 160.266 27.696C159.927 28.0546 159.718 28.5237 159.64 29.1034H163.132ZM172.556 33.6201H170.751V23.054H172.556V33.6201ZM181.693 33.6201H179.984V29.3686C179.984 27.9588 179.485 27.2539 178.488 27.2539C177.967 27.2539 177.537 27.4504 177.198 27.8434C176.859 28.2314 176.69 28.7227 176.69 29.317V33.6201H174.973V26.075H176.69V27.3276H176.719C177.284 26.3746 178.1 25.8981 179.166 25.8981C179.986 25.8981 180.612 26.1659 181.045 26.7013C181.477 27.2318 181.693 28.0006 181.693 29.0076V33.6201ZM183.314 33.3843V31.8001C183.953 32.2865 184.658 32.5296 185.429 32.5296C186.46 32.5296 186.976 32.2251 186.976 31.6159C186.976 31.444 186.932 31.2991 186.844 31.1812C186.755 31.0584 186.635 30.9503 186.482 30.857C186.335 30.7637 186.158 30.6802 185.952 30.6065C185.751 30.5328 185.525 30.4493 185.274 30.356C184.965 30.2332 184.685 30.103 184.434 29.9654C184.188 29.8279 183.982 29.6732 183.815 29.5012C183.653 29.3244 183.53 29.1255 183.447 28.9044C183.363 28.6834 183.321 28.4255 183.321 28.1307C183.321 27.7672 183.407 27.4479 183.579 27.1729C183.751 26.8929 183.982 26.6595 184.272 26.4729C184.562 26.2813 184.891 26.1388 185.259 26.0455C185.628 25.9473 186.008 25.8981 186.401 25.8981C187.099 25.8981 187.723 26.0038 188.273 26.215V27.7107C187.742 27.3472 187.133 27.1655 186.446 27.1655C186.229 27.1655 186.033 27.1876 185.856 27.2318C185.684 27.276 185.537 27.3374 185.414 27.416C185.291 27.4946 185.195 27.5904 185.127 27.7034C185.058 27.8114 185.024 27.9318 185.024 28.0644C185.024 28.2265 185.058 28.3641 185.127 28.477C185.195 28.59 185.296 28.6907 185.429 28.7791C185.566 28.8627 185.728 28.9412 185.915 29.0149C186.107 29.0837 186.325 29.1598 186.571 29.2433C186.895 29.376 187.185 29.5111 187.44 29.6486C187.701 29.7861 187.922 29.9433 188.103 30.1202C188.285 30.2921 188.425 30.4935 188.523 30.7244C188.622 30.9503 188.671 31.2205 188.671 31.5349C188.671 31.918 188.582 32.2521 188.406 32.537C188.229 32.8219 187.993 33.0577 187.698 33.2443C187.404 33.431 187.062 33.5685 186.674 33.657C186.291 33.7503 185.886 33.797 185.458 33.797C184.633 33.797 183.918 33.6594 183.314 33.3843ZM191.161 24.4908C190.881 24.4908 190.641 24.3999 190.439 24.2182C190.243 24.0364 190.145 23.8055 190.145 23.5256C190.145 23.2456 190.243 23.0122 190.439 22.8256C190.641 22.6389 190.881 22.5456 191.161 22.5456C191.451 22.5456 191.697 22.6389 191.898 22.8256C192.1 23.0122 192.2 23.2456 192.2 23.5256C192.2 23.7908 192.1 24.0192 191.898 24.2108C191.697 24.3975 191.451 24.4908 191.161 24.4908ZM192.009 33.6201H190.299V26.075H192.009V33.6201ZM201.116 33.0159C201.116 35.7864 199.723 37.1716 196.938 37.1716C195.956 37.1716 195.098 37.0071 194.367 36.678V35.1159C195.192 35.5875 195.975 35.8232 196.717 35.8232C198.51 35.8232 199.406 34.9415 199.406 33.178V32.3528H199.377C198.812 33.3156 197.962 33.797 196.828 33.797C195.909 33.797 195.167 33.4629 194.602 32.7949C194.042 32.1219 193.762 31.2205 193.762 30.0907C193.762 28.8086 194.064 27.7893 194.669 27.0329C195.273 26.2764 196.103 25.8981 197.159 25.8981C198.156 25.8981 198.896 26.3059 199.377 27.1213H199.406V26.075H201.116V33.0159ZM199.421 30.1644V29.1844C199.421 28.6539 199.244 28.202 198.891 27.8286C198.542 27.4504 198.105 27.2613 197.579 27.2613C196.931 27.2613 196.422 27.502 196.054 27.9834C195.69 28.4599 195.509 29.1279 195.509 29.9875C195.509 30.7293 195.683 31.3237 196.032 31.7707C196.385 32.2128 196.852 32.4338 197.432 32.4338C198.021 32.4338 198.5 32.2226 198.869 31.8001C199.237 31.3728 199.421 30.8275 199.421 30.1644ZM210.046 33.6201H208.337V29.4939C208.337 28.0006 207.838 27.2539 206.841 27.2539C206.34 27.2539 205.918 27.47 205.574 27.9023C205.23 28.3346 205.058 28.8872 205.058 29.5602V33.6201H203.341V22.4498H205.058V27.3276H205.087C205.657 26.3746 206.473 25.8981 207.534 25.8981C209.209 25.8981 210.046 26.9223 210.046 28.9707V33.6201ZM216.103 33.5391C215.769 33.7061 215.329 33.7896 214.784 33.7896C213.32 33.7896 212.588 33.0871 212.588 31.6823V27.416H211.328V26.075H212.588V24.3287L214.298 23.8424V26.075H216.103V27.416H214.298V31.1886C214.298 31.6356 214.379 31.9549 214.541 32.1465C214.703 32.338 214.973 32.4338 215.351 32.4338C215.641 32.4338 215.892 32.3503 216.103 32.1833V33.5391ZM217.105 33.3843V31.8001C217.744 32.2865 218.449 32.5296 219.22 32.5296C220.251 32.5296 220.767 32.2251 220.767 31.6159C220.767 31.444 220.723 31.2991 220.635 31.1812C220.546 31.0584 220.426 30.9503 220.273 30.857C220.126 30.7637 219.949 30.6802 219.743 30.6065C219.542 30.5328 219.316 30.4493 219.065 30.356C218.756 30.2332 218.476 30.103 218.225 29.9654C217.979 29.8279 217.773 29.6732 217.606 29.5012C217.444 29.3244 217.321 29.1255 217.238 28.9044C217.154 28.6834 217.112 28.4255 217.112 28.1307C217.112 27.7672 217.198 27.4479 217.37 27.1729C217.542 26.8929 217.773 26.6595 218.063 26.4729C218.353 26.2813 218.682 26.1388 219.05 26.0455C219.419 25.9473 219.799 25.8981 220.192 25.8981C220.89 25.8981 221.514 26.0038 222.064 26.215V27.7107C221.533 27.3472 220.924 27.1655 220.237 27.1655C220.02 27.1655 219.824 27.1876 219.647 27.2318C219.475 27.276 219.328 27.3374 219.205 27.416C219.082 27.4946 218.986 27.5904 218.918 27.7034C218.849 27.8114 218.815 27.9318 218.815 28.0644C218.815 28.2265 218.849 28.3641 218.918 28.477C218.986 28.59 219.087 28.6907 219.22 28.7791C219.357 28.8627 219.519 28.9412 219.706 29.0149C219.898 29.0837 220.116 29.1598 220.362 29.2433C220.686 29.376 220.976 29.5111 221.231 29.6486C221.492 29.7861 221.713 29.9433 221.894 30.1202C222.076 30.2921 222.216 30.4935 222.314 30.7244C222.413 30.9503 222.462 31.2205 222.462 31.5349C222.462 31.918 222.373 32.2521 222.197 32.537C222.02 32.8219 221.784 33.0577 221.489 33.2443C221.195 33.431 220.853 33.5685 220.465 33.657C220.082 33.7503 219.677 33.797 219.249 33.797C218.424 33.797 217.709 33.6594 217.105 33.3843Z" fill="white"/>
<path d="M32.469 68.9248V60.3422H35.1923C36.0222 60.3422 36.6786 60.5237 37.1614 60.8868C37.6481 61.2499 37.8915 61.7227 37.8915 62.3053C37.8915 62.7921 37.7539 63.215 37.4786 63.5741C37.2033 63.9332 36.8222 64.1886 36.3354 64.3402V64.3642C36.9259 64.432 37.3968 64.6514 37.7479 65.0225C38.103 65.3896 38.2806 65.8684 38.2806 66.4589C38.2806 67.1931 37.9913 67.7876 37.4127 68.2425C36.8342 68.6974 36.104 68.9248 35.2222 68.9248H32.469ZM33.8875 61.4853V63.9272H34.8092C35.304 63.9272 35.691 63.8115 35.9703 63.5801C36.2536 63.3447 36.3953 63.0135 36.3953 62.5866C36.3953 61.8524 35.9045 61.4853 34.9229 61.4853H33.8875ZM33.8875 65.0704V67.7876H35.1025C35.6332 67.7876 36.0421 67.6659 36.3294 67.4225C36.6207 67.1752 36.7663 66.836 36.7663 66.4051C36.7663 65.5153 36.1499 65.0704 34.9169 65.0704H33.8875ZM44.9121 66.2375H40.7345C40.7504 66.8041 40.924 67.241 41.2552 67.5482C41.5903 67.8555 42.0492 68.0091 42.6317 68.0091C43.2861 68.0091 43.8866 67.8136 44.4333 67.4225V68.5418C43.8747 68.8929 43.1365 69.0684 42.2188 69.0684C41.317 69.0684 40.6088 68.7911 40.0941 68.2365C39.5833 67.6779 39.328 66.8939 39.328 65.8844C39.328 64.9307 39.6093 64.1547 40.1719 63.5562C40.7385 62.9537 41.4407 62.6524 42.2786 62.6524C43.1165 62.6524 43.7649 62.9217 44.2238 63.4604C44.6826 63.9991 44.9121 64.7472 44.9121 65.7048V66.2375ZM43.5714 65.2559C43.5674 64.7572 43.4497 64.3701 43.2183 64.0948C42.9869 63.8155 42.6677 63.6759 42.2607 63.6759C41.8617 63.6759 41.5225 63.8215 41.2432 64.1128C40.9679 64.4041 40.7983 64.7851 40.7345 65.2559H43.5714ZM51.5436 62.7961L48.7785 69.9064C48.2039 71.1752 47.3979 71.8096 46.3605 71.8096C46.0692 71.8096 45.8258 71.7837 45.6303 71.7318V70.5767C45.8497 70.6485 46.0492 70.6844 46.2288 70.6844C46.7475 70.6844 47.1345 70.4291 47.3899 69.9183L47.8029 68.9128L45.3669 62.7961H46.9051L48.3655 67.249C48.3814 67.3048 48.4174 67.4525 48.4732 67.6919H48.5031C48.5231 67.6001 48.559 67.4565 48.6109 67.2609L50.1431 62.7961H51.5436ZM55.0927 69.0684C54.1471 69.0684 53.391 68.7832 52.8244 68.2126C52.2618 67.638 51.9805 66.8779 51.9805 65.9323C51.9805 64.9028 52.2738 64.0988 52.8603 63.5203C53.4508 62.9417 54.2449 62.6524 55.2424 62.6524C56.2 62.6524 56.9461 62.9337 57.4808 63.4963C58.0155 64.0589 58.2828 64.839 58.2828 65.8365C58.2828 66.8141 57.9935 67.5981 57.415 68.1886C56.8404 68.7752 56.0663 69.0684 55.0927 69.0684ZM55.1586 63.7597C54.6159 63.7597 54.187 63.9492 53.8718 64.3282C53.5566 64.7073 53.399 65.23 53.399 65.8963C53.399 66.5387 53.5586 67.0455 53.8778 67.4166C54.197 67.7836 54.6239 67.9672 55.1586 67.9672C55.7052 67.9672 56.1242 67.7856 56.4155 67.4225C56.7107 67.0594 56.8583 66.5427 56.8583 65.8724C56.8583 65.1981 56.7107 64.6774 56.4155 64.3103C56.1242 63.9432 55.7052 63.7597 55.1586 63.7597ZM65.1597 68.9248H63.7712V65.4714C63.7712 64.3262 63.3662 63.7537 62.5562 63.7537C62.1332 63.7537 61.7841 63.9133 61.5088 64.2325C61.2335 64.5477 61.0958 64.9467 61.0958 65.4295V68.9248H59.7013V62.7961H61.0958V63.8135H61.1197C61.5786 63.0394 62.241 62.6524 63.1068 62.6524C63.7731 62.6524 64.2819 62.8699 64.633 63.3048C64.9841 63.7357 65.1597 64.3602 65.1597 65.1781V68.9248ZM72.4316 68.9248H71.0431V67.8834H71.0191C70.5722 68.6734 69.8839 69.0684 68.9543 69.0684C68.2001 69.0684 67.5956 68.7951 67.1408 68.2485C66.6899 67.6979 66.4644 66.9497 66.4644 66.0041C66.4644 64.9906 66.7138 64.1786 67.2126 63.5681C67.7153 62.9577 68.3837 62.6524 69.2176 62.6524C70.0435 62.6524 70.6441 62.9836 71.0191 63.6459H71.0431V59.8514H72.4316V68.9248ZM71.061 66.1238V65.3218C71.061 64.8869 70.9194 64.5178 70.6361 64.2145C70.3528 63.9113 69.9917 63.7597 69.5528 63.7597C69.0341 63.7597 68.6251 63.9532 68.3258 64.3402C68.0306 64.7272 67.8829 65.2639 67.8829 65.9502C67.8829 66.5727 68.0246 67.0654 68.3079 67.4285C68.5951 67.7876 68.9802 67.9672 69.463 67.9672C69.9378 67.9672 70.3228 67.7936 70.6181 67.4465C70.9134 67.0954 71.061 66.6545 71.061 66.1238ZM80.8527 68.859C80.5813 68.9946 80.2242 69.0625 79.7813 69.0625C78.5923 69.0625 77.9978 68.4919 77.9978 67.3507V63.8853H76.9743V62.7961H77.9978V61.3776L79.3863 60.9826V62.7961H80.8527V63.8853H79.3863V66.9497C79.3863 67.3128 79.4521 67.5722 79.5838 67.7278C79.7155 67.8834 79.9349 67.9612 80.2422 67.9612C80.4776 67.9612 80.6811 67.8934 80.8527 67.7577V68.859ZM87.4961 68.9248H86.1076V65.5731C86.1076 64.3602 85.7026 63.7537 84.8926 63.7537C84.4856 63.7537 84.1425 63.9292 83.8632 64.2804C83.5839 64.6315 83.4442 65.0804 83.4442 65.627V68.9248H82.0497V59.8514H83.4442V63.8135H83.4681C83.931 63.0394 84.5933 62.6524 85.4552 62.6524C86.8158 62.6524 87.4961 63.4843 87.4961 65.1482V68.9248ZM94.373 66.2375H90.1954C90.2114 66.8041 90.3849 67.241 90.7161 67.5482C91.0513 67.8555 91.5101 68.0091 92.0927 68.0091C92.7471 68.0091 93.3476 67.8136 93.8942 67.4225V68.5418C93.3356 68.8929 92.5974 69.0684 91.6797 69.0684C90.778 69.0684 90.0697 68.7911 89.555 68.2365C89.0443 67.6779 88.7889 66.8939 88.7889 65.8844C88.7889 64.9307 89.0702 64.1547 89.6328 63.5562C90.1994 62.9537 90.9016 62.6524 91.7396 62.6524C92.5775 62.6524 93.2259 62.9217 93.6847 63.4604C94.1436 63.9991 94.373 64.7472 94.373 65.7048V66.2375ZM93.0323 65.2559C93.0284 64.7572 92.9106 64.3701 92.6792 64.0948C92.4478 63.8155 92.1286 63.6759 91.7216 63.6759C91.3226 63.6759 90.9834 63.8215 90.7041 64.1128C90.4288 64.4041 90.2592 64.7851 90.1954 65.2559H93.0323ZM98.413 69.0684C97.4673 69.0684 96.7112 68.7832 96.1446 68.2126C95.582 67.638 95.3007 66.8779 95.3007 65.9323C95.3007 64.9028 95.594 64.0988 96.1805 63.5203C96.771 62.9417 97.5651 62.6524 98.5626 62.6524C99.5202 62.6524 100.266 62.9337 100.801 63.4963C101.336 64.0589 101.603 64.839 101.603 65.8365C101.603 66.8141 101.314 67.5981 100.735 68.1886C100.161 68.7752 99.3865 69.0684 98.413 69.0684ZM98.4788 63.7597C97.9361 63.7597 97.5072 63.9492 97.192 64.3282C96.8768 64.7073 96.7192 65.23 96.7192 65.8963C96.7192 66.5387 96.8788 67.0455 97.198 67.4166C97.5172 67.7836 97.9441 67.9672 98.4788 67.9672C99.0254 67.9672 99.4444 67.7856 99.7357 67.4225C100.031 67.0594 100.179 66.5427 100.179 65.8724C100.179 65.1981 100.031 64.6774 99.7357 64.3103C99.4444 63.9432 99.0254 63.7597 98.4788 63.7597ZM106.577 64.1188C106.409 63.9871 106.168 63.9213 105.852 63.9213C105.441 63.9213 105.098 64.1068 104.823 64.4779C104.548 64.8489 104.41 65.3537 104.41 65.9921V68.9248H103.021V62.7961H104.41V64.0589H104.434C104.57 63.628 104.777 63.2928 105.056 63.0534C105.34 62.81 105.655 62.6883 106.002 62.6883C106.253 62.6883 106.445 62.7262 106.577 62.802V64.1188ZM113.358 62.7961L110.593 69.9064C110.018 71.1752 109.212 71.8096 108.175 71.8096C107.883 71.8096 107.64 71.7837 107.444 71.7318V70.5767C107.664 70.6485 107.863 70.6844 108.043 70.6844C108.562 70.6844 108.949 70.4291 109.204 69.9183L109.617 68.9128L107.181 62.7961H108.719L110.18 67.249C110.196 67.3048 110.232 67.4525 110.287 67.6919H110.317C110.337 67.6001 110.373 67.4565 110.425 67.2609L111.957 62.7961H113.358ZM114.938 67.4944L114.01 70.4809H112.969L113.627 67.4944H114.938ZM128.213 62.7961L126.405 68.9248H124.951L123.838 64.7711C123.794 64.6115 123.766 64.432 123.754 64.2325H123.73C123.722 64.3681 123.686 64.5437 123.622 64.7592L122.413 68.9248H120.989L119.187 62.7961H120.624L121.737 67.2131C121.773 67.3447 121.797 67.5203 121.809 67.7398H121.851C121.863 67.5722 121.895 67.3926 121.946 67.2011L123.185 62.7961H124.49L125.591 67.231C125.627 67.3707 125.653 67.5462 125.669 67.7577H125.711C125.719 67.6101 125.749 67.4345 125.801 67.231L126.89 62.7961H128.213ZM134.377 66.2375H130.2C130.216 66.8041 130.389 67.241 130.721 67.5482C131.056 67.8555 131.515 68.0091 132.097 68.0091C132.752 68.0091 133.352 67.8136 133.899 67.4225V68.5418C133.34 68.8929 132.602 69.0684 131.684 69.0684C130.782 69.0684 130.074 68.7911 129.559 68.2365C129.049 67.6779 128.793 66.8939 128.793 65.8844C128.793 64.9307 129.075 64.1547 129.637 63.5562C130.204 62.9537 130.906 62.6524 131.744 62.6524C132.582 62.6524 133.23 62.9217 133.689 63.4604C134.148 63.9991 134.377 64.7472 134.377 65.7048V66.2375ZM133.037 65.2559C133.033 64.7572 132.915 64.3701 132.684 64.0948C132.452 63.8155 132.133 63.6759 131.726 63.6759C131.327 63.6759 130.988 63.8215 130.709 64.1128C130.433 64.4041 130.264 64.7851 130.2 65.2559H133.037ZM140.488 68.0211H140.464V71.7438H139.076V62.7961H140.464V63.8734H140.488C140.963 63.0594 141.657 62.6524 142.571 62.6524C143.349 62.6524 143.956 62.9257 144.391 63.4724C144.825 64.019 145.043 64.7532 145.043 65.6749C145.043 66.6963 144.798 67.5143 144.307 68.1288C143.816 68.7433 143.146 69.0505 142.296 69.0505C141.514 69.0505 140.911 68.7073 140.488 68.0211ZM140.452 65.6031V66.3632C140.452 66.8101 140.594 67.1891 140.877 67.5003C141.165 67.8116 141.528 67.9672 141.967 67.9672C142.481 67.9672 142.884 67.7677 143.176 67.3687C143.471 66.9657 143.618 66.4051 143.618 65.6869C143.618 65.0844 143.481 64.6135 143.206 64.2744C142.934 63.9312 142.565 63.7597 142.098 63.7597C141.603 63.7597 141.204 63.9352 140.901 64.2863C140.602 64.6375 140.452 65.0764 140.452 65.6031ZM150.017 64.1188C149.849 63.9871 149.608 63.9213 149.292 63.9213C148.881 63.9213 148.538 64.1068 148.263 64.4779C147.988 64.8489 147.85 65.3537 147.85 65.9921V68.9248H146.461V62.7961H147.85V64.0589H147.874C148.01 63.628 148.217 63.2928 148.496 63.0534C148.78 62.81 149.095 62.6883 149.442 62.6883C149.693 62.6883 149.885 62.7262 150.017 62.802V64.1188ZM153.608 69.0684C152.662 69.0684 151.906 68.7832 151.339 68.2126C150.777 67.638 150.495 66.8779 150.495 65.9323C150.495 64.9028 150.789 64.0988 151.375 63.5203C151.966 62.9417 152.76 62.6524 153.757 62.6524C154.715 62.6524 155.461 62.9337 155.996 63.4963C156.53 64.0589 156.798 64.839 156.798 65.8365C156.798 66.8141 156.508 67.5981 155.93 68.1886C155.355 68.7752 154.581 69.0684 153.608 69.0684ZM153.673 63.7597C153.131 63.7597 152.702 63.9492 152.387 64.3282C152.071 64.7073 151.914 65.23 151.914 65.8963C151.914 66.5387 152.073 67.0455 152.393 67.4166C152.712 67.7836 153.139 67.9672 153.673 67.9672C154.22 67.9672 154.639 67.7856 154.93 67.4225C155.226 67.0594 155.373 66.5427 155.373 65.8724C155.373 65.1981 155.226 64.6774 154.93 64.3103C154.639 63.9432 154.22 63.7597 153.673 63.7597ZM163.495 62.7961L161.125 68.9248H159.623L157.366 62.7961H158.875L160.233 67.0814C160.337 67.3966 160.401 67.6719 160.425 67.9073H160.443C160.479 67.6121 160.534 67.3447 160.61 67.1053L162.035 62.7961H163.495ZM165.141 61.5093C164.914 61.5093 164.718 61.4354 164.554 61.2878C164.395 61.1402 164.315 60.9526 164.315 60.7252C164.315 60.4978 164.395 60.3082 164.554 60.1566C164.718 60.005 164.914 59.9292 165.141 59.9292C165.376 59.9292 165.576 60.005 165.739 60.1566C165.903 60.3082 165.985 60.4978 165.985 60.7252C165.985 60.9407 165.903 61.1262 165.739 61.2818C165.576 61.4334 165.376 61.5093 165.141 61.5093ZM165.829 68.9248H164.441V62.7961H165.829V68.9248ZM173.221 68.9248H171.832V67.8834H171.808C171.361 68.6734 170.673 69.0684 169.743 69.0684C168.989 69.0684 168.385 68.7951 167.93 68.2485C167.479 67.6979 167.254 66.9497 167.254 66.0041C167.254 64.9906 167.503 64.1786 168.002 63.5681C168.505 62.9577 169.173 62.6524 170.007 62.6524C170.833 62.6524 171.433 62.9836 171.808 63.6459H171.832V59.8514H173.221V68.9248ZM171.85 66.1238V65.3218C171.85 64.8869 171.709 64.5178 171.425 64.2145C171.142 63.9113 170.781 63.7597 170.342 63.7597C169.823 63.7597 169.414 63.9532 169.115 64.3402C168.82 64.7272 168.672 65.2639 168.672 65.9502C168.672 66.5727 168.814 67.0654 169.097 67.4285C169.384 67.7876 169.769 67.9672 170.252 67.9672C170.727 67.9672 171.112 67.7936 171.407 67.4465C171.703 67.0954 171.85 66.6545 171.85 66.1238ZM180.223 66.2375H176.046C176.062 66.8041 176.235 67.241 176.567 67.5482C176.902 67.8555 177.361 68.0091 177.943 68.0091C178.597 68.0091 179.198 67.8136 179.745 67.4225V68.5418C179.186 68.8929 178.448 69.0684 177.53 69.0684C176.628 69.0684 175.92 68.7911 175.405 68.2365C174.895 67.6779 174.639 66.8939 174.639 65.8844C174.639 64.9307 174.921 64.1547 175.483 63.5562C176.05 62.9537 176.752 62.6524 177.59 62.6524C178.428 62.6524 179.076 62.9217 179.535 63.4604C179.994 63.9991 180.223 64.7472 180.223 65.7048V66.2375ZM178.883 65.2559C178.879 64.7572 178.761 64.3701 178.53 64.0948C178.298 63.8155 177.979 63.6759 177.572 63.6759C177.173 63.6759 176.834 63.8215 176.555 64.1128C176.279 64.4041 176.11 64.7851 176.046 65.2559H178.883ZM186.334 68.0211H186.31V71.7438H184.922V62.7961H186.31V63.8734H186.334C186.809 63.0594 187.503 62.6524 188.417 62.6524C189.195 62.6524 189.802 62.9257 190.237 63.4724C190.671 64.019 190.889 64.7532 190.889 65.6749C190.889 66.6963 190.643 67.5143 190.153 68.1288C189.662 68.7433 188.992 69.0505 188.142 69.0505C187.36 69.0505 186.757 68.7073 186.334 68.0211ZM186.298 65.6031V66.3632C186.298 66.8101 186.44 67.1891 186.723 67.5003C187.011 67.8116 187.374 67.9672 187.813 67.9672C188.327 67.9672 188.73 67.7677 189.022 67.3687C189.317 66.9657 189.464 66.4051 189.464 65.6869C189.464 65.0844 189.327 64.6135 189.051 64.2744C188.78 63.9312 188.411 63.7597 187.944 63.7597C187.449 63.7597 187.05 63.9352 186.747 64.2863C186.448 64.6375 186.298 65.0764 186.298 65.6031ZM195.863 64.1188C195.695 63.9871 195.454 63.9213 195.138 63.9213C194.727 63.9213 194.384 64.1068 194.109 64.4779C193.834 64.8489 193.696 65.3537 193.696 65.9921V68.9248H192.307V62.7961H193.696V64.0589H193.72C193.855 63.628 194.063 63.2928 194.342 63.0534C194.626 62.81 194.941 62.6883 195.288 62.6883C195.539 62.6883 195.731 62.7262 195.863 62.802V64.1188ZM201.548 68.9248H200.202V67.9672H200.178C199.755 68.7014 199.134 69.0684 198.316 69.0684C197.714 69.0684 197.241 68.9049 196.898 68.5777C196.559 68.2505 196.389 67.8176 196.389 67.2789C196.389 66.1218 197.056 65.4475 198.388 65.2559L200.208 64.9986C200.208 64.1247 199.793 63.6878 198.963 63.6878C198.233 63.6878 197.574 63.9392 196.988 64.442V63.227C197.634 62.8439 198.38 62.6524 199.226 62.6524C200.774 62.6524 201.548 63.4145 201.548 64.9387V68.9248ZM200.208 65.9143L198.921 66.0938C198.522 66.1457 198.221 66.2435 198.017 66.3871C197.818 66.5268 197.718 66.7742 197.718 67.1293C197.718 67.3886 197.81 67.6021 197.993 67.7697C198.181 67.9333 198.43 68.0151 198.741 68.0151C199.164 68.0151 199.513 67.8674 199.789 67.5722C200.068 67.2729 200.208 66.8978 200.208 66.447V65.9143ZM207.635 68.6435C207.144 68.9268 206.564 69.0684 205.894 69.0684C204.984 69.0684 204.25 68.7852 203.691 68.2186C203.132 67.648 202.853 66.9098 202.853 66.0041C202.853 64.9946 203.152 64.1846 203.751 63.5741C204.353 62.9596 205.157 62.6524 206.163 62.6524C206.721 62.6524 207.214 62.7502 207.641 62.9457V64.2385C207.214 63.9193 206.759 63.7597 206.277 63.7597C205.69 63.7597 205.209 63.9592 204.834 64.3582C204.459 64.7532 204.272 65.2719 204.272 65.9143C204.272 66.5487 204.447 67.0495 204.798 67.4166C205.153 67.7836 205.628 67.9672 206.223 67.9672C206.721 67.9672 207.192 67.7896 207.635 67.4345V68.6435ZM212.25 68.859C211.978 68.9946 211.621 69.0625 211.178 69.0625C209.989 69.0625 209.395 68.4919 209.395 67.3507V63.8853H208.371V62.7961H209.395V61.3776L210.783 60.9826V62.7961H212.25V63.8853H210.783V66.9497C210.783 67.3128 210.849 67.5722 210.981 67.7278C211.113 67.8834 211.332 67.9612 211.639 67.9612C211.875 67.9612 212.078 67.8934 212.25 67.7577V68.859ZM214.147 61.5093C213.92 61.5093 213.724 61.4354 213.56 61.2878C213.401 61.1402 213.321 60.9526 213.321 60.7252C213.321 60.4978 213.401 60.3082 213.56 60.1566C213.724 60.005 213.92 59.9292 214.147 59.9292C214.382 59.9292 214.582 60.005 214.746 60.1566C214.909 60.3082 214.991 60.4978 214.991 60.7252C214.991 60.9407 214.909 61.1262 214.746 61.2818C214.582 61.4334 214.382 61.5093 214.147 61.5093ZM214.835 68.9248H213.447V62.7961H214.835V68.9248ZM221.042 68.6435C220.551 68.9268 219.971 69.0684 219.3 69.0684C218.39 69.0684 217.656 68.7852 217.098 68.2186C216.539 67.648 216.26 66.9098 216.26 66.0041C216.26 64.9946 216.559 64.1846 217.158 63.5741C217.76 62.9596 218.564 62.6524 219.57 62.6524C220.128 62.6524 220.621 62.7502 221.048 62.9457V64.2385C220.621 63.9193 220.166 63.7597 219.683 63.7597C219.097 63.7597 218.616 63.9592 218.241 64.3582C217.866 64.7532 217.678 65.2719 217.678 65.9143C217.678 66.5487 217.854 67.0495 218.205 67.4166C218.56 67.7836 219.035 67.9672 219.629 67.9672C220.128 67.9672 220.599 67.7896 221.042 67.4345V68.6435ZM227.129 68.9248H225.782V67.9672H225.758C225.335 68.7014 224.715 69.0684 223.897 69.0684C223.294 69.0684 222.821 68.9049 222.478 68.5777C222.139 68.2505 221.97 67.8176 221.97 67.2789C221.97 66.1218 222.636 65.4475 223.969 65.2559L225.788 64.9986C225.788 64.1247 225.373 63.6878 224.543 63.6878C223.813 63.6878 223.155 63.9392 222.568 64.442V63.227C223.214 62.8439 223.961 62.6524 224.806 62.6524C226.355 62.6524 227.129 63.4145 227.129 64.9387V68.9248ZM225.788 65.9143L224.501 66.0938C224.102 66.1457 223.801 66.2435 223.597 66.3871C223.398 66.5268 223.298 66.7742 223.298 67.1293C223.298 67.3886 223.39 67.6021 223.574 67.7697C223.761 67.9333 224.01 68.0151 224.322 68.0151C224.745 68.0151 225.094 67.8674 225.369 67.5722C225.648 67.2729 225.788 66.8978 225.788 66.447V65.9143ZM230.223 68.9248H228.828V59.8514H230.223V68.9248ZM238.644 68.859C238.373 68.9946 238.016 69.0625 237.573 69.0625C236.384 69.0625 235.789 68.4919 235.789 67.3507V63.8853H234.766V62.7961H235.789V61.3776L237.178 60.9826V62.7961H238.644V63.8853H237.178V66.9497C237.178 67.3128 237.244 67.5722 237.375 67.7278C237.507 67.8834 237.726 67.9612 238.034 67.9612C238.269 67.9612 238.472 67.8934 238.644 67.7577V68.859ZM243.396 64.1188C243.229 63.9871 242.987 63.9213 242.672 63.9213C242.261 63.9213 241.918 64.1068 241.643 64.4779C241.367 64.8489 241.23 65.3537 241.23 65.9921V68.9248H239.841V62.7961H241.23V64.0589H241.254C241.389 63.628 241.597 63.2928 241.876 63.0534C242.159 62.81 242.475 62.6883 242.822 62.6883C243.073 62.6883 243.265 62.7262 243.396 62.802V64.1188ZM249.082 68.9248H247.735V67.9672H247.712C247.289 68.7014 246.668 69.0684 245.85 69.0684C245.248 69.0684 244.775 68.9049 244.432 68.5777C244.093 68.2505 243.923 67.8176 243.923 67.2789C243.923 66.1218 244.589 65.4475 245.922 65.2559L247.741 64.9986C247.741 64.1247 247.326 63.6878 246.497 63.6878C245.766 63.6878 245.108 63.9392 244.521 64.442V63.227C245.168 62.8439 245.914 62.6524 246.76 62.6524C248.308 62.6524 249.082 63.4145 249.082 64.9387V68.9248ZM247.741 65.9143L246.455 66.0938C246.056 66.1457 245.754 66.2435 245.551 66.3871C245.351 66.5268 245.252 66.7742 245.252 67.1293C245.252 67.3886 245.343 67.6021 245.527 67.7697C245.714 67.9333 245.964 68.0151 246.275 68.0151C246.698 68.0151 247.047 67.8674 247.322 67.5722C247.602 67.2729 247.741 66.8978 247.741 66.447V65.9143ZM256.354 68.9248H254.965V67.8834H254.941C254.495 68.6734 253.806 69.0684 252.877 69.0684C252.123 69.0684 251.518 68.7951 251.063 68.2485C250.612 67.6979 250.387 66.9497 250.387 66.0041C250.387 64.9906 250.636 64.1786 251.135 63.5681C251.638 62.9577 252.306 62.6524 253.14 62.6524C253.966 62.6524 254.566 62.9836 254.941 63.6459H254.965V59.8514H256.354V68.9248ZM254.983 66.1238V65.3218C254.983 64.8869 254.842 64.5178 254.558 64.2145C254.275 63.9113 253.914 63.7597 253.475 63.7597C252.956 63.7597 252.547 63.9532 252.248 64.3402C251.953 64.7272 251.805 65.2639 251.805 65.9502C251.805 66.5727 251.947 67.0654 252.23 67.4285C252.518 67.7876 252.903 67.9672 253.385 67.9672C253.86 67.9672 254.245 67.7936 254.54 67.4465C254.836 67.0954 254.983 66.6545 254.983 66.1238ZM263.357 66.2375H259.179C259.195 66.8041 259.368 67.241 259.7 67.5482C260.035 67.8555 260.494 68.0091 261.076 68.0091C261.731 68.0091 262.331 67.8136 262.878 67.4225V68.5418C262.319 68.8929 261.581 69.0684 260.663 69.0684C259.762 69.0684 259.053 68.7911 258.539 68.2365C258.028 67.6779 257.772 66.8939 257.772 65.8844C257.772 64.9307 258.054 64.1547 258.616 63.5562C259.183 62.9537 259.885 62.6524 260.723 62.6524C261.561 62.6524 262.209 62.9217 262.668 63.4604C263.127 63.9991 263.357 64.7472 263.357 65.7048V66.2375ZM262.016 65.2559C262.012 64.7572 261.894 64.3701 261.663 64.0948C261.431 63.8155 261.112 63.6759 260.705 63.6759C260.306 63.6759 259.967 63.8215 259.688 64.1128C259.412 64.4041 259.243 64.7851 259.179 65.2559H262.016ZM270.772 69.0684C269.826 69.0684 269.07 68.7832 268.504 68.2126C267.941 67.638 267.66 66.8779 267.66 65.9323C267.66 64.9028 267.953 64.0988 268.54 63.5203C269.13 62.9417 269.924 62.6524 270.922 62.6524C271.879 62.6524 272.626 62.9337 273.16 63.4963C273.695 64.0589 273.962 64.839 273.962 65.8365C273.962 66.8141 273.673 67.5981 273.094 68.1886C272.52 68.7752 271.746 69.0684 270.772 69.0684ZM270.838 63.7597C270.295 63.7597 269.866 63.9492 269.551 64.3282C269.236 64.7073 269.078 65.23 269.078 65.8963C269.078 66.5387 269.238 67.0455 269.557 67.4166C269.876 67.7836 270.303 67.9672 270.838 67.9672C271.385 67.9672 271.804 67.7856 272.095 67.4225C272.39 67.0594 272.538 66.5427 272.538 65.8724C272.538 65.1981 272.39 64.6774 272.095 64.3103C271.804 63.9432 271.385 63.7597 270.838 63.7597ZM276.793 68.0211H276.769V71.7438H275.381V62.7961H276.769V63.8734H276.793C277.268 63.0594 277.962 62.6524 278.876 62.6524C279.654 62.6524 280.261 62.9257 280.695 63.4724C281.13 64.019 281.348 64.7532 281.348 65.6749C281.348 66.6963 281.102 67.5143 280.612 68.1288C280.121 68.7433 279.451 69.0505 278.601 69.0505C277.819 69.0505 277.216 68.7073 276.793 68.0211ZM276.757 65.6031V66.3632C276.757 66.8101 276.899 67.1891 277.182 67.5003C277.469 67.8116 277.833 67.9672 278.271 67.9672C278.786 67.9672 279.189 67.7677 279.48 67.3687C279.776 66.9657 279.923 66.4051 279.923 65.6869C279.923 65.0844 279.786 64.6135 279.51 64.2744C279.239 63.9312 278.87 63.7597 278.403 63.7597C277.908 63.7597 277.509 63.9352 277.206 64.2863C276.907 64.6375 276.757 65.0764 276.757 65.6031ZM284.179 68.0211H284.155V71.7438H282.766V62.7961H284.155V63.8734H284.179C284.654 63.0594 285.348 62.6524 286.262 62.6524C287.04 62.6524 287.646 62.9257 288.081 63.4724C288.516 64.019 288.733 64.7532 288.733 65.6749C288.733 66.6963 288.488 67.5143 287.997 68.1288C287.506 68.7433 286.836 69.0505 285.986 69.0505C285.204 69.0505 284.602 68.7073 284.179 68.0211ZM284.143 65.6031V66.3632C284.143 66.8101 284.284 67.1891 284.568 67.5003C284.855 67.8116 285.218 67.9672 285.657 67.9672C286.172 67.9672 286.575 67.7677 286.866 67.3687C287.161 66.9657 287.309 66.4051 287.309 65.6869C287.309 65.0844 287.171 64.6135 286.896 64.2744C286.625 63.9312 286.256 63.7597 285.789 63.7597C285.294 63.7597 284.895 63.9352 284.592 64.2863C284.292 64.6375 284.143 65.0764 284.143 65.6031ZM292.869 69.0684C291.923 69.0684 291.167 68.7832 290.601 68.2126C290.038 67.638 289.757 66.8779 289.757 65.9323C289.757 64.9028 290.05 64.0988 290.637 63.5203C291.227 62.9417 292.021 62.6524 293.019 62.6524C293.976 62.6524 294.723 62.9337 295.257 63.4963C295.792 64.0589 296.059 64.839 296.059 65.8365C296.059 66.8141 295.77 67.5981 295.191 68.1886C294.617 68.7752 293.843 69.0684 292.869 69.0684ZM292.935 63.7597C292.392 63.7597 291.963 63.9492 291.648 64.3282C291.333 64.7073 291.175 65.23 291.175 65.8963C291.175 66.5387 291.335 67.0455 291.654 67.4166C291.973 67.7836 292.4 67.9672 292.935 67.9672C293.482 67.9672 293.901 67.7856 294.192 67.4225C294.487 67.0594 294.635 66.5427 294.635 65.8724C294.635 65.1981 294.487 64.6774 294.192 64.3103C293.901 63.9432 293.482 63.7597 292.935 63.7597ZM301.033 64.1188C300.865 63.9871 300.624 63.9213 300.309 63.9213C299.898 63.9213 299.554 64.1068 299.279 64.4779C299.004 64.8489 298.866 65.3537 298.866 65.9921V68.9248H297.478V62.7961H298.866V64.0589H298.89C299.026 63.628 299.233 63.2928 299.513 63.0534C299.796 62.81 300.111 62.6883 300.458 62.6883C300.71 62.6883 300.901 62.7262 301.033 62.802V64.1188ZM305.605 68.859C305.334 68.9946 304.977 69.0625 304.534 69.0625C303.345 69.0625 302.751 68.4919 302.751 67.3507V63.8853H301.727V62.7961H302.751V61.3776L304.139 60.9826V62.7961H305.605V63.8853H304.139V66.9497C304.139 67.3128 304.205 67.5722 304.337 67.7278C304.468 67.8834 304.688 67.9612 304.995 67.9612C305.23 67.9612 305.434 67.8934 305.605 67.7577V68.859ZM312.147 68.9248H310.759V67.9552H310.735C310.332 68.6974 309.705 69.0684 308.855 69.0684C307.407 69.0684 306.683 68.1986 306.683 66.4589V62.7961H308.071V66.3153C308.071 67.4166 308.496 67.9672 309.346 67.9672C309.757 67.9672 310.094 67.8156 310.358 67.5123C310.625 67.2091 310.759 66.8121 310.759 66.3213V62.7961H312.147V68.9248ZM319.419 68.9248H318.031V65.4714C318.031 64.3262 317.626 63.7537 316.816 63.7537C316.393 63.7537 316.043 63.9133 315.768 64.2325C315.493 64.5477 315.355 64.9467 315.355 65.4295V68.9248H313.961V62.7961H315.355V63.8135H315.379C315.838 63.0394 316.5 62.6524 317.366 62.6524C318.033 62.6524 318.541 62.8699 318.892 63.3048C319.244 63.7357 319.419 64.3602 319.419 65.1781V68.9248ZM321.819 61.5093C321.592 61.5093 321.396 61.4354 321.233 61.2878C321.073 61.1402 320.993 60.9526 320.993 60.7252C320.993 60.4978 321.073 60.3082 321.233 60.1566C321.396 60.005 321.592 59.9292 321.819 59.9292C322.055 59.9292 322.254 60.005 322.418 60.1566C322.581 60.3082 322.663 60.4978 322.663 60.7252C322.663 60.9407 322.581 61.1262 322.418 61.2818C322.254 61.4334 322.055 61.5093 321.819 61.5093ZM322.507 68.9248H321.119V62.7961H322.507V68.9248ZM327.559 68.859C327.288 68.9946 326.93 69.0625 326.488 69.0625C325.298 69.0625 324.704 68.4919 324.704 67.3507V63.8853H323.68V62.7961H324.704V61.3776L326.092 60.9826V62.7961H327.559V63.8853H326.092V66.9497C326.092 67.3128 326.158 67.5722 326.29 67.7278C326.422 67.8834 326.641 67.9612 326.948 67.9612C327.184 67.9612 327.387 67.8934 327.559 67.7577V68.859ZM329.456 61.5093C329.229 61.5093 329.033 61.4354 328.87 61.2878C328.71 61.1402 328.63 60.9526 328.63 60.7252C328.63 60.4978 328.71 60.3082 328.87 60.1566C329.033 60.005 329.229 59.9292 329.456 59.9292C329.692 59.9292 329.891 60.005 330.055 60.1566C330.218 60.3082 330.3 60.4978 330.3 60.7252C330.3 60.9407 330.218 61.1262 330.055 61.2818C329.891 61.4334 329.692 61.5093 329.456 61.5093ZM330.144 68.9248H328.756V62.7961H330.144V68.9248ZM337.153 66.2375H332.975C332.991 66.8041 333.165 67.241 333.496 67.5482C333.831 67.8555 334.29 68.0091 334.873 68.0091C335.527 68.0091 336.128 67.8136 336.674 67.4225V68.5418C336.116 68.8929 335.377 69.0684 334.46 69.0684C333.558 69.0684 332.85 68.7911 332.335 68.2365C331.824 67.6779 331.569 66.8939 331.569 65.8844C331.569 64.9307 331.85 64.1547 332.413 63.5562C332.979 62.9537 333.682 62.6524 334.52 62.6524C335.357 62.6524 336.006 62.9217 336.465 63.4604C336.924 63.9991 337.153 64.7472 337.153 65.7048V66.2375ZM335.812 65.2559C335.808 64.7572 335.691 64.3701 335.459 64.0948C335.228 63.8155 334.909 63.6759 334.502 63.6759C334.103 63.6759 333.763 63.8215 333.484 64.1128C333.209 64.4041 333.039 64.7851 332.975 65.2559H335.812ZM338.093 68.7333V67.4465C338.611 67.8415 339.184 68.039 339.81 68.039C340.648 68.039 341.067 67.7916 341.067 67.2969C341.067 67.1572 341.031 67.0395 340.96 66.9437C340.888 66.844 340.79 66.7562 340.666 66.6804C340.547 66.6046 340.403 66.5367 340.235 66.4769C340.072 66.417 339.888 66.3492 339.685 66.2734C339.433 66.1736 339.206 66.0679 339.002 65.9562C338.803 65.8445 338.635 65.7188 338.5 65.5791C338.368 65.4355 338.268 65.2739 338.2 65.0943C338.133 64.9148 338.099 64.7053 338.099 64.4659C338.099 64.1706 338.168 63.9113 338.308 63.6878C338.448 63.4604 338.635 63.2709 338.871 63.1192C339.106 62.9636 339.373 62.8479 339.673 62.7721C339.972 62.6923 340.281 62.6524 340.6 62.6524C341.167 62.6524 341.674 62.7382 342.121 62.9098V64.1247C341.69 63.8295 341.195 63.6818 340.636 63.6818C340.461 63.6818 340.301 63.6998 340.157 63.7357C340.018 63.7716 339.898 63.8215 339.798 63.8853C339.699 63.9492 339.621 64.027 339.565 64.1188C339.509 64.2065 339.481 64.3043 339.481 64.412C339.481 64.5437 339.509 64.6554 339.565 64.7472C339.621 64.839 339.703 64.9208 339.81 64.9926C339.922 65.0604 340.054 65.1243 340.205 65.1841C340.361 65.24 340.539 65.3018 340.738 65.3697C341.001 65.4774 341.237 65.5871 341.444 65.6988C341.656 65.8106 341.835 65.9382 341.983 66.0819C342.131 66.2215 342.244 66.3851 342.324 66.5727C342.404 66.7562 342.444 66.9757 342.444 67.231C342.444 67.5422 342.372 67.8136 342.228 68.045C342.085 68.2764 341.893 68.4679 341.654 68.6196C341.414 68.7712 341.137 68.8829 340.822 68.9547C340.511 69.0305 340.181 69.0684 339.834 69.0684C339.164 69.0684 338.583 68.9567 338.093 68.7333ZM344.341 69.0565C344.102 69.0565 343.898 68.9787 343.731 68.8231C343.563 68.6635 343.479 68.4739 343.479 68.2545C343.479 68.031 343.563 67.8395 343.731 67.6799C343.898 67.5203 344.102 67.4405 344.341 67.4405C344.584 67.4405 344.79 67.5203 344.958 67.6799C345.129 67.8395 345.215 68.031 345.215 68.2545C345.215 68.4739 345.129 68.6635 344.958 68.8231C344.79 68.9787 344.584 69.0565 344.341 69.0565Z" fill="white"/>
<path d="M40.0745 24.1719C41.3619 20.0821 45.1926 17.1152 49.718 17.1152C54.9581 17.1152 59.2667 21.0942 59.7737 26.1881L57.7576 25.7778M59.311 30.2205C58.6619 32.2687 57.3772 34.057 55.6433 35.3258C53.9093 36.5947 51.8162 37.2782 49.6676 37.2772C44.4275 37.2772 40.1189 33.2982 39.6118 28.2043L41.628 28.6146" stroke="white" stroke-width="1.48431" stroke-linecap="round" stroke-linejoin="round"/>
<path d="M46.671 28.7364V30.7445C46.6687 30.9063 46.7074 31.0661 46.7836 31.2089C46.8597 31.3517 46.9708 31.4729 47.1065 31.5611C47.9573 32.0934 48.6035 32.2496 49.6983 32.2829C50.7074 32.3101 51.3405 32.1518 52.282 31.5631C52.42 31.4742 52.5331 31.3517 52.6107 31.2071C52.6883 31.0625 52.7278 30.9006 52.7256 30.7365V28.7364M54.7448 26.2031V29.2425M44.7032 26.0307C45.0681 25.2605 47.3293 23.9197 49.3928 23.2574C49.5917 23.1942 49.806 23.1992 50.0017 23.2715C51.8264 23.9389 53.8567 24.95 54.5936 25.7696C54.9777 26.198 54.6017 26.7444 54.1369 27.0821C53.1924 27.7686 52.151 28.3019 50.0461 29.1114C49.8231 29.1969 49.5767 29.1986 49.3525 29.1165C47.1952 28.315 45.177 27.2817 44.7203 26.3714C44.692 26.3195 44.6758 26.262 44.6729 26.203C44.6699 26.144 44.6803 26.0851 44.7032 26.0307Z" stroke="white" stroke-width="1.48431" stroke-linecap="round" stroke-linejoin="round"/>
</svg>
