<svg width="346" height="104" viewBox="0 0 346 104" fill="none" xmlns="http://www.w3.org/2000/svg">
<mask id="mask0_500_652" style="mask-type:luminance" maskUnits="userSpaceOnUse" x="0" y="47" width="38" height="37">
<path d="M0 47.0952H37.3666V83.0462H0V47.0952Z" fill="white"/>
</mask>
<g mask="url(#mask0_500_652)">
<path d="M37.3143 82.6001H12.6003C5.63853 82.6001 0 76.3809 0 68.7022V47.7124H37.3143V82.6001Z" fill="#FF9D32"/>
</g>
<mask id="mask1_500_652" style="mask-type:luminance" maskUnits="userSpaceOnUse" x="14" y="0" width="332" height="104">
<path d="M14.0864 0H346V103.948H14.0864V0Z" fill="white"/>
</mask>
<g mask="url(#mask1_500_652)">
<path d="M327.191 103.931H33.2599C22.9082 103.931 14.4937 94.6502 14.4937 83.2324V20.7922C14.4937 9.37441 22.9082 0.0932617 33.2599 0.0932617H327.146C337.499 0.0932617 345.914 9.37441 345.914 20.7922V83.1848C345.957 94.6502 337.543 103.931 327.191 103.931Z" fill="#C07D14"/>
</g>
<path d="M33.3495 97.8097H33.2608C32.2036 97.8097 31.1464 97.6643 30.1778 97.421L29.9141 98.7326C31.0145 99.0235 32.1172 99.1689 33.2608 99.1689H33.3495V97.8097ZM39.8702 97.8097H36.6098V99.1689H39.8702V97.8097ZM46.3886 97.8097H43.1305V99.1689H46.3886V97.8097ZM52.9093 97.8097H49.6489V99.1689H52.9093V97.8097ZM59.4299 97.8097H56.1696V99.1689H59.4299V97.8097ZM65.9506 97.8097H62.6903V99.1689H65.9506V97.8097ZM72.4258 97.8097H69.1655V99.1689H72.4258V97.8097ZM78.9465 97.8097H75.6862V99.1689H78.9465V97.8097ZM85.4649 97.8097H82.2046V99.1689H85.4649V97.8097ZM91.9856 97.8097H88.7253V99.1689H91.9856V97.8097ZM98.5063 97.8097H95.246V99.1689H98.5063V97.8097ZM105.025 97.8097H101.767V99.1689H105.025V97.8097ZM111.502 97.8097H108.242V99.1689H111.502V97.8097ZM118.021 97.8097H114.763V99.1689H118.021V97.8097ZM124.541 97.8097H121.281V99.1689H124.541V97.8097ZM131.062 97.8097H127.802V99.1689H131.062V97.8097ZM137.583 97.8097H134.322V99.1689H137.583V97.8097ZM144.101 97.8097H140.841V99.1689H144.101V97.8097ZM150.579 97.8097H147.318V99.1689H150.579V97.8097ZM157.097 97.8097H153.839V99.1689H157.097V97.8097ZM163.618 97.8097H160.357V99.1689H163.618V97.8097ZM170.138 97.8097H166.878V99.1689H170.138V97.8097ZM176.657 97.8097H173.399V99.1689H176.657V97.8097ZM183.177 97.8097H179.917V99.1689H183.177V97.8097ZM189.655 97.8097H186.395V99.1689H189.655V97.8097ZM196.173 97.8097H192.913V99.1689H196.173V97.8097ZM202.694 97.8097H199.434V99.1689H202.694V97.8097ZM209.215 97.8097H205.954V99.1689H209.215V97.8097ZM215.733 97.8097H212.473V99.1689H215.733V97.8097ZM222.254 97.8097H218.993V99.1689H222.254V97.8097ZM228.729 97.8097H225.471V99.1689H228.729V97.8097ZM235.25 97.8097H231.989V99.1689H235.25V97.8097ZM241.77 97.8097H238.51V99.1689H241.77V97.8097ZM248.289 97.8097H245.031V99.1689H248.289V97.8097ZM254.809 97.8097H251.549V99.1689H254.809V97.8097ZM261.33 97.8097H258.07V99.1689H261.33V97.8097ZM267.805 97.8097H264.545V99.1689H267.805V97.8097ZM274.326 97.8097H271.066V99.1689H274.326V97.8097ZM280.847 97.8097H277.586V99.1689H280.847V97.8097ZM287.365 97.8097H284.107V99.1689H287.365V97.8097ZM293.886 97.8097H290.625V99.1689H293.886V97.8097ZM300.406 97.8097H297.146V99.1689H300.406V97.8097ZM306.882 97.8097H303.621V99.1689H306.882V97.8097ZM313.402 97.8097H310.142V99.1689H313.402V97.8097ZM319.923 97.8097H316.663V99.1689H319.923V97.8097ZM326.441 97.8097H323.181V99.1689H326.441V97.8097ZM332.521 96.596C331.596 97.0323 330.584 97.3734 329.57 97.6141L329.791 98.9282C330.936 98.685 331.994 98.3439 333.051 97.8097L332.521 96.596ZM337.455 92.4658C336.795 93.3384 336.045 94.166 335.208 94.8456L335.959 95.9139C336.839 95.1365 337.675 94.2613 338.38 93.3384L337.455 92.4658ZM340.142 86.3418C339.922 87.4603 339.569 88.5762 339.13 89.5969L340.231 90.1812C340.715 89.0627 341.113 87.8966 341.331 86.6327L340.142 86.3418ZM340.451 79.2976V82.8912H341.684V79.2976H340.451ZM340.451 72.153V75.7491H341.684V72.153H340.451ZM340.451 64.9608V68.5569H341.684V64.9608H340.451ZM340.451 57.7711V61.3672H341.684V57.7711H340.451ZM340.451 50.5789V54.175H341.684V50.5789H340.451ZM340.451 43.3867V46.9828H341.684V43.3867H340.451ZM340.451 36.197V39.7931H341.684V36.197H340.451ZM340.451 29.0525V32.6486H341.684V29.0525H340.451ZM340.451 21.8628V25.4564H341.684V21.8628H340.451ZM339.394 15.1069C339.79 16.1276 340.099 17.246 340.274 18.4121L341.465 18.1689C341.288 16.905 340.936 15.6912 340.495 14.5728L339.394 15.1069ZM335.738 9.61747C336.529 10.3447 337.234 11.1723 337.853 12.0951L338.821 11.2701C338.16 10.2494 337.368 9.32657 336.486 8.54666L335.738 9.61747ZM330.232 6.55551C331.243 6.79877 332.214 7.23511 333.137 7.72161L333.71 6.50787C332.698 5.97372 331.641 5.53486 330.539 5.24396L330.232 6.55551ZM323.886 6.16681H327.146V4.80762H323.886V6.16681ZM317.368 6.16681H320.628V4.80762H317.368V6.16681ZM310.847 6.16681H314.107V4.80762H310.847V6.16681ZM304.326 6.16681H307.587V4.80762H304.326V6.16681ZM297.808 6.16681H301.066V4.80762H297.808V6.16681ZM291.33 6.16681H294.591V4.80762H291.33V6.16681ZM284.812 6.16681H288.07V4.80762H284.812V6.16681ZM278.291 6.16681H281.552V4.80762H278.291V6.16681ZM271.771 6.16681H275.031V4.80762H271.771V6.16681ZM265.25 6.16681H268.51V4.80762H265.25V6.16681ZM258.731 6.16681H261.992V4.80762H258.731V6.16681ZM252.254 6.16681H255.514V4.80762H252.254V6.16681ZM245.736 6.16681H248.996V4.80762H245.736V6.16681ZM239.215 6.16681H242.475V4.80762H239.215V6.16681ZM232.694 6.16681H235.954V4.80762H232.694V6.16681ZM226.176 6.16681H229.434V4.80762H226.176V6.16681ZM219.655 6.16681H222.915V4.80762H219.655V6.16681ZM213.18 6.16681H216.438V4.80762H213.18V6.16681ZM206.659 6.16681H209.92V4.80762H206.659V6.16681ZM200.138 6.16681H203.399V4.80762H200.138V6.16681ZM193.618 6.16681H196.878V4.80762H193.618V6.16681ZM187.099 6.16681H190.36V4.80762H187.099V6.16681ZM180.579 6.16681H183.839V4.80762H180.579V6.16681ZM174.103 6.16681H177.364V4.80762H174.103V6.16681ZM167.583 6.16681H170.843V4.80762H167.583V6.16681ZM161.062 6.16681H164.322V4.80762H161.062V6.16681ZM154.544 6.16681H157.802V4.80762H154.544V6.16681ZM148.023 6.16681H151.283V4.80762H148.023V6.16681ZM141.502 6.16681H144.763V4.80762H141.502V6.16681ZM134.982 6.16681H138.242V4.80762H134.982V6.16681ZM128.506 6.16681H131.767V4.80762H128.506V6.16681ZM121.986 6.16681H125.246V4.80762H121.986V6.16681ZM115.467 6.16681H118.728V4.80762H115.467V6.16681ZM108.947 6.16681H112.207V4.80762H108.947V6.16681ZM102.426 6.16681H105.686V4.80762H102.426V6.16681ZM95.9076 6.16681H99.1656V4.80762H95.9076V6.16681ZM89.4301 6.16681H92.6904V4.80762H89.4301V6.16681ZM82.9117 6.16681H86.1697V4.80762H82.9117V6.16681ZM76.391 6.16681H79.6513V4.80762H76.391V6.16681ZM69.8703 6.16681H73.1306V4.80762H69.8703V6.16681ZM63.3496 6.16681H66.61V4.80762H63.3496V6.16681ZM56.8312 6.16681H60.0916V4.80762H56.8312V6.16681ZM50.3537 6.16681H53.6141V4.80762H50.3537V6.16681ZM43.8353 6.16681H47.0934V4.80762H43.8353V6.16681ZM37.3146 6.16681H40.575V4.80762H37.3146V6.16681ZM30.9258 6.41006C31.6761 6.26462 32.4696 6.16681 33.3063 6.16681H34.0975V4.80762H33.3063C32.4241 4.80762 31.5874 4.90291 30.7507 5.04836L30.9258 6.41006ZM25.2873 9.13096C26.124 8.45137 27.0061 7.86706 27.9747 7.38056L27.4904 6.16681C26.4332 6.65332 25.4646 7.33291 24.5825 8.06267L25.2873 9.13096ZM21.3676 14.3797C21.8064 13.359 22.3794 12.386 23.041 11.5108L22.1156 10.6381C21.4108 11.6086 20.7947 12.6293 20.2649 13.7954L21.3676 14.3797ZM20.0012 21.0352V20.792C20.0012 19.7237 20.0898 18.6554 20.3104 17.6347L19.119 17.3438C18.9007 18.4598 18.7666 19.6259 18.7666 20.792V21.0352H20.0012ZM20.0012 28.2274V24.6313H18.7666V28.2274H20.0012ZM20.0012 35.4196V31.8235H18.7666V35.4196H20.0012ZM20.0012 42.6093V39.0132H18.7666V42.6093H20.0012ZM20.0012 49.7539V46.1578H18.7666V49.7539H20.0012ZM20.0012 56.9436V53.35H18.7666V56.9436H20.0012ZM20.0012 64.1358V60.5397H18.7666V64.1358H20.0012ZM20.0012 71.328V67.7319H18.7666V71.328H20.0012ZM20.0012 78.5202V74.9241H18.7666V78.5202H20.0012ZM20.1785 85.5644C20.0444 84.787 20.0012 84.0096 20.0012 83.1846V82.0661H18.7666V83.1846C18.7666 84.0573 18.8121 84.9325 18.9439 85.76L20.1785 85.5644ZM22.5999 91.8338C21.9837 90.9084 21.454 89.9379 21.0584 88.8696L19.9125 89.4038C20.3536 90.5699 20.9265 91.6382 21.5881 92.6588L22.5999 91.8338ZM27.2699 96.2549C26.3445 95.7208 25.4646 95.0888 24.6711 94.3591L23.8777 95.3797C24.7598 96.2073 25.6852 96.8869 26.6969 97.4687L27.2699 96.2549Z" fill="white"/>
<mask id="mask2_500_652" style="mask-type:luminance" maskUnits="userSpaceOnUse" x="0" y="9" width="121" height="59">
<path d="M0 9.86133H120.599V67.6397H0V9.86133Z" fill="white"/>
</mask>
<g mask="url(#mask2_500_652)">
<path d="M112.602 10.2969H11.9841C5.37479 10.2969 0 16.2252 0 23.5127V67.0019C0 58.2574 6.43201 51.163 14.3623 51.163H112.602L120.092 30.7049L112.602 10.2969Z" fill="#FF6A00"/>
</g>
<mask id="mask3_500_652" style="mask-type:luminance" maskUnits="userSpaceOnUse" x="91" y="10" width="207" height="42">
<path d="M91.9707 10.3467H297.629V51.0699H91.9707V10.3467Z" fill="white"/>
</mask>
<g mask="url(#mask3_500_652)">
<mask id="mask4_500_652" style="mask-type:luminance" maskUnits="userSpaceOnUse" x="91" y="10" width="207" height="42">
<path d="M278.722 10.3467H91.9712V51.0699H278.722L297.609 30.707L278.722 10.3467Z" fill="white"/>
</mask>
<g mask="url(#mask4_500_652)">
<mask id="mask5_500_652" style="mask-type:luminance" maskUnits="userSpaceOnUse" x="91" y="9" width="208" height="43">
<path d="M298.121 9.86084H91.4966V51.5897H298.121V9.86084Z" fill="white"/>
</mask>
<g mask="url(#mask5_500_652)">
<mask id="mask6_500_652" style="mask-type:luminance" maskUnits="userSpaceOnUse" x="91" y="10" width="207" height="42">
<path d="M91.9717 10.3467H297.63V51.0699H91.9717V10.3467Z" fill="white"/>
</mask>
<g mask="url(#mask6_500_652)">
<mask id="mask7_500_652" style="mask-type:luminance" maskUnits="userSpaceOnUse" x="91" y="10" width="207" height="42">
<path d="M278.723 10.3467H91.9722V51.0699H278.723L297.61 30.707L278.723 10.3467Z" fill="white"/>
</mask>
<g mask="url(#mask7_500_652)">
<path d="M91.9722 10.3467H297.631V51.0699H91.9722V10.3467Z" fill="#FF6A00"/>
</g>
</g>
</g>
</g>
</g>
<path d="M86.7134 35.6184C85.9421 36.0183 84.9828 36.2183 83.8354 36.2183C82.3501 36.2183 81.1598 35.7493 80.2648 34.8114C79.3698 33.8736 78.9223 32.6429 78.9223 31.1194C78.9223 29.4817 79.4245 28.1582 80.4291 27.1489C81.4384 26.1396 82.7119 25.6349 84.2496 25.6349C85.2399 25.6349 86.0611 25.7754 86.7134 26.0563V27.7416C86.023 27.3322 85.2613 27.1274 84.4282 27.1274C83.3189 27.1274 82.4191 27.4821 81.7288 28.1915C81.0432 28.9009 80.7004 29.8483 80.7004 31.0337C80.7004 32.162 81.0218 33.0618 81.6645 33.7331C82.3072 34.3996 83.1523 34.7329 84.1996 34.7329C85.1661 34.7329 86.004 34.5044 86.7134 34.0473V35.6184ZM91.7123 36.2183C90.5839 36.2183 89.6818 35.8779 89.0057 35.1971C88.3344 34.5115 87.9988 33.6046 87.9988 32.4762C87.9988 31.2479 88.3487 30.2886 89.0486 29.5983C89.7532 28.908 90.7006 28.5628 91.8908 28.5628C93.0334 28.5628 93.9237 28.8985 94.5616 29.5698C95.1996 30.241 95.5185 31.1718 95.5185 32.362C95.5185 33.5284 95.1734 34.4639 94.4831 35.1685C93.7975 35.8683 92.8739 36.2183 91.7123 36.2183ZM91.7908 29.884C91.1433 29.884 90.6315 30.1101 90.2554 30.5624C89.8793 31.0147 89.6913 31.6383 89.6913 32.4334C89.6913 33.1999 89.8817 33.8045 90.2626 34.2473C90.6434 34.6853 91.1529 34.9043 91.7908 34.9043C92.443 34.9043 92.9429 34.6877 93.2905 34.2544C93.6428 33.8212 93.8189 33.2047 93.8189 32.4048C93.8189 31.6002 93.6428 30.979 93.2905 30.541C92.9429 30.103 92.443 29.884 91.7908 29.884ZM108.144 36.0469H106.488V32.0621C106.488 31.2956 106.378 30.7409 106.159 30.3981C105.945 30.0554 105.581 29.884 105.066 29.884C104.633 29.884 104.264 30.1006 103.96 30.5338C103.66 30.9671 103.51 31.486 103.51 32.0906V36.0469H101.846V31.9264C101.846 30.5648 101.365 29.884 100.403 29.884C99.9556 29.884 99.5867 30.0887 99.2963 30.4981C99.0106 30.9075 98.8678 31.4384 98.8678 32.0906V36.0469H97.211V28.7342H98.8678V29.8911H98.8964C99.4248 29.0056 100.194 28.5628 101.203 28.5628C101.708 28.5628 102.148 28.7033 102.524 28.9842C102.905 29.2603 103.164 29.6245 103.303 30.0768C103.845 29.0675 104.655 28.5628 105.731 28.5628C107.34 28.5628 108.144 29.5555 108.144 31.5407V36.0469ZM121.099 36.0469H119.442V32.0621C119.442 31.2956 119.332 30.7409 119.113 30.3981C118.899 30.0554 118.535 29.884 118.021 29.884C117.587 29.884 117.218 30.1006 116.914 30.5338C116.614 30.9671 116.464 31.486 116.464 32.0906V36.0469H114.8V31.9264C114.8 30.5648 114.319 29.884 113.357 29.884C112.91 29.884 112.541 30.0887 112.251 30.4981C111.965 30.9075 111.822 31.4384 111.822 32.0906V36.0469H110.165V28.7342H111.822V29.8911H111.851C112.379 29.0056 113.148 28.5628 114.157 28.5628C114.662 28.5628 115.102 28.7033 115.478 28.9842C115.859 29.2603 116.119 29.6245 116.257 30.0768C116.8 29.0675 117.609 28.5628 118.685 28.5628C120.294 28.5628 121.099 29.5555 121.099 31.5407V36.0469ZM129.497 36.0469H127.84V34.89H127.811C127.33 35.7755 126.583 36.2183 125.569 36.2183C123.841 36.2183 122.977 35.1804 122.977 33.1047V28.7342H124.633V32.9333C124.633 34.2473 125.14 34.9043 126.155 34.9043C126.645 34.9043 127.047 34.7234 127.361 34.3615C127.68 33.9997 127.84 33.526 127.84 32.9404V28.7342H129.497V36.0469ZM138.173 36.0469H136.517V31.9264C136.517 30.56 136.033 29.8768 135.067 29.8768C134.562 29.8768 134.146 30.0673 133.817 30.4481C133.489 30.8242 133.324 31.3003 133.324 31.8764V36.0469H131.66V28.7342H133.324V29.9482H133.353C133.9 29.0246 134.691 28.5628 135.724 28.5628C136.519 28.5628 137.126 28.8223 137.545 29.3412C137.964 29.8554 138.173 30.6005 138.173 31.5764V36.0469ZM141.037 27.1989C140.766 27.1989 140.532 27.1108 140.337 26.9346C140.147 26.7585 140.051 26.5347 140.051 26.2633C140.051 25.992 140.147 25.7658 140.337 25.5849C140.532 25.404 140.766 25.3136 141.037 25.3136C141.318 25.3136 141.556 25.404 141.751 25.5849C141.946 25.7658 142.044 25.992 142.044 26.2633C142.044 26.5204 141.946 26.7418 141.751 26.9275C141.556 27.1084 141.318 27.1989 141.037 27.1989ZM141.858 36.0469H140.201V28.7342H141.858V36.0469ZM147.885 35.9683C147.562 36.1302 147.136 36.2111 146.607 36.2111C145.188 36.2111 144.479 35.5303 144.479 34.1687V30.0339H143.258V28.7342H144.479V27.0417L146.136 26.5704V28.7342H147.885V30.0339H146.136V33.6903C146.136 34.1235 146.214 34.433 146.371 34.6186C146.529 34.8043 146.79 34.8971 147.157 34.8971C147.438 34.8971 147.681 34.8162 147.885 34.6543V35.9683ZM155.648 28.7342L152.349 37.218C151.663 38.732 150.701 39.489 149.464 39.489C149.116 39.489 148.826 39.458 148.592 39.3961V38.0179C148.854 38.1036 149.092 38.1464 149.307 38.1464C149.925 38.1464 150.387 37.8417 150.692 37.2323L151.185 36.0326L148.278 28.7342H150.113L151.856 34.0473C151.875 34.114 151.918 34.2901 151.984 34.5758H152.02C152.044 34.4663 152.087 34.2949 152.149 34.0616L153.977 28.7342H155.648ZM160.604 32.6619H156.705V31.4408H160.604V32.6619ZM162.825 36.0469V25.8063H165.781C169.557 25.8063 171.444 27.4702 171.444 30.798C171.444 32.3786 170.921 33.6498 169.873 34.6115C168.826 35.5684 167.422 36.0469 165.66 36.0469H162.825ZM164.517 27.2488V34.6115H165.874C167.069 34.6115 167.998 34.283 168.659 33.626C169.326 32.969 169.659 32.0406 169.659 30.8409C169.659 28.4462 168.419 27.2488 165.939 27.2488H164.517ZM177.379 30.3124C177.179 30.1553 176.891 30.0768 176.515 30.0768C176.024 30.0768 175.615 30.2982 175.286 30.7409C174.958 31.1837 174.794 31.7859 174.794 32.5477V36.0469H173.137V28.7342H174.794V30.241H174.822C174.984 29.7269 175.232 29.3269 175.565 29.0413C175.903 28.7509 176.279 28.6057 176.693 28.6057C176.993 28.6057 177.222 28.6509 177.379 28.7414V30.3124ZM179.386 27.1989C179.114 27.1989 178.881 27.1108 178.686 26.9346C178.495 26.7585 178.4 26.5347 178.4 26.2633C178.4 25.992 178.495 25.7658 178.686 25.5849C178.881 25.404 179.114 25.3136 179.386 25.3136C179.666 25.3136 179.904 25.404 180.1 25.5849C180.295 25.7658 180.392 25.992 180.392 26.2633C180.392 26.5204 180.295 26.7418 180.1 26.9275C179.904 27.1084 179.666 27.1989 179.386 27.1989ZM180.207 36.0469H178.55V28.7342H180.207V36.0469ZM188.676 28.7342L185.848 36.0469H184.056L181.364 28.7342H183.163L184.784 33.8474C184.908 34.2235 184.984 34.552 185.013 34.8329H185.034C185.077 34.4806 185.144 34.1616 185.234 33.8759L186.934 28.7342H188.676ZM195.882 32.8404H190.897C190.916 33.5165 191.123 34.0378 191.519 34.4044C191.918 34.771 192.466 34.9543 193.161 34.9543C193.942 34.9543 194.658 34.721 195.311 34.2544V35.5898C194.644 36.0088 193.763 36.2183 192.668 36.2183C191.592 36.2183 190.747 35.8874 190.133 35.2256C189.524 34.5591 189.219 33.6236 189.219 32.4191C189.219 31.2813 189.555 30.3553 190.226 29.6412C190.902 28.9223 191.74 28.5628 192.74 28.5628C193.739 28.5628 194.513 28.8842 195.061 29.5269C195.608 30.1696 195.882 31.0623 195.882 32.2049V32.8404ZM194.282 31.6693C194.277 31.0742 194.137 30.6124 193.861 30.2839C193.585 29.9506 193.204 29.784 192.718 29.784C192.242 29.784 191.837 29.9578 191.504 30.3053C191.176 30.6528 190.973 31.1075 190.897 31.6693H194.282ZM203.973 36.0469H202.316V31.9264C202.316 30.56 201.833 29.8768 200.866 29.8768C200.362 29.8768 199.945 30.0673 199.617 30.4481C199.288 30.8242 199.124 31.3003 199.124 31.8764V36.0469H197.46V28.7342H199.124V29.9482H199.153C199.7 29.0246 200.49 28.5628 201.523 28.5628C202.318 28.5628 202.925 28.8223 203.344 29.3412C203.763 29.8554 203.973 30.6005 203.973 31.5764V36.0469ZM218.205 35.347C217.139 35.9279 215.951 36.2183 214.642 36.2183C213.128 36.2183 211.902 35.7469 210.964 34.8043C210.026 33.8616 209.557 32.6143 209.557 31.0623C209.557 29.4769 210.069 28.1772 211.093 27.1631C212.121 26.1443 213.426 25.6349 215.006 25.6349C216.144 25.6349 217.101 25.8015 217.877 26.1348V27.8844C217.091 27.3607 216.156 27.0989 215.07 27.0989C213.98 27.0989 213.085 27.4583 212.385 28.1772C211.69 28.8961 211.343 29.8268 211.343 30.9694C211.343 32.1454 211.643 33.0713 212.242 33.7474C212.842 34.4187 213.656 34.7543 214.685 34.7543C215.389 34.7543 215.999 34.6186 216.513 34.3473V31.9121H214.356V30.4838H218.205V35.347ZM224.468 30.3124C224.268 30.1553 223.98 30.0768 223.604 30.0768C223.114 30.0768 222.704 30.2982 222.376 30.7409C222.047 31.1837 221.883 31.7859 221.883 32.5477V36.0469H220.226V28.7342H221.883V30.241H221.912C222.074 29.7269 222.321 29.3269 222.654 29.0413C222.992 28.7509 223.369 28.6057 223.783 28.6057C224.083 28.6057 224.311 28.6509 224.468 28.7414V30.3124ZM228.753 36.2183C227.625 36.2183 226.723 35.8779 226.047 35.1971C225.375 34.5115 225.04 33.6046 225.04 32.4762C225.04 31.2479 225.39 30.2886 226.089 29.5983C226.794 28.908 227.741 28.5628 228.932 28.5628C230.074 28.5628 230.964 28.8985 231.602 29.5698C232.24 30.241 232.559 31.1718 232.559 32.362C232.559 33.5284 232.214 34.4639 231.524 35.1685C230.838 35.8683 229.915 36.2183 228.753 36.2183ZM228.832 29.884C228.184 29.884 227.672 30.1101 227.296 30.5624C226.92 31.0147 226.732 31.6383 226.732 32.4334C226.732 33.1999 226.923 33.8045 227.303 34.2473C227.684 34.6853 228.194 34.9043 228.832 34.9043C229.484 34.9043 229.984 34.6877 230.331 34.2544C230.684 33.8212 230.86 33.2047 230.86 32.4048C230.86 31.6002 230.684 30.979 230.331 30.541C229.984 30.103 229.484 29.884 228.832 29.884ZM244.085 28.7342L241.929 36.0469H240.193L238.865 31.0908C238.813 30.9004 238.779 30.6862 238.765 30.4481H238.737C238.727 30.61 238.684 30.8195 238.608 31.0766L237.165 36.0469H235.466L233.316 28.7342H235.03L236.358 34.0045C236.401 34.1616 236.43 34.3711 236.444 34.6329H236.494C236.508 34.433 236.547 34.2187 236.608 33.9902L238.087 28.7342H239.643L240.957 34.0259C241 34.1925 241.031 34.402 241.05 34.6543H241.1C241.11 34.4782 241.146 34.2687 241.207 34.0259L242.507 28.7342H244.085ZM249.177 35.9683C248.853 36.1302 248.427 36.2111 247.899 36.2111C246.48 36.2111 245.771 35.5303 245.771 34.1687V30.0339H244.55V28.7342H245.771V27.0417L247.427 26.5704V28.7342H249.177V30.0339H247.427V33.6903C247.427 34.1235 247.506 34.433 247.663 34.6186C247.82 34.8043 248.082 34.8971 248.449 34.8971C248.73 34.8971 248.972 34.8162 249.177 34.6543V35.9683ZM257.104 36.0469H255.447V32.0478C255.447 30.6005 254.964 29.8768 253.997 29.8768C253.512 29.8768 253.102 30.0863 252.769 30.5053C252.436 30.9242 252.269 31.4598 252.269 32.112V36.0469H250.605V25.2207H252.269V29.9482H252.298C252.85 29.0246 253.64 28.5628 254.669 28.5628C256.292 28.5628 257.104 29.5555 257.104 31.5407V36.0469Z" fill="white"/>
<path d="M42.757 71.6567H38.1512V63.3385H39.5318V70.4908H42.757V71.6567ZM48.8419 69.0522H44.793C44.8085 69.6014 44.9767 70.0248 45.2977 70.3226C45.6225 70.6203 46.0672 70.7692 46.6318 70.7692C47.2661 70.7692 47.8481 70.5797 48.3779 70.2008V71.2855C47.8365 71.6258 47.121 71.796 46.2316 71.796C45.3576 71.796 44.6712 71.5272 44.1724 70.9897C43.6774 70.4483 43.4299 69.6884 43.4299 68.71C43.4299 67.7857 43.7025 67.0336 44.2478 66.4535C44.7969 65.8696 45.4775 65.5776 46.2896 65.5776C47.1017 65.5776 47.7301 65.8386 48.1748 66.3607C48.6196 66.8828 48.8419 67.6079 48.8419 68.536V69.0522ZM47.5426 68.1009C47.5387 67.6175 47.4246 67.2424 47.2003 66.9756C46.976 66.7049 46.6667 66.5695 46.2722 66.5695C45.8855 66.5695 45.5568 66.7107 45.2861 66.993C45.0193 67.2753 44.8549 67.6446 44.793 68.1009H47.5426ZM54.6832 71.6567H53.3781V70.7286H53.3549C52.9449 71.4402 52.3436 71.796 51.5508 71.796C50.9669 71.796 50.5086 71.6374 50.1761 71.3203C49.8474 71.0032 49.683 70.5836 49.683 70.0615C49.683 68.9401 50.3288 68.2865 51.6204 68.1009L53.3839 67.8515C53.3839 67.0046 52.9817 66.5811 52.1773 66.5811C51.4696 66.5811 50.8316 66.8248 50.2631 67.312V66.1345C50.8896 65.7632 51.6127 65.5776 52.4325 65.5776C53.933 65.5776 54.6832 66.3162 54.6832 67.7935V71.6567ZM53.3839 68.739L52.1367 68.913C51.75 68.9633 51.458 69.058 51.2608 69.1972C51.0674 69.3326 50.9708 69.5724 50.9708 69.9165C50.9708 70.1679 51.0597 70.3748 51.2376 70.5372C51.4194 70.6958 51.661 70.775 51.9627 70.775C52.3726 70.775 52.711 70.6319 52.9778 70.3458C53.2485 70.0557 53.3839 69.6922 53.3839 69.2553V68.739ZM59.7762 66.9988C59.6138 66.8712 59.3798 66.8074 59.0743 66.8074C58.676 66.8074 58.3434 66.9872 58.0766 67.3468C57.8098 67.7065 57.6764 68.1957 57.6764 68.8144V71.6567H56.3306V65.7168H57.6764V66.9408H57.6996C57.8311 66.5231 58.0321 66.1983 58.3028 65.9663C58.5774 65.7304 58.8829 65.6124 59.2194 65.6124C59.463 65.6124 59.6486 65.6492 59.7762 65.7226V66.9988ZM66.0178 71.6567H64.672V68.3097C64.672 67.1999 64.2795 66.6449 63.4945 66.6449C63.0845 66.6449 62.7462 66.7996 62.4793 67.109C62.2125 67.4145 62.0791 67.8012 62.0791 68.2691V71.6567H60.7275V65.7168H62.0791V66.7029H62.1023C62.547 65.9527 63.189 65.5776 64.0281 65.5776C64.6739 65.5776 65.167 65.7884 65.5073 66.2099C65.8476 66.6275 66.0178 67.2327 66.0178 68.0255V71.6567ZM68.9239 70.2704L68.0248 73.1649H67.0155L67.6536 70.2704H68.9239ZM73.4311 71.4711V70.224C73.9338 70.6068 74.4887 70.7982 75.0959 70.7982C75.9079 70.7982 76.314 70.5585 76.314 70.0789C76.314 69.9436 76.2792 69.8295 76.2096 69.7367C76.14 69.64 76.0452 69.555 75.9254 69.4815C75.8093 69.408 75.6701 69.3423 75.5077 69.2843C75.3491 69.2262 75.1713 69.1605 74.974 69.087C74.7304 68.9904 74.51 68.8879 74.3128 68.7796C74.1194 68.6713 73.957 68.5495 73.8255 68.4142C73.6979 68.2749 73.6012 68.1183 73.5355 67.9443C73.4697 67.7703 73.4369 67.5672 73.4369 67.3352C73.4369 67.0491 73.5045 66.7977 73.6399 66.5811C73.7752 66.3607 73.957 66.177 74.1851 66.0301C74.4133 65.8792 74.6724 65.7671 74.9624 65.6936C75.2525 65.6163 75.5522 65.5776 75.8615 65.5776C76.4107 65.5776 76.9018 65.6608 77.3349 65.827V67.0046C76.9173 66.7184 76.4377 66.5753 75.8963 66.5753C75.7262 66.5753 75.5715 66.5927 75.4323 66.6275C75.2969 66.6623 75.1809 66.7107 75.0842 66.7726C74.9876 66.8344 74.9122 66.9098 74.858 66.9988C74.8039 67.0839 74.7768 67.1786 74.7768 67.283C74.7768 67.4106 74.8039 67.5189 74.858 67.6079C74.9122 67.6968 74.9914 67.7761 75.0959 67.8457C75.2041 67.9114 75.3317 67.9733 75.4787 68.0313C75.6295 68.0854 75.8016 68.1454 75.995 68.2111C76.2502 68.3155 76.4783 68.4219 76.6794 68.5302C76.8844 68.6384 77.0584 68.7622 77.2015 68.9014C77.3446 69.0368 77.4548 69.1953 77.5321 69.3771C77.6095 69.555 77.6482 69.7676 77.6482 70.0151C77.6482 70.3168 77.5785 70.5797 77.4393 70.804C77.3001 71.0283 77.1145 71.214 76.8825 71.3609C76.6504 71.5079 76.3817 71.6161 76.0762 71.6857C75.7745 71.7592 75.4555 71.796 75.1191 71.796C74.4694 71.796 73.9067 71.6877 73.4311 71.4711ZM84.2087 71.6567H82.863V68.4083C82.863 67.2327 82.4705 66.6449 81.6854 66.6449C81.291 66.6449 80.9584 66.8151 80.6877 67.1554C80.417 67.4957 80.2817 67.9308 80.2817 68.4606V71.6567H78.9301V62.8629H80.2817V66.7029H80.3049C80.7535 65.9527 81.3954 65.5776 82.2307 65.5776C83.5494 65.5776 84.2087 66.3839 84.2087 67.9965V71.6567ZM90.4039 71.6567H89.0987V70.7286H89.0755C88.6656 71.4402 88.0643 71.796 87.2715 71.796C86.6876 71.796 86.2293 71.6374 85.8967 71.3203C85.568 71.0032 85.4037 70.5836 85.4037 70.0615C85.4037 68.9401 86.0495 68.2865 87.3411 68.1009L89.1045 67.8515C89.1045 67.0046 88.7023 66.5811 87.898 66.5811C87.1903 66.5811 86.5522 66.8248 85.9838 67.312V66.1345C86.6102 65.7632 87.3334 65.5776 88.1532 65.5776C89.6537 65.5776 90.4039 66.3162 90.4039 67.7935V71.6567ZM89.1045 68.739L87.8574 68.913C87.4707 68.9633 87.1787 69.058 86.9815 69.1972C86.7881 69.3326 86.6914 69.5724 86.6914 69.9165C86.6914 70.1679 86.7804 70.3748 86.9583 70.5372C87.14 70.6958 87.3817 70.775 87.6834 70.775C88.0933 70.775 88.4316 70.6319 88.6985 70.3458C88.9692 70.0557 89.1045 69.6922 89.1045 69.2553V68.739ZM95.4969 66.9988C95.3345 66.8712 95.1005 66.8074 94.795 66.8074C94.3967 66.8074 94.0641 66.9872 93.7973 67.3468C93.5305 67.7065 93.397 68.1957 93.397 68.8144V71.6567H92.0513V65.7168H93.397V66.9408H93.4202C93.5517 66.5231 93.7528 66.1983 94.0235 65.9663C94.2981 65.7304 94.6036 65.6124 94.94 65.6124C95.1837 65.6124 95.3693 65.6492 95.4969 65.7226V66.9988ZM101.373 69.0522H97.3241C97.3396 69.6014 97.5078 70.0248 97.8288 70.3226C98.1536 70.6203 98.5983 70.7692 99.1629 70.7692C99.7971 70.7692 100.379 70.5797 100.909 70.2008V71.2855C100.368 71.6258 99.6521 71.796 98.7627 71.796C97.8887 71.796 97.2023 71.5272 96.7034 70.9897C96.2084 70.4483 95.9609 69.6884 95.9609 68.71C95.9609 67.7857 96.2336 67.0336 96.7788 66.4535C97.328 65.8696 98.0086 65.5776 98.8207 65.5776C99.6328 65.5776 100.261 65.8386 100.706 66.3607C101.151 66.8828 101.373 67.6079 101.373 68.536V69.0522ZM100.074 68.1009C100.07 67.6175 99.9557 67.2424 99.7314 66.9756C99.5071 66.7049 99.1977 66.5695 98.8033 66.5695C98.4166 66.5695 98.0879 66.7107 97.8172 66.993C97.5503 67.2753 97.386 67.6446 97.3241 68.1009H100.074ZM103.914 70.2704L103.015 73.1649H102.005L102.643 70.2704H103.914ZM113.351 71.6567H112.046V70.7286H112.023C111.613 71.4402 111.012 71.796 110.219 71.796C109.635 71.796 109.177 71.6374 108.844 71.3203C108.516 71.0032 108.351 70.5836 108.351 70.0615C108.351 68.9401 108.997 68.2865 110.289 68.1009L112.052 67.8515C112.052 67.0046 111.65 66.5811 110.846 66.5811C110.138 66.5811 109.5 66.8248 108.931 67.312V66.1345C109.558 65.7632 110.281 65.5776 111.101 65.5776C112.601 65.5776 113.351 66.3162 113.351 67.7935V71.6567ZM112.052 68.739L110.805 68.913C110.418 68.9633 110.126 69.058 109.929 69.1972C109.736 69.3326 109.639 69.5724 109.639 69.9165C109.639 70.1679 109.728 70.3748 109.906 70.5372C110.088 70.6958 110.329 70.775 110.631 70.775C111.041 70.775 111.379 70.6319 111.646 70.3458C111.917 70.0557 112.052 69.6922 112.052 69.2553V68.739ZM120.289 71.6567H118.943V68.3097C118.943 67.1999 118.551 66.6449 117.766 66.6449C117.356 66.6449 117.017 66.7996 116.751 67.109C116.484 67.4145 116.35 67.8012 116.35 68.2691V71.6567H114.999V65.7168H116.35V66.7029H116.374C116.818 65.9527 117.46 65.5776 118.299 65.5776C118.945 65.5776 119.438 65.7884 119.779 66.2099C120.119 66.6275 120.289 67.2327 120.289 68.0255V71.6567ZM127.337 71.6567H125.991V70.6474H125.968C125.535 71.4131 124.868 71.796 123.967 71.796C123.236 71.796 122.65 71.5311 122.209 71.0013C121.772 70.4676 121.554 69.7425 121.554 68.826C121.554 67.8437 121.795 67.0568 122.279 66.4651C122.766 65.8734 123.414 65.5776 124.222 65.5776C125.022 65.5776 125.604 65.8986 125.968 66.5405H125.991V62.8629H127.337V71.6567ZM126.009 68.942V68.1647C126.009 67.7432 125.871 67.3855 125.597 67.0916C125.322 66.7977 124.972 66.6507 124.547 66.6507C124.044 66.6507 123.648 66.8383 123.358 67.2134C123.071 67.5885 122.928 68.1086 122.928 68.7738C122.928 69.3771 123.066 69.8547 123.34 70.2066C123.619 70.5546 123.992 70.7286 124.46 70.7286C124.92 70.7286 125.293 70.5604 125.579 70.224C125.865 69.8837 126.009 69.4563 126.009 68.942ZM137.772 71.1811C137.772 73.3621 136.676 74.4527 134.483 74.4527C133.71 74.4527 133.035 74.3231 132.459 74.064V72.8343C133.109 73.2055 133.725 73.3911 134.309 73.3911C135.721 73.3911 136.427 72.697 136.427 71.3087V70.659H136.403C135.959 71.417 135.29 71.796 134.396 71.796C133.673 71.796 133.089 71.533 132.645 71.0071C132.204 70.4773 131.983 69.7676 131.983 68.8782C131.983 67.8689 132.221 67.0665 132.697 66.4709C133.172 65.8754 133.826 65.5776 134.657 65.5776C135.442 65.5776 136.024 65.8986 136.403 66.5405H136.427V65.7168H137.772V71.1811ZM136.438 68.9362V68.1647C136.438 67.7471 136.299 67.3913 136.021 67.0974C135.746 66.7996 135.402 66.6507 134.988 66.6507C134.478 66.6507 134.077 66.8402 133.787 67.2192C133.501 67.5943 133.358 68.1202 133.358 68.797C133.358 69.3809 133.495 69.8489 133.77 70.2008C134.048 70.5488 134.416 70.7228 134.872 70.7228C135.336 70.7228 135.713 70.5565 136.003 70.224C136.293 69.8875 136.438 69.4583 136.438 68.9362ZM142.97 66.9988C142.807 66.8712 142.573 66.8074 142.268 66.8074C141.87 66.8074 141.537 66.9872 141.27 67.3468C141.003 67.7065 140.87 68.1957 140.87 68.8144V71.6567H139.524V65.7168H140.87V66.9408H140.893C141.025 66.5231 141.226 66.1983 141.496 65.9663C141.771 65.7304 142.076 65.6124 142.413 65.6124C142.657 65.6124 142.842 65.6492 142.97 65.7226V66.9988ZM146.45 71.796C145.534 71.796 144.801 71.5195 144.252 70.9665C143.706 70.4096 143.434 69.6729 143.434 68.7564C143.434 67.7587 143.718 66.9794 144.287 66.4187C144.859 65.858 145.628 65.5776 146.595 65.5776C147.523 65.5776 148.246 65.8502 148.765 66.3955C149.283 66.9408 149.542 67.6968 149.542 68.6636C149.542 69.611 149.262 70.3709 148.701 70.9433C148.144 71.5117 147.394 71.796 146.45 71.796ZM146.514 66.6507C145.988 66.6507 145.572 66.8344 145.267 67.2018C144.961 67.5692 144.809 68.0758 144.809 68.7216C144.809 69.3442 144.963 69.8353 145.273 70.195C145.582 70.5507 145.996 70.7286 146.514 70.7286C147.044 70.7286 147.45 70.5527 147.732 70.2008C148.018 69.8489 148.161 69.3481 148.161 68.6984C148.161 68.0448 148.018 67.5402 147.732 67.1844C147.45 66.8286 147.044 66.6507 146.514 66.6507ZM158.904 65.7168L157.152 71.6567H155.743L154.664 67.6311C154.621 67.4764 154.594 67.3024 154.583 67.109H154.56C154.552 67.2405 154.517 67.4106 154.455 67.6195L153.283 71.6567H151.903L150.157 65.7168H151.549L152.628 69.9977C152.663 70.1254 152.686 70.2955 152.698 70.5082H152.738C152.75 70.3458 152.781 70.1718 152.831 69.9861L154.032 65.7168H155.296L156.364 70.0151C156.398 70.1505 156.424 70.3206 156.439 70.5256H156.48C156.487 70.3825 156.516 70.2124 156.567 70.0151L157.622 65.7168H158.904ZM166.312 71.5929C166.049 71.7244 165.703 71.7902 165.273 71.7902C164.121 71.7902 163.545 71.2372 163.545 70.1312V66.7726H162.553V65.7168H163.545V64.3421L164.891 63.9592V65.7168H166.312V66.7726H164.891V69.7425C164.891 70.0944 164.954 70.3458 165.082 70.4966C165.21 70.6474 165.422 70.7228 165.72 70.7228C165.948 70.7228 166.145 70.6571 166.312 70.5256V71.5929ZM170.036 71.796C169.119 71.796 168.386 71.5195 167.837 70.9665C167.292 70.4096 167.019 69.6729 167.019 68.7564C167.019 67.7587 167.304 66.9794 167.872 66.4187C168.444 65.858 169.214 65.5776 170.181 65.5776C171.109 65.5776 171.832 65.8502 172.35 66.3955C172.868 66.9408 173.128 67.6968 173.128 68.6636C173.128 69.611 172.847 70.3709 172.286 70.9433C171.73 71.5117 170.979 71.796 170.036 71.796ZM170.1 66.6507C169.574 66.6507 169.158 66.8344 168.852 67.2018C168.547 67.5692 168.394 68.0758 168.394 68.7216C168.394 69.3442 168.549 69.8353 168.858 70.195C169.168 70.5507 169.581 70.7286 170.1 70.7286C170.629 70.7286 171.035 70.5527 171.318 70.2008C171.604 69.8489 171.747 69.3481 171.747 68.6984C171.747 68.0448 171.604 67.5402 171.318 67.1844C171.035 66.8286 170.629 66.6507 170.1 66.6507ZM179.909 71.1811C179.909 73.3621 178.812 74.4527 176.62 74.4527C175.846 74.4527 175.171 74.3231 174.595 74.064V72.8343C175.245 73.2055 175.862 73.3911 176.446 73.3911C177.857 73.3911 178.563 72.697 178.563 71.3087V70.659H178.54C178.095 71.417 177.426 71.796 176.533 71.796C175.809 71.796 175.225 71.533 174.781 71.0071C174.34 70.4773 174.119 69.7676 174.119 68.8782C174.119 67.8689 174.357 67.0665 174.833 66.4709C175.309 65.8754 175.962 65.5776 176.794 65.5776C177.579 65.5776 178.161 65.8986 178.54 66.5405H178.563V65.7168H179.909V71.1811ZM178.574 68.9362V68.1647C178.574 67.7471 178.435 67.3913 178.157 67.0974C177.882 66.7996 177.538 66.6507 177.124 66.6507C176.614 66.6507 176.214 66.8402 175.924 67.2192C175.637 67.5943 175.494 68.1202 175.494 68.797C175.494 69.3809 175.632 69.8489 175.906 70.2008C176.185 70.5488 176.552 70.7228 177.008 70.7228C177.472 70.7228 177.849 70.5565 178.139 70.224C178.429 69.8875 178.574 69.4583 178.574 68.9362ZM186.69 69.0522H182.641C182.656 69.6014 182.824 70.0248 183.145 70.3226C183.47 70.6203 183.915 70.7692 184.48 70.7692C185.114 70.7692 185.696 70.5797 186.226 70.2008V71.2855C185.684 71.6258 184.969 71.796 184.079 71.796C183.205 71.796 182.519 71.5272 182.02 70.9897C181.525 70.4483 181.278 69.6884 181.278 68.71C181.278 67.7857 181.55 67.0336 182.095 66.4535C182.645 65.8696 183.325 65.5776 184.137 65.5776C184.949 65.5776 185.578 65.8386 186.023 66.3607C186.467 66.8828 186.69 67.6079 186.69 68.536V69.0522ZM185.39 68.1009C185.386 67.6175 185.272 67.2424 185.048 66.9756C184.824 66.7049 184.514 66.5695 184.12 66.5695C183.733 66.5695 183.404 66.7107 183.134 66.993C182.867 67.2753 182.703 67.6446 182.641 68.1009H185.39ZM191.104 71.5929C190.841 71.7244 190.495 71.7902 190.066 71.7902C188.913 71.7902 188.337 71.2372 188.337 70.1312V66.7726H187.345V65.7168H188.337V64.3421L189.683 63.9592V65.7168H191.104V66.7726H189.683V69.7425C189.683 70.0944 189.747 70.3458 189.874 70.4966C190.002 70.6474 190.214 70.7228 190.512 70.7228C190.74 70.7228 190.938 70.6571 191.104 70.5256V71.5929ZM197.543 71.6567H196.197V68.4083C196.197 67.2327 195.804 66.6449 195.019 66.6449C194.625 66.6449 194.292 66.8151 194.022 67.1554C193.751 67.4957 193.616 67.9308 193.616 68.4606V71.6567H192.264V62.8629H193.616V66.7029H193.639C194.087 65.9527 194.729 65.5776 195.565 65.5776C196.883 65.5776 197.543 66.3839 197.543 67.9965V71.6567ZM204.208 69.0522H200.159C200.174 69.6014 200.342 70.0248 200.663 70.3226C200.988 70.6203 201.433 70.7692 201.998 70.7692C202.632 70.7692 203.214 70.5797 203.744 70.2008V71.2855C203.202 71.6258 202.487 71.796 201.597 71.796C200.723 71.796 200.037 71.5272 199.538 70.9897C199.043 70.4483 198.796 69.6884 198.796 68.71C198.796 67.7857 199.068 67.0336 199.614 66.4535C200.163 65.8696 200.843 65.5776 201.655 65.5776C202.467 65.5776 203.096 65.8386 203.541 66.3607C203.985 66.8828 204.208 67.6079 204.208 68.536V69.0522ZM202.908 68.1009C202.904 67.6175 202.79 67.2424 202.566 66.9756C202.342 66.7049 202.032 66.5695 201.638 66.5695C201.251 66.5695 200.923 66.7107 200.652 66.993C200.385 67.2753 200.221 67.6446 200.159 68.1009H202.908ZM208.935 66.9988C208.773 66.8712 208.539 66.8074 208.233 66.8074C207.835 66.8074 207.502 66.9872 207.236 67.3468C206.969 67.7065 206.835 68.1957 206.835 68.8144V71.6567H205.49V65.7168H206.835V66.9408H206.859C206.99 66.5231 207.191 66.1983 207.462 65.9663C207.736 65.7304 208.042 65.6124 208.378 65.6124C208.622 65.6124 208.808 65.6492 208.935 65.7226V66.9988ZM221.146 65.7168L219.394 71.6567H217.984L216.905 67.6311C216.863 67.4764 216.836 67.3024 216.824 67.109H216.801C216.793 67.2405 216.758 67.4106 216.697 67.6195L215.525 71.6567H214.144L212.398 65.7168H213.79L214.869 69.9977C214.904 70.1254 214.927 70.2955 214.939 70.5082H214.98C214.991 70.3458 215.022 70.1718 215.072 69.9861L216.273 65.7168H217.538L218.605 70.0151C218.64 70.1505 218.665 70.3206 218.68 70.5256H218.721C218.729 70.3825 218.758 70.2124 218.808 70.0151L219.864 65.7168H221.146ZM222.828 64.4697C222.607 64.4697 222.418 64.3981 222.259 64.2551C222.105 64.112 222.027 63.9302 222.027 63.7098C222.027 63.4894 222.105 63.3057 222.259 63.1587C222.418 63.0118 222.607 62.9383 222.828 62.9383C223.056 62.9383 223.249 63.0118 223.408 63.1587C223.567 63.3057 223.646 63.4894 223.646 63.7098C223.646 63.9186 223.567 64.0984 223.408 64.2493C223.249 64.3962 223.056 64.4697 222.828 64.4697ZM223.495 71.6567H222.149V65.7168H223.495V71.6567ZM228.391 71.5929C228.128 71.7244 227.782 71.7902 227.352 71.7902C226.2 71.7902 225.624 71.2372 225.624 70.1312V66.7726H224.632V65.7168H225.624V64.3421L226.97 63.9592V65.7168H228.391V66.7726H226.97V69.7425C226.97 70.0944 227.033 70.3458 227.161 70.4966C227.289 70.6474 227.501 70.7228 227.799 70.7228C228.027 70.7228 228.225 70.6571 228.391 70.5256V71.5929ZM234.83 71.6567H233.484V68.4083C233.484 67.2327 233.091 66.6449 232.306 66.6449C231.912 66.6449 231.579 66.8151 231.309 67.1554C231.038 67.4957 230.902 67.9308 230.902 68.4606V71.6567H229.551V62.8629H230.902V66.7029H230.926C231.374 65.9527 232.016 65.5776 232.852 65.5776C234.17 65.5776 234.83 66.3839 234.83 67.9965V71.6567ZM248.618 71.6567H247.272V68.42C247.272 67.7973 247.183 67.3468 247.005 67.0684C246.831 66.79 246.535 66.6507 246.118 66.6507C245.766 66.6507 245.466 66.8267 245.219 67.1786C244.975 67.5305 244.853 67.952 244.853 68.4432V71.6567H243.502V68.3097C243.502 67.2037 243.111 66.6507 242.33 66.6507C241.966 66.6507 241.667 66.817 241.431 67.1496C241.199 67.4822 241.083 67.9134 241.083 68.4432V71.6567H239.737V65.7168H241.083V66.6565H241.106C241.535 65.9373 242.16 65.5776 242.98 65.5776C243.389 65.5776 243.747 65.6917 244.053 65.9199C244.362 66.1441 244.573 66.44 244.685 66.8074C245.126 65.9875 245.783 65.5776 246.657 65.5776C247.964 65.5776 248.618 66.3839 248.618 67.9965V71.6567ZM252.893 71.796C251.976 71.796 251.244 71.5195 250.694 70.9665C250.149 70.4096 249.877 69.6729 249.877 68.7564C249.877 67.7587 250.161 66.9794 250.729 66.4187C251.302 65.858 252.071 65.5776 253.038 65.5776C253.966 65.5776 254.689 65.8502 255.207 66.3955C255.726 66.9408 255.985 67.6968 255.985 68.6636C255.985 69.611 255.704 70.3709 255.144 70.9433C254.587 71.5117 253.836 71.796 252.893 71.796ZM252.957 66.6507C252.431 66.6507 252.015 66.8344 251.71 67.2018C251.404 67.5692 251.251 68.0758 251.251 68.7216C251.251 69.3442 251.406 69.8353 251.715 70.195C252.025 70.5507 252.439 70.7286 252.957 70.7286C253.487 70.7286 253.893 70.5527 254.175 70.2008C254.461 69.8489 254.604 69.3481 254.604 68.6984C254.604 68.0448 254.461 67.5402 254.175 67.1844C253.893 66.8286 253.487 66.6507 252.957 66.6507ZM260.492 71.5929C260.229 71.7244 259.883 71.7902 259.454 71.7902C258.301 71.7902 257.725 71.2372 257.725 70.1312V66.7726H256.733V65.7168H257.725V64.3421L259.071 63.9592V65.7168H260.492V66.7726H259.071V69.7425C259.071 70.0944 259.134 70.3458 259.262 70.4966C259.39 70.6474 259.602 70.7228 259.9 70.7228C260.128 70.7228 260.326 70.6571 260.492 70.5256V71.5929ZM262.331 64.4697C262.11 64.4697 261.921 64.3981 261.762 64.2551C261.607 64.112 261.53 63.9302 261.53 63.7098C261.53 63.4894 261.607 63.3057 261.762 63.1587C261.921 63.0118 262.11 62.9383 262.331 62.9383C262.559 62.9383 262.752 63.0118 262.911 63.1587C263.069 63.3057 263.149 63.4894 263.149 63.7098C263.149 63.9186 263.069 64.0984 262.911 64.2493C262.752 64.3962 262.559 64.4697 262.331 64.4697ZM262.998 71.6567H261.652V65.7168H262.998V71.6567ZM269.877 65.7168L267.58 71.6567H266.124L263.937 65.7168H265.399L266.716 69.8701C266.817 70.1756 266.878 70.4425 266.902 70.6706H266.919C266.954 70.3845 267.008 70.1254 267.081 69.8933L268.462 65.7168H269.877ZM275.156 71.6567H273.851V70.7286H273.828C273.418 71.4402 272.816 71.796 272.024 71.796C271.44 71.796 270.981 71.6374 270.649 71.3203C270.32 71.0032 270.156 70.5836 270.156 70.0615C270.156 68.9401 270.802 68.2865 272.093 68.1009L273.857 67.8515C273.857 67.0046 273.454 66.5811 272.65 66.5811C271.942 66.5811 271.304 66.8248 270.736 67.312V66.1345C271.362 65.7632 272.085 65.5776 272.905 65.5776C274.406 65.5776 275.156 66.3162 275.156 67.7935V71.6567ZM273.857 68.739L272.609 68.913C272.223 68.9633 271.931 69.058 271.734 69.1972C271.54 69.3326 271.444 69.5724 271.444 69.9165C271.444 70.1679 271.532 70.3748 271.71 70.5372C271.892 70.6958 272.134 70.775 272.435 70.775C272.845 70.775 273.184 70.6319 273.451 70.3458C273.721 70.0557 273.857 69.6922 273.857 69.2553V68.739ZM279.936 71.5929C279.673 71.7244 279.327 71.7902 278.897 71.7902C277.745 71.7902 277.169 71.2372 277.169 70.1312V66.7726H276.177V65.7168H277.169V64.3421L278.515 63.9592V65.7168H279.936V66.7726H278.515V69.7425C278.515 70.0944 278.578 70.3458 278.706 70.4966C278.834 70.6474 279.046 70.7228 279.344 70.7228C279.572 70.7228 279.769 70.6571 279.936 70.5256V71.5929ZM286.055 69.0522H282.007C282.022 69.6014 282.19 70.0248 282.511 70.3226C282.836 70.6203 283.281 70.7692 283.845 70.7692C284.48 70.7692 285.062 70.5797 285.591 70.2008V71.2855C285.05 71.6258 284.335 71.796 283.445 71.796C282.571 71.796 281.885 71.5272 281.386 70.9897C280.891 70.4483 280.643 69.6884 280.643 68.71C280.643 67.7857 280.916 67.0336 281.461 66.4535C282.01 65.8696 282.691 65.5776 283.503 65.5776C284.315 65.5776 284.944 65.8386 285.388 66.3607C285.833 66.8828 286.055 67.6079 286.055 68.536V69.0522ZM284.756 68.1009C284.752 67.6175 284.638 67.2424 284.414 66.9756C284.19 66.7049 283.88 66.5695 283.486 66.5695C283.099 66.5695 282.77 66.7107 282.5 66.993C282.233 67.2753 282.068 67.6446 282.007 68.1009H284.756ZM292.738 71.6567H291.392V70.6474H291.369C290.936 71.4131 290.269 71.796 289.368 71.796C288.637 71.796 288.051 71.5311 287.61 71.0013C287.173 70.4676 286.955 69.7425 286.955 68.826C286.955 67.8437 287.196 67.0568 287.68 66.4651C288.167 65.8734 288.815 65.5776 289.623 65.5776C290.423 65.5776 291.005 65.8986 291.369 66.5405H291.392V62.8629H292.738V71.6567ZM291.41 68.942V68.1647C291.41 67.7432 291.272 67.3855 290.998 67.0916C290.723 66.7977 290.373 66.6507 289.948 66.6507C289.445 66.6507 289.049 66.8383 288.759 67.2134C288.472 67.5885 288.329 68.1086 288.329 68.7738C288.329 69.3771 288.467 69.8547 288.741 70.2066C289.02 70.5546 289.393 70.7286 289.861 70.7286C290.321 70.7286 290.694 70.5604 290.98 70.224C291.266 69.8837 291.41 69.4563 291.41 68.942ZM41.1328 87.5929C40.8698 87.7244 40.5237 87.7902 40.0945 87.7902C38.9421 87.7902 38.3659 87.2372 38.3659 86.1312V82.7726H37.3739V81.7168H38.3659V80.3421L39.7116 79.9592V81.7168H41.1328V82.7726H39.7116V85.7425C39.7116 86.0944 39.7754 86.3458 39.903 86.4966C40.0307 86.6474 40.2434 86.7228 40.5411 86.7228C40.7693 86.7228 40.9665 86.6571 41.1328 86.5256V87.5929ZM45.7385 82.9988C45.5761 82.8712 45.3422 82.8074 45.0367 82.8074C44.6383 82.8074 44.3058 82.9872 44.0389 83.3468C43.7721 83.7065 43.6387 84.1957 43.6387 84.8144V87.6567H42.2929V81.7168H43.6387V82.9408H43.6619C43.7934 82.5231 43.9945 82.1983 44.2652 81.9663C44.5397 81.7304 44.8452 81.6124 45.1817 81.6124C45.4253 81.6124 45.6109 81.6492 45.7385 81.7226V82.9988ZM51.2492 87.6567H49.944V86.7286H49.9208C49.5109 87.4402 48.9096 87.796 48.1168 87.796C47.5329 87.796 47.0746 87.6374 46.7421 87.3203C46.4134 87.0032 46.249 86.5836 46.249 86.0615C46.249 84.9401 46.8948 84.2865 48.1864 84.1009L49.9498 83.8515C49.9498 83.0046 49.5477 82.5811 48.7433 82.5811C48.0356 82.5811 47.3975 82.8248 46.8291 83.312V82.1345C47.4555 81.7632 48.1787 81.5776 48.9985 81.5776C50.499 81.5776 51.2492 82.3162 51.2492 83.7935V87.6567ZM49.9498 84.739L48.7027 84.913C48.316 84.9633 48.024 85.058 47.8268 85.1972C47.6334 85.3326 47.5368 85.5724 47.5368 85.9165C47.5368 86.1679 47.6257 86.3748 47.8036 86.5372C47.9853 86.6958 48.227 86.775 48.5287 86.775C48.9386 86.775 49.277 86.6319 49.5438 86.3458C49.8145 86.0557 49.9498 85.6922 49.9498 85.2553V84.739ZM58.297 87.6567H56.9513V86.6474H56.9281C56.495 87.4131 55.8279 87.796 54.9268 87.796C54.196 87.796 53.6101 87.5311 53.1692 87.0013C52.7322 86.4676 52.5138 85.7425 52.5138 84.826C52.5138 83.8437 52.7554 83.0568 53.2388 82.4651C53.7261 81.8734 54.3738 81.5776 55.1821 81.5776C55.9826 81.5776 56.5646 81.8986 56.9281 82.5405H56.9513V78.8629H58.297V87.6567ZM56.9687 84.942V84.1647C56.9687 83.7432 56.8314 83.3855 56.5568 83.0916C56.2823 82.7977 55.9323 82.6507 55.5069 82.6507C55.0042 82.6507 54.6078 82.8383 54.3178 83.2134C54.0316 83.5885 53.8885 84.1086 53.8885 84.7738C53.8885 85.3771 54.0258 85.8547 54.3004 86.2066C54.5788 86.5546 54.952 86.7286 55.4199 86.7286C55.8801 86.7286 56.2533 86.5604 56.5394 86.224C56.8256 85.8837 56.9687 85.4563 56.9687 84.942ZM65.0839 85.0522H61.035C61.0504 85.6014 61.2187 86.0248 61.5396 86.3226C61.8645 86.6203 62.3092 86.7692 62.8738 86.7692C63.508 86.7692 64.09 86.5797 64.6198 86.2008V87.2855C64.0784 87.6258 63.363 87.796 62.4735 87.796C61.5996 87.796 60.9132 87.5272 60.4143 86.9897C59.9193 86.4483 59.6718 85.6884 59.6718 84.71C59.6718 83.7857 59.9444 83.0336 60.4897 82.4535C61.0388 81.8696 61.7195 81.5776 62.5316 81.5776C63.3436 81.5776 63.9721 81.8386 64.4168 82.3607C64.8615 82.8828 65.0839 83.6079 65.0839 84.536V85.0522ZM63.7845 84.1009C63.7806 83.6175 63.6666 83.2424 63.4423 82.9756C63.218 82.7049 62.9086 82.5695 62.5141 82.5695C62.1274 82.5695 61.7987 82.7107 61.528 82.993C61.2612 83.2753 61.0968 83.6446 61.035 84.1009H63.7845ZM69.8114 82.9988C69.649 82.8712 69.415 82.8074 69.1095 82.8074C68.7112 82.8074 68.3786 82.9872 68.1118 83.3468C67.845 83.7065 67.7116 84.1957 67.7116 84.8144V87.6567H66.3658V81.7168H67.7116V82.9408H67.7348C67.8663 82.5231 68.0673 82.1983 68.338 81.9663C68.6126 81.7304 68.9181 81.6124 69.2546 81.6124C69.4982 81.6124 69.6838 81.6492 69.8114 81.7226V82.9988ZM70.4727 87.4711V86.224C70.9754 86.6068 71.5304 86.7982 72.1375 86.7982C72.9496 86.7982 73.3556 86.5585 73.3556 86.0789C73.3556 85.9436 73.3208 85.8295 73.2512 85.7367C73.1816 85.64 73.0869 85.555 72.967 85.4815C72.851 85.408 72.7118 85.3423 72.5493 85.2843C72.3908 85.2262 72.2129 85.1605 72.0157 85.087C71.7721 84.9904 71.5516 84.8879 71.3544 84.7796C71.161 84.6713 70.9986 84.5495 70.8671 84.4142C70.7395 84.2749 70.6429 84.1183 70.5771 83.9443C70.5114 83.7703 70.4785 83.5672 70.4785 83.3352C70.4785 83.0491 70.5462 82.7977 70.6815 82.5811C70.8169 82.3607 70.9986 82.177 71.2268 82.0301C71.455 81.8792 71.714 81.7671 72.0041 81.6936C72.2941 81.6163 72.5938 81.5776 72.9032 81.5776C73.4523 81.5776 73.9434 81.6608 74.3766 81.827V83.0046C73.9589 82.7184 73.4794 82.5753 72.938 82.5753C72.7678 82.5753 72.6132 82.5927 72.4739 82.6275C72.3386 82.6623 72.2226 82.7107 72.1259 82.7726C72.0292 82.8344 71.9538 82.9098 71.8997 82.9988C71.8455 83.0839 71.8185 83.1786 71.8185 83.283C71.8185 83.4106 71.8455 83.5189 71.8997 83.6079C71.9538 83.6968 72.0331 83.7761 72.1375 83.8457C72.2458 83.9114 72.3734 83.9733 72.5203 84.0313C72.6712 84.0854 72.8433 84.1454 73.0366 84.2111C73.2918 84.3155 73.52 84.4219 73.7211 84.5302C73.926 84.6384 74.1001 84.7622 74.2432 84.9014C74.3862 85.0368 74.4964 85.1953 74.5738 85.3771C74.6511 85.555 74.6898 85.7676 74.6898 86.0151C74.6898 86.3168 74.6202 86.5797 74.481 86.804C74.3418 87.0283 74.1561 87.214 73.9241 87.3609C73.6921 87.5079 73.4233 87.6161 73.1178 87.6857C72.8162 87.7592 72.4971 87.796 72.1607 87.796C71.511 87.796 70.9484 87.6877 70.4727 87.4711ZM76.5286 87.7844C76.2966 87.7844 76.0994 87.7089 75.937 87.5581C75.7745 87.4034 75.6933 87.2198 75.6933 87.0071C75.6933 86.7905 75.7745 86.6049 75.937 86.4502C76.0994 86.2955 76.2966 86.2182 76.5286 86.2182C76.7645 86.2182 76.9637 86.2955 77.1261 86.4502C77.2924 86.6049 77.3755 86.7905 77.3755 87.0071C77.3755 87.2198 77.2924 87.4034 77.1261 87.5581C76.9637 87.7089 76.7645 87.7844 76.5286 87.7844Z" fill="white"/>
<path d="M38.841 27.1395C40.0887 23.1757 43.8014 20.3003 48.1874 20.3003C53.266 20.3003 57.4418 24.1566 57.9333 29.0936L55.9792 28.696M57.4848 33.0017C56.8557 34.9869 55.6106 36.72 53.9301 37.9498C52.2495 39.1795 50.2209 39.8419 48.1385 39.841C43.0599 39.841 38.884 35.9846 38.3926 31.0477L40.3466 31.4453" stroke="white" stroke-width="1.43857" stroke-linecap="round" stroke-linejoin="round"/>
<path d="M45.2339 31.5638V33.51C45.2317 33.6669 45.2692 33.8217 45.343 33.9601C45.4168 34.0985 45.5245 34.2159 45.656 34.3014C46.4806 34.8173 47.1069 34.9687 48.1679 35.001C49.146 35.0274 49.7595 34.874 50.6721 34.3034C50.8058 34.2172 50.9154 34.0985 50.9906 33.9584C51.0658 33.8182 51.1041 33.6613 51.102 33.5022V31.5638M53.059 29.1085V32.0543M43.3267 28.9414C43.6804 28.195 45.8719 26.8955 47.8719 26.2536C48.0647 26.1924 48.2723 26.1972 48.462 26.2673C50.2305 26.9141 52.1982 27.894 52.9124 28.6884C53.2847 29.1036 52.9202 29.6332 52.4698 29.9605C51.5543 30.6258 50.5451 31.1427 48.505 31.9272C48.2889 32.0101 48.0501 32.0118 47.8328 31.9321C45.742 31.1554 43.7859 30.1539 43.3433 29.2717C43.316 29.2214 43.3002 29.1656 43.2974 29.1084C43.2945 29.0513 43.3045 28.9942 43.3267 28.9414Z" stroke="white" stroke-width="1.43857" stroke-linecap="round" stroke-linejoin="round"/>
</svg>
