<svg width="372" height="112" viewBox="0 0 372 112" fill="none" xmlns="http://www.w3.org/2000/svg">
<mask id="mask0_500_794" style="mask-type:luminance" maskUnits="userSpaceOnUse" x="0" y="50" width="41" height="40">
<path d="M0 50.6348H40.1745V89.2873H0V50.6348Z" fill="white"/>
</mask>
<g mask="url(#mask0_500_794)">
<path d="M40.1183 88.8077H13.5471C6.06223 88.8077 0 82.1211 0 73.8654V51.2983H40.1183V88.8077Z" fill="#FF9D32"/>
</g>
<mask id="mask1_500_794" style="mask-type:luminance" maskUnits="userSpaceOnUse" x="15" y="0" width="358" height="112">
<path d="M15.1455 0H372.001V111.76H15.1455V0Z" fill="white"/>
</mask>
<g mask="url(#mask1_500_794)">
<path d="M351.778 111.741H35.7595C24.6299 111.741 15.583 101.762 15.583 89.4867V22.3544C15.583 10.0787 24.6299 0.100098 35.7595 0.100098H351.729C362.861 0.100098 371.908 10.0787 371.908 22.3544V89.4355C371.954 101.762 362.907 111.741 351.778 111.741Z" fill="#C07D14"/>
</g>
<path d="M35.8554 105.16H35.7601C34.6234 105.16 33.4868 105.003 32.4454 104.742L32.1619 106.152C33.345 106.465 34.5306 106.621 35.7601 106.621H35.8554V105.16ZM42.8661 105.16H39.3608V106.621H42.8661V105.16ZM49.8744 105.16H46.3715V106.621H49.8744V105.16ZM56.885 105.16H53.3797V106.621H56.885V105.16ZM63.8957 105.16H60.3904V106.621H63.8957V105.16ZM70.9064 105.16H67.4011V106.621H70.9064V105.16ZM77.8682 105.16H74.3628V106.621H77.8682V105.16ZM84.8789 105.16H81.3735V106.621H84.8789V105.16ZM91.8871 105.16H88.3818V106.621H91.8871V105.16ZM98.8978 105.16H95.3924V106.621H98.8978V105.16ZM105.908 105.16H102.403V106.621H105.908V105.16ZM112.917 105.16H109.414V106.621H112.917V105.16ZM119.881 105.16H116.376V106.621H119.881V105.16ZM126.889 105.16H123.386V106.621H126.889V105.16ZM133.9 105.16H130.394V106.621H133.9V105.16ZM140.911 105.16H137.405V106.621H140.911V105.16ZM147.921 105.16H144.416V106.621H147.921V105.16ZM154.929 105.16H151.424V106.621H154.929V105.16ZM161.894 105.16H158.388V106.621H161.894V105.16ZM168.902 105.16H165.399V106.621H168.902V105.16ZM175.913 105.16H172.407V106.621H175.913V105.16ZM182.923 105.16H179.418V106.621H182.923V105.16ZM189.931 105.16H186.429V106.621H189.931V105.16ZM196.942 105.16H193.437V106.621H196.942V105.16ZM203.906 105.16H200.401V106.621H203.906V105.16ZM210.915 105.16H207.409V106.621H210.915V105.16ZM217.925 105.16H214.42V106.621H217.925V105.16ZM224.936 105.16H221.431V106.621H224.936V105.16ZM231.944 105.16H228.439V106.621H231.944V105.16ZM238.955 105.16H235.45V106.621H238.955V105.16ZM245.917 105.16H242.414V106.621H245.917V105.16ZM252.927 105.16H249.422V106.621H252.927V105.16ZM259.938 105.16H256.433V106.621H259.938V105.16ZM266.946 105.16H263.443V106.621H266.946V105.16ZM273.957 105.16H270.452V106.621H273.957V105.16ZM280.968 105.16H277.462V106.621H280.968V105.16ZM287.929 105.16H284.424V106.621H287.929V105.16ZM294.94 105.16H291.435V106.621H294.94V105.16ZM301.951 105.16H298.445V106.621H301.951V105.16ZM308.959 105.16H305.456V106.621H308.959V105.16ZM315.97 105.16H312.464V106.621H315.97V105.16ZM322.98 105.16H319.475V106.621H322.98V105.16ZM329.942 105.16H326.437V106.621H329.942V105.16ZM336.953 105.16H333.447V106.621H336.953V105.16ZM343.964 105.16H340.458V106.621H343.964V105.16ZM350.972 105.16H347.466V106.621H350.972V105.16ZM357.508 103.855C356.513 104.324 355.426 104.691 354.335 104.949L354.572 106.362C355.804 106.101 356.941 105.734 358.078 105.16L357.508 103.855ZM362.813 99.4141C362.104 100.352 361.297 101.242 360.398 101.973L361.204 103.121C362.15 102.286 363.05 101.345 363.808 100.352L362.813 99.4141ZM365.702 92.83C365.465 94.0325 365.086 95.2323 364.614 96.3297L365.797 96.9579C366.318 95.7554 366.746 94.5017 366.98 93.1428L365.702 92.83ZM366.034 85.2564V89.1201H367.359V85.2564H366.034ZM366.034 77.575V81.4413H367.359V77.575H366.034ZM366.034 69.8423V73.7087H367.359V69.8423H366.034ZM366.034 62.1124V65.9787H367.359V62.1124H366.034ZM366.034 54.3797V58.2461H367.359V54.3797H366.034ZM366.034 46.6471V50.5134H367.359V46.6471H366.034ZM366.034 38.9171V42.7834H367.359V38.9171H366.034ZM366.034 31.2357V35.102H367.359V31.2357H366.034ZM366.034 23.5057V27.3693H367.359V23.5057H366.034ZM364.898 16.2422C365.323 17.3395 365.656 18.542 365.844 19.7958L367.125 19.5342C366.934 18.1753 366.555 16.8704 366.081 15.6679L364.898 16.2422ZM360.967 10.3402C361.818 11.1221 362.576 12.0119 363.24 13.0041L364.282 12.117C363.57 11.0197 362.72 10.0275 361.771 9.18896L360.967 10.3402ZM355.047 7.04819C356.134 7.30972 357.178 7.77885 358.171 8.30191L358.787 6.99696C357.699 6.42267 356.562 5.95084 355.377 5.63808L355.047 7.04819ZM348.224 6.63028H351.73V5.16895H348.224V6.63028ZM341.216 6.63028H344.721V5.16895H341.216V6.63028ZM334.205 6.63028H337.711V5.16895H334.205V6.63028ZM327.195 6.63028H330.7V5.16895H327.195V6.63028ZM320.186 6.63028H323.689V5.16895H320.186V6.63028ZM313.222 6.63028H316.727V5.16895H313.222V6.63028ZM306.214 6.63028H309.717V5.16895H306.214V6.63028ZM299.203 6.63028H302.709V5.16895H299.203V6.63028ZM292.193 6.63028H295.698V5.16895H292.193V6.63028ZM285.182 6.63028H288.687V5.16895H285.182V6.63028ZM278.174 6.63028H281.679V5.16895H278.174V6.63028ZM271.209 6.63028H274.715V5.16895H271.209V6.63028ZM264.201 6.63028H267.706V5.16895H264.201V6.63028ZM257.19 6.63028H260.696V5.16895H257.19V6.63028ZM250.18 6.63028H253.685V5.16895H250.18V6.63028ZM243.172 6.63028H246.674V5.16895H243.172V6.63028ZM236.161 6.63028H239.666V5.16895H236.161V6.63028ZM229.199 6.63028H232.702V5.16895H229.199V6.63028ZM222.188 6.63028H225.694V5.16895H222.188V6.63028ZM215.178 6.63028H218.683V5.16895H215.178V6.63028ZM208.167 6.63028H211.672V5.16895H208.167V6.63028ZM201.159 6.63028H204.664V5.16895H201.159V6.63028ZM194.148 6.63028H197.653V5.16895H194.148V6.63028ZM187.186 6.63028H190.692V5.16895H187.186V6.63028ZM180.176 6.63028H183.681V5.16895H180.176V6.63028ZM173.165 6.63028H176.67V5.16895H173.165V6.63028ZM166.157 6.63028H169.66V5.16895H166.157V6.63028ZM159.146 6.63028H162.651V5.16895H159.146V6.63028ZM152.135 6.63028H155.641V5.16895H152.135V6.63028ZM145.125 6.63028H148.63V5.16895H145.125V6.63028ZM138.163 6.63028H141.668V5.16895H138.163V6.63028ZM131.152 6.63028H134.658V5.16895H131.152V6.63028ZM124.144 6.63028H127.649V5.16895H124.144V6.63028ZM117.133 6.63028H120.639V5.16895H117.133V6.63028ZM110.123 6.63028H113.628V5.16895H110.123V6.63028ZM103.114 6.63028H106.617V5.16895H103.114V6.63028ZM96.1502 6.63028H99.6556V5.16895H96.1502V6.63028ZM89.142 6.63028H92.6449V5.16895H89.142V6.63028ZM82.1313 6.63028H85.6366V5.16895H82.1313V6.63028ZM75.1206 6.63028H78.626V5.16895H75.1206V6.63028ZM68.1099 6.63028H71.6153V5.16895H68.1099V6.63028ZM61.1017 6.63028H64.6071V5.16895H61.1017V6.63028ZM54.1375 6.63028H57.6428V5.16895H54.1375V6.63028ZM47.1292 6.63028H50.6321V5.16895H47.1292V6.63028ZM40.1186 6.63028H43.6239V5.16895H40.1186V6.63028ZM33.2497 6.89181C34.0563 6.73543 34.9094 6.63028 35.809 6.63028H36.6597V5.16895H35.809C34.8606 5.16895 33.961 5.2714 33.0614 5.42778L33.2497 6.89181ZM27.1874 9.81717C28.087 9.0865 29.0354 8.45829 30.0768 7.93523L29.5561 6.63028C28.4194 7.15334 27.3781 7.884 26.4297 8.66859L27.1874 9.81717ZM22.9732 15.4603C23.445 14.3629 24.061 13.3168 24.7723 12.3758L23.7774 11.4376C23.0197 12.481 22.3572 13.5783 21.7876 14.8321L22.9732 15.4603ZM21.5041 22.616V22.3544C21.5041 21.2059 21.5994 20.0573 21.8365 18.9599L20.5556 18.6472C20.321 19.847 20.1768 21.1007 20.1768 22.3544V22.616H21.5041ZM21.5041 30.3486V26.4823H20.1768V30.3486H21.5041ZM21.5041 38.0813V34.215H20.1768V38.0813H21.5041ZM21.5041 45.8112V41.9449H20.1768V45.8112H21.5041ZM21.5041 53.4927V49.6263H20.1768V53.4927H21.5041ZM21.5041 61.2226V57.359H20.1768V61.2226H21.5041ZM21.5041 68.9553V65.089H20.1768V68.9553H21.5041ZM21.5041 76.688V72.8216H20.1768V76.688H21.5041ZM21.5041 84.4206V80.5543H20.1768V84.4206H21.5041ZM21.6948 91.9942C21.5505 91.1584 21.5041 90.3226 21.5041 89.4355V88.233H20.1768V89.4355C20.1768 90.3738 20.2256 91.3148 20.3674 92.2045L21.6948 91.9942ZM24.2981 98.7347C23.6357 97.7398 23.0661 96.6964 22.6408 95.5478L21.4088 96.1221C21.883 97.3758 22.499 98.5244 23.2103 99.6217L24.2981 98.7347ZM29.319 103.488C28.3241 102.914 27.3781 102.234 26.525 101.45L25.6719 102.547C26.6203 103.437 27.6152 104.167 28.703 104.793L29.319 103.488Z" fill="white"/>
<mask id="mask2_500_794" style="mask-type:luminance" maskUnits="userSpaceOnUse" x="0" y="10" width="130" height="63">
<path d="M0 10.6021H129.661V72.7222H0V10.6021Z" fill="white"/>
</mask>
<g mask="url(#mask2_500_794)">
<path d="M121.064 11.0708H12.8847C5.77868 11.0708 0 17.4446 0 25.2797V72.0369C0 62.6353 6.91534 55.0078 15.4416 55.0078H121.064L129.116 33.0124L121.064 11.0708Z" fill="#FF6A00"/>
</g>
<mask id="mask3_500_794" style="mask-type:luminance" maskUnits="userSpaceOnUse" x="98" y="11" width="222" height="44">
<path d="M98.8818 11.1245H319.994V54.9079H98.8818V11.1245Z" fill="white"/>
</mask>
<g mask="url(#mask3_500_794)">
<mask id="mask4_500_794" style="mask-type:luminance" maskUnits="userSpaceOnUse" x="98" y="11" width="222" height="44">
<path d="M299.667 11.1245H98.8828V54.9079H299.667L319.973 33.0148L299.667 11.1245Z" fill="white"/>
</mask>
<g mask="url(#mask4_500_794)">
<mask id="mask5_500_794" style="mask-type:luminance" maskUnits="userSpaceOnUse" x="98" y="10" width="223" height="46">
<path d="M320.524 10.6021H98.3721V55.4666H320.524V10.6021Z" fill="white"/>
</mask>
<g mask="url(#mask5_500_794)">
<mask id="mask6_500_794" style="mask-type:luminance" maskUnits="userSpaceOnUse" x="98" y="11" width="222" height="44">
<path d="M98.8833 11.1245H319.996V54.9079H98.8833V11.1245Z" fill="white"/>
</mask>
<g mask="url(#mask6_500_794)">
<mask id="mask7_500_794" style="mask-type:luminance" maskUnits="userSpaceOnUse" x="98" y="11" width="222" height="44">
<path d="M299.669 11.1245H98.8843V54.9079H299.669L319.975 33.0148L299.669 11.1245Z" fill="white"/>
</mask>
<g mask="url(#mask7_500_794)">
<path d="M98.8843 11.1245H319.997V54.9079H98.8843V11.1245Z" fill="#FF6A00"/>
</g>
</g>
</g>
</g>
</g>
<path d="M111.557 39.3521H105.461V28.342H107.288V37.8088H111.557V39.3521ZM113.853 29.8391C113.561 29.8391 113.31 29.7445 113.101 29.5551C112.896 29.3657 112.793 29.1251 112.793 28.8333C112.793 28.5416 112.896 28.2985 113.101 28.1039C113.31 27.9094 113.561 27.8122 113.853 27.8122C114.155 27.8122 114.411 27.9094 114.621 28.1039C114.831 28.2985 114.936 28.5416 114.936 28.8333C114.936 29.1097 114.831 29.3478 114.621 29.5474C114.411 29.7419 114.155 29.8391 113.853 29.8391ZM114.736 39.3521H112.955V31.4899H114.736V39.3521ZM123.842 31.4899L120.801 39.3521H118.874L115.98 31.4899H117.915L119.657 36.9873C119.791 37.3916 119.872 37.7448 119.903 38.0468H119.926C119.972 37.668 120.044 37.3251 120.141 37.018L121.968 31.4899H123.842ZM131.589 35.9047H126.23C126.25 36.6315 126.473 37.192 126.898 37.5861C127.328 37.9803 127.916 38.1773 128.664 38.1773C129.503 38.1773 130.273 37.9265 130.975 37.4249V38.8607C130.258 39.3111 129.311 39.5363 128.134 39.5363C126.977 39.5363 126.068 39.1806 125.408 38.4691C124.753 37.7525 124.425 36.7467 124.425 35.4517C124.425 34.2283 124.786 33.2328 125.508 32.465C126.235 31.6921 127.136 31.3056 128.211 31.3056C129.286 31.3056 130.117 31.6511 130.706 32.3421C131.295 33.0331 131.589 33.9929 131.589 35.2213V35.9047ZM129.869 34.6455C129.864 34.0057 129.713 33.5092 129.416 33.156C129.119 32.7977 128.71 32.6185 128.188 32.6185C127.676 32.6185 127.241 32.8054 126.882 33.179C126.529 33.5527 126.312 34.0415 126.23 34.6455H129.869ZM149.64 39.3521H147.828V32.227C147.828 31.6435 147.863 30.9294 147.935 30.0848H147.904C147.792 30.566 147.692 30.9115 147.605 31.1214L144.319 39.3521H143.06L139.766 31.1828C139.674 30.9422 139.576 30.5762 139.474 30.0848H139.443C139.484 30.525 139.505 31.2442 139.505 32.2423V39.3521H137.816V28.342H140.388L143.282 35.6743C143.502 36.2374 143.646 36.6571 143.712 36.9335H143.751C143.94 36.3551 144.094 35.9252 144.211 35.6436L147.16 28.342H149.64V39.3521ZM158.193 39.3521H156.465V38.1236H156.435C155.892 39.0654 155.096 39.5363 154.047 39.5363C153.274 39.5363 152.667 39.3265 152.227 38.9067C151.792 38.487 151.574 37.9316 151.574 37.2406C151.574 35.7562 152.429 34.8912 154.139 34.6455L156.473 34.3154C156.473 33.1944 155.941 32.6339 154.876 32.6339C153.939 32.6339 153.095 32.9564 152.342 33.6013V32.0427C153.171 31.5513 154.129 31.3056 155.214 31.3056C157.2 31.3056 158.193 32.2833 158.193 34.2386V39.3521ZM156.473 35.4901L154.822 35.7204C154.31 35.787 153.924 35.9124 153.663 36.0966C153.407 36.2758 153.279 36.5931 153.279 37.0487C153.279 37.3814 153.397 37.6552 153.632 37.8702C153.873 38.0801 154.193 38.185 154.592 38.185C155.134 38.185 155.582 37.9956 155.935 37.6168C156.294 37.233 156.473 36.7518 156.473 36.1734V35.4901ZM164.934 33.1867C164.719 33.0178 164.409 32.9333 164.005 32.9333C163.478 32.9333 163.038 33.1714 162.684 33.6474C162.331 34.1234 162.155 34.7709 162.155 35.5899V39.3521H160.373V31.4899H162.155V33.1099H162.185C162.359 32.5571 162.625 32.1272 162.984 31.82C163.347 31.5078 163.752 31.3517 164.197 31.3517C164.519 31.3517 164.765 31.4003 164.934 31.4976V33.1867ZM173.326 39.3521H171.069L168.013 35.5745H167.982V39.3521H166.193V27.7124H167.982V35.0908H168.013L170.9 31.4899H173.042L169.794 35.2828L173.326 39.3521ZM180.835 35.9047H175.476C175.496 36.6315 175.719 37.192 176.144 37.5861C176.574 37.9803 177.162 38.1773 177.91 38.1773C178.749 38.1773 179.519 37.9265 180.221 37.4249V38.8607C179.504 39.3111 178.557 39.5363 177.38 39.5363C176.223 39.5363 175.314 39.1806 174.654 38.4691C173.999 37.7525 173.671 36.7467 173.671 35.4517C173.671 34.2283 174.032 33.2328 174.754 32.465C175.481 31.6921 176.382 31.3056 177.457 31.3056C178.531 31.3056 179.363 31.6511 179.952 32.3421C180.541 33.0331 180.835 33.9929 180.835 35.2213V35.9047ZM179.115 34.6455C179.11 34.0057 178.959 33.5092 178.662 33.156C178.365 32.7977 177.956 32.6185 177.434 32.6185C176.922 32.6185 176.487 32.8054 176.128 33.179C175.775 33.5527 175.558 34.0415 175.476 34.6455H179.115ZM186.678 39.2676C186.33 39.4416 185.872 39.5286 185.303 39.5286C183.778 39.5286 183.015 38.7967 183.015 37.3328V32.8873H181.702V31.4899H183.015V29.6702L184.797 29.1635V31.4899H186.678V32.8873H184.797V36.8183C184.797 37.2841 184.881 37.6168 185.05 37.8165C185.219 38.0161 185.5 38.1159 185.895 38.1159C186.197 38.1159 186.458 38.0289 186.678 37.8549V39.2676ZM201.212 34.8989C201.212 37.9905 199.748 39.5363 196.82 39.5363C194.015 39.5363 192.613 38.0494 192.613 35.0755V28.342H194.44V34.6993C194.44 36.8593 195.28 37.9393 196.958 37.9393C198.576 37.9393 199.385 36.8977 199.385 34.8144V28.342H201.212V34.8989ZM205.412 38.1927H205.381V42.9683H203.6V31.4899H205.381V32.8719H205.412C206.021 31.8277 206.912 31.3056 208.084 31.3056C209.082 31.3056 209.86 31.6562 210.418 32.3575C210.976 33.0587 211.255 34.0006 211.255 35.183C211.255 36.4933 210.94 37.5426 210.31 38.3309C209.681 39.1192 208.821 39.5133 207.73 39.5133C206.727 39.5133 205.954 39.0731 205.412 38.1927ZM205.366 35.0908V36.0659C205.366 36.6392 205.547 37.1255 205.911 37.5247C206.279 37.924 206.745 38.1236 207.308 38.1236C207.969 38.1236 208.485 37.8677 208.859 37.3558C209.238 36.8388 209.427 36.1197 209.427 35.1983C209.427 34.4254 209.251 33.8214 208.898 33.3863C208.549 32.9461 208.076 32.726 207.477 32.726C206.842 32.726 206.331 32.9513 205.942 33.4017C205.558 33.8521 205.366 34.4152 205.366 35.0908ZM220.222 39.3521H218.441V38.0161H218.41C217.837 39.0296 216.954 39.5363 215.762 39.5363C214.794 39.5363 214.019 39.1857 213.435 38.4844C212.857 37.7781 212.568 36.8183 212.568 35.6052C212.568 34.3051 212.887 33.2635 213.527 32.4803C214.172 31.6972 215.03 31.3056 216.099 31.3056C217.159 31.3056 217.929 31.7305 218.41 32.5802H218.441V27.7124H220.222V39.3521ZM218.464 35.7588V34.73C218.464 34.172 218.282 33.6986 217.919 33.3096C217.556 32.9205 217.092 32.726 216.529 32.726C215.864 32.726 215.339 32.9743 214.955 33.4708C214.577 33.9673 214.387 34.6557 214.387 35.5361C214.387 36.3346 214.569 36.9668 214.932 37.4326C215.301 37.8933 215.795 38.1236 216.414 38.1236C217.023 38.1236 217.517 37.9009 217.896 37.4556C218.275 37.0052 218.464 36.4396 218.464 35.7588ZM228.584 39.3521H226.856V38.1236H226.825C226.283 39.0654 225.487 39.5363 224.438 39.5363C223.665 39.5363 223.058 39.3265 222.618 38.9067C222.183 38.487 221.965 37.9316 221.965 37.2406C221.965 35.7562 222.82 34.8912 224.53 34.6455L226.864 34.3154C226.864 33.1944 226.331 32.6339 225.267 32.6339C224.33 32.6339 223.486 32.9564 222.733 33.6013V32.0427C223.562 31.5513 224.519 31.3056 225.605 31.3056C227.591 31.3056 228.584 32.2833 228.584 34.2386V39.3521ZM226.864 35.4901L225.213 35.7204C224.701 35.787 224.315 35.9124 224.054 36.0966C223.798 36.2758 223.67 36.5931 223.67 37.0487C223.67 37.3814 223.788 37.6552 224.023 37.8702C224.264 38.0801 224.583 38.185 224.983 38.185C225.525 38.185 225.973 37.9956 226.326 37.6168C226.685 37.233 226.864 36.7518 226.864 36.1734V35.4901ZM234.91 39.2676C234.562 39.4416 234.104 39.5286 233.536 39.5286C232.011 39.5286 231.248 38.7967 231.248 37.3328V32.8873H229.935V31.4899H231.248V29.6702L233.029 29.1635V31.4899H234.91V32.8873H233.029V36.8183C233.029 37.2841 233.114 37.6168 233.283 37.8165C233.451 38.0161 233.733 38.1159 234.127 38.1159C234.429 38.1159 234.69 38.0289 234.91 37.8549V39.2676ZM243.01 35.9047H237.651C237.672 36.6315 237.894 37.192 238.319 37.5861C238.749 37.9803 239.338 38.1773 240.085 38.1773C240.925 38.1773 241.695 37.9265 242.396 37.4249V38.8607C241.68 39.3111 240.733 39.5363 239.555 39.5363C238.399 39.5363 237.49 39.1806 236.83 38.4691C236.174 37.7525 235.847 36.7467 235.847 35.4517C235.847 34.2283 236.208 33.2328 236.929 32.465C237.656 31.6921 238.557 31.3056 239.632 31.3056C240.707 31.3056 241.539 31.6511 242.127 32.3421C242.716 33.0331 243.01 33.9929 243.01 35.2213V35.9047ZM241.291 34.6455C241.285 34.0057 241.134 33.5092 240.838 33.156C240.541 32.7977 240.131 32.6185 239.609 32.6185C239.097 32.6185 238.662 32.8054 238.304 33.179C237.951 33.5527 237.733 34.0415 237.651 34.6455H241.291ZM244.216 39.1064V37.4556C244.881 37.9624 245.616 38.2157 246.419 38.2157C247.494 38.2157 248.032 37.8984 248.032 37.2637C248.032 37.0845 247.986 36.9335 247.894 36.8107C247.801 36.6827 247.676 36.5701 247.517 36.4728C247.364 36.3756 247.179 36.2886 246.964 36.2118C246.755 36.135 246.519 36.048 246.258 35.9507C245.936 35.8228 245.644 35.6871 245.383 35.5438C245.127 35.4005 244.912 35.2393 244.738 35.0601C244.569 34.8758 244.441 34.6685 244.354 34.4382C244.267 34.2079 244.223 33.9391 244.223 33.632C244.223 33.2532 244.313 32.9205 244.492 32.6339C244.671 32.3421 244.912 32.099 245.214 31.9045C245.516 31.7049 245.859 31.5564 246.243 31.4592C246.627 31.3568 247.023 31.3056 247.433 31.3056C248.16 31.3056 248.81 31.4157 249.383 31.6358V33.1944C248.83 32.8156 248.196 32.6262 247.479 32.6262C247.254 32.6262 247.049 32.6493 246.865 32.6953C246.686 32.7414 246.532 32.8054 246.404 32.8873C246.276 32.9692 246.176 33.069 246.105 33.1867C246.033 33.2993 245.997 33.4247 245.997 33.5629C245.997 33.7318 246.033 33.8752 246.105 33.9929C246.176 34.1106 246.281 34.2155 246.419 34.3077C246.563 34.3947 246.732 34.4766 246.926 34.5534C247.126 34.625 247.353 34.7044 247.609 34.7914C247.947 34.9296 248.249 35.0703 248.515 35.2137C248.787 35.357 249.017 35.5208 249.206 35.7051C249.396 35.8842 249.542 36.0941 249.644 36.3346C249.746 36.5701 249.798 36.8516 249.798 37.1792C249.798 37.5785 249.705 37.9265 249.521 38.2234C249.337 38.5203 249.091 38.766 248.784 38.9605C248.477 39.155 248.121 39.2983 247.717 39.3904C247.318 39.4877 246.895 39.5363 246.45 39.5363C245.59 39.5363 244.845 39.393 244.216 39.1064Z" fill="white"/>
<path d="M47.9967 75.6549C47.0653 76.1622 46.028 76.4158 44.8846 76.4158C43.5625 76.4158 42.4919 76.0042 41.6728 75.1809C40.8537 74.3577 40.4442 73.2684 40.4442 71.913C40.4442 70.5285 40.8911 69.3934 41.785 68.5078C42.6831 67.6181 43.8223 67.1732 45.2027 67.1732C46.1964 67.1732 47.0321 67.3187 47.7098 67.6097V69.1377C47.0238 68.6803 46.2068 68.4517 45.2588 68.4517C44.3067 68.4517 43.525 68.7656 42.9139 69.3934C42.3068 70.0212 42.0033 70.834 42.0033 71.8319C42.0033 72.8589 42.2653 73.6675 42.7891 74.2579C43.313 74.8442 44.024 75.1373 44.922 75.1373C45.5374 75.1373 46.0696 75.0188 46.5186 74.7818V72.6551H44.6352V71.4078H47.9967V75.6549ZM55.1687 73.4659H50.8156C50.8322 74.0563 51.0131 74.5116 51.3582 74.8317C51.7074 75.1518 52.1856 75.3119 52.7926 75.3119C53.4745 75.3119 54.1002 75.1082 54.6698 74.7007V75.867C54.0877 76.2329 53.3186 76.4158 52.3623 76.4158C51.4226 76.4158 50.6846 76.1268 50.1483 75.5489C49.6161 74.9668 49.35 74.1498 49.35 73.0979C49.35 72.1042 49.6431 71.2956 50.2294 70.6719C50.8198 70.0441 51.5515 69.7302 52.4246 69.7302C53.2978 69.7302 53.9734 70.0108 54.4515 70.5721C54.9297 71.1334 55.1687 71.913 55.1687 72.9108V73.4659ZM53.7718 72.4431C53.7676 71.9234 53.6449 71.5201 53.4038 71.2332C53.1626 70.9421 52.83 70.7966 52.4059 70.7966C51.9902 70.7966 51.6368 70.9484 51.3457 71.2519C51.0588 71.5554 50.8821 71.9525 50.8156 72.4431H53.7718ZM59.9148 76.1975C59.6321 76.3389 59.2599 76.4096 58.7984 76.4096C57.5594 76.4096 56.9399 75.815 56.9399 74.6259V71.0149H55.8735V69.8799H56.9399V68.4018L58.3868 67.9902V69.8799H59.9148V71.0149H58.3868V74.208C58.3868 74.5864 58.4554 74.8566 58.5926 75.0188C58.7298 75.1809 58.9585 75.262 59.2787 75.262C59.524 75.262 59.736 75.1913 59.9148 75.05V76.1975ZM72.1884 76.2661H70.5606L69.7561 73.9898H66.2387L65.4653 76.2661H63.8438L67.1929 67.3229H68.8643L72.1884 76.2661ZM69.3632 72.7799L68.1221 69.2125C68.0847 69.0961 68.0452 68.909 68.0036 68.6512H67.9787C67.9413 68.8882 67.8997 69.0753 67.854 69.2125L66.6254 72.7799H69.3632ZM77.8325 75.973C77.3211 76.2682 76.7161 76.4158 76.0176 76.4158C75.0697 76.4158 74.3047 76.1206 73.7226 75.5302C73.1405 74.9356 72.8495 74.1665 72.8495 73.2227C72.8495 72.1708 73.1613 71.3267 73.7849 70.6906C74.4128 70.0503 75.2505 69.7302 76.2983 69.7302C76.8804 69.7302 77.3939 69.832 77.8387 70.0358V71.3829C77.3939 71.0503 76.9199 70.8839 76.4168 70.8839C75.8056 70.8839 75.3046 71.0918 74.9138 71.5076C74.5229 71.9192 74.3275 72.4597 74.3275 73.1291C74.3275 73.7902 74.5105 74.312 74.8764 74.6945C75.2464 75.077 75.7412 75.2683 76.3607 75.2683C76.8804 75.2683 77.371 75.0832 77.8325 74.7132V75.973ZM83.8446 75.973C83.3332 76.2682 82.7282 76.4158 82.0297 76.4158C81.0818 76.4158 80.3167 76.1206 79.7347 75.5302C79.1526 74.9356 78.8615 74.1665 78.8615 73.2227C78.8615 72.1708 79.1734 71.3267 79.797 70.6906C80.4248 70.0503 81.2626 69.7302 82.3104 69.7302C82.8924 69.7302 83.4059 69.832 83.8508 70.0358V71.3829C83.4059 71.0503 82.9319 70.8839 82.4289 70.8839C81.8177 70.8839 81.3167 71.0918 80.9258 71.5076C80.535 71.9192 80.3396 72.4597 80.3396 73.1291C80.3396 73.7902 80.5225 74.312 80.8884 74.6945C81.2585 75.077 81.7532 75.2683 82.3727 75.2683C82.8924 75.2683 83.3831 75.0832 83.8446 74.7132V75.973ZM90.6923 73.4659H86.3392C86.3558 74.0563 86.5367 74.5116 86.8818 74.8317C87.231 75.1518 87.7092 75.3119 88.3162 75.3119C88.9981 75.3119 89.6238 75.1082 90.1934 74.7007V75.867C89.6113 76.2329 88.8421 76.4158 87.8859 76.4158C86.9462 76.4158 86.2082 76.1268 85.6719 75.5489C85.1397 74.9668 84.8736 74.1498 84.8736 73.0979C84.8736 72.1042 85.1667 71.2956 85.753 70.6719C86.3434 70.0441 87.0751 69.7302 87.9482 69.7302C88.8214 69.7302 89.497 70.0108 89.9751 70.5721C90.4533 71.1334 90.6923 71.913 90.6923 72.9108V73.4659ZM89.2953 72.4431C89.2912 71.9234 89.1685 71.5201 88.9274 71.2332C88.6862 70.9421 88.3536 70.7966 87.9295 70.7966C87.5138 70.7966 87.1603 70.9484 86.8693 71.2519C86.5824 71.5554 86.4057 71.9525 86.3392 72.4431H89.2953ZM91.6715 76.0665V74.7257C92.212 75.1373 92.8086 75.3431 93.4614 75.3431C94.3345 75.3431 94.7711 75.0853 94.7711 74.5698C94.7711 74.4242 94.7336 74.3016 94.6588 74.2018C94.584 74.0979 94.4821 74.0064 94.3532 73.9274C94.2285 73.8484 94.0788 73.7777 93.9042 73.7154C93.7337 73.653 93.5424 73.5823 93.3304 73.5033C93.0685 73.3994 92.8315 73.2892 92.6194 73.1728C92.4115 73.0564 92.2369 72.9254 92.0956 72.7799C91.9584 72.6302 91.8544 72.4618 91.7837 72.2747C91.7131 72.0876 91.6777 71.8693 91.6777 71.6199C91.6777 71.3122 91.7505 71.0419 91.896 70.8091C92.0415 70.5721 92.2369 70.3746 92.4822 70.2166C92.7275 70.0545 93.0061 69.9339 93.3179 69.8549C93.6298 69.7718 93.952 69.7302 94.2846 69.7302C94.875 69.7302 95.403 69.8196 95.8687 69.9983V71.2644C95.4197 70.9567 94.9041 70.8029 94.322 70.8029C94.1391 70.8029 93.9728 70.8216 93.8231 70.859C93.6776 70.8964 93.5528 70.9484 93.4489 71.0149C93.345 71.0814 93.2639 71.1625 93.2057 71.2581C93.1475 71.3496 93.1184 71.4515 93.1184 71.5637C93.1184 71.7009 93.1475 71.8174 93.2057 71.913C93.2639 72.0086 93.3491 72.0938 93.4614 72.1687C93.5778 72.2394 93.715 72.3059 93.873 72.3682C94.0351 72.4265 94.2202 72.4909 94.428 72.5616C94.7025 72.6738 94.9478 72.7882 95.164 72.9046C95.3843 73.021 95.5714 73.1541 95.7253 73.3037C95.8791 73.4493 95.9976 73.6197 96.0807 73.8151C96.1639 74.0064 96.2055 74.2351 96.2055 74.5012C96.2055 74.8255 96.1306 75.1082 95.981 75.3493C95.8313 75.5905 95.6317 75.7901 95.3822 75.948C95.1328 76.106 94.8438 76.2225 94.5154 76.2973C94.1911 76.3763 93.848 76.4158 93.4863 76.4158C92.7878 76.4158 92.1829 76.2994 91.6715 76.0665ZM97.1846 76.0665V74.7257C97.7251 75.1373 98.3217 75.3431 98.9745 75.3431C99.8476 75.3431 100.284 75.0853 100.284 74.5698C100.284 74.4242 100.247 74.3016 100.172 74.2018C100.097 74.0979 99.9952 74.0064 99.8663 73.9274C99.7416 73.8484 99.5919 73.7777 99.4173 73.7154C99.2468 73.653 99.0556 73.5823 98.8435 73.5033C98.5816 73.3994 98.3446 73.2892 98.1326 73.1728C97.9247 73.0564 97.7501 72.9254 97.6087 72.7799C97.4715 72.6302 97.3676 72.4618 97.2969 72.2747C97.2262 72.0876 97.1908 71.8693 97.1908 71.6199C97.1908 71.3122 97.2636 71.0419 97.4091 70.8091C97.5546 70.5721 97.7501 70.3746 97.9954 70.2166C98.2407 70.0545 98.5192 69.9339 98.8311 69.8549C99.1429 69.7718 99.4651 69.7302 99.7977 69.7302C100.388 69.7302 100.916 69.8196 101.382 69.9983V71.2644C100.933 70.9567 100.417 70.8029 99.8352 70.8029C99.6522 70.8029 99.4859 70.8216 99.3362 70.859C99.1907 70.8964 99.066 70.9484 98.962 71.0149C98.8581 71.0814 98.777 71.1625 98.7188 71.2581C98.6606 71.3496 98.6315 71.4515 98.6315 71.5637C98.6315 71.7009 98.6606 71.8174 98.7188 71.913C98.777 72.0086 98.8623 72.0938 98.9745 72.1687C99.0909 72.2394 99.2281 72.3059 99.3861 72.3682C99.5483 72.4265 99.7333 72.4909 99.9412 72.5616C100.216 72.6738 100.461 72.7882 100.677 72.9046C100.897 73.021 101.085 73.1541 101.238 73.3037C101.392 73.4493 101.511 73.6197 101.594 73.8151C101.677 74.0064 101.719 74.2351 101.719 74.5012C101.719 74.8255 101.644 75.1082 101.494 75.3493C101.344 75.5905 101.145 75.7901 100.895 75.948C100.646 76.106 100.357 76.2225 100.028 76.2973C99.7042 76.3763 99.3612 76.4158 98.9995 76.4158C98.301 76.4158 97.696 76.2994 97.1846 76.0665ZM109.982 76.1975C109.699 76.3389 109.327 76.4096 108.866 76.4096C107.627 76.4096 107.007 75.815 107.007 74.6259V71.0149H105.941V69.8799H107.007V68.4018L108.454 67.9902V69.8799H109.982V71.0149H108.454V74.208C108.454 74.5864 108.523 74.8566 108.66 75.0188C108.797 75.1809 109.026 75.262 109.346 75.262C109.591 75.262 109.803 75.1913 109.982 75.05V76.1975ZM113.986 76.4158C113.001 76.4158 112.213 76.1185 111.622 75.524C111.036 74.9252 110.743 74.1332 110.743 73.1478C110.743 72.0751 111.049 71.2373 111.66 70.6345C112.275 70.0316 113.102 69.7302 114.142 69.7302C115.14 69.7302 115.917 70.0233 116.474 70.6095C117.032 71.1958 117.31 72.0086 117.31 73.048C117.31 74.0667 117.009 74.8837 116.406 75.499C115.807 76.1102 115 76.4158 113.986 76.4158ZM114.055 70.8839C113.489 70.8839 113.042 71.0814 112.714 71.4764C112.385 71.8714 112.221 72.4161 112.221 73.1104C112.221 73.7798 112.387 74.3078 112.72 74.6945C113.053 75.077 113.497 75.2683 114.055 75.2683C114.624 75.2683 115.061 75.0791 115.364 74.7007C115.672 74.3224 115.826 73.784 115.826 73.0855C115.826 72.3828 115.672 71.8402 115.364 71.4577C115.061 71.0752 114.624 70.8839 114.055 70.8839ZM123.759 76.2661H122.306V66.8115H123.759V76.2661ZM126.378 68.539C126.141 68.539 125.937 68.4621 125.767 68.3082C125.601 68.1544 125.517 67.959 125.517 67.722C125.517 67.485 125.601 67.2875 125.767 67.1295C125.937 66.9715 126.141 66.8925 126.378 66.8925C126.623 66.8925 126.831 66.9715 127.002 67.1295C127.172 67.2875 127.257 67.485 127.257 67.722C127.257 67.9465 127.172 68.1398 127.002 68.302C126.831 68.46 126.623 68.539 126.378 68.539ZM127.095 76.2661H125.648V69.8799H127.095V76.2661ZM134.492 69.8799L132.022 76.2661H130.457L128.106 69.8799H129.677L131.093 74.3452C131.201 74.6737 131.268 74.9606 131.292 75.2059H131.311C131.349 74.8982 131.407 74.6197 131.486 74.3702L132.97 69.8799H134.492ZM140.785 73.4659H136.431C136.448 74.0563 136.629 74.5116 136.974 74.8317C137.323 75.1518 137.801 75.3119 138.408 75.3119C139.09 75.3119 139.716 75.1082 140.286 74.7007V75.867C139.704 76.2329 138.934 76.4158 137.978 76.4158C137.038 76.4158 136.3 76.1268 135.764 75.5489C135.232 74.9668 134.966 74.1498 134.966 73.0979C134.966 72.1042 135.259 71.2956 135.845 70.6719C136.436 70.0441 137.167 69.7302 138.04 69.7302C138.914 69.7302 139.589 70.0108 140.067 70.5721C140.546 71.1334 140.785 71.913 140.785 72.9108V73.4659ZM139.388 72.4431C139.383 71.9234 139.261 71.5201 139.02 71.2332C138.778 70.9421 138.446 70.7966 138.022 70.7966C137.606 70.7966 137.253 70.9484 136.962 71.2519C136.675 71.5554 136.498 71.9525 136.431 72.4431H139.388ZM155.228 76.2661H153.782V72.7861C153.782 72.1167 153.686 71.6323 153.495 71.333C153.308 71.0336 152.99 70.8839 152.541 70.8839C152.162 70.8839 151.84 71.0731 151.574 71.4515C151.312 71.8298 151.181 72.283 151.181 72.811V76.2661H149.728V72.6676C149.728 71.4785 149.308 70.8839 148.468 70.8839C148.077 70.8839 147.755 71.0627 147.501 71.4203C147.252 71.7779 147.127 72.2414 147.127 72.811V76.2661H145.68V69.8799H147.127V70.8902H147.152C147.614 70.1168 148.285 69.7302 149.167 69.7302C149.607 69.7302 149.992 69.8528 150.32 70.0981C150.653 70.3393 150.88 70.6573 151 71.0523C151.474 70.1709 152.181 69.7302 153.121 69.7302C154.526 69.7302 155.228 70.5971 155.228 72.3308V76.2661ZM161.895 76.2661H160.492V75.2683H160.467C160.027 76.0333 159.38 76.4158 158.528 76.4158C157.9 76.4158 157.407 76.2453 157.05 75.9044C156.696 75.5635 156.519 75.1123 156.519 74.5511C156.519 73.3453 157.214 72.6427 158.602 72.4431L160.498 72.1749C160.498 71.2644 160.066 70.8091 159.201 70.8091C158.44 70.8091 157.754 71.071 157.143 71.5949V70.3289C157.817 69.9297 158.594 69.7302 159.476 69.7302C161.089 69.7302 161.895 70.5243 161.895 72.1125V76.2661ZM160.498 73.1291L159.158 73.3162C158.742 73.3703 158.428 73.4721 158.216 73.6218C158.008 73.7673 157.904 74.0251 157.904 74.3951C157.904 74.6654 158 74.8878 158.191 75.0625C158.386 75.2329 158.646 75.3182 158.97 75.3182C159.411 75.3182 159.775 75.1643 160.062 74.8566C160.353 74.5448 160.498 74.154 160.498 73.6842V73.1291ZM167.371 71.2581C167.196 71.1209 166.945 71.0523 166.616 71.0523C166.188 71.0523 165.831 71.2457 165.544 71.6323C165.257 72.019 165.113 72.545 165.113 73.2102V76.2661H163.667V69.8799H165.113V71.1958H165.138C165.28 70.7467 165.496 70.3975 165.787 70.148C166.082 69.8944 166.411 69.7676 166.772 69.7676C167.034 69.7676 167.234 69.8071 167.371 69.8861V71.2581ZM174.188 76.2661H172.354L169.872 73.1977H169.847V76.2661H168.394V66.8115H169.847V72.8048H169.872L172.217 69.8799H173.957L171.319 72.9607L174.188 76.2661ZM180.287 73.4659H175.934C175.951 74.0563 176.131 74.5116 176.477 74.8317C176.826 75.1518 177.304 75.3119 177.911 75.3119C178.593 75.3119 179.219 75.1082 179.788 74.7007V75.867C179.206 76.2329 178.437 76.4158 177.481 76.4158C176.541 76.4158 175.803 76.1268 175.267 75.5489C174.734 74.9668 174.468 74.1498 174.468 73.0979C174.468 72.1042 174.761 71.2956 175.348 70.6719C175.938 70.0441 176.67 69.7302 177.543 69.7302C178.416 69.7302 179.092 70.0108 179.57 70.5721C180.048 71.1334 180.287 71.913 180.287 72.9108V73.4659ZM178.89 72.4431C178.886 71.9234 178.763 71.5201 178.522 71.2332C178.281 70.9421 177.948 70.7966 177.524 70.7966C177.109 70.7966 176.755 70.9484 176.464 71.2519C176.177 71.5554 176 71.9525 175.934 72.4431H178.89ZM185.033 76.1975C184.75 76.3389 184.378 76.4096 183.917 76.4096C182.678 76.4096 182.058 75.815 182.058 74.6259V71.0149H180.992V69.8799H182.058V68.4018L183.505 67.9902V69.8799H185.033V71.0149H183.505V74.208C183.505 74.5864 183.574 74.8566 183.711 75.0188C183.848 75.1809 184.077 75.262 184.397 75.262C184.642 75.262 184.854 75.1913 185.033 75.05V76.1975ZM194.7 76.2661H193.297V75.2683H193.272C192.831 76.0333 192.184 76.4158 191.332 76.4158C190.704 76.4158 190.212 76.2453 189.854 75.9044C189.501 75.5635 189.324 75.1123 189.324 74.5511C189.324 73.3453 190.018 72.6427 191.407 72.4431L193.303 72.1749C193.303 71.2644 192.87 70.8091 192.006 70.8091C191.245 70.8091 190.559 71.071 189.948 71.5949V70.3289C190.621 69.9297 191.399 69.7302 192.28 69.7302C193.893 69.7302 194.7 70.5243 194.7 72.1125V76.2661ZM193.303 73.1291L191.962 73.3162C191.546 73.3703 191.232 73.4721 191.02 73.6218C190.812 73.7673 190.708 74.0251 190.708 74.3951C190.708 74.6654 190.804 74.8878 190.995 75.0625C191.191 75.2329 191.451 75.3182 191.775 75.3182C192.216 75.3182 192.579 75.1643 192.866 74.8566C193.157 74.5448 193.303 74.154 193.303 73.6842V73.1291ZM202.159 76.2661H200.712V72.6676C200.712 71.4743 200.29 70.8777 199.446 70.8777C199.005 70.8777 198.641 71.044 198.354 71.3766C198.068 71.7051 197.924 72.1209 197.924 72.6239V76.2661H196.471V69.8799H197.924V70.9401H197.949C198.427 70.1335 199.117 69.7302 200.02 69.7302C200.714 69.7302 201.244 69.9568 201.61 70.41C201.976 70.859 202.159 71.5097 202.159 72.362V76.2661ZM208.832 76.2661H207.429V75.2683H207.404C206.963 76.0333 206.317 76.4158 205.464 76.4158C204.836 76.4158 204.344 76.2453 203.986 75.9044C203.633 75.5635 203.456 75.1123 203.456 74.5511C203.456 73.3453 204.15 72.6427 205.539 72.4431L207.435 72.1749C207.435 71.2644 207.003 70.8091 206.138 70.8091C205.377 70.8091 204.691 71.071 204.08 71.5949V70.3289C204.753 69.9297 205.531 69.7302 206.412 69.7302C208.025 69.7302 208.832 70.5243 208.832 72.1125V76.2661ZM207.435 73.1291L206.094 73.3162C205.678 73.3703 205.364 73.4721 205.152 73.6218C204.944 73.7673 204.841 74.0251 204.841 74.3951C204.841 74.6654 204.936 74.8878 205.127 75.0625C205.323 75.2329 205.583 75.3182 205.907 75.3182C206.348 75.3182 206.712 75.1643 206.998 74.8566C207.289 74.5448 207.435 74.154 207.435 73.6842V73.1291ZM212.056 76.2661H210.603V66.8115H212.056V76.2661ZM219.478 69.8799L216.596 77.2889C215.998 78.6111 215.158 79.2721 214.077 79.2721C213.773 79.2721 213.52 79.2451 213.316 79.1911V77.9874C213.545 78.0622 213.753 78.0997 213.94 78.0997C214.48 78.0997 214.884 77.8336 215.15 77.3014L215.58 76.2536L213.042 69.8799H214.644L216.166 74.5199C216.183 74.5781 216.22 74.7319 216.278 74.9814H216.31C216.33 74.8857 216.368 74.7361 216.422 74.5323L218.018 69.8799H219.478ZM220.045 76.0665V74.7257C220.586 75.1373 221.182 75.3431 221.835 75.3431C222.708 75.3431 223.145 75.0853 223.145 74.5698C223.145 74.4242 223.107 74.3016 223.033 74.2018C222.958 74.0979 222.856 74.0064 222.727 73.9274C222.602 73.8484 222.453 73.7777 222.278 73.7154C222.108 73.653 221.916 73.5823 221.704 73.5033C221.442 73.3994 221.205 73.2892 220.993 73.1728C220.785 73.0564 220.611 72.9254 220.469 72.7799C220.332 72.6302 220.228 72.4618 220.158 72.2747C220.087 72.0876 220.052 71.8693 220.052 71.6199C220.052 71.3122 220.124 71.0419 220.27 70.8091C220.415 70.5721 220.611 70.3746 220.856 70.2166C221.101 70.0545 221.38 69.9339 221.692 69.8549C222.004 69.7718 222.326 69.7302 222.658 69.7302C223.249 69.7302 223.777 69.8196 224.243 69.9983V71.2644C223.794 70.9567 223.278 70.8029 222.696 70.8029C222.513 70.8029 222.347 70.8216 222.197 70.859C222.051 70.8964 221.927 70.9484 221.823 71.0149C221.719 71.0814 221.638 71.1625 221.58 71.2581C221.521 71.3496 221.492 71.4515 221.492 71.5637C221.492 71.7009 221.521 71.8174 221.58 71.913C221.638 72.0086 221.723 72.0938 221.835 72.1687C221.952 72.2394 222.089 72.3059 222.247 72.3682C222.409 72.4265 222.594 72.4909 222.802 72.5616C223.076 72.6738 223.322 72.7882 223.538 72.9046C223.758 73.021 223.945 73.1541 224.099 73.3037C224.253 73.4493 224.371 73.6197 224.455 73.8151C224.538 74.0064 224.579 74.2351 224.579 74.5012C224.579 74.8255 224.504 75.1082 224.355 75.3493C224.205 75.5905 224.006 75.7901 223.756 75.948C223.507 76.106 223.218 76.2225 222.889 76.2973C222.565 76.3763 222.222 76.4158 221.86 76.4158C221.162 76.4158 220.557 76.2994 220.045 76.0665ZM226.687 68.539C226.45 68.539 226.247 68.4621 226.076 68.3082C225.91 68.1544 225.827 67.959 225.827 67.722C225.827 67.485 225.91 67.2875 226.076 67.1295C226.247 66.9715 226.45 66.8925 226.687 66.8925C226.933 66.8925 227.14 66.9715 227.311 67.1295C227.481 67.2875 227.567 67.485 227.567 67.722C227.567 67.9465 227.481 68.1398 227.311 68.302C227.14 68.46 226.933 68.539 226.687 68.539ZM227.404 76.2661H225.958V69.8799H227.404V76.2661ZM228.901 76.0665V74.7257C229.442 75.1373 230.038 75.3431 230.691 75.3431C231.564 75.3431 232.001 75.0853 232.001 74.5698C232.001 74.4242 231.963 74.3016 231.889 74.2018C231.814 74.0979 231.712 74.0064 231.583 73.9274C231.458 73.8484 231.309 73.7777 231.134 73.7154C230.964 73.653 230.772 73.5823 230.56 73.5033C230.298 73.3994 230.061 73.2892 229.849 73.1728C229.641 73.0564 229.467 72.9254 229.325 72.7799C229.188 72.6302 229.084 72.4618 229.014 72.2747C228.943 72.0876 228.908 71.8693 228.908 71.6199C228.908 71.3122 228.98 71.0419 229.126 70.8091C229.271 70.5721 229.467 70.3746 229.712 70.2166C229.957 70.0545 230.236 69.9339 230.548 69.8549C230.86 69.7718 231.182 69.7302 231.514 69.7302C232.105 69.7302 232.633 69.8196 233.098 69.9983V71.2644C232.649 70.9567 232.134 70.8029 231.552 70.8029C231.369 70.8029 231.203 70.8216 231.053 70.859C230.907 70.8964 230.783 70.9484 230.679 71.0149C230.575 71.0814 230.494 71.1625 230.435 71.2581C230.377 71.3496 230.348 71.4515 230.348 71.5637C230.348 71.7009 230.377 71.8174 230.435 71.913C230.494 72.0086 230.579 72.0938 230.691 72.1687C230.808 72.2394 230.945 72.3059 231.103 72.3682C231.265 72.4265 231.45 72.4909 231.658 72.5616C231.932 72.6738 232.178 72.7882 232.394 72.9046C232.614 73.021 232.801 73.1541 232.955 73.3037C233.109 73.4493 233.227 73.6197 233.311 73.8151C233.394 74.0064 233.435 74.2351 233.435 74.5012C233.435 74.8255 233.36 75.1082 233.211 75.3493C233.061 75.5905 232.862 75.7901 232.612 75.948C232.363 76.106 232.074 76.2225 231.745 76.2973C231.421 76.3763 231.078 76.4158 230.716 76.4158C230.018 76.4158 229.413 76.2994 228.901 76.0665ZM243.233 76.2661H241.83V75.2683H241.805C241.364 76.0333 240.718 76.4158 239.865 76.4158C239.237 76.4158 238.745 76.2453 238.387 75.9044C238.034 75.5635 237.857 75.1123 237.857 74.5511C237.857 73.3453 238.551 72.6427 239.94 72.4431L241.836 72.1749C241.836 71.2644 241.404 70.8091 240.539 70.8091C239.778 70.8091 239.092 71.071 238.481 71.5949V70.3289C239.154 69.9297 239.932 69.7302 240.813 69.7302C242.426 69.7302 243.233 70.5243 243.233 72.1125V76.2661ZM241.836 73.1291L240.495 73.3162C240.079 73.3703 239.765 73.4721 239.553 73.6218C239.345 73.7673 239.242 74.0251 239.242 74.3951C239.242 74.6654 239.337 74.8878 239.528 75.0625C239.724 75.2329 239.984 75.3182 240.308 75.3182C240.749 75.3182 241.112 75.1643 241.399 74.8566C241.69 74.5448 241.836 74.154 241.836 73.6842V73.1291ZM250.692 76.2661H249.245V72.6676C249.245 71.4743 248.823 70.8777 247.979 70.8777C247.538 70.8777 247.174 71.044 246.888 71.3766C246.601 71.7051 246.457 72.1209 246.457 72.6239V76.2661H245.004V69.8799H246.457V70.9401H246.482C246.96 70.1335 247.651 69.7302 248.553 69.7302C249.247 69.7302 249.777 69.9568 250.143 70.41C250.509 70.859 250.692 71.5097 250.692 72.362V76.2661ZM258.269 76.2661H256.822V75.1809H256.798C256.332 76.0042 255.615 76.4158 254.646 76.4158C253.86 76.4158 253.23 76.131 252.756 75.5614C252.286 74.9876 252.051 74.208 252.051 73.2227C252.051 72.1666 252.311 71.3205 252.831 70.6844C253.355 70.0482 254.051 69.7302 254.92 69.7302C255.781 69.7302 256.407 70.0753 256.798 70.7654H256.822V66.8115H258.269V76.2661ZM256.841 73.3474V72.5117C256.841 72.0585 256.694 71.6739 256.398 71.3579C256.103 71.0419 255.727 70.8839 255.27 70.8839C254.729 70.8839 254.303 71.0856 253.991 71.4889C253.683 71.8922 253.53 72.4514 253.53 73.1665C253.53 73.8151 253.677 74.3286 253.972 74.707C254.272 75.0812 254.673 75.2683 255.176 75.2683C255.671 75.2683 256.072 75.0874 256.38 74.7257C256.687 74.3598 256.841 73.9004 256.841 73.3474ZM267.524 76.4158C266.236 76.4158 265.202 75.9979 264.425 75.1622C263.652 74.3265 263.265 73.2393 263.265 71.9005C263.265 70.4619 263.66 69.3144 264.45 68.4579C265.24 67.6014 266.312 67.1732 267.668 67.1732C268.923 67.1732 269.934 67.5889 270.699 68.4205C271.468 69.252 271.853 70.3393 271.853 71.6822C271.853 73.1416 271.46 74.2954 270.674 75.1435C269.888 75.9917 268.838 76.4158 267.524 76.4158ZM267.593 68.4766C266.774 68.4766 266.107 68.7822 265.591 69.3934C265.08 70.0046 264.824 70.8091 264.824 71.807C264.824 72.8007 265.073 73.601 265.572 74.208C266.071 74.8151 266.724 75.1186 267.531 75.1186C268.387 75.1186 269.063 74.8296 269.558 74.2517C270.052 73.6738 270.3 72.8651 270.3 71.8257C270.3 70.7571 270.059 69.9318 269.576 69.3497C269.098 68.7677 268.437 68.4766 267.593 68.4766ZM279.018 76.2661H277.572V72.6676C277.572 71.4743 277.15 70.8777 276.306 70.8777C275.865 70.8777 275.501 71.044 275.214 71.3766C274.927 71.7051 274.784 72.1209 274.784 72.6239V76.2661H273.331V69.8799H274.784V70.9401H274.809C275.287 70.1335 275.977 69.7302 276.879 69.7302C277.574 69.7302 278.104 69.9568 278.47 70.41C278.836 70.859 279.018 71.5097 279.018 72.362V76.2661ZM287.675 76.1975C287.392 76.3389 287.02 76.4096 286.558 76.4096C285.319 76.4096 284.7 75.815 284.7 74.6259V71.0149H283.634V69.8799H284.7V68.4018L286.147 67.9902V69.8799H287.675V71.0149H286.147V74.208C286.147 74.5864 286.215 74.8566 286.353 75.0188C286.49 75.1809 286.719 75.262 287.039 75.262C287.284 75.262 287.496 75.1913 287.675 75.05V76.1975ZM289.652 68.539C289.415 68.539 289.211 68.4621 289.041 68.3082C288.874 68.1544 288.791 67.959 288.791 67.722C288.791 67.485 288.874 67.2875 289.041 67.1295C289.211 66.9715 289.415 66.8925 289.652 66.8925C289.897 66.8925 290.105 66.9715 290.275 67.1295C290.446 67.2875 290.531 67.485 290.531 67.722C290.531 67.9465 290.446 68.1398 290.275 68.302C290.105 68.46 289.897 68.539 289.652 68.539ZM290.369 76.2661H288.922V69.8799H290.369V76.2661ZM301.813 76.2661H300.366V72.7861C300.366 72.1167 300.271 71.6323 300.079 71.333C299.892 71.0336 299.574 70.8839 299.125 70.8839C298.747 70.8839 298.425 71.0731 298.159 71.4515C297.897 71.8298 297.766 72.283 297.766 72.811V76.2661H296.312V72.6676C296.312 71.4785 295.893 70.8839 295.053 70.8839C294.662 70.8839 294.34 71.0627 294.086 71.4203C293.837 71.7779 293.712 72.2414 293.712 72.811V76.2661H292.265V69.8799H293.712V70.8902H293.737C294.198 70.1168 294.87 69.7302 295.751 69.7302C296.192 69.7302 296.577 69.8528 296.905 70.0981C297.238 70.3393 297.464 70.6573 297.585 71.0523C298.059 70.1709 298.766 69.7302 299.705 69.7302C301.111 69.7302 301.813 70.5971 301.813 72.3308V76.2661ZM308.985 73.4659H304.632C304.649 74.0563 304.83 74.5116 305.175 74.8317C305.524 75.1518 306.002 75.3119 306.609 75.3119C307.291 75.3119 307.917 75.1082 308.486 74.7007V75.867C307.904 76.2329 307.135 76.4158 306.179 76.4158C305.239 76.4158 304.501 76.1268 303.965 75.5489C303.433 74.9668 303.166 74.1498 303.166 73.0979C303.166 72.1042 303.46 71.2956 304.046 70.6719C304.636 70.0441 305.368 69.7302 306.241 69.7302C307.114 69.7302 307.79 70.0108 308.268 70.5721C308.746 71.1334 308.985 71.913 308.985 72.9108V73.4659ZM307.588 72.4431C307.584 71.9234 307.461 71.5201 307.22 71.2332C306.979 70.9421 306.647 70.7966 306.222 70.7966C305.807 70.7966 305.453 70.9484 305.162 71.2519C304.875 71.5554 304.699 71.9525 304.632 72.4431H307.588ZM46.4251 93.2661H44.9782V92.2558H44.9532C44.5333 93.0291 43.8805 93.4158 42.9949 93.4158C41.4857 93.4158 40.7311 92.5094 40.7311 90.6966V86.8799H42.1779V90.547C42.1779 91.6945 42.6207 92.2683 43.5063 92.2683C43.9346 92.2683 44.2859 92.1103 44.5603 91.7943C44.8389 91.4783 44.9782 91.0646 44.9782 90.5532V86.8799H46.4251V93.2661ZM49.7866 92.3244H49.7616V96.2035H48.3147V86.8799H49.7616V88.0024H49.7866C50.2813 87.1543 51.0048 86.7302 51.9569 86.7302C52.7677 86.7302 53.3996 87.015 53.8528 87.5846C54.306 88.1542 54.5326 88.9192 54.5326 89.8796C54.5326 90.944 54.2769 91.7964 53.7655 92.4366C53.2541 93.0769 52.5556 93.3971 51.67 93.3971C50.8551 93.3971 50.2273 93.0395 49.7866 92.3244ZM49.7492 89.8048V90.5969C49.7492 91.0625 49.8968 91.4575 50.192 91.7818C50.4913 92.1061 50.8697 92.2683 51.327 92.2683C51.8634 92.2683 52.2833 92.0604 52.5868 91.6446C52.8945 91.2247 53.0483 90.6405 53.0483 89.8921C53.0483 89.2643 52.9049 88.7737 52.618 88.4203C52.3353 88.0627 51.9507 87.8839 51.4642 87.8839C50.9487 87.8839 50.5329 88.0669 50.2169 88.4328C49.9051 88.7986 49.7492 89.256 49.7492 89.8048ZM61.8169 93.2661H60.3701V92.1809H60.3451C59.8794 93.0042 59.1622 93.4158 58.1935 93.4158C57.4077 93.4158 56.7778 93.131 56.3038 92.5614C55.834 91.9876 55.5991 91.208 55.5991 90.2227C55.5991 89.1666 55.8589 88.3205 56.3786 87.6844C56.9025 87.0482 57.5989 86.7302 58.4679 86.7302C59.3285 86.7302 59.9543 87.0753 60.3451 87.7654H60.3701V83.8115H61.8169V93.2661ZM60.3888 90.3474V89.5117C60.3888 89.0585 60.2412 88.6739 59.946 88.3579C59.6508 88.0419 59.2745 87.8839 58.8171 87.8839C58.2766 87.8839 57.8505 88.0856 57.5386 88.4889C57.231 88.8922 57.0771 89.4514 57.0771 90.1665C57.0771 90.8151 57.2247 91.3286 57.5199 91.707C57.8193 92.0812 58.2205 92.2683 58.7236 92.2683C59.2184 92.2683 59.6196 92.0874 59.9273 91.7257C60.2349 91.3598 60.3888 90.9004 60.3888 90.3474ZM68.6086 93.2661H67.2054V92.2683H67.1804C66.7397 93.0333 66.0932 93.4158 65.2408 93.4158C64.613 93.4158 64.1203 93.2453 63.7628 92.9044C63.4094 92.5635 63.2326 92.1123 63.2326 91.5511C63.2326 90.3453 63.927 89.6427 65.3157 89.4431L67.2116 89.1749C67.2116 88.2644 66.7792 87.8091 65.9144 87.8091C65.1535 87.8091 64.4675 88.071 63.8563 88.5949V87.3289C64.5299 86.9297 65.3074 86.7302 66.1888 86.7302C67.802 86.7302 68.6086 87.5243 68.6086 89.1125V93.2661ZM67.2116 90.1291L65.8707 90.3162C65.455 90.3703 65.141 90.4721 64.929 90.6218C64.7211 90.7673 64.6172 91.0251 64.6172 91.3951C64.6172 91.6654 64.7128 91.8878 64.9041 92.0625C65.0995 92.2329 65.3593 92.3182 65.6836 92.3182C66.1243 92.3182 66.4881 92.1643 66.775 91.8566C67.0661 91.5448 67.2116 91.154 67.2116 90.6842V90.1291ZM73.7475 93.1975C73.4648 93.3389 73.0927 93.4096 72.6312 93.4096C71.3922 93.4096 70.7727 92.815 70.7727 91.6259V88.0149H69.7062V86.8799H70.7727V85.4018L72.2196 84.9902V86.8799H73.7475V88.0149H72.2196V91.208C72.2196 91.5864 72.2882 91.8566 72.4254 92.0188C72.5626 92.1809 72.7913 92.262 73.1114 92.262C73.3567 92.262 73.5687 92.1913 73.7475 92.05V93.1975ZM80.3271 90.4659H75.974C75.9906 91.0563 76.1715 91.5116 76.5166 91.8317C76.8658 92.1518 77.344 92.3119 77.951 92.3119C78.6329 92.3119 79.2586 92.1082 79.8282 91.7007V92.867C79.2461 93.2329 78.4769 93.4158 77.5207 93.4158C76.581 93.4158 75.843 93.1268 75.3067 92.5489C74.7745 91.9668 74.5084 91.1498 74.5084 90.0979C74.5084 89.1042 74.8015 88.2956 75.3878 87.6719C75.9781 87.0441 76.7099 86.7302 77.583 86.7302C78.4562 86.7302 79.1318 87.0108 79.6099 87.5721C80.0881 88.1334 80.3271 88.913 80.3271 89.9108V90.4659ZM78.9301 89.4431C78.926 88.9234 78.8033 88.5201 78.5622 88.2332C78.321 87.9421 77.9884 87.7966 77.5643 87.7966C77.1485 87.7966 76.7951 87.9484 76.5041 88.2519C76.2172 88.5554 76.0405 88.9525 75.974 89.4431H78.9301ZM81.3063 93.0665V91.7257C81.8468 92.1373 82.4434 92.3431 83.0962 92.3431C83.9693 92.3431 84.4059 92.0853 84.4059 91.5698C84.4059 91.4242 84.3684 91.3016 84.2936 91.2018C84.2188 91.0979 84.1169 91.0064 83.988 90.9274C83.8633 90.8484 83.7136 90.7777 83.539 90.7154C83.3685 90.653 83.1772 90.5823 82.9652 90.5033C82.7033 90.3994 82.4663 90.2892 82.2542 90.1728C82.0463 90.0564 81.8717 89.9254 81.7304 89.7799C81.5932 89.6302 81.4892 89.4618 81.4185 89.2747C81.3478 89.0876 81.3125 88.8693 81.3125 88.6199C81.3125 88.3122 81.3853 88.0419 81.5308 87.8091C81.6763 87.5721 81.8717 87.3746 82.117 87.2166C82.3623 87.0545 82.6409 86.9339 82.9527 86.8549C83.2646 86.7718 83.5868 86.7302 83.9194 86.7302C84.5098 86.7302 85.0378 86.8196 85.5035 86.9983V88.2644C85.0545 87.9567 84.5389 87.8029 83.9568 87.8029C83.7739 87.8029 83.6076 87.8216 83.4579 87.859C83.3124 87.8964 83.1876 87.9484 83.0837 88.0149C82.9798 88.0814 82.8987 88.1625 82.8405 88.2581C82.7823 88.3496 82.7532 88.4515 82.7532 88.5637C82.7532 88.7009 82.7823 88.8174 82.8405 88.913C82.8987 89.0086 82.9839 89.0938 83.0962 89.1687C83.2126 89.2394 83.3498 89.3059 83.5078 89.3682C83.6699 89.4265 83.855 89.4909 84.0628 89.5616C84.3372 89.6738 84.5826 89.7882 84.7988 89.9046C85.0191 90.021 85.2062 90.1541 85.36 90.3037C85.5139 90.4493 85.6324 90.6197 85.7155 90.8151C85.7987 91.0064 85.8403 91.2351 85.8403 91.5012C85.8403 91.8255 85.7654 92.1082 85.6157 92.3493C85.4661 92.5905 85.2665 92.7901 85.017 92.948C84.7676 93.106 84.4786 93.2225 84.1502 93.2973C83.8258 93.3763 83.4828 93.4158 83.1211 93.4158C82.4226 93.4158 81.8177 93.2994 81.3063 93.0665Z" fill="white"/>
<path d="M41.7595 29.1793C43.1009 24.9177 47.0927 21.8262 51.8081 21.8262C57.2684 21.8262 61.758 25.9723 62.2864 31.2803L60.1855 30.8527M61.8043 35.4821C61.1279 37.6164 59.7892 39.4797 57.9824 40.8019C56.1756 42.1241 53.9945 42.8363 51.7556 42.8352C46.2954 42.8352 41.8057 38.6891 41.2773 33.3812L43.3783 33.8087" stroke="white" stroke-width="1.54667" stroke-linecap="round" stroke-linejoin="round"/>
<path d="M48.6329 33.9357V36.0282C48.6305 36.1969 48.6708 36.3633 48.7502 36.5121C48.8295 36.6609 48.9453 36.7872 49.0867 36.8791C49.9733 37.4338 50.6466 37.5966 51.7874 37.6312C52.8389 37.6596 53.4986 37.4947 54.4797 36.8812C54.6235 36.7886 54.7413 36.661 54.8222 36.5103C54.903 36.3596 54.9442 36.1908 54.9419 36.0198V33.9357M57.046 31.296V34.4631M46.5824 31.1163C46.9627 30.3138 49.3188 28.9167 51.4691 28.2265C51.6763 28.1607 51.8996 28.1659 52.1036 28.2412C54.0049 28.9366 56.1205 29.9902 56.8884 30.8443C57.2886 31.2907 56.8968 31.86 56.4125 32.212C55.4283 32.9273 54.3432 33.483 52.1498 34.3265C51.9175 34.4155 51.6607 34.4174 51.4271 34.3318C49.1791 33.4967 47.0761 32.4199 46.6003 31.4714C46.5708 31.4173 46.5539 31.3574 46.5508 31.2959C46.5477 31.2344 46.5585 31.1731 46.5824 31.1163Z" stroke="white" stroke-width="1.54667" stroke-linecap="round" stroke-linejoin="round"/>
</svg>
