<svg width="1563" height="1498" viewBox="0 0 1563 1498" fill="none" xmlns="http://www.w3.org/2000/svg">
<path d="M781.626 1496.86C1212.2 1496.86 1561.25 1162.22 1561.25 749.429C1561.25 336.635 1212.2 2 781.626 2C351.05 2 2 336.635 2 749.429C2 1162.22 351.05 1496.86 781.626 1496.86Z" stroke="url(#paint0_linear_433_368)" stroke-opacity="0.25" stroke-width="2.30234" stroke-miterlimit="10"/>
<path d="M781.626 1467.97C1195.56 1467.97 1531.12 1146.27 1531.12 749.429C1531.12 352.588 1195.56 30.884 781.626 30.884C367.689 30.884 32.1279 352.588 32.1279 749.429C32.1279 1146.27 367.689 1467.97 781.626 1467.97Z" stroke="url(#paint1_linear_433_368)" stroke-opacity="0.25" stroke-width="2.30234" stroke-miterlimit="10"/>
<path d="M781.625 1439.08C1178.92 1439.08 1500.99 1130.31 1500.99 749.429C1500.99 368.544 1178.92 59.7762 781.625 59.7762C384.333 59.7762 62.2646 368.544 62.2646 749.429C62.2646 1130.31 384.333 1439.08 781.625 1439.08Z" stroke="url(#paint2_linear_433_368)" stroke-opacity="0.25" stroke-width="2.30234" stroke-miterlimit="10"/>
<path d="M781.625 1410.2C1162.28 1410.2 1470.86 1114.36 1470.86 749.429C1470.86 384.496 1162.28 88.6602 781.625 88.6602C400.973 88.6602 92.3926 384.496 92.3926 749.429C92.3926 1114.36 400.973 1410.2 781.625 1410.2Z" stroke="url(#paint3_linear_433_368)" stroke-opacity="0.25" stroke-width="2.30234" stroke-miterlimit="10"/>
<path d="M781.626 1381.31C1145.64 1381.31 1440.73 1098.41 1440.73 749.429C1440.73 400.449 1145.64 117.544 781.626 117.544C417.613 117.544 122.521 400.449 122.521 749.429C122.521 1098.41 417.613 1381.31 781.626 1381.31Z" stroke="url(#paint4_linear_433_368)" stroke-opacity="0.25" stroke-width="2.30234" stroke-miterlimit="10"/>
<path d="M781.626 1352.43C1129 1352.43 1410.6 1082.46 1410.6 749.429C1410.6 416.401 1129 146.428 781.626 146.428C434.252 146.428 152.649 416.401 152.649 749.429C152.649 1082.46 434.252 1352.43 781.626 1352.43Z" stroke="url(#paint5_linear_433_368)" stroke-opacity="0.25" stroke-width="2.30234" stroke-miterlimit="10"/>
<path d="M781.625 1323.54C1112.36 1323.54 1380.46 1066.5 1380.46 749.429C1380.46 432.358 1112.36 175.32 781.625 175.32C450.896 175.32 182.786 432.358 182.786 749.429C182.786 1066.5 450.896 1323.54 781.625 1323.54Z" stroke="url(#paint6_linear_433_368)" stroke-opacity="0.25" stroke-width="2.30234" stroke-miterlimit="10"/>
<path d="M781.625 1294.65C1095.72 1294.65 1350.34 1050.55 1350.34 749.429C1350.34 448.31 1095.72 204.204 781.625 204.204C467.535 204.204 212.914 448.31 212.914 749.429C212.914 1050.55 467.535 1294.65 781.625 1294.65Z" stroke="url(#paint7_linear_433_368)" stroke-opacity="0.25" stroke-width="2.30234" stroke-miterlimit="10"/>
<path d="M781.626 1265.77C1079.08 1265.77 1320.21 1034.6 1320.21 749.429C1320.21 464.262 1079.08 233.089 781.626 233.089C484.175 233.089 243.043 464.262 243.043 749.429C243.043 1034.6 484.175 1265.77 781.626 1265.77Z" stroke="url(#paint8_linear_433_368)" stroke-opacity="0.25" stroke-width="2.30234" stroke-miterlimit="10"/>
<path d="M781.626 1236.89C1062.44 1236.89 1290.08 1018.64 1290.08 749.429C1290.08 480.214 1062.44 261.972 781.626 261.972C500.814 261.972 273.171 480.214 273.171 749.429C273.171 1018.64 500.814 1236.89 781.626 1236.89Z" stroke="url(#paint9_linear_433_368)" stroke-opacity="0.25" stroke-width="2.30234" stroke-miterlimit="10"/>
<path d="M781.625 1207.99C1045.79 1207.99 1259.94 1002.69 1259.94 749.429C1259.94 496.171 1045.79 290.865 781.625 290.865C517.458 290.865 303.308 496.171 303.308 749.429C303.308 1002.69 517.458 1207.99 781.625 1207.99Z" stroke="url(#paint10_linear_433_368)" stroke-opacity="0.25" stroke-width="2.30234" stroke-miterlimit="10"/>
<path d="M781.625 1179.11C1029.15 1179.11 1229.81 986.735 1229.81 749.429C1229.81 512.123 1029.15 319.749 781.625 319.749C534.097 319.749 333.436 512.123 333.436 749.429C333.436 986.735 534.097 1179.11 781.625 1179.11Z" stroke="url(#paint11_linear_433_368)" stroke-opacity="0.25" stroke-width="2.30234" stroke-miterlimit="10"/>
<path d="M781.626 1150.23C1012.51 1150.23 1199.69 970.783 1199.69 749.429C1199.69 528.075 1012.51 348.633 781.626 348.633C550.737 348.633 363.564 528.075 363.564 749.429C363.564 970.783 550.737 1150.23 781.626 1150.23Z" stroke="url(#paint12_linear_433_368)" stroke-opacity="0.25" stroke-width="2.30234" stroke-miterlimit="10"/>
<path d="M781.626 1121.34C995.875 1121.34 1169.56 954.831 1169.56 749.429C1169.56 544.027 995.875 377.517 781.626 377.517C567.376 377.517 393.692 544.027 393.692 749.429C393.692 954.831 567.376 1121.34 781.626 1121.34Z" stroke="url(#paint13_linear_433_368)" stroke-opacity="0.25" stroke-width="2.30234" stroke-miterlimit="10"/>
<path d="M781.625 1092.45C979.231 1092.45 1139.42 938.874 1139.42 749.429C1139.42 559.984 979.231 406.409 781.625 406.409C584.02 406.409 423.829 559.984 423.829 749.429C423.829 938.874 584.02 1092.45 781.625 1092.45Z" stroke="url(#paint14_linear_433_368)" stroke-opacity="0.25" stroke-width="2.30234" stroke-miterlimit="10"/>
<path d="M781.625 1063.57C962.591 1063.57 1109.29 922.922 1109.29 749.429C1109.29 575.936 962.591 435.293 781.625 435.293C600.659 435.293 453.957 575.936 453.957 749.429C453.957 922.922 600.659 1063.57 781.625 1063.57Z" stroke="url(#paint15_linear_433_368)" stroke-opacity="0.25" stroke-width="2.30234" stroke-miterlimit="10"/>
<path d="M781.626 1034.68C945.953 1034.68 1079.17 906.969 1079.17 749.429C1079.17 591.889 945.953 464.177 781.626 464.177C617.299 464.177 484.086 591.889 484.086 749.429C484.086 906.969 617.299 1034.68 781.626 1034.68Z" stroke="url(#paint16_linear_433_368)" stroke-opacity="0.25" stroke-width="2.30234" stroke-miterlimit="10"/>
<path d="M781.626 1005.8C929.313 1005.8 1049.04 891.017 1049.04 749.429C1049.04 607.841 929.313 493.061 781.626 493.061C633.938 493.061 514.214 607.841 514.214 749.429C514.214 891.017 633.938 1005.8 781.626 1005.8Z" stroke="url(#paint17_linear_433_368)" stroke-opacity="0.25" stroke-width="2.30234" stroke-miterlimit="10"/>
<path d="M781.625 976.905C912.669 976.905 1018.9 875.06 1018.9 749.429C1018.9 623.798 912.669 521.953 781.625 521.953C650.582 521.953 544.351 623.798 544.351 749.429C544.351 875.06 650.582 976.905 781.625 976.905Z" stroke="url(#paint18_linear_433_368)" stroke-opacity="0.25" stroke-width="2.30234" stroke-miterlimit="10"/>
<path d="M781.625 948.021C896.029 948.021 988.772 859.108 988.772 749.429C988.772 639.75 896.029 550.837 781.625 550.837C667.221 550.837 574.479 639.75 574.479 749.429C574.479 859.108 667.221 948.021 781.625 948.021Z" stroke="url(#paint19_linear_433_368)" stroke-opacity="0.25" stroke-width="2.30234" stroke-miterlimit="10"/>
<path d="M781.625 919.137C879.389 919.137 958.643 843.156 958.643 749.429C958.643 655.702 879.389 579.721 781.625 579.721C683.86 579.721 604.606 655.702 604.606 749.429C604.606 843.156 683.86 919.137 781.625 919.137Z" stroke="url(#paint20_linear_433_368)" stroke-opacity="0.25" stroke-width="2.30234" stroke-miterlimit="10"/>
<path d="M781.626 890.253C862.751 890.253 928.516 827.204 928.516 749.429C928.516 671.654 862.751 608.605 781.626 608.605C700.5 608.605 634.735 671.654 634.735 749.429C634.735 827.204 700.5 890.253 781.626 890.253Z" stroke="url(#paint21_linear_433_368)" stroke-opacity="0.25" stroke-width="2.30234" stroke-miterlimit="10"/>
<path d="M781.625 861.361C846.106 861.361 898.379 811.247 898.379 749.429C898.379 687.611 846.106 637.497 781.625 637.497C717.144 637.497 664.872 687.611 664.872 749.429C664.872 811.247 717.144 861.361 781.625 861.361Z" stroke="url(#paint22_linear_433_368)" stroke-opacity="0.25" stroke-width="2.30234" stroke-miterlimit="10"/>
<path d="M781.625 832.477C829.467 832.477 868.25 795.295 868.25 749.429C868.25 703.563 829.467 666.381 781.625 666.381C733.783 666.381 695 703.563 695 749.429C695 795.295 733.783 832.477 781.625 832.477Z" stroke="url(#paint23_linear_433_368)" stroke-opacity="0.25" stroke-width="2.30234" stroke-miterlimit="10"/>
<defs>
<linearGradient id="paint0_linear_433_368" x1="781.626" y1="2" x2="781.626" y2="1496.86" gradientUnits="userSpaceOnUse">
<stop stop-color="#C87121"/>
<stop offset="1" stop-color="#C87121" stop-opacity="0"/>
</linearGradient>
<linearGradient id="paint1_linear_433_368" x1="781.626" y1="30.884" x2="781.626" y2="1467.97" gradientUnits="userSpaceOnUse">
<stop stop-color="#C87121"/>
<stop offset="1" stop-color="#C87121" stop-opacity="0"/>
</linearGradient>
<linearGradient id="paint2_linear_433_368" x1="781.626" y1="59.7762" x2="781.626" y2="1439.08" gradientUnits="userSpaceOnUse">
<stop stop-color="#C87121"/>
<stop offset="1" stop-color="#C87121" stop-opacity="0"/>
</linearGradient>
<linearGradient id="paint3_linear_433_368" x1="781.625" y1="88.6602" x2="781.625" y2="1410.2" gradientUnits="userSpaceOnUse">
<stop stop-color="#C87121"/>
<stop offset="1" stop-color="#C87121" stop-opacity="0"/>
</linearGradient>
<linearGradient id="paint4_linear_433_368" x1="781.626" y1="117.544" x2="781.626" y2="1381.31" gradientUnits="userSpaceOnUse">
<stop stop-color="#C87121"/>
<stop offset="1" stop-color="#C87121" stop-opacity="0"/>
</linearGradient>
<linearGradient id="paint5_linear_433_368" x1="781.626" y1="146.428" x2="781.626" y2="1352.43" gradientUnits="userSpaceOnUse">
<stop stop-color="#C87121"/>
<stop offset="1" stop-color="#C87121" stop-opacity="0"/>
</linearGradient>
<linearGradient id="paint6_linear_433_368" x1="781.625" y1="175.32" x2="781.625" y2="1323.54" gradientUnits="userSpaceOnUse">
<stop stop-color="#C87121"/>
<stop offset="1" stop-color="#C87121" stop-opacity="0"/>
</linearGradient>
<linearGradient id="paint7_linear_433_368" x1="781.625" y1="204.204" x2="781.625" y2="1294.65" gradientUnits="userSpaceOnUse">
<stop stop-color="#C87121"/>
<stop offset="1" stop-color="#C87121" stop-opacity="0"/>
</linearGradient>
<linearGradient id="paint8_linear_433_368" x1="781.626" y1="233.089" x2="781.626" y2="1265.77" gradientUnits="userSpaceOnUse">
<stop stop-color="#C87121"/>
<stop offset="1" stop-color="#C87121" stop-opacity="0"/>
</linearGradient>
<linearGradient id="paint9_linear_433_368" x1="781.626" y1="261.972" x2="781.626" y2="1236.89" gradientUnits="userSpaceOnUse">
<stop stop-color="#C87121"/>
<stop offset="1" stop-color="#C87121" stop-opacity="0"/>
</linearGradient>
<linearGradient id="paint10_linear_433_368" x1="781.625" y1="290.865" x2="781.625" y2="1207.99" gradientUnits="userSpaceOnUse">
<stop stop-color="#C87121"/>
<stop offset="1" stop-color="#C87121" stop-opacity="0"/>
</linearGradient>
<linearGradient id="paint11_linear_433_368" x1="781.625" y1="319.749" x2="781.625" y2="1179.11" gradientUnits="userSpaceOnUse">
<stop stop-color="#C87121"/>
<stop offset="1" stop-color="#C87121" stop-opacity="0"/>
</linearGradient>
<linearGradient id="paint12_linear_433_368" x1="781.626" y1="348.633" x2="781.626" y2="1150.23" gradientUnits="userSpaceOnUse">
<stop stop-color="#C87121"/>
<stop offset="1" stop-color="#C87121" stop-opacity="0"/>
</linearGradient>
<linearGradient id="paint13_linear_433_368" x1="781.626" y1="377.517" x2="781.626" y2="1121.34" gradientUnits="userSpaceOnUse">
<stop stop-color="#C87121"/>
<stop offset="1" stop-color="#C87121" stop-opacity="0"/>
</linearGradient>
<linearGradient id="paint14_linear_433_368" x1="781.625" y1="406.409" x2="781.625" y2="1092.45" gradientUnits="userSpaceOnUse">
<stop stop-color="#C87121"/>
<stop offset="1" stop-color="#C87121" stop-opacity="0"/>
</linearGradient>
<linearGradient id="paint15_linear_433_368" x1="781.625" y1="435.293" x2="781.625" y2="1063.57" gradientUnits="userSpaceOnUse">
<stop stop-color="#C87121"/>
<stop offset="1" stop-color="#C87121" stop-opacity="0"/>
</linearGradient>
<linearGradient id="paint16_linear_433_368" x1="781.626" y1="464.177" x2="781.626" y2="1034.68" gradientUnits="userSpaceOnUse">
<stop stop-color="#C87121"/>
<stop offset="1" stop-color="#C87121" stop-opacity="0"/>
</linearGradient>
<linearGradient id="paint17_linear_433_368" x1="781.626" y1="493.061" x2="781.626" y2="1005.8" gradientUnits="userSpaceOnUse">
<stop stop-color="#C87121"/>
<stop offset="1" stop-color="#C87121" stop-opacity="0"/>
</linearGradient>
<linearGradient id="paint18_linear_433_368" x1="781.625" y1="521.953" x2="781.625" y2="976.905" gradientUnits="userSpaceOnUse">
<stop stop-color="#C87121"/>
<stop offset="1" stop-color="#C87121" stop-opacity="0"/>
</linearGradient>
<linearGradient id="paint19_linear_433_368" x1="781.625" y1="550.837" x2="781.625" y2="948.021" gradientUnits="userSpaceOnUse">
<stop stop-color="#C87121"/>
<stop offset="1" stop-color="#C87121" stop-opacity="0"/>
</linearGradient>
<linearGradient id="paint20_linear_433_368" x1="781.625" y1="579.721" x2="781.625" y2="919.137" gradientUnits="userSpaceOnUse">
<stop stop-color="#C87121"/>
<stop offset="1" stop-color="#C87121" stop-opacity="0"/>
</linearGradient>
<linearGradient id="paint21_linear_433_368" x1="781.626" y1="608.605" x2="781.626" y2="890.253" gradientUnits="userSpaceOnUse">
<stop stop-color="#C87121"/>
<stop offset="1" stop-color="#C87121" stop-opacity="0"/>
</linearGradient>
<linearGradient id="paint22_linear_433_368" x1="781.625" y1="637.497" x2="781.625" y2="861.361" gradientUnits="userSpaceOnUse">
<stop stop-color="#C87121"/>
<stop offset="1" stop-color="#C87121" stop-opacity="0"/>
</linearGradient>
<linearGradient id="paint23_linear_433_368" x1="781.625" y1="666.381" x2="781.625" y2="832.477" gradientUnits="userSpaceOnUse">
<stop stop-color="#C87121"/>
<stop offset="1" stop-color="#C87121" stop-opacity="0"/>
</linearGradient>
</defs>
</svg>
