<svg width="80" height="80" viewBox="0 0 80 80" fill="none" xmlns="http://www.w3.org/2000/svg">
<circle cx="40" cy="40" r="39" fill="#2E1A00" stroke="#FF6A00" stroke-width="2"/>
<path d="M41.1036 38.0062C41.6343 38.0139 42.1614 37.916 42.654 37.7183C43.1466 37.5205 43.595 37.2267 43.9731 36.8541C44.3512 36.4815 44.6514 36.0374 44.8563 35.5477C45.0612 35.058 45.1667 34.5324 45.1666 34.0015C45.1666 32.9394 44.7447 31.9209 43.9937 31.1698C43.2427 30.4188 42.2241 29.9969 41.162 29.9969H34.9943C34.6067 29.9969 34.235 30.1509 33.9609 30.425C33.6868 30.6991 33.5328 31.0708 33.5328 31.4585V46.0738C33.5328 46.4615 33.6868 46.8332 33.9609 47.1073C34.235 47.3814 34.6067 47.5354 34.9943 47.5354H41.1036C42.3595 47.5354 43.5639 47.0365 44.452 46.1484C45.34 45.2604 45.8389 44.0559 45.8389 42.8C45.8389 41.5441 45.34 40.3396 44.452 39.4516C43.5639 38.5635 42.3595 38.0646 41.1036 38.0646V38.0062Z" fill="#2E1A00"/>
<path d="M38.5312 58C49.0247 58 57.5312 49.4934 57.5312 39C57.5312 28.5066 49.0247 20 38.5312 20C28.0378 20 19.5312 28.5066 19.5312 39C19.5312 49.4934 28.0378 58 38.5312 58Z" fill="#2E1A00"/>
<path d="M41.162 38.0062H33.5328M36.3097 29.9969V27.3077M40.8113 29.9969V27.3077M36.3097 50.6923V47.4769M40.8113 50.6923V47.4769M41.1036 38.0062C41.6344 38.0139 42.1614 37.916 42.654 37.7183C43.1466 37.5205 43.595 37.2267 43.9731 36.8541C44.3512 36.4815 44.6514 36.0374 44.8563 35.5477C45.0612 35.058 45.1667 34.5324 45.1666 34.0015C45.1666 32.9394 44.7447 31.9209 43.9937 31.1698C43.2427 30.4188 42.2241 29.9969 41.162 29.9969H34.9943C34.6067 29.9969 34.235 30.1509 33.9609 30.425C33.6868 30.6991 33.5328 31.0708 33.5328 31.4585V46.0738C33.5328 46.4615 33.6868 46.8332 33.9609 47.1073C34.235 47.3814 34.6067 47.5354 34.9943 47.5354H41.1036C42.3595 47.5354 43.5639 47.0365 44.452 46.1484C45.34 45.2604 45.8389 44.0559 45.8389 42.8C45.8389 41.5441 45.34 40.3396 44.452 39.4516C43.5639 38.5635 42.3595 38.0646 41.1036 38.0646V38.0062ZM57.5312 39C57.5312 49.4934 49.0247 58 38.5312 58C28.0378 58 19.5312 49.4934 19.5312 39C19.5312 28.5066 28.0378 20 38.5312 20C49.0247 20 57.5312 28.5066 57.5312 39Z" stroke="#FF6A00" stroke-width="2" stroke-linecap="round" stroke-linejoin="round"/>
</svg>
