<svg width="1512" height="925" viewBox="0 0 1512 925" fill="none" xmlns="http://www.w3.org/2000/svg">
<path d="M840.182 0V504.704M1008.14 0V504.704M1176.09 0V504.704M1344.05 0V504.704M1512 167.955L672.227 167.955M1512 335.909H672.227" stroke="#292E37"/>
<path d="M835.143 162.916L845.22 172.993M845.22 162.916L835.143 172.993" stroke="#292E37" stroke-linecap="round" stroke-linejoin="round"/>
<path d="M1171.05 330.871L1181.13 340.948M1181.13 330.871L1171.05 340.948" stroke="#292E37" stroke-linecap="round" stroke-linejoin="round"/>
<path d="M1339.01 162.916L1349.08 172.993M1349.08 162.916L1339.01 172.993" stroke="#292E37" stroke-linecap="round" stroke-linejoin="round"/>
<rect x="1176.09" y="167.955" width="167.955" height="167.955" fill="#292E37" fill-opacity="0.08"/>
<rect x="840.182" width="167.955" height="167.955" fill="#292E37" fill-opacity="0.08"/>
<rect x="1008.14" y="335.909" width="167.955" height="167.955" fill="#292E37" fill-opacity="0.08"/>
<path d="M1008 170V290" stroke="url(#paint0_linear_377_334)"/>
<path d="M840 357V477" stroke="url(#paint1_linear_377_334)"/>
<path d="M1344 290V410" stroke="url(#paint2_linear_377_334)"/>
<path d="M167.955 503.909V335.955L335.909 335.955H503.864L671.818 335.955V503.909H503.864H335.909H167.955Z" fill="#292E37" fill-opacity="0.06"/>
<path d="M167.955 168V672.704M335.909 168V672.704M503.864 168V672.704M671.818 168V672.704M839.773 335.955L0 335.955M839.773 503.909H0" stroke="#1D1E1F" stroke-opacity="0.5"/>
<rect x="503.864" y="335.955" width="167.955" height="167.955" fill="#292E37" fill-opacity="0.06"/>
<rect x="167.955" y="168" width="167.955" height="167.955" fill="#292E37" fill-opacity="0.06"/>
<rect x="168.455" y="168.5" width="166.955" height="166.955" stroke="#1D1E1F" stroke-opacity="0.5"/>
<rect x="335.909" y="503.909" width="167.955" height="167.955" fill="#292E37" fill-opacity="0.06"/>
<path d="M168 195V315" stroke="url(#paint3_linear_377_334)"/>
<path d="M504 420V540" stroke="url(#paint4_linear_377_334)"/>
<path d="M672 190V310" stroke="url(#paint5_linear_377_334)"/>
<path d="M873 924H1392" stroke="#292E37" stroke-linecap="round" stroke-linejoin="round"/>
<defs>
<linearGradient id="paint0_linear_377_334" x1="1008.5" y1="170" x2="1008.5" y2="290" gradientUnits="userSpaceOnUse">
<stop stop-color="#292E37"/>
<stop offset="0.47" stop-color="white"/>
<stop offset="1" stop-color="#292E37"/>
</linearGradient>
<linearGradient id="paint1_linear_377_334" x1="840.5" y1="357" x2="840.5" y2="477" gradientUnits="userSpaceOnUse">
<stop stop-color="#292E37"/>
<stop offset="0.47" stop-color="white"/>
<stop offset="1" stop-color="#292E37"/>
</linearGradient>
<linearGradient id="paint2_linear_377_334" x1="1344.5" y1="290" x2="1344.5" y2="410" gradientUnits="userSpaceOnUse">
<stop stop-color="#292E37"/>
<stop offset="0.47" stop-color="white"/>
<stop offset="1" stop-color="#292E37"/>
</linearGradient>
<linearGradient id="paint3_linear_377_334" x1="168.5" y1="195" x2="168.5" y2="315" gradientUnits="userSpaceOnUse">
<stop stop-color="#292E37"/>
<stop offset="0.47" stop-color="white"/>
<stop offset="1" stop-color="#292E37"/>
</linearGradient>
<linearGradient id="paint4_linear_377_334" x1="504.5" y1="420" x2="504.5" y2="540" gradientUnits="userSpaceOnUse">
<stop stop-color="#292E37"/>
<stop offset="0.47" stop-color="white"/>
<stop offset="1" stop-color="#292E37"/>
</linearGradient>
<linearGradient id="paint5_linear_377_334" x1="672.5" y1="190" x2="672.5" y2="310" gradientUnits="userSpaceOnUse">
<stop stop-color="#292E37"/>
<stop offset="0.47" stop-color="white"/>
<stop offset="1" stop-color="#292E37"/>
</linearGradient>
</defs>
</svg>
